<?xml version="1.0" standalone="no"?>
<!DOCTYPE svg PUBLIC "-//W3C//DTD SVG 1.1//EN" "http://www.w3.org/Graphics/SVG/1.1/DTD/svg11.dtd" >
<svg>
<metadata>
Created by FontForge 20090622 at Mon Oct 10 14:59:22 2016
 By deploy user
Copyright (c) 2011 by The Bank of Nova Scotia. All rights reserved.
</metadata>
<defs>
<font id="ScotiabankModern-Bold" horiz-adv-x="574" >
  <font-face 
    font-family="Scotiabank Modern"
    font-weight="700"
    font-stretch="normal"
    units-per-em="1000"
    panose-1="2 0 0 0 0 0 0 0 0 0"
    ascent="769"
    descent="-231"
    x-height="504"
    cap-height="691"
    bbox="-164 -190 1092 900"
    underline-thickness="112"
    underline-position="-17"
    unicode-range="U+000D-U+FB04"
  />
<missing-glyph horiz-adv-x="510" 
d="M21 6v707h468v-707h-468zM130 100h250v519h-250v-519z" />
    <glyph glyph-name="fi" unicode="fi" horiz-adv-x="579" 
d="M357 658q0 -20 -14 -38.5t-37 -18.5q-7 0 -13 1t-11 2l-10 2t-13 1q-20 0 -27.5 -16.5t-7.5 -55.5v-27h72q27 0 41 -18t14 -39t-13.5 -38t-41.5 -17h-72v-344q0 -23 -19 -38.5t-45 -15.5t-44.5 15.5t-18.5 38.5v344h-37q-27 0 -41 18t-14 39t13.5 38t41.5 17h37v22
q0 33 3 54.5t11 40.5q17 41 54.5 67.5t91.5 26.5q45 0 72.5 -14.5t27.5 -46.5zM531 52q0 -24 -18.5 -39t-44.5 -15t-44.5 15t-18.5 39v407q0 23 18.5 38.5t44.5 15.5t44.5 -15.5t18.5 -38.5v-407zM399 647q0 29 20 49t49 20t49 -20t20 -49t-20 -49t-49 -20t-49 20t-20 49z
" />
    <glyph glyph-name="fl" unicode="fl" horiz-adv-x="579" 
d="M531 52q0 -23 -18.5 -38.5t-44.5 -15.5t-44.5 15.5t-18.5 38.5v610q0 23 18.5 38.5t44.5 15.5t44.5 -15.5t18.5 -38.5v-610zM355 658q0 -20 -13 -38.5t-36 -18.5q-7 0 -13 1t-11 2l-10 2t-13 1q-20 0 -27.5 -16.5t-7.5 -55.5v-27h72q27 0 41 -18t14 -39t-13.5 -38
t-41.5 -17h-72v-344q0 -23 -19 -38.5t-45 -15.5t-44.5 15.5t-18.5 38.5v344h-37q-27 0 -41 18t-14 39t13.5 38t41.5 17h37v22q0 33 3 54.5t11 40.5q17 41 54.5 67.5t91.5 26.5q45 0 71.5 -14.5t26.5 -46.5z" />
    <glyph glyph-name=".notdef" horiz-adv-x="510" 
d="M21 6v707h468v-707h-468zM130 100h250v519h-250v-519z" />
    <glyph glyph-name="Eth" unicode="&#xd0;" horiz-adv-x="676" 
d="M66 398v230q0 22 18.5 40t45.5 18h148q72 0 136 -23.5t112 -68t76 -107.5t28 -142q0 -75 -26 -137.5t-72.5 -107.5t-110 -70t-138.5 -25h-153q-26 0 -45 14.5t-19 35.5v241h-4q-24 0 -41 15t-17 36q0 20 17 35.5t41 15.5h4zM196 571v-173h54q24 0 41.5 -15.5t17.5 -35.5
q0 -21 -17.5 -36t-41.5 -15h-54v-176h89q47 0 85.5 16.5t66 46.5t42.5 71t15 91q0 48 -14.5 89.5t-41.5 72t-67 47.5t-91 17h-84z" />
    <glyph glyph-name="eth" unicode="&#xf0;" horiz-adv-x="543" 
d="M351 710q18 9 33 9q23 0 38 -15t15 -35q0 -12 -7 -23.5t-22 -19.5l-24 -13q63 -68 96 -155t33 -181q0 -57 -13 -100.5t-33.5 -74.5t-46.5 -52t-53 -33t-52 -17t-43 -5q-60 0 -105 23t-75.5 59t-46 81.5t-15.5 90.5q0 55 17 101.5t47 80t71 52t89 18.5q23 0 43 -4t37 -12
q-11 19 -28 39t-28 31l-74 -38q-13 -7 -29 -7q-21 0 -37.5 13.5t-16.5 37.5q0 14 7 25t23 19l21 10l-31 4q-22 3 -35.5 17.5t-13.5 32.5q0 20 15.5 35t40.5 15q35 0 72 -10.5t72 -29.5zM160 249q0 -30 6.5 -57.5t20 -48.5t35 -33.5t50.5 -12.5q18 0 37.5 7t36 25.5t27.5 51
t11 82.5q0 28 -6 53t-19.5 44t-34.5 30t-51 11q-29 0 -50 -12.5t-35 -33.5t-21 -48.5t-7 -57.5z" />
    <glyph glyph-name="Lslash" unicode="&#x141;" horiz-adv-x="518" 
d="M213 288v-168h221q30 0 45 -17.5t15 -38.5t-15 -40t-45 -19h-287q-13 0 -24.5 5t-20.5 13.5t-14 18.5t-5 20v157q-14 -7 -30 -7q-21 0 -37 15t-16 38q0 14 7.5 26.5t21.5 20.5l54 28v295q0 24 19 40t46 16t46 -16t19 -40v-225l79 42q20 11 37 11q20 0 36 -16t16 -38
q0 -14 -8 -26.5t-21 -20.5z" />
    <glyph glyph-name="lslash" unicode="&#x142;" horiz-adv-x="303" 
d="M214 454l6 3q18 11 37 11q20 0 36 -16t16 -38q0 -14 -8 -27t-21 -20l-66 -35v-280q0 -23 -18.5 -38.5t-44.5 -15.5t-44.5 15.5t-18.5 38.5v212l-5 -2q-17 -10 -35 -10q-21 0 -37 15t-16 38q0 14 7.5 26.5t21.5 20.5l64 34v279q0 23 18.5 38.5t44.5 15.5t44.5 -15.5
t18.5 -38.5v-211z" />
    <glyph glyph-name="Scaron" unicode="&#x160;" 
d="M289 109q48 0 81 22.5t33 57.5q0 12 -6 25t-21.5 26t-42.5 26t-69 27l-25 8q-102 32 -146.5 84t-44.5 118q0 45 18 81t49.5 60.5t75 38t94.5 13.5q50 0 92 -12.5t72 -32t46.5 -42.5t16.5 -43q0 -25 -17.5 -43t-44.5 -18q-15 0 -28 7t-33 26t-44.5 31.5t-61.5 12.5
q-48 0 -77 -21t-29 -52q0 -29 30 -51t94 -43l24 -8q61 -20 101 -44t63.5 -50t33 -54.5t9.5 -58.5q0 -48 -20 -86t-54 -64.5t-79 -40.5t-94 -14q-55 0 -101.5 16t-80.5 40t-53 53t-19 56q0 24 19 40t41 16q14 0 28 -5t28 -22q34 -42 66 -61t76 -19zM343 883q18 17 39 17
q20 0 33.5 -14.5t13.5 -34.5q0 -9 -4.5 -20t-20.5 -25l-70 -63q-21 -20 -47 -20t-47 20l-70 63q-16 14 -20.5 25t-4.5 20q0 20 13.5 34.5t33.5 14.5q21 0 39 -17l56 -52z" />
    <glyph glyph-name="scaron" unicode="&#x161;" horiz-adv-x="454" 
d="M283 702q18 17 39 17q20 0 33.5 -14.5t13.5 -34.5q0 -9 -4.5 -20t-20.5 -25l-70 -63q-21 -20 -47 -20t-47 20l-70 63q-16 14 -20.5 25t-4.5 20q0 20 13.5 34.5t33.5 14.5q21 0 39 -17l56 -52zM217 408q-23 0 -38 -13t-15 -30q0 -9 3 -16t11.5 -13.5t23.5 -12.5t38 -12
l19 -5q48 -13 79 -30t48.5 -37t24 -42.5t6.5 -46.5q0 -35 -16 -63.5t-42.5 -49t-61.5 -31.5t-73 -11q-43 0 -78.5 11.5t-59.5 28.5q-29 20 -41.5 42t-12.5 43q0 23 15.5 38t40.5 15q14 0 27 -6t24 -20q19 -25 44.5 -36t47.5 -11q29 0 45 14t16 33q0 7 -3 14.5t-12.5 15.5
t-27 15.5t-45.5 15.5l-19 5q-82 22 -113.5 60t-31.5 87q0 35 14 63t38.5 48t58.5 31t73 11q36 0 68.5 -8t56.5 -22t38.5 -32.5t14.5 -38.5q0 -23 -15 -39.5t-38 -16.5q-13 0 -26.5 5t-27.5 16q-37 31 -78 31z" />
    <glyph glyph-name="Yacute" unicode="&#xdd;" horiz-adv-x="602" 
d="M235 282l-56 83.5l-58.5 87.5l-52.5 79.5l-37 57.5q-8 15 -10.5 23.5t-2.5 17.5q0 10 4 20.5t12 19.5t20 15t28 6q14 0 31.5 -7t27.5 -23l18 -28l67 -107.5t77 -116.5q15 21 33 49l36.5 58l36.5 59l32 52l20 32q11 19 25.5 25.5t28.5 6.5q16 0 29 -6t22 -15t13.5 -19.5
t4.5 -20.5q0 -9 -3.5 -17.5t-11.5 -22.5l-78 -119l-33.5 -50.5l-34 -51.5l-31.5 -47.5l-27 -40.5v-227q0 -24 -19 -40.5t-46 -16.5t-46 16.5t-19 40.5v227zM367 891q8 5 16.5 7t16.5 2q23 0 38 -14.5t15 -34.5q0 -14 -8.5 -28t-28.5 -26l-105 -61q-8 -5 -16.5 -7t-16.5 -2
q-23 0 -38 14.5t-15 34.5q0 14 8.5 28.5t28.5 25.5z" />
    <glyph glyph-name="yacute" unicode="&#xfd;" horiz-adv-x="504" 
d="M284 -34q-22 -45 -43.5 -75t-43 -48t-43 -25.5t-43.5 -7.5q-30 0 -46 18.5t-16 38.5q0 16 10 31t34 26q13 6 23.5 12.5t19.5 16t18 23t20 33.5l15 28l-17 35q-38 77 -73 165.5l-69 182.5q-4 11 -6.5 19.5t-2.5 16.5q0 26 20 41.5t45 15.5q17 0 32.5 -9t23.5 -27
q29 -73 55 -147t58 -149l22.5 58l23.5 64l26 74.5l31 90.5q8 23 23 34t41 11q28 0 44.5 -17.5t16.5 -38.5q0 -8 -3.5 -22.5t-12.5 -39.5q-32 -86 -69.5 -177.5t-77.5 -176.5zM313 710q8 5 16.5 7t16.5 2q23 0 38 -14.5t15 -34.5q0 -14 -8.5 -28t-28.5 -26l-105 -61
q-8 -5 -16.5 -7t-16.5 -2q-23 0 -38 14.5t-15 34.5q0 14 8.5 28.5t28.5 25.5z" />
    <glyph glyph-name="Thorn" unicode="&#xde;" horiz-adv-x="540" 
d="M66 635q0 24 19 40t46 16t46 -16t19 -40v-76h56q26 0 45.5 -1t35 -3.5t29 -6t27.5 -8.5q31 -12 54.5 -32.5t39.5 -46t24.5 -54.5t8.5 -59t-8.5 -60t-25 -56.5t-39.5 -48t-53 -34.5q-28 -12 -57 -17.5t-76 -5.5h-61v-72q0 -24 -19 -40t-46 -16t-46 16t-19 40v581zM196 444
v-203h88q24 0 42 9t30.5 23.5t18.5 33.5t6 39q0 19 -6 37t-18 31.5t-30 21.5t-42 8h-89z" />
    <glyph glyph-name="thorn" unicode="&#xfe;" horiz-adv-x="556" 
d="M60 665q1 23 19.5 38.5t45.5 15.5q26 0 44.5 -15.5t18.5 -38.5v-206q21 24 53 39t70 15q49 0 89 -20.5t68 -56t43 -82t15 -98.5q0 -46 -14 -92t-41 -83t-67.5 -60t-92.5 -23q-34 0 -67.5 13t-56.5 33v-180q0 -23 -18.5 -38.5t-45.5 -15.5q-26 0 -44.5 15.5t-18.5 38.5
v801zM187 237q0 -38 2.5 -57t16.5 -35q13 -16 34.5 -25.5t47.5 -9.5q49 0 78.5 39t29.5 107t-29.5 106.5t-78.5 38.5q-26 0 -47.5 -9.5t-34.5 -25.5q-7 -8 -11 -16.5t-5.5 -19t-2 -24t-0.5 -32.5v-37z" />
    <glyph glyph-name="nonmarkingreturn" unicode="&#xd;" horiz-adv-x="296" 
 />
    <glyph glyph-name="Zcaron" unicode="&#x17d;" horiz-adv-x="610" 
d="M41 66q0 10 4 20t15 27l156.5 227.5l165.5 230.5h-273q-29 0 -43.5 18.5t-14.5 40.5q0 21 14.5 38.5t43.5 17.5h386q26 0 44.5 -17.5t18.5 -40.5q0 -9 -3.5 -22t-22.5 -41l-158.5 -221.5l-158.5 -223.5h296q29 0 44 -18t15 -40t-14.5 -39.5t-44.5 -17.5h-406
q-29 0 -46.5 18t-17.5 43zM361 883q18 17 39 17q20 0 33.5 -14.5t13.5 -34.5q0 -9 -4.5 -20t-20.5 -25l-70 -63q-21 -20 -47 -20t-47 20l-70 63q-16 14 -20.5 25t-4.5 20q0 20 13.5 34.5t33.5 14.5q21 0 39 -17l56 -52z" />
    <glyph glyph-name="zcaron" unicode="&#x17e;" horiz-adv-x="476" 
d="M92 5q-16 0 -27 5.5t-18 13.5t-10 17t-3 15q0 10 4.5 22.5t18.5 35.5q44 72 94.5 139l101.5 139h-164q-29 0 -44 17.5t-15 38.5t15 38.5t44 17.5h279q30 0 46 -17t16 -39q0 -14 -6.5 -28t-17.5 -30l-100 -136l-57.5 -77l-29 -39l-14.5 -21h185q28 0 42 -17.5t14 -38.5
t-14 -38.5t-42 -17.5h-298zM294 702q18 17 39 17q20 0 33.5 -14.5t13.5 -34.5q0 -9 -4.5 -20t-20.5 -25l-70 -63q-21 -20 -47 -20t-47 20l-70 63q-16 14 -20.5 25t-4.5 20q0 20 13.5 34.5t33.5 14.5q21 0 39 -17l56 -52z" />
    <glyph glyph-name="onehalf" unicode="&#xbd;" horiz-adv-x="838" 
d="M284 390q20 0 32 -13.5t12 -29.5q0 -17 -12 -30t-32 -13h-206q-19 0 -31 13t-12 30q0 16 12 29.5t31 13.5h58v187l-25 -15q-9 -5 -16.5 -7.5t-12.5 -2.5q-23 0 -34 12.5t-11 28.5q0 8 6.5 21t21.5 22l84 50q17 10 33 10q23 0 36 -13.5t13 -36.5v-256h53zM272 16
q-9 -13 -21 -17.5t-22 -4.5q-17 0 -30.5 12t-13.5 31q0 11 6 22t12 20l405 593q9 14 20.5 19t21.5 5q17 0 31.5 -11.5t14.5 -31.5q0 -10 -6 -21.5t-13 -21.5zM757 91q21 0 34 -10.5t13 -32.5q0 -17 -13 -30t-34 -13h-186q-25 0 -39 14t-14 33q0 25 24 45l75 63
q36 30 57.5 56.5t21.5 53.5q0 17 -12.5 30t-34.5 13q-23 0 -34.5 -11.5t-11.5 -26.5q0 -4 2 -12t2 -14q0 -14 -10.5 -25t-33.5 -11q-12 0 -24 7.5t-19 24.5q-3 9 -4 16.5t-1 16.5q0 23 10 44.5t27.5 38t42.5 26.5t55 10q32 0 58 -10t44 -27t28 -40t10 -50q0 -48 -34.5 -91.5
t-85.5 -81.5l-8 -6h95z" />
    <glyph glyph-name="onequarter" unicode="&#xbc;" horiz-adv-x="838" 
d="M280 17q-9 -13 -21 -17.5t-22 -4.5q-17 0 -30.5 12t-13.5 31q0 11 6 22t12 20l405 592q9 14 20.5 19t21.5 5q17 0 31.5 -11.5t14.5 -31.5q0 -10 -6 -21.5t-13 -21.5zM648 82h-111q-23 0 -38.5 14.5t-15.5 37.5q0 13 13 35l30 46.5l36 52.5l38 53.5l36 49.5q10 13 24 19.5
t28 6.5q21 0 36 -13.5t15 -39.5v-180h23q21 0 31.5 -13t10.5 -29q0 -15 -10.5 -27.5t-31.5 -12.5h-23v-37q0 -20 -12 -32.5t-33 -12.5q-20 0 -33 12.5t-13 32.5v37zM292 390q20 0 32 -13.5t12 -29.5q0 -17 -12 -30t-32 -13h-206q-19 0 -31 13t-12 30q0 16 12 29.5t31 13.5
h58v187l-25 -15q-9 -5 -16.5 -7.5t-12.5 -2.5q-23 0 -34 12.5t-11 28.5q0 8 6.5 21t21.5 22l84 50q17 10 33 10q23 0 36 -13.5t13 -36.5v-256h53zM650 163v102l-71 -102h71z" />
    <glyph glyph-name="onesuperior" unicode="&#xb9;" horiz-adv-x="327" 
d="M266 390q20 0 32 -13.5t12 -29.5q0 -17 -12 -30t-32 -13h-206q-19 0 -31 13t-12 30q0 16 12 29.5t31 13.5h58v187l-25 -15q-9 -5 -16.5 -7.5t-12.5 -2.5q-23 0 -34 12.5t-11 28.5q0 8 6.5 21t21.5 22l84 50q17 10 33 10q23 0 36 -13.5t13 -36.5v-256h53v0z" />
    <glyph glyph-name="threequarters" unicode="&#xbe;" horiz-adv-x="838" 
d="M276 17q-9 -13 -21 -17.5t-22 -4.5q-17 0 -30.5 12t-13.5 31q0 11 6 22t12 20l405 592q9 14 20.5 19t21.5 5q17 0 31.5 -11.5t14.5 -31.5q0 -10 -6 -21.5t-13 -21.5zM644 82h-111q-23 0 -38.5 14.5t-15.5 37.5q0 13 13 35l30 46.5l36 52.5l38 53.5l36 49.5q10 13 24 19.5
t28 6.5q21 0 36 -13.5t15 -39.5v-180h23q21 0 31.5 -13t10.5 -29q0 -15 -10.5 -27.5t-31.5 -12.5h-23v-37q0 -20 -12 -32.5t-33 -12.5q-20 0 -33 12.5t-13 32.5v37zM314 639q0 -13 -4 -21t-11 -17l-55 -68q42 -14 63.5 -45.5t21.5 -63.5q0 -26 -10 -49t-28 -41t-44 -28.5
t-58 -10.5q-29 0 -54.5 10t-41.5 23q-18 15 -29.5 34.5t-11.5 34.5q0 13 10.5 27t32.5 14q28 0 43 -29q6 -11 19 -20.5t31 -9.5q26 0 38 15t12 30q0 32 -51 43l-10 2q-45 9 -45 38q0 17 17 39l45 55h-91q-19 0 -32.5 11t-13.5 31q0 17 13.5 30t32.5 13h161q23 0 36.5 -14
t13.5 -33zM646 163v102l-71 -102h71z" />
    <glyph glyph-name="threesuperior" unicode="&#xb3;" horiz-adv-x="344" 
d="M297 639q0 -13 -4 -21t-11 -17l-55 -68q42 -14 63.5 -44.5t21.5 -62.5q0 -26 -10 -49t-28 -40t-44 -27.5t-58 -10.5q-29 0 -54.5 10t-41.5 23q-18 15 -29.5 34.5t-11.5 34.5q0 13 10.5 27t32.5 14q28 0 43 -29q6 -11 19 -20.5t31 -9.5q26 0 38 14t12 29q0 17 -12.5 26.5
t-38.5 14.5l-10 2q-45 9 -45 38q0 17 17 39l45 55h-91q-19 0 -32.5 11t-13.5 31q0 17 13.5 30t32.5 13h161q23 0 36.5 -14t13.5 -33z" />
    <glyph glyph-name="twosuperior" unicode="&#xb2;" horiz-adv-x="344" 
d="M267 390q21 0 34 -10.5t13 -32.5q0 -17 -13 -30t-34 -13h-186q-25 0 -39 14t-14 33q0 25 24 45l75 63q36 30 57.5 56.5t21.5 53.5q0 17 -12.5 30t-34.5 13q-23 0 -34.5 -11.5t-11.5 -26.5q0 -4 2 -12t2 -14q0 -14 -10.5 -25t-33.5 -11q-12 0 -24 7.5t-19 24.5
q-3 9 -4 16.5t-1 16.5q0 23 10 44.5t27.5 38t42.5 26.5t55 10q32 0 58 -10t44 -27t28 -40t10 -50q0 -48 -34.5 -91.5t-85.5 -81.5l-8 -6h95z" />
    <glyph glyph-name="brokenbar" unicode="&#xa6;" horiz-adv-x="290" 
d="M82 659q0 23 18.5 38.5t44.5 15.5t44.5 -15.5t18.5 -38.5v-276q0 -23 -18.5 -38.5t-44.5 -15.5t-44.5 15.5t-18.5 38.5v276zM82 148q0 23 18.5 38.5t44.5 15.5t44.5 -15.5t18.5 -38.5v-276q0 -23 -18.5 -38.5t-44.5 -15.5t-44.5 15.5t-18.5 38.5v276z" />
    <glyph glyph-name="minus" unicode="&#x2212;" horiz-adv-x="584" 
d="M470 310q29 0 43 -17.5t14 -38.5t-14 -38.5t-43 -17.5h-356q-29 0 -43 17.5t-14 38.5t14 38.5t43 17.5h356z" />
    <glyph glyph-name="multiply" unicode="&#xd7;" horiz-adv-x="584" 
d="M124 348q-17 17 -17 38q0 23 18.5 40t41.5 17t41 -19l84 -89l84 89q18 19 41 19t41.5 -17t18.5 -40q0 -21 -17 -38l-91 -94l91 -94q17 -17 17 -38q0 -23 -18.5 -40t-41.5 -17t-41 19l-84 89l-84 -89q-18 -19 -41 -19t-41.5 17t-18.5 40q0 21 17 38l91 94z" />
    <glyph glyph-name="space" unicode=" " horiz-adv-x="270" 
 />
    <glyph glyph-name="exclam" unicode="!" horiz-adv-x="244" 
d="M122 174q-28 0 -45.5 17t-17.5 41v81q0 43 -0.5 83t-1.5 80t-1.5 80.5t-0.5 84.5q0 24 20.5 39.5t46.5 15.5t46.5 -15.5t20.5 -39.5q0 -39 -0.5 -75.5t-1.5 -75.5t-1.5 -82t-0.5 -95v-81q0 -24 -17.5 -41t-45.5 -17zM50 67q0 30 21 51t51 21t51 -21t21 -51t-21 -51
t-51 -21t-51 21t-21 51z" />
    <glyph glyph-name="quotedbl" unicode="&#x22;" horiz-adv-x="350" 
d="M153 529q0 -24 -17.5 -39t-43.5 -15t-43.5 15t-17.5 39v133q0 23 17.5 38.5t43.5 15.5t43.5 -15.5t17.5 -38.5v-133zM319 529q0 -24 -17.5 -39t-43.5 -15t-43.5 15t-17.5 39v133q0 23 17.5 38.5t43.5 15.5t43.5 -15.5t17.5 -38.5v-133z" />
    <glyph glyph-name="numbersign" unicode="#" horiz-adv-x="646" 
d="M196 502q6 29 13 56q5 23 11.5 48.5l11.5 44.5t21 29.5t36 10.5q25 0 42 -15t17 -37q0 -5 -1 -13.5t-3 -17.5l-27 -106h86l14 56q6 23 12 48.5t11 44.5q6 19 21.5 29.5t35.5 10.5q25 0 42.5 -15t17.5 -37q0 -11 -5 -31l-26 -106h45q24 0 39 -15.5t15 -35.5t-15 -35.5
t-39 -15.5h-69l-25 -101h79q23 0 38.5 -15.5t15.5 -36.5q0 -20 -15.5 -35.5t-38.5 -15.5h-102l-38 -159q-5 -20 -21 -30t-36 -10q-25 0 -43 15t-18 37q0 5 2 13.5l4 17.5l27 116h-85l-39 -159q-5 -19 -20.5 -29.5t-36.5 -10.5q-25 0 -42 15t-17 37q0 5 1 13.5t3 17.5l29 116
h-49q-23 0 -38.5 15.5t-15.5 35.5q0 21 15.5 36.5t38.5 15.5h72l25 101h-81q-24 0 -39 15.5t-15 35.5t15 35.5t39 15.5h105zM269 299h86l26 101h-87z" />
    <glyph glyph-name="dollar" unicode="$" 
d="M516 201q0 -41 -16.5 -74t-44 -57.5t-63 -40t-72.5 -20.5v-43q0 -17 -9.5 -26.5t-26.5 -9.5t-26.5 9.5t-9.5 26.5v43q-63 6 -110 33t-79 71q-9 16 -11.5 26.5t-2.5 21.5q0 21 15 41.5t43 20.5q35 0 60 -35q22 -28 39.5 -44.5t47.5 -21.5v175q-56 18 -93.5 40t-60.5 46.5
t-33 52.5t-10 58q0 33 13.5 64t38.5 56t61 42.5t82 23.5v49q0 17 9.5 26.5t26.5 9.5t26.5 -9.5t9.5 -26.5v-49q42 -4 72.5 -15.5t53.5 -27.5q32 -22 46.5 -46.5t14.5 -42.5q0 -28 -19.5 -44.5t-40.5 -16.5q-11 0 -19 1.5t-15.5 6t-15 12t-17.5 20.5q-11 14 -26.5 25
t-35.5 14v-164q58 -21 96.5 -43t61 -46.5t31.5 -52t9 -59.5zM390 199q0 26 -20.5 45.5t-51.5 31.5v-155q31 5 51.5 25.5t20.5 52.5zM178 496q0 -26 21 -42t51 -28v140q-35 -7 -53.5 -25.5t-18.5 -44.5z" />
    <glyph glyph-name="percent" unicode="%" horiz-adv-x="776" 
d="M33 525q0 33 10 63.5t29.5 54.5t48 38t65.5 14q36 0 64 -14t47.5 -38t30 -54.5t10.5 -63.5t-10.5 -63.5t-30 -54.5t-47.5 -38t-64 -14q-37 0 -65.5 14t-48 38t-29.5 54.5t-10 63.5zM140 525q0 -31 11.5 -56t34.5 -25q22 0 33.5 25t11.5 56t-11.5 56t-33.5 25
q-23 0 -34.5 -25t-11.5 -56zM438 164q0 33 10 64t29.5 54.5t48 38t64.5 14.5t64.5 -14.5t48 -38t30 -54.5t10.5 -64t-10.5 -63.5t-30 -54t-48 -37.5t-64.5 -14t-64.5 14t-48 37.5t-29.5 54t-10 63.5zM545 164q0 -31 11 -55.5t34 -24.5t34.5 24.5t11.5 55.5t-11.5 56.5
t-34.5 25.5t-34 -25.5t-11 -56.5zM250 19q-10 -15 -23 -19.5t-26 -4.5q-21 0 -37.5 13t-16.5 36q0 12 5.5 24t13.5 23l363 578q11 16 22.5 21t25.5 5q20 0 37.5 -13.5t17.5 -36.5q0 -9 -6 -22t-14 -24z" />
    <glyph glyph-name="ampersand" unicode="&#x26;" horiz-adv-x="689" 
d="M519 347q9 19 24.5 27t32.5 8q25 0 45.5 -15.5t20.5 -41.5q0 -11 -8 -30q-6 -14 -25 -51t-52 -82l71 -61q24 -21 24 -42q0 -11 -5 -22t-14 -19.5t-20.5 -14t-24.5 -5.5q-25 0 -43 16l-38.5 31t-33.5 27q-38 -32 -87 -54.5t-115 -22.5q-50 0 -91.5 15t-71.5 41t-46.5 61.5
t-16.5 76.5q0 58 29 102.5t95 78.5q-27 29 -44 67t-17 80q0 36 14 68t39.5 57t62 39.5t82.5 14.5q45 0 81 -13.5t62 -37t40 -55t14 -66.5q0 -32 -11.5 -58.5t-31 -48t-45 -38.5t-53.5 -30l51 -51l55 -52q12 19 25.5 47zM242 294q-35 -16 -50.5 -40t-15.5 -53q0 -42 28.5 -68
t76.5 -26q29 0 56 11.5t51 31.5zM237 516q1 -18 11.5 -38t36.5 -46l7 -7l14 6q26 11 47 33t21 54q0 34 -21 50.5t-47 16.5t-47.5 -17t-21.5 -52z" />
    <glyph glyph-name="quotesingle" unicode="'" horiz-adv-x="180" 
d="M151 529q0 -24 -17.5 -39t-43.5 -15t-43.5 15t-17.5 39v133q0 23 17.5 38.5t43.5 15.5t43.5 -15.5t17.5 -38.5v-133z" />
    <glyph glyph-name="parenleft" unicode="(" horiz-adv-x="370" 
d="M45 265q0 115 44 224.5t132 197.5q19 18 33.5 25t27.5 7q26 0 42 -18t16 -36q0 -16 -7.5 -29t-28.5 -35q-63 -66 -96 -153.5t-33 -182.5t33 -182.5t96 -153.5q20 -22 28 -35t8 -29q0 -18 -16 -36t-42 -18q-13 0 -27.5 7t-33.5 25q-88 88 -132 197.5t-44 224.5z" />
    <glyph glyph-name="parenright" unicode=")" horiz-adv-x="370" 
d="M325 265q0 -115 -44 -224.5t-132 -197.5q-19 -18 -33.5 -25t-27.5 -7q-26 0 -42 18t-16 36q0 16 8 29t28 35q63 66 96 153.5t33 182.5t-33 182.5t-96 153.5q-20 21 -28 34.5t-8 29.5q0 18 16 36t42 18q13 0 27.5 -7t33.5 -25q88 -88 132 -197.5t44 -224.5z" />
    <glyph glyph-name="asterisk" unicode="*" horiz-adv-x="510" 
d="M214 380q-14 -21 -39 -21q-20 0 -36 13.5t-16 33.5q0 17 12 32l48 63l-75 26q-19 7 -27.5 18.5t-8.5 25.5q0 18 13 32.5t35 14.5q11 0 24 -5l62 -24q-1 13 -1 27q-1 12 -1 26.5v28.5q0 23 16 35t35 12t35 -12t16 -35q0 -14 -0.5 -28.5t-0.5 -26.5q-1 -14 -1 -27l62 24
q13 5 23 5q22 0 35.5 -14.5t13.5 -32.5q0 -13 -8.5 -25t-27.5 -19l-75 -26l48 -63q13 -16 13 -32q0 -20 -16.5 -33.5t-36.5 -13.5q-25 0 -39 21l-41 61z" />
    <glyph glyph-name="plus" unicode="+" 
d="M116 198q-27 0 -41.5 18t-14.5 39t14 38t42 17h112v122q0 26 18.5 39.5t41.5 13.5q22 0 40 -13t18 -40v-122h112q27 0 41.5 -17t14.5 -38t-14 -39t-42 -18h-112v-122q0 -26 -18.5 -39.5t-41.5 -13.5q-22 0 -40 13t-18 40v122h-112z" />
    <glyph glyph-name="comma" unicode="," horiz-adv-x="232" 
d="M44 68q0 30 19.5 50.5t49.5 20.5q25 0 41 -10t25.5 -25.5t13 -33t3.5 -32.5q0 -20 -3 -41t-8 -40t-11.5 -35.5t-13.5 -28.5q-11 -17 -23.5 -24t-24.5 -7q-21 0 -36 12.5t-15 30.5q0 10 2.5 18t6.5 18l9 24.5t5 17.5q4 15 4 19t-2 5t-7 3q-17 7 -26 22.5t-9 35.5z" />
    <glyph glyph-name="hyphen" unicode="-" horiz-adv-x="338" 
d="M243 327q29 0 44 -17.5t15 -38.5t-15 -38.5t-44 -17.5h-148q-30 0 -44.5 17.5t-14.5 38.5t14.5 38.5t44.5 17.5h148z" />
    <glyph glyph-name="period" unicode="." horiz-adv-x="232" 
d="M44 67q0 30 21 51t51 21t51 -21t21 -51t-21 -51t-51 -21t-51 21t-21 51z" />
    <glyph glyph-name="slash" unicode="/" horiz-adv-x="484" 
d="M152 -2q-9 -20 -25.5 -29t-34.5 -9q-23 0 -41 14.5t-18 42.5q0 7 1.5 15t6.5 19l291 628q9 20 25.5 29t34.5 9q23 0 41 -14.5t18 -42.5q0 -7 -1.5 -15t-6.5 -19z" />
    <glyph glyph-name="zero" unicode="0" 
d="M170 344q0 -47 7 -89t21.5 -74.5t36.5 -51.5t52 -19t52 19t36.5 51.5t21.5 74.5t7 89q0 46 -7 89t-21.5 76t-36.5 52.5t-52 19.5t-52 -19.5t-36.5 -52.5t-21.5 -76t-7 -89zM37 344q0 72 17 136t49.5 112t78.5 76t105 28q58 0 104.5 -28t79 -76t49.5 -112t17 -136
t-17 -136t-49.5 -111t-79 -74.5t-104.5 -27.5q-59 0 -105 27.5t-78.5 74.5t-49.5 111t-17 136z" />
    <glyph glyph-name="one" unicode="1" 
d="M482 119q28 0 43 -18t15 -40q0 -21 -14.5 -38.5t-43.5 -17.5h-350q-28 0 -43 18t-15 40q0 21 14.5 38.5t43.5 17.5h116v421l-76 -47q-28 -17 -46 -17q-29 0 -43.5 18.5t-14.5 40.5q0 11 6.5 26t25.5 26l157 94q24 15 51 15q31 0 49 -18.5t18 -45.5v-513h107v0z" />
    <glyph glyph-name="two" unicode="2" 
d="M177 471q1 -5 1.5 -11t0.5 -11q0 -23 -17.5 -37t-41.5 -14q-20 0 -34 8.5t-22.5 22t-12.5 31t-4 35.5q0 39 17 75.5t47 64.5t72.5 44.5t93.5 16.5q55 0 98.5 -16.5t74 -45.5t47 -67.5t16.5 -83.5q0 -39 -15.5 -77.5t-42.5 -76.5t-64.5 -75.5t-80.5 -74.5l-42.5 -37
l-27.5 -23h237q32 0 47.5 -17.5t15.5 -39.5q0 -21 -15.5 -39t-47.5 -18h-362q-33 0 -51 19.5t-18 48.5q0 14 6.5 27t17.5 22l156 132q38 32 67 59t49 53.5t30 53t10 58.5q0 45 -28.5 74.5t-76.5 29.5t-75 -26t-27 -62q0 -6 0.5 -11.5t1.5 -11.5z" />
    <glyph glyph-name="three" unicode="3" 
d="M279 108q31 0 53 10t35.5 25.5t19.5 34.5t6 38q0 44 -31.5 73.5t-91.5 38.5l-19 3q-19 3 -38 16t-19 38q0 9 4 20t14 23l114 144h-217q-32 0 -48.5 17.5t-16.5 39.5q0 21 16.5 39t48.5 18h310q35 0 55.5 -19t20.5 -44q0 -17 -7 -28.5t-19 -27.5l-119 -148
q44 -14 77 -36.5t54.5 -49.5t32 -57t10.5 -60q0 -43 -17.5 -83t-49.5 -70.5t-78 -49t-104 -18.5q-52 0 -96 16t-76.5 40t-50.5 53t-18 56q0 24 18 39.5t39 15.5q13 0 26.5 -5t26.5 -22q33 -42 63 -61t72 -19z" />
    <glyph glyph-name="four" unicode="4" 
d="M321 146h-227q-32 0 -54.5 21.5t-22.5 51.5q0 10 3.5 21t14.5 28q28 46 62 96.5l70 101.5l71.5 100.5l67.5 92.5q14 20 32.5 28.5t37.5 8.5q29 0 51 -19t22 -48v-373h49q30 0 45.5 -16.5t15.5 -37.5t-15 -37.5t-46 -18.5h-49v-93q0 -24 -18.5 -39.5t-45.5 -15.5
t-45.5 15.5t-18.5 39.5v93zM321 496l-45 -63.5l-46.5 -65.5l-42.5 -61l-34 -50h168v240z" />
    <glyph glyph-name="five" unicode="5" 
d="M273 -5q-47 0 -88 15t-72.5 38t-49.5 50.5t-18 52.5q0 23 17.5 43t47.5 20q20 0 33.5 -10.5t24.5 -28.5q18 -30 44.5 -48t62.5 -18q28 0 49.5 9.5t35.5 25.5t21.5 37t7.5 44q0 21 -7 41.5t-21.5 36.5t-37 26t-53.5 10q-28 0 -53 -2t-57 -5h-6q-26 0 -47.5 17.5
t-21.5 45.5q0 1 1.5 12t3.5 28.5t5.5 39.5t6.5 45q7 54 17 121q2 19 21 32t44 13h266q30 0 45.5 -17.5t15.5 -39.5q0 -21 -15 -39t-46 -18h-219l-10 -63.5t-8 -62.5q12 1 27.5 1h29.5q65 0 112.5 -18.5t78 -49.5t45 -70t14.5 -81t-17 -83.5t-49 -75t-77.5 -54t-103.5 -20.5z
" />
    <glyph glyph-name="six" unicode="6" 
d="M305 334q-26 0 -53.5 -11t-47.5 -37q-17 -20 -17 -48q0 -11 2 -20t6 -19q14 -42 43.5 -66.5t69.5 -24.5q24 0 42.5 9.5t31 25t19 36t6.5 41.5t-6.5 41.5t-19 36.5t-32 26t-44.5 10zM176 384q32 29 70 43t77 14q41 0 79.5 -14.5t68.5 -41.5t48.5 -66.5t18.5 -89.5
q0 -44 -15 -86t-45 -75t-74.5 -53t-102.5 -20q-55 0 -102 23t-81 66t-53 105t-19 139q0 64 14 129.5t46.5 118.5t84.5 86.5t128 33.5q54 0 94 -17.5t63 -42.5q14 -14 19.5 -28.5t5.5 -24.5q0 -29 -18 -46t-44 -17q-29 0 -56 27q-19 19 -37.5 27t-37.5 8q-36 0 -60 -17.5
t-38.5 -46t-22 -63.5t-11.5 -71z" />
    <glyph glyph-name="seven" unicode="7" 
d="M161 92q21 50 49 111l59 125l62.5 127.5l60.5 117.5h-222v-54q0 -27 -20 -41.5t-43 -14.5t-42 14t-19 42v102q0 29 17 47t46 18h345q42 0 62.5 -19t20.5 -48q0 -11 -3 -24t-14 -34l-124.5 -255.5t-115.5 -265.5q-9 -24 -26 -34.5t-36 -10.5q-31 0 -49 18t-18 41
q0 5 2 13.5t8 24.5z" />
    <glyph glyph-name="eight" unicode="8" 
d="M511 512q0 -42 -24.5 -82.5t-84.5 -70.5q64 -26 95 -73.5t31 -94.5q0 -40 -19 -75.5t-51.5 -62.5t-76.5 -42.5t-94 -15.5t-94 15.5t-76.5 42.5t-51.5 62.5t-19 75.5q0 48 30.5 92t97.5 74q-31 15 -52 33t-34 38.5t-19 41.5t-6 42q0 37 17.5 70.5t47.5 59t71 40t88 14.5
q48 0 89 -14.5t71 -40t47 -59t17 -70.5zM397 197q0 25 -19.5 52t-73.5 53q-10 5 -16 5q-2 0 -6.5 -1t-11.5 -4q-57 -25 -75 -52.5t-18 -52.5q0 -39 32 -64t78 -25t78 25t32 64zM287 582q-40 0 -68 -20.5t-28 -55.5q0 -11 3 -23.5t11.5 -24.5t24 -24t40.5 -22q9 -4 17 -4
q2 0 6.5 0.5t7.5 2.5q49 23 65.5 48.5t16.5 46.5q0 35 -27.5 55.5t-68.5 20.5z" />
    <glyph glyph-name="nine" unicode="9" 
d="M269 357q26 0 53.5 11t47.5 37q17 20 17 48q0 11 -2 20t-6 19q-14 42 -43.5 66.5t-69.5 24.5q-24 0 -42.5 -9.5t-31 -25t-19 -36t-6.5 -41.5t6.5 -41.5t19 -36.5t31.5 -26t45 -10zM398 307q-32 -29 -70 -43t-77 -14q-41 0 -79.5 14.5t-68.5 41.5t-48.5 66.5t-18.5 89.5
q0 43 15 85t45 75t74 53.5t103 20.5q55 0 102 -23t81 -66t53 -105t19 -139q0 -64 -14 -129.5t-46.5 -118.5t-84.5 -86.5t-128 -33.5q-54 0 -94 17.5t-63 42.5q-14 14 -19.5 28.5t-5.5 24.5q0 29 18 46t44 17q29 0 56 -27q19 -19 37.5 -27t37.5 -8q36 0 60 17.5t38.5 46
t22 63.5t11.5 71z" />
    <glyph glyph-name="colon" unicode=":" horiz-adv-x="218" 
d="M37 67q0 30 21 51t51 21t51 -21t21 -51t-21 -51t-51 -21t-51 21t-21 51zM37 383q0 30 21 51t51 21t51 -21t21 -51t-21 -51t-51 -21t-51 21t-21 51z" />
    <glyph glyph-name="semicolon" unicode=";" horiz-adv-x="218" 
d="M37 68q0 30 19.5 50.5t49.5 20.5q25 0 41 -10t25.5 -25.5t13 -33t3.5 -32.5q0 -20 -3 -41t-8 -40t-11.5 -35.5t-13.5 -28.5q-11 -17 -23.5 -24t-24.5 -7q-21 0 -36 12.5t-15 30.5q0 10 2.5 18t6.5 18l9 24.5t5 17.5q4 15 4 19t-2 5t-7 3q-17 7 -26 22.5t-9 35.5zM37 383
q0 30 21 51t51 21t51 -21t21 -51t-21 -51t-51 -21t-51 21t-21 51z" />
    <glyph glyph-name="less" unicode="&#x3c;" 
d="M460 148q23 -11 32 -26t9 -29q0 -21 -16.5 -37t-41.5 -16q-8 0 -16.5 2.5t-25.5 10.5l-292 148q-36 19 -36 53t36 53l292 148q17 8 25.5 10.5t16.5 2.5q25 0 41.5 -16t16.5 -37q0 -14 -9 -29t-32 -26l-213 -106z" />
    <glyph glyph-name="equal" unicode="=" 
d="M451 408q29 0 43.5 -17.5t14.5 -38.5t-14.5 -38.5t-43.5 -17.5h-328q-29 0 -43.5 17t-14.5 38t14.5 39t43.5 18h328zM451 212q29 0 43.5 -17t14.5 -38t-14.5 -39t-43.5 -18h-328q-29 0 -43.5 17.5t-14.5 38.5t14.5 38.5t43.5 17.5h328z" />
    <glyph glyph-name="greater" unicode="&#x3e;" 
d="M329 254l-213 106q-23 11 -32 26t-9 29q0 21 16.5 37t41.5 16q8 0 16.5 -2.5t25.5 -10.5l292 -148q36 -19 36 -53t-36 -53l-292 -148q-17 -8 -25.5 -10.5t-16.5 -2.5q-25 0 -41.5 16t-16.5 37q0 14 9 29t32 26z" />
    <glyph glyph-name="question" unicode="?" horiz-adv-x="533" 
d="M354 510q0 36 -27 54.5t-60 18.5q-17 0 -33.5 -5t-29 -14.5t-20.5 -24.5t-8 -34v-9q0 -27 -16.5 -41t-38.5 -14q-24 0 -45.5 18t-21.5 56q0 30 14 62t41 58.5t66 43.5t89 17q46 0 86.5 -14t70.5 -38.5t47 -58t17 -72.5q0 -25 -5 -45.5t-15.5 -38.5t-26 -35.5t-36.5 -35.5
q-21 -19 -35.5 -34t-23.5 -29.5t-14 -29.5t-8 -34l-1 -7q-4 -26 -21 -37.5t-37 -11.5q-24 0 -45 16.5t-21 48.5q0 53 27.5 94.5t63.5 73.5l10 9q32 29 44.5 49t12.5 44zM190 67q0 30 21 51t51 21t51 -21t21 -51t-21 -51t-51 -21t-51 21t-21 51z" />
    <glyph glyph-name="at" unicode="@" horiz-adv-x="934" 
d="M500 507q16 0 41.5 -2.5t49.5 -10.5t41 -23.5t17 -41.5q0 -2 -0.5 -12.5t-2.5 -18.5l-26 -185q-1 -5 -1.5 -10.5t-0.5 -8.5q0 -22 17 -22q16 0 39 19q29 26 45 69t16 92q0 43 -12.5 85t-41 75.5t-76 54t-116.5 20.5q-65 0 -121 -24.5t-97.5 -69t-65.5 -106.5t-24 -137
q0 -67 20.5 -122t59 -94.5t92.5 -61t122 -21.5q61 0 108 15t88 41q21 14 32.5 19t22.5 5q27 0 42 -17t15 -38q0 -14 -9 -28.5t-34 -31.5q-54 -36 -116.5 -54.5t-148.5 -18.5q-90 0 -166 28.5t-131.5 81.5t-86.5 128.5t-31 168.5q0 96 33 177.5t91.5 141t138.5 93t174 33.5
q91 0 158.5 -29.5t112.5 -77.5t67.5 -109t22.5 -124q0 -75 -31 -141.5t-93 -108.5q-26 -17 -59 -28t-66 -11q-31 0 -57 11.5t-40 37.5q-32 -23 -57.5 -34.5t-53.5 -11.5q-59 0 -98 47t-39 135q0 45 14 90.5t43 82t73.5 60t105.5 23.5zM385 251q0 -41 16 -60t36 -19
q21 0 39.5 18.5t23.5 52.5l22 158q-7 1 -13 1.5t-9 0.5q-30 0 -51.5 -14t-36 -36t-21 -49t-6.5 -53z" />
    <glyph glyph-name="A" unicode="A" horiz-adv-x="704" 
d="M489 185h-277l-50 -141q-8 -25 -25.5 -35.5t-36.5 -10.5q-25 0 -44.5 15.5t-19.5 44.5q0 7 1.5 15.5t8.5 27.5q50 137 109.5 276.5t125.5 271.5q11 23 31.5 35t43.5 12q21 0 40.5 -11t31.5 -36q62 -124 118 -258t113 -290q7 -19 8.5 -27.5t1.5 -15.5q0 -29 -19.5 -44.5
t-44.5 -15.5q-19 0 -37 10.5t-26 35.5zM352 530l-25 -57.5l-26 -61l-25 -59l-22 -52.5h193l-19.5 48l-24 59l-26 63z" />
    <glyph glyph-name="B" unicode="B" horiz-adv-x="584" 
d="M66 628q0 23 19.5 40.5t45.5 17.5h166q55 0 96 -16.5t68.5 -43t41 -59.5t13.5 -67q0 -42 -20.5 -79t-58.5 -63q51 -23 76 -66.5t25 -87.5q0 -38 -15 -73.5t-44.5 -63.5t-73 -45t-100.5 -17h-174q-26 0 -45.5 17.5t-19.5 40.5v565zM197 298v-178h108q24 0 42.5 8t31 20.5
t18.5 28.5t6 33q0 16 -6 32t-18.5 28.5t-31 20t-42.5 7.5h-108zM197 405h102q21 0 36.5 7.5t26 19.5t15.5 27t5 30q0 30 -21 56t-64 26h-100v-166z" />
    <glyph glyph-name="C" unicode="C" horiz-adv-x="669" 
d="M510 503q-29 34 -61.5 56t-82.5 22q-48 0 -83 -20.5t-58.5 -54t-35 -75.5t-11.5 -85q0 -44 12.5 -86.5t36.5 -75.5t58.5 -53.5t77.5 -20.5q24 0 43.5 4.5t36.5 14t33.5 24.5t33.5 36q14 17 28 22t28 5q22 0 40.5 -16t18.5 -40t-18.5 -53t-52 -53.5t-80 -41.5t-102.5 -17
q-80 0 -141 30t-102 79t-62 112t-21 130q0 74 23 138t65.5 111t103 74t134.5 27q36 0 69 -8t61 -20.5t51 -29t39 -34.5q33 -36 33 -71q0 -19 -16.5 -37.5t-43.5 -19.5q-14 0 -27.5 5t-27.5 22z" />
    <glyph glyph-name="D" unicode="D" horiz-adv-x="676" 
d="M278 686q72 0 136 -23.5t112 -68t76 -107.5t28 -142q0 -75 -26 -137.5t-72.5 -107.5t-110 -70t-138.5 -25h-153q-26 0 -45 14.5t-19 35.5v573q0 22 18.5 40t45.5 18h148zM196 571v-451h89q47 0 85.5 16.5t66 46.5t42.5 71t15 91q0 48 -14.5 89.5t-41.5 72t-67 47.5
t-91 17h-84z" />
    <glyph glyph-name="E" unicode="E" horiz-adv-x="524" 
d="M396 404q30 0 45 -18t15 -40t-15 -39.5t-45 -17.5h-200v-169h228q31 0 46 -18t15 -40t-15 -39.5t-46 -17.5h-295q-25 0 -44 14.5t-19 36.5v572q0 23 19 40.5t44 17.5h293q30 0 45 -18t15 -40t-15 -39.5t-45 -17.5h-226v-167h200v0z" />
    <glyph glyph-name="F" unicode="F" horiz-adv-x="508" 
d="M66 628q0 23 19.5 40.5t45.5 17.5h282q30 0 45.5 -18t15.5 -40t-15.5 -39.5t-45.5 -17.5h-216v-183h190q30 0 45 -18t15 -40t-15 -39.5t-45 -17.5h-190v-218q0 -24 -19 -40.5t-46 -16.5t-46.5 16.5t-19.5 40.5v573z" />
    <glyph glyph-name="G" unicode="G" horiz-adv-x="705" 
d="M46 349q0 74 23.5 137.5t66.5 110t103.5 73t134.5 26.5q49 0 95.5 -15.5t82.5 -39.5t57.5 -51.5t21.5 -51.5q0 -23 -17 -42t-44 -20q-14 0 -29 6.5t-35 29.5q-32 36 -69 52.5t-73 16.5q-33 0 -63.5 -12.5t-55.5 -37.5q-34 -34 -50.5 -84t-16.5 -101t13.5 -94.5t39 -75
t62 -49.5t81.5 -18q42 0 73 13t51 35q14 16 16.5 27.5t2.5 28.5v16h-82q-32 0 -47 18t-15 40t15 39.5t47 17.5h147q26 0 44.5 -15.5t18.5 -40.5v-80q0 -46 -22 -85t-59.5 -67.5t-86.5 -44.5t-103 -16q-71 0 -131 25t-103.5 71.5t-68.5 111.5t-25 146z" />
    <glyph glyph-name="H" unicode="H" horiz-adv-x="673" 
d="M476 289h-279v-234q0 -24 -19.5 -40.5t-46.5 -16.5t-46 16.5t-19 40.5v579q0 24 19 40.5t46 16.5t46.5 -16.5t19.5 -40.5v-230h279v230q0 24 19.5 40.5t46.5 16.5t46 -16.5t19 -40.5v-579q0 -24 -19 -40.5t-46 -16.5t-46.5 16.5t-19.5 40.5v234z" />
    <glyph glyph-name="I" unicode="I" horiz-adv-x="262" 
d="M66 634q0 24 19 40.5t46 16.5t46 -16.5t19 -40.5v-579q0 -24 -19 -40.5t-46 -16.5t-46 16.5t-19 40.5v579z" />
    <glyph glyph-name="J" unicode="J" horiz-adv-x="448" 
d="M251 635q0 24 19 40t46 16t46.5 -16t19.5 -40v-442q0 -47 -15 -83.5t-41.5 -62t-62.5 -39t-78 -13.5q-34 0 -64 10.5t-53 28t-36.5 40t-13.5 46.5q0 29 18.5 45t42.5 16q15 0 30 -7.5t26 -21.5l8 -11q8 -11 19.5 -21t26.5 -10q27 1 44.5 19.5t17.5 63.5v442z" />
    <glyph glyph-name="K" unicode="K" horiz-adv-x="618" 
d="M66 634q0 24 19.5 40.5t46.5 16.5t46 -16.5t19 -40.5v-220l126 121.5l130 128.5q17 17 28.5 22t27.5 5q28 0 44.5 -19.5t16.5 -43.5q0 -12 -5.5 -25t-22.5 -29l-61 -57l-50.5 -46.5l-45.5 -41.5l-46 -41l52.5 -69l57.5 -74l56.5 -72l50.5 -63q14 -17 19 -29.5t5 -20.5
q0 -27 -21 -44.5t-45 -17.5q-15 0 -31 8t-27 22l-101.5 128.5l-111.5 148.5l-46 -42v-208q0 -24 -19 -40.5t-46 -16.5t-46.5 16.5t-19.5 40.5v579z" />
    <glyph glyph-name="L" unicode="L" horiz-adv-x="501" 
d="M66 634q0 24 19 40.5t46 16.5t46 -16.5t19 -40.5v-514h221q30 0 45 -18t15 -40t-15 -39.5t-45 -17.5h-287q-13 0 -24.5 5t-20.5 13.5t-14 18.5t-5 20v572z" />
    <glyph glyph-name="M" unicode="M" horiz-adv-x="793" 
d="M597 451l-52.5 -92.5l-39 -67l-29 -49l-23.5 -38.5q-9 -14 -24.5 -24t-34.5 -10q-17 0 -34.5 9.5t-28.5 28.5l-71.5 120.5l-66.5 118.5v-393q0 -24 -18.5 -40t-45.5 -16q-28 0 -45.5 16t-17.5 40v570q0 34 22 50.5t49 16.5q18 0 38 -9.5t33 -29.5l90 -148.5l97 -167.5
l59 101.5l48.5 82l42.5 70l41 64.5q14 21 32 29t38 8q27 0 49 -16t22 -51v-569q0 -24 -19 -40.5t-46 -16.5t-46 16.5t-19 40.5v396z" />
    <glyph glyph-name="N" unicode="N" horiz-adv-x="708" 
d="M642 54q0 -24 -19.5 -40t-45.5 -16q-28 0 -42.5 12.5t-26.5 29.5l-21 30q-69 99 -143.5 193.5t-148.5 200.5v-409q0 -24 -19 -40.5t-45 -16.5q-27 0 -46 16.5t-19 40.5v570q0 34 22 50t51 16q18 0 33.5 -7.5t29.5 -26.5l85.5 -109.5l78.5 -103l74 -101l73 -105.5v396
q0 24 19 40.5t45 16.5q27 0 46 -16.5t19 -40.5v-580z" />
    <glyph glyph-name="O" unicode="O" horiz-adv-x="752" 
d="M376 -5q-66 0 -126 25.5t-105 71.5t-72 110.5t-27 142.5t27 143t72 111t105 71.5t126 25.5t126 -25.5t105 -71.5t72 -111t27 -143t-27 -142.5t-72 -110.5t-105 -71.5t-126 -25.5zM376 110q39 0 74.5 16.5t61.5 47.5t41.5 74.5t15.5 96.5t-15.5 97t-41.5 75t-61.5 48
t-74.5 17q-40 0 -75 -17t-61.5 -48t-41.5 -75t-15 -97t15 -96.5t41.5 -74.5t61.5 -47.5t75 -16.5z" />
    <glyph glyph-name="P" unicode="P" horiz-adv-x="540" 
d="M196 369h89q23 0 41 9t30 24t18.5 33.5t6.5 38.5q0 18 -6 35.5t-17.5 31t-29.5 22t-42 8.5h-90v-202zM66 628q0 25 20 41.5t43 16.5h157q58 0 101.5 -18t72 -47.5t42.5 -67.5t14 -78q0 -41 -14.5 -81t-44 -71t-72.5 -50t-100 -19h-89v-199q0 -24 -19 -40.5t-46 -16.5
t-46 16.5t-19 40.5v573z" />
    <glyph glyph-name="Q" unicode="Q" horiz-adv-x="752" 
d="M707 61q0 -25 -19 -44t-44 -19q-13 0 -26.5 5.5t-27.5 18.5l-32 29q-40 -27 -86 -41.5t-96 -14.5q-66 0 -126 25.5t-105 71.5t-72 110.5t-27 142.5t27 143t72 111t105 71.5t126 25.5t126 -25.5t105 -71.5t72 -111t27 -143q0 -60 -15.5 -110.5t-43.5 -92.5l38 -34
q22 -21 22 -47zM376 110q49 0 91 25l-47 44q-22 21 -22 47q0 25 19 44t44 19q13 0 26.5 -5.5t27.5 -18.5l33 -31q10 24 15.5 51.5t5.5 59.5q0 53 -15.5 97t-41.5 75t-61.5 48t-74.5 17q-40 0 -75 -17t-61.5 -48t-41.5 -75t-15 -97t15 -96.5t41.5 -74.5t61.5 -47.5t75 -16.5z
" />
    <glyph glyph-name="R" unicode="R" horiz-adv-x="584" 
d="M528 110q14 -17 19 -29.5t5 -20.5q0 -27 -21 -44.5t-45 -17.5q-15 0 -31.5 8.5t-27.5 22.5l-75 95.5t-97 134.5q-7 10 -13 13t-16 3h-29v-220q0 -24 -19 -40.5t-46 -16.5t-46.5 16.5t-19.5 40.5v574q0 22 19 39.5t47 17.5h154q60 0 104 -17.5t73 -45.5t43.5 -64.5
t14.5 -73.5q0 -30 -8.5 -59t-25 -54.5t-42.5 -46t-60 -33.5l26.5 -36l30.5 -40l38 -47.5zM196 375h94q23 0 41 8.5t30 23t18.5 32.5t6.5 37q0 18 -6 35t-17.5 30.5t-29.5 21.5t-42 8h-95v-196z" />
    <glyph glyph-name="S" unicode="S" 
d="M289 109q48 0 81 22.5t33 57.5q0 12 -6 25t-21.5 26t-42.5 26t-69 27l-25 8q-102 32 -146.5 84t-44.5 118q0 45 18 81t49.5 60.5t75 38t94.5 13.5q50 0 92 -12.5t72 -32t46.5 -42.5t16.5 -43q0 -25 -17.5 -43t-44.5 -18q-15 0 -28 7t-33 26t-44.5 31.5t-61.5 12.5
q-48 0 -77 -21t-29 -52q0 -29 30 -51t94 -43l24 -8q61 -20 101 -44t63.5 -50t33 -54.5t9.5 -58.5q0 -48 -20 -86t-54 -64.5t-79 -40.5t-94 -14q-55 0 -101.5 16t-80.5 40t-53 53t-19 56q0 24 19 40t41 16q14 0 28 -5t28 -22q34 -42 66 -61t76 -19z" />
    <glyph glyph-name="T" unicode="T" horiz-adv-x="546" 
d="M208 570h-132q-29 0 -43 18t-14 40t14 40t43 18h394q28 0 41.5 -18t13.5 -40t-13.5 -40t-41.5 -18h-132v-515q0 -24 -19 -40.5t-46 -16.5t-46 16.5t-19 40.5v515z" />
    <glyph glyph-name="U" unicode="U" horiz-adv-x="653" 
d="M457 633q0 24 19 41t46 17t46 -17t19 -41v-374q0 -64 -22 -113.5t-58 -83t-83 -50.5t-97 -17t-97 17t-83.5 50.5t-58.5 83t-22 113.5v375q0 20 17 38.5t48 18.5q29 0 47 -18.5t18 -38.5v-375q0 -39 11 -67t29.5 -46.5t42 -27t48.5 -8.5t48.5 8.5t41.5 27t29 46.5t11 67
v374z" />
    <glyph glyph-name="V" unicode="V" horiz-adv-x="697" 
d="M162 645l88.5 -236t98.5 -236q53 116 98.5 231.5t88.5 240.5q8 25 25.5 35.5t36.5 10.5q25 0 44.5 -15.5t19.5 -44.5q0 -7 -1.5 -15.5t-8.5 -27.5q-50 -137 -109.5 -274.5t-125.5 -269.5q-13 -26 -32 -37.5t-39 -11.5t-39 11.5t-32 37.5q-62 123 -117.5 256t-112.5 288
q-7 19 -8.5 27.5t-1.5 15.5q0 29 19.5 44.5t44.5 15.5q19 0 37 -10.5t26 -35.5z" />
    <glyph glyph-name="W" unicode="W" horiz-adv-x="1005" 
d="M174 635q15 -61 47 -172l78 -263l51 175.5l50 161.5l31 98q10 32 31 44t41 12q21 0 41 -11.5t30 -41.5l33 -102l27 -84l30 -94.5l29 -91t23 -74.5l40 145l30.5 116.5l24.5 97.5l22 89q6 23 25 37t39 14q24 0 44.5 -16.5t20.5 -42.5q0 -20 -6 -39.5t-11 -39.5
q-29 -115 -68.5 -239t-87.5 -257q-12 -33 -32 -46t-42 -13q-23 0 -44 13t-33 45q-38 106 -70.5 216l-64.5 219l-31 -113l-35 -118.5l-35.5 -112.5t-33.5 -95q-11 -27 -32 -40.5t-44 -13.5t-42.5 12.5t-30.5 41.5l-90 269t-75 260q-11 44 -11 49q0 26 16 43.5t48 17.5
q23 0 42 -14.5t25 -41.5z" />
    <glyph glyph-name="X" unicode="X" horiz-adv-x="677" 
d="M629 633q0 -10 -3.5 -19.5t-15.5 -24.5q-12 -17 -29.5 -38l-41.5 -49l-54.5 -63.5l-69.5 -81.5q32 -42 85 -104l124 -146q14 -17 18 -28.5t4 -20.5q0 -29 -19.5 -44.5t-45.5 -15.5q-14 0 -28.5 5.5t-26.5 19.5l-63 77.5l-128 158.5l-97 -121l-91 -117q-20 -23 -54 -23
q-29 0 -45.5 17.5t-16.5 36.5q0 11 4 22t16 27q50 65 101.5 125.5l105.5 126.5l-58 69l-59 68.5l-50.5 59l-34.5 41.5q-8 9 -11 19.5t-3 21.5q0 28 19.5 43.5t44.5 15.5q37 0 60 -29l31 -39.5l48 -59.5l51 -63t42 -50l170 211q16 20 30 25t26 5q27 0 46 -17.5t19 -40.5z" />
    <glyph glyph-name="Y" unicode="Y" horiz-adv-x="602" 
d="M235 281l-56 83.5l-58.5 87.5l-52.5 79.5l-37 57.5q-8 15 -10.5 23.5t-2.5 17.5q0 10 4 20.5t12 19.5t20 15t28 6q14 0 31.5 -7t27.5 -23l18 -28l67 -107.5t77 -116.5q15 21 33 49l36.5 58l36.5 59l32 52l20 32q11 19 25.5 25.5t28.5 6.5q16 0 29 -6t22 -15t13.5 -19.5
t4.5 -20.5q0 -9 -3.5 -17.5t-11.5 -22.5l-78 -119l-33.5 -50.5l-34 -51.5l-31.5 -47.5l-27 -40.5v-226q0 -24 -19 -40.5t-46 -16.5t-46 16.5t-19 40.5v226z" />
    <glyph glyph-name="Z" unicode="Z" horiz-adv-x="610" 
d="M41 66q0 10 4 20t15 27l156.5 227.5l165.5 230.5h-273q-29 0 -43.5 17.5t-14.5 39.5t14.5 40t43.5 18h386q26 0 44.5 -17.5t18.5 -40.5q0 -9 -3.5 -22t-22.5 -41l-158.5 -221.5l-158.5 -223.5h296q29 0 43.5 -18t14.5 -40t-14.5 -39.5t-43.5 -17.5h-406q-29 0 -46.5 18
t-17.5 43z" />
    <glyph glyph-name="bracketleft" unicode="[" horiz-adv-x="376" 
d="M202 -71h89q29 0 44 -18.5t15 -40.5q0 -21 -14.5 -38t-44.5 -17h-153q-25 0 -44 14.5t-19 36.5v790q0 23 19 40.5t44 17.5h151q29 0 43.5 -18.5t14.5 -40.5q0 -21 -14 -38t-44 -17h-87v-671z" />
    <glyph glyph-name="backslash" unicode="\" horiz-adv-x="484" 
d="M41 626q-5 11 -6.5 19t-1.5 15q0 28 18 42.5t41 14.5q18 0 34.5 -9t25.5 -29l291 -628q5 -11 6.5 -19t1.5 -15q0 -28 -18 -42.5t-41 -14.5q-18 0 -34.5 9t-25.5 29z" />
    <glyph glyph-name="bracketright" unicode="]" horiz-adv-x="376" 
d="M174 600h-87q-30 0 -44 17t-14 38q0 22 14.5 40.5t43.5 18.5h151q25 0 44 -17.5t19 -40.5v-790q0 -22 -19 -36.5t-44 -14.5h-153q-30 0 -44.5 17t-14.5 38q0 22 15 40.5t44 18.5h89v671z" />
    <glyph glyph-name="asciicircum" unicode="^" horiz-adv-x="584" 
d="M291 536q-45 -65 -76 -117l-55 -94q-9 -16 -24.5 -22t-29.5 -6q-31 0 -46 18.5t-15 38.5q0 9 2.5 18t15.5 29l29 47l43 68.5l50.5 79l51.5 80.5q11 14 25 20t29 6t29 -6t25 -20l51.5 -80.5l50.5 -79l43 -68.5l29 -47q13 -20 15.5 -29t2.5 -18q0 -20 -15 -38.5t-46 -18.5
q-14 0 -29.5 6t-24.5 22l-55 94t-76 117z" />
    <glyph glyph-name="underscore" unicode="_" horiz-adv-x="564" 
d="M565 -73q28 0 42 -17.5t14 -38.5t-14.5 -38.5t-42.5 -17.5h-564q-28 0 -41.5 17.5t-13.5 38.5t13.5 38.5t42.5 17.5h564z" />
    <glyph glyph-name="grave" unicode="`" horiz-adv-x="560" 
d="M205 612q-20 11 -28.5 25.5t-8.5 28.5q0 20 15 34.5t38 14.5q8 0 16.5 -2t16.5 -7l105 -61q20 -12 28.5 -26t8.5 -28q0 -20 -15 -34.5t-38 -14.5q-8 0 -16.5 2t-16.5 7z" />
    <glyph glyph-name="a" unicode="a" horiz-adv-x="556" 
d="M378 54q-21 -24 -58 -40t-75 -16q-51 0 -90.5 22t-67.5 58t-42.5 82t-14.5 94q0 45 14 91t41.5 83.5t67.5 61t92 23.5q38 0 70 -15t53 -39q0 7 3.5 16.5t11 17.5t19.5 14t30 6q26 0 45 -17t19 -40v-298q0 -17 3.5 -28.5t9.5 -19.5t11.5 -18t5.5 -27q0 -29 -19.5 -48
t-44.5 -19q-20 0 -41.5 9.5t-42.5 46.5zM369 274q0 19 -0.5 32.5t-2 24t-5.5 19t-11 16.5q-13 16 -34.5 25.5t-47.5 9.5q-23 0 -43 -11t-34.5 -31t-22.5 -47t-8 -58q0 -68 31.5 -106t76.5 -38q26 0 47.5 9.5t34.5 25.5q14 16 16.5 35t2.5 57v37z" />
    <glyph glyph-name="b" unicode="b" horiz-adv-x="557" 
d="M187 466q23 20 56.5 33.5t67.5 13.5q51 0 90.5 -22t67.5 -58t42.5 -82t14.5 -94q0 -45 -14 -91t-41.5 -83.5t-67.5 -61t-92 -23.5q-38 0 -70 15t-53 39q-2 -8 -5.5 -17.5t-11.5 -17.5t-20 -13.5t-30 -5.5q-26 0 -43.5 17t-17.5 45v605q0 23 18.5 38.5t44.5 15.5
q27 0 45.5 -15.5t18.5 -38.5v-199zM187 236q0 -38 2.5 -56.5t16.5 -34.5q13 -16 34.5 -25.5t47.5 -9.5q47 0 77.5 40.5t30.5 106.5q0 33 -8.5 59.5t-23 45t-34.5 29t-42 10.5q-26 0 -47.5 -9.5t-34.5 -25.5q-7 -8 -11 -16.5t-5.5 -19t-2 -24t-0.5 -32.5v-38z" />
    <glyph glyph-name="c" unicode="c" horiz-adv-x="490" 
d="M270 401q-23 0 -43 -11t-35 -30.5t-23.5 -46.5t-8.5 -60t8.5 -59.5t23.5 -46t35 -30t43 -10.5q22 0 42 9.5t38 33.5q14 17 25.5 23.5t25.5 6.5q25 0 41.5 -17t16.5 -40t-12.5 -44t-41.5 -43q-24 -18 -57.5 -29.5t-73.5 -11.5q-53 0 -97.5 19.5t-77 54t-51 82t-18.5 103.5
q0 53 18 100t50.5 82.5t77.5 56t98 20.5q37 0 70.5 -11t59 -29t41 -41.5t15.5 -49.5q0 -28 -19 -44.5t-39 -16.5t-31.5 9t-23.5 26q-13 19 -31.5 32t-45.5 13z" />
    <glyph glyph-name="d" unicode="d" horiz-adv-x="556" 
d="M245 513q34 0 67.5 -13.5t56.5 -33.5v199q0 23 18.5 38.5t45.5 15.5q26 0 44.5 -15.5t18.5 -38.5v-605q0 -28 -17.5 -45t-43.5 -17q-18 0 -30 5.5t-20 13.5t-12 17.5t-5 17.5q-21 -24 -53 -39t-70 -15q-49 0 -89 20t-68 55t-43 82t-15 100q0 46 14 92t41 83t67 60t93 23z
M369 274q0 19 -0.5 32.5t-2 24t-5.5 19t-11 16.5q-13 16 -34.5 25.5t-47.5 9.5q-49 0 -78.5 -39t-29.5 -107t29.5 -106.5t78.5 -38.5q26 0 47.5 9.5t34.5 25.5q14 16 16.5 35t2.5 57v37z" />
    <glyph glyph-name="e" unicode="e" horiz-adv-x="525" 
d="M268 407q-44 0 -73.5 -29t-35.5 -68h195q7 0 8.5 3t1.5 6q0 10 -6 25t-18 29t-30 24t-42 10zM277 -5q-54 0 -99.5 19t-78 53t-51 81t-18.5 102q0 57 18.5 105t51 83t75.5 55t93 20t91.5 -18t71.5 -48.5t47 -70.5t17 -83q0 -37 -22.5 -57t-53.5 -20h-262q8 -51 39 -81.5
t85 -30.5q22 0 43 8t41 29q25 27 55 27q22 0 38 -14.5t16 -37.5q0 -22 -16.5 -43.5t-44.5 -39t-63.5 -28t-72.5 -10.5z" />
    <glyph glyph-name="f" unicode="f" horiz-adv-x="357" 
d="M367 658q0 -20 -14 -38.5t-37 -18.5q-7 0 -13 1t-11 2l-10 2t-13 1q-23 0 -34 -14t-11 -46v-39h72q26 0 40.5 -16.5t14.5 -39.5t-14.5 -39.5t-40.5 -16.5h-72v-344q0 -23 -19 -38.5t-45 -15.5t-44.5 15.5t-18.5 38.5v344h-37q-27 0 -41 18t-14 39t13.5 38t41.5 17h37v22
q0 33 3 54.5t11 40.5q17 41 58 67.5t95 26.5q45 0 74 -14.5t29 -46.5z" />
    <glyph glyph-name="g" unicode="g" horiz-adv-x="560" 
d="M270 -78q42 0 72.5 25.5t30.5 77.5v32q-23 -20 -56.5 -33.5t-67.5 -13.5q-49 0 -89 19t-68 53t-43 79t-15 98q0 45 15 90.5t43 81.5t68 59t89 23q38 0 70 -15t53 -39q0 5 3 14t10 18t19.5 15.5t31.5 6.5q26 0 45 -16.5t19 -39.5v-416q0 -58 -18.5 -101.5t-51 -72
t-75.5 -43t-91 -14.5q-23 0 -45.5 3.5t-41 9.5t-33 13t-21.5 15q-11 11 -17 23t-6 29q0 18 14.5 35t40.5 17q10 0 23 -4t27 -11q13 -7 32 -12.5t33 -5.5zM373 274q0 19 -0.5 32.5t-2 24t-5.5 19t-11 16.5q-13 16 -34.5 25.5t-47.5 9.5q-47 0 -77.5 -39t-30.5 -103
q0 -68 29.5 -104.5t78.5 -36.5q26 0 47.5 9.5t34.5 25.5q14 16 16.5 35t2.5 57v29z" />
    <glyph glyph-name="h" unicode="h" horiz-adv-x="542" 
d="M482 52q0 -24 -18.5 -39t-44.5 -15t-45 15t-19 39v255q0 19 -3 34.5t-10.5 29t-22 22t-33.5 8.5q-20 0 -40 -7.5t-37 -24.5q-8 -8 -15 -22t-7 -47v-248q0 -24 -19 -39t-45 -15t-44.5 15t-18.5 39v613q0 24 19 39t45 15q23 0 43 -14t20 -40v-206q20 21 53.5 37.5
t78.5 16.5q72 0 117.5 -51t45.5 -141v-269z" />
    <glyph glyph-name="i" unicode="i" horiz-adv-x="246" 
d="M186 52q0 -24 -18.5 -39t-44.5 -15t-44.5 15t-18.5 39v407q0 23 18.5 38.5t44.5 15.5t44.5 -15.5t18.5 -38.5v-407zM54 647q0 29 20 49t49 20t49 -20t20 -49t-20 -49t-49 -20t-49 20t-20 49z" />
    <glyph glyph-name="j" unicode="j" horiz-adv-x="246" 
d="M58 460q0 23 19 37.5t45 14.5t44.5 -15.5t18.5 -38.5v-461q0 -42 -7 -68.5t-19 -46.5q-20 -33 -52 -52.5t-74 -19.5q-32 0 -49.5 15.5t-17.5 43.5q0 14 10.5 30.5t39.5 24.5q16 5 25 11.5t14 22.5q2 6 2.5 14.5t0.5 24.5v463zM54 647q0 29 20 49t49 20t49 -20t20 -49
t-20 -49t-49 -20t-49 20t-20 49z" />
    <glyph glyph-name="k" unicode="k" horiz-adv-x="512" 
d="M444 402q-27 -24 -61 -51.5l-72 -59.5l27 -36l31.5 -41l40.5 -51.5l55 -67.5q10 -12 13.5 -22.5t3.5 -18.5q0 -21 -17 -38.5t-43 -17.5q-30 0 -52 22l-28.5 34.5l-29.5 37.5l-37.5 50l-54.5 73l-18 -14t-19 -16v-133q0 -23 -19 -38.5t-45 -15.5t-44.5 15.5t-18.5 38.5
v613q0 23 18.5 38.5t44.5 15.5t45 -15.5t19 -38.5v-336l88.5 78l89.5 81q15 14 28 19.5t27 5.5q24 0 41 -18.5t17 -41.5q0 -8 -5 -20t-25 -31z" />
    <glyph glyph-name="l" unicode="l" horiz-adv-x="246" 
d="M186 52q0 -23 -18.5 -38.5t-44.5 -15.5t-44.5 15.5t-18.5 38.5v613q0 23 18.5 38.5t44.5 15.5t44.5 -15.5t18.5 -38.5v-613z" />
    <glyph glyph-name="m" unicode="m" horiz-adv-x="826" 
d="M316 513q35 0 68 -14t55 -41q26 23 62.5 39t84.5 16q42 0 74.5 -14t54.5 -39.5t33 -61t11 -77.5v-269q0 -24 -18.5 -39t-44.5 -15t-45 15t-19 39v254q0 20 -3.5 35.5t-11 28.5t-21.5 22t-34 9q-43 0 -66 -28.5t-23 -72.5v-248q0 -24 -18.5 -39t-44.5 -15t-45 15t-19 39
v253q0 21 -3 36.5t-10.5 28.5t-21 22t-33.5 9q-43 0 -67 -28.5t-24 -72.5v-248q0 -24 -19 -39t-45 -15t-44.5 15t-18.5 39v407q0 24 19 39t45 15q23 0 43 -14t20 -40q20 21 52 37.5t77 16.5z" />
    <glyph glyph-name="n" unicode="n" horiz-adv-x="542" 
d="M355 304q0 22 -3.5 37.5t-11.5 29t-22.5 22t-37.5 8.5q-42 0 -67.5 -28t-25.5 -73v-248q0 -24 -19 -39t-45 -15t-44.5 15t-18.5 39v407q0 24 19 39t45 15q23 0 43 -14t20 -40q20 21 53.5 37.5t78.5 16.5q72 0 117.5 -51t45.5 -141v-269q0 -24 -18.5 -39t-44.5 -15t-45 15
t-19 39v252z" />
    <glyph glyph-name="o" unicode="o" horiz-adv-x="548" 
d="M274 107q24 0 44.5 10t36.5 29t25 46t9 62q0 34 -9 61.5t-25 46.5t-36.5 29t-44.5 10t-44.5 -10t-36.5 -29t-25 -46.5t-9 -61.5q0 -35 9 -62t25 -46t36.5 -29t44.5 -10zM274 -5q-49 0 -93.5 19t-78 53.5t-53 82t-19.5 104.5t19.5 104.5t52.5 82t77.5 53.5t94.5 19
t94.5 -19t77.5 -53.5t52.5 -82t19.5 -104.5t-19.5 -104.5t-53 -82t-78 -53.5t-93.5 -19z" />
    <glyph glyph-name="p" unicode="p" horiz-adv-x="556" 
d="M311 -2q-34 0 -67.5 13t-56.5 33v-180q0 -23 -18.5 -38.5t-45.5 -15.5q-26 0 -44.5 15.5t-18.5 38.5v587q0 28 17.5 45t43.5 17q18 0 30 -5.5t20 -13.5t11.5 -17.5t5.5 -17.5q21 24 53 39t70 15q49 0 89 -20.5t68 -56t43 -82t15 -98.5q0 -46 -14 -92t-41 -83t-67.5 -60
t-92.5 -23zM187 237q0 -38 2.5 -57t16.5 -35q13 -16 34.5 -25.5t47.5 -9.5q49 0 78.5 39t29.5 107t-29.5 106.5t-78.5 38.5q-26 0 -47.5 -9.5t-34.5 -25.5q-7 -8 -11 -16.5t-5.5 -19t-2 -24t-0.5 -32.5v-37z" />
    <glyph glyph-name="q" unicode="q" horiz-adv-x="556" 
d="M433 -190q-27 0 -45.5 15.5t-18.5 38.5v179q-23 -20 -56.5 -33t-67.5 -13q-53 0 -93 23t-67 59.5t-41 82.5t-14 92q0 48 15 94.5t42 82.5q35 47 76.5 64.5t81.5 17.5q38 0 70 -15t53 -39q1 8 5 17.5t12 17.5t20 13.5t30 5.5q26 0 43.5 -17t17.5 -45v-587
q0 -23 -18.5 -38.5t-44.5 -15.5zM369 274q0 19 -0.5 32.5t-2 24t-5.5 19t-11 16.5q-13 16 -34.5 25.5t-47.5 9.5q-49 0 -78.5 -39.5t-29.5 -107.5t29.5 -106.5t78.5 -38.5q26 0 47.5 9.5t34.5 25.5q14 16 16.5 35t2.5 57v38z" />
    <glyph glyph-name="r" unicode="r" horiz-adv-x="373" 
d="M292 513q29 0 49 -18t20 -44q0 -24 -13 -42t-39 -18q-8 0 -12.5 0.5t-9.5 1.5t-10 1.5t-13 0.5q-10 0 -23.5 -2.5t-27.5 -13.5q-17 -14 -22 -33.5t-5 -46.5v-247q0 -24 -18.5 -39t-44.5 -15t-44.5 15t-18.5 39v407q0 23 18.5 38.5t44.5 15.5q32 0 47.5 -18t16.5 -35
q23 24 49 38.5t56 14.5z" />
    <glyph glyph-name="s" unicode="s" horiz-adv-x="452" 
d="M217 408q-23 0 -38 -13t-15 -30q0 -9 3 -16t11.5 -13.5t23.5 -12.5t38 -12l19 -5q48 -13 79 -30t48.5 -37t24 -42.5t6.5 -46.5q0 -35 -16 -63.5t-42.5 -49t-61.5 -31.5t-73 -11q-43 0 -78.5 11.5t-59.5 28.5q-29 20 -41.5 42t-12.5 43q0 23 15.5 38t40.5 15q14 0 27 -6
t24 -20q19 -25 44.5 -36t47.5 -11q29 0 45 14t16 33q0 7 -3 14.5t-12.5 15.5t-27 15.5t-45.5 15.5l-19 5q-82 22 -113.5 60t-31.5 87q0 35 14 63t38.5 48t58.5 31t73 11q36 0 68.5 -8t56.5 -22t38.5 -32.5t14.5 -38.5q0 -23 -15 -39.5t-38 -16.5q-13 0 -26.5 5t-27.5 16
q-37 31 -78 31z" />
    <glyph glyph-name="t" unicode="t" horiz-adv-x="378" 
d="M364 66q0 -28 -31 -48t-83 -20t-89.5 25t-51.5 69q-6 19 -8.5 39.5t-2.5 55.5v209h-38q-25 0 -39.5 18t-14.5 38q0 21 14.5 38.5t39.5 17.5h38v81q0 23 19 39.5t45 16.5t44.5 -16.5t18.5 -39.5v-81h80q25 0 39.5 -17.5t14.5 -38.5q0 -20 -14.5 -38t-39.5 -18h-80v-214
q0 -39 14 -54t30 -15q8 0 13 1l10 2t11 2t13 1q23 0 35.5 -16t12.5 -37z" />
    <glyph glyph-name="u" unicode="u" horiz-adv-x="542" 
d="M187 198q0 -13 3.5 -28.5t12 -28.5t22.5 -22t35 -9q44 0 69.5 28t25.5 73v248q0 24 19 39t45 15t44.5 -15t18.5 -39v-407q0 -24 -19 -39t-45 -15q-23 0 -43 14t-20 40q-20 -21 -53.5 -37.5t-78.5 -16.5q-72 0 -117.5 51t-45.5 141v269q0 24 18.5 39t44.5 15t45 -15
t19 -39v-261z" />
    <glyph glyph-name="v" unicode="v" horiz-adv-x="504" 
d="M21 456q0 26 20 41.5t45 15.5q17 0 32.5 -9t23.5 -27q29 -73 55 -146.5t58 -148.5l22.5 58l23.5 64l26 74l31 90q8 23 23 34t38 11q28 0 46 -16.5t18 -39.5q0 -8 -3.5 -22.5t-12.5 -39.5q-32 -86 -69.5 -177t-77.5 -176q-13 -27 -29 -37t-36 -10q-28 0 -43.5 12.5
t-25.5 34.5l-78 179.5t-78 198.5q-4 11 -6.5 19.5t-2.5 16.5z" />
    <glyph glyph-name="w" unicode="w" horiz-adv-x="798" 
d="M771 458q0 -14 -4.5 -28t-8.5 -28l-54.5 -180.5t-59.5 -169.5q-11 -30 -31 -41t-42 -11t-42.5 10.5t-33.5 38.5q-8 17 -17.5 40.5l-21.5 55l-26.5 73l-32.5 94.5l-34.5 -100.5l-27.5 -75t-21 -53l-15 -35.5q-12 -27 -32.5 -37.5t-42.5 -10.5q-21 0 -41 11t-32 43
q-35 91 -61.5 178l-46.5 155q-5 18 -8.5 29.5t-5 19t-2 12.5t-0.5 10q0 23 18 39t44 16q21 0 37.5 -10t22.5 -31l19 -70l19 -69l21.5 -72.5l25.5 -79.5l25.5 75.5l27 78l25.5 72.5t23 60q11 25 27 35.5t36 10.5t36.5 -10.5t26.5 -34.5l25.5 -66.5l29 -76.5l28.5 -76.5
l25 -67.5q15 51 34 123.5l45 167.5q6 21 22.5 31t37.5 10q26 0 44.5 -16t18.5 -39z" />
    <glyph glyph-name="x" unicode="x" horiz-adv-x="528" 
d="M493 453q0 -11 -3.5 -21t-16.5 -25q-32 -38 -64.5 -72l-67.5 -73l138 -157q11 -13 15.5 -24t4.5 -22q0 -9 -3.5 -20t-11 -20t-18.5 -15t-27 -6q-15 0 -29.5 6.5t-27.5 21.5l-119 142l-72 -86l-47 -57q-12 -15 -26 -21t-29 -6q-26 0 -43.5 19.5t-17.5 41.5q0 11 3 20
t14 22l31.5 36.5l32 36l35 39l41.5 45.5q-33 40 -67 76.5t-69 79.5q-14 19 -14 38q0 21 18.5 41t43.5 20q17 0 29 -6t25 -21l55.5 -67.5l58.5 -67.5l55.5 65.5l53.5 65.5q14 18 28.5 24.5t27.5 6.5q27 0 45 -19t18 -41z" />
    <glyph glyph-name="y" unicode="y" horiz-adv-x="504" 
d="M284 -34q-22 -45 -43.5 -75t-43 -48t-43 -25.5t-43.5 -7.5q-30 0 -46 18.5t-16 38.5q0 16 10 31t34 26q13 6 23.5 12.5t19.5 16t18 23t20 33.5l15 28l-17 35q-38 77 -73 165.5l-69 182.5q-4 11 -6.5 19.5t-2.5 16.5q0 26 20 41.5t45 15.5q17 0 32.5 -9t23.5 -27
q29 -73 55 -147t58 -149l22.5 58l23.5 64l26 74.5l31 90.5q8 23 23 34t38 11q28 0 46 -16.5t18 -39.5q0 -8 -3.5 -22.5t-12.5 -39.5q-32 -86 -69.5 -177.5t-77.5 -176.5z" />
    <glyph glyph-name="z" unicode="z" horiz-adv-x="476" 
d="M92 5q-16 0 -27 5.5t-18 13.5t-10 17t-3 15q0 10 4.5 22.5t18.5 35.5q44 72 94.5 139l101.5 139h-164q-29 0 -44 17.5t-15 38.5t15 38.5t44 17.5h279q30 0 46 -17t16 -39q0 -14 -6.5 -28t-17.5 -30l-100 -136l-57.5 -77l-29 -39l-14.5 -21h185q28 0 42 -17.5t14 -38.5
t-14 -38.5t-42 -17.5h-298z" />
    <glyph glyph-name="braceleft" unicode="{" horiz-adv-x="348" 
d="M12 265q0 19 13.5 37.5t40.5 23.5l5 1q5 1 8 6.5t4 19.5l6 236q1 24 9.5 46.5t26 40t43.5 28t61 10.5h41q35 0 50.5 -17.5t15.5 -36.5t-14 -37.5t-48 -18.5h-41q-15 0 -17 -21l-6 -250q-1 -26 -10 -42t-25 -26q16 -10 25 -26t10 -42l6 -251q2 -21 17 -21h41
q34 0 48 -18.5t14 -37.5t-15.5 -36.5t-50.5 -17.5h-41q-35 0 -61 10.5t-43.5 28t-26 40t-9.5 46.5l-6 237q0 14 -3.5 19.5t-8.5 6.5l-5 1q-27 5 -40.5 23.5t-13.5 37.5z" />
    <glyph glyph-name="bar" unicode="|" horiz-adv-x="284" 
d="M79 662q0 23 18.5 38.5t44.5 15.5t44.5 -15.5t18.5 -38.5v-795q0 -23 -18.5 -38.5t-44.5 -15.5t-44.5 15.5t-18.5 38.5v795z" />
    <glyph glyph-name="braceright" unicode="}" horiz-adv-x="348" 
d="M336 265q0 -19 -13.5 -37.5t-40.5 -23.5l-5 -1q-5 -1 -8.5 -6.5t-3.5 -19.5l-6 -237q-1 -24 -9.5 -46.5t-26 -40t-43.5 -28t-61 -10.5h-41q-35 0 -50.5 17.5t-15.5 36.5q0 9 3 19t10.5 18.5t19.5 13.5t29 5h41q15 0 17 21l6 251q1 26 10 42t25 26q-16 10 -25 26t-10 42
l-6 250q-2 21 -17 21h-41q-17 0 -29 5t-19.5 13.5t-10.5 18.5t-3 19q0 19 15.5 36.5t50.5 17.5h41q35 0 61 -10.5t43.5 -28t26 -40t9.5 -46.5l6 -236q0 -14 3.5 -19.5t8.5 -6.5l5 -1q27 -5 40.5 -23.5t13.5 -37.5z" />
    <glyph glyph-name="asciitilde" unicode="~" 
d="M253 239q-16 9 -26 17t-21 8q-7 0 -12 -5t-12 -19q-10 -20 -24 -31t-36 -11q-29 0 -44 18t-15 41q0 19 10.5 39t29 36t43.5 26t54 10h8q35 -2 63.5 -14.5t50.5 -26.5q16 -9 26 -17t21 -8q7 0 12 5t12 19q10 20 24 31t36 11q29 0 44 -18t15 -41q0 -20 -10.5 -39.5
t-29 -35.5t-43.5 -26t-54 -10h-8q-35 2 -63.5 14.5t-50.5 26.5z" />
    <glyph glyph-name="DEL" horiz-adv-x="296" 
 />
    <glyph glyph-name="Adieresis" unicode="&#xc4;" horiz-adv-x="704" 
d="M193 813q0 26 18 44t44 18t44 -18t18 -44t-18 -44t-44 -18t-44 18t-18 44zM386 813q0 26 18 44t44 18t44 -18t18 -44t-18 -44t-44 -18t-44 18t-18 44zM489 185h-277l-50 -141q-8 -25 -25.5 -35.5t-36.5 -10.5q-25 0 -44.5 15.5t-19.5 44.5q0 7 1.5 15.5t8.5 27.5
q50 137 109.5 276.5t125.5 271.5q11 23 31.5 35t43.5 12q21 0 40.5 -11t31.5 -36q62 -124 118 -258t113 -290q7 -19 8.5 -27.5t1.5 -15.5q0 -29 -19.5 -44.5t-44.5 -15.5q-19 0 -37 10.5t-26 35.5zM352 530l-25 -57.5l-26 -61l-25 -59l-22 -52.5h193l-19.5 48l-24 59l-26 63
z" />
    <glyph glyph-name="Aring" unicode="&#xc5;" horiz-adv-x="704" 
d="M489 185h-277l-50 -141q-8 -25 -25.5 -35.5t-36.5 -10.5q-25 0 -44.5 15.5t-19.5 44.5q0 7 1.5 15.5t8.5 27.5q50 137 109.5 276.5t125.5 271.5q11 23 30.5 35t42.5 12q21 0 41.5 -11t32.5 -36q62 -124 118 -258t113 -290q7 -19 8.5 -27.5t1.5 -15.5q0 -29 -19.5 -44.5
t-44.5 -15.5q-19 0 -37 10.5t-26 35.5zM352 530l-25 -57.5l-26 -61l-25 -59l-22 -52.5h193l-19.5 48l-24 59l-26 63zM266 812q0 18 7 34t19 28t28 19t34 7t34 -7t28 -19t19 -28t7 -34t-7 -34t-19 -28.5t-28 -19.5t-34 -7t-34 7t-28 19.5t-19 28.5t-7 34zM320 812
q0 -16 9 -26.5t25 -10.5q15 0 24 10.5t9 26.5q0 14 -9 24.5t-24 10.5q-16 0 -25 -10.5t-9 -24.5z" />
    <glyph glyph-name="Ccedilla" unicode="&#xc7;" horiz-adv-x="669" 
d="M456 -108q0 -33 -24 -57.5t-68 -24.5q-22 0 -38.5 4t-29.5 10t-19.5 15.5t-6.5 18.5q0 11 7.5 21t22.5 10q4 0 7.5 -1t11.5 -5t18 -7.5t21 -3.5q9 0 16 5t7 15q0 6 -4.5 12t-12.5 8l-43 6q-17 2 -24 10.5t-7 19.5q0 7 2 13.5t6 16.5l8 23q-64 12 -112.5 45t-81.5 79.5
t-49.5 103.5t-16.5 117q0 74 23 138t65.5 111t103 74t134.5 27q36 0 69 -8t61 -20.5t51 -29t39 -34.5q33 -36 33 -71q0 -19 -16.5 -37.5t-43.5 -19.5q-14 0 -27.5 5t-27.5 22q-29 34 -61.5 56t-82.5 22q-48 0 -83 -20.5t-58.5 -54t-35 -75.5t-11.5 -85q0 -44 12.5 -86.5
t36.5 -75.5t58.5 -53.5t77.5 -20.5q24 0 43.5 4.5t36.5 14t33.5 24.5t33.5 36q14 17 28 22t28 5q22 0 40.5 -16t18.5 -40t-18.5 -52.5t-51.5 -53.5t-79 -41.5t-101 -17.5q-2 -5 -3.5 -10t-3.5 -11q38 -3 63 -21.5t25 -60.5z" />
    <glyph glyph-name="Eacute" unicode="&#xc9;" horiz-adv-x="524" 
d="M396 404q30 0 45 -18t15 -40t-15 -39.5t-45 -17.5h-200v-169h228q31 0 46 -18t15 -40t-15 -39.5t-46 -17.5h-295q-25 0 -44 14.5t-19 36.5v572q0 23 19 40.5t44 17.5h293q30 0 45 -18t15 -40t-15 -39.5t-45 -17.5h-226v-167h200zM300 891q8 5 16.5 7t16.5 2
q23 0 38 -14.5t15 -34.5q0 -14 -8.5 -28t-28.5 -26l-105 -61q-8 -5 -16.5 -7t-16.5 -2q-23 0 -38 14.5t-15 34.5q0 14 8.5 28.5t28.5 25.5z" />
    <glyph glyph-name="Ntilde" unicode="&#xd1;" horiz-adv-x="708" 
d="M642 54q0 -24 -19.5 -40t-45.5 -16q-28 0 -42.5 12.5t-26.5 29.5l-21 30q-69 99 -143.5 193.5t-148.5 200.5v-409q0 -24 -19 -40.5t-45 -16.5q-27 0 -46 16.5t-19 40.5v570q0 34 22 50t51 16q18 0 33.5 -7.5t29.5 -26.5l85.5 -109.5l78.5 -103l74 -101l73 -105.5v396
q0 24 19 40.5t45 16.5q27 0 46 -16.5t19 -40.5v-580zM383 850q7 -5 10.5 -6.5t5.5 -1.5q8 0 13 9l3 5q7 11 17.5 18t25.5 7q17 0 32.5 -11.5t15.5 -35.5q0 -12 -5 -27.5t-16.5 -30t-30 -24.5t-44.5 -10q-30 0 -52.5 11.5t-39.5 23.5q-7 5 -10.5 6.5t-5.5 1.5q-8 0 -13 -9
l-3 -5q-7 -11 -17.5 -18t-25.5 -7q-17 0 -32.5 11.5t-15.5 35.5q0 12 5 27.5t16.5 30t30 24.5t44.5 10q30 0 52.5 -11.5t39.5 -23.5z" />
    <glyph glyph-name="Odieresis" unicode="&#xd6;" horiz-adv-x="752" 
d="M376 -5q-66 0 -126 25.5t-105 71.5t-72 110.5t-27 142.5t27 142.5t72 110.5t105 71.5t126 25.5t126 -25.5t105 -71.5t72 -110.5t27 -142.5t-27 -142.5t-72 -110.5t-105 -71.5t-126 -25.5zM376 110q39 0 74.5 16.5t61.5 47.5t41.5 74.5t15.5 96.5t-15.5 96.5t-41.5 74.5
t-61.5 48t-74.5 17q-40 0 -75 -17t-61.5 -48t-41.5 -74.5t-15 -96.5t15 -96.5t41.5 -74.5t61.5 -47.5t75 -16.5zM217 813q0 26 18 44t44 18t44 -18t18 -44t-18 -44t-44 -18t-44 18t-18 44zM410 813q0 26 18 44t44 18t44 -18t18 -44t-18 -44t-44 -18t-44 18t-18 44z" />
    <glyph glyph-name="Udieresis" unicode="&#xdc;" horiz-adv-x="653" 
d="M457 633q0 24 19 41t46 17t46 -17t19 -41v-374q0 -64 -22 -113.5t-58 -83t-83 -50.5t-97 -17t-97 17t-83.5 50.5t-58.5 83t-22 113.5v375q0 20 17 38.5t48 18.5q29 0 47 -18.5t18 -38.5v-375q0 -39 11 -67t29.5 -46.5t42 -27t48.5 -8.5t48.5 8.5t41.5 27t29 46.5t11 67
v374zM168 813q0 26 18 44t44 18t44 -18t18 -44t-18 -44t-44 -18t-44 18t-18 44zM361 813q0 26 18 44t44 18t44 -18t18 -44t-18 -44t-44 -18t-44 18t-18 44z" />
    <glyph glyph-name="aacute" unicode="&#xe1;" horiz-adv-x="556" 
d="M304 710q8 5 16.5 7t16.5 2q23 0 38 -14.5t15 -34.5q0 -14 -8.5 -28t-28.5 -26l-105 -61q-8 -5 -16.5 -7t-16.5 -2q-23 0 -38 14.5t-15 34.5q0 14 8.5 28.5t28.5 25.5zM378 54q-21 -24 -58 -40t-75 -16q-51 0 -90.5 22t-67.5 58t-42.5 82t-14.5 94q0 45 14 91t41.5 83.5
t67.5 61t92 23.5q38 0 70 -15t53 -39q0 7 3.5 16.5t11 17.5t19.5 14t30 6q26 0 45 -17t19 -40v-298q0 -17 3.5 -28.5t9.5 -19.5t11.5 -18t5.5 -27q0 -29 -19.5 -48t-44.5 -19q-20 0 -41.5 9.5t-42.5 46.5zM369 274q0 19 -0.5 32.5t-2 24t-5.5 19t-11 16.5q-13 16 -34.5 25.5
t-47.5 9.5q-23 0 -43 -11t-34.5 -31t-22.5 -47t-8 -58q0 -68 31.5 -106t76.5 -38q26 0 47.5 9.5t34.5 25.5q14 16 16.5 35t2.5 57v37z" />
    <glyph glyph-name="agrave" unicode="&#xe0;" horiz-adv-x="556" 
d="M199 612q-20 11 -28.5 25.5t-8.5 28.5q0 20 15 34.5t38 14.5q8 0 16.5 -2t16.5 -7l105 -61q20 -12 28.5 -26t8.5 -28q0 -20 -15 -34.5t-38 -14.5q-8 0 -16.5 2t-16.5 7zM378 54q-21 -24 -58 -40t-75 -16q-51 0 -90.5 22t-67.5 58t-42.5 82t-14.5 94q0 45 14 91t41.5 83.5
t67.5 61t92 23.5q38 0 70 -15t53 -39q0 7 3.5 16.5t11 17.5t19.5 14t30 6q26 0 45 -17t19 -40v-298q0 -17 3.5 -28.5t9.5 -19.5t11.5 -18t5.5 -27q0 -29 -19.5 -48t-44.5 -19q-20 0 -41.5 9.5t-42.5 46.5zM369 274q0 19 -0.5 32.5t-2 24t-5.5 19t-11 16.5q-13 16 -34.5 25.5
t-47.5 9.5q-23 0 -43 -11t-34.5 -31t-22.5 -47t-8 -58q0 -68 31.5 -106t76.5 -38q26 0 47.5 9.5t34.5 25.5q14 16 16.5 35t2.5 57v37z" />
    <glyph glyph-name="acircumflex" unicode="&#xe2;" horiz-adv-x="556" 
d="M220 559q-18 -17 -39 -17q-20 0 -33.5 14.5t-13.5 34.5q0 9 4.5 20t20.5 25l70 63q21 20 47 20t47 -20l70 -63q16 -14 20.5 -25t4.5 -20q0 -20 -13.5 -34.5t-33.5 -14.5q-21 0 -39 17l-56 52zM378 54q-21 -24 -58 -40t-75 -16q-51 0 -90.5 22t-67.5 58t-42.5 82t-14.5 94
q0 45 14 91t41.5 83.5t67.5 61t92 23.5q38 0 70 -15t53 -39q0 7 3.5 16.5t11 17.5t19.5 14t30 6q26 0 45 -17t19 -40v-298q0 -17 3.5 -28.5t9.5 -19.5t11.5 -18t5.5 -27q0 -29 -19.5 -48t-44.5 -19q-20 0 -41.5 9.5t-42.5 46.5zM369 274q0 19 -0.5 32.5t-2 24t-5.5 19
t-11 16.5q-13 16 -34.5 25.5t-47.5 9.5q-23 0 -43 -11t-34.5 -31t-22.5 -47t-8 -58q0 -68 31.5 -106t76.5 -38q26 0 47.5 9.5t34.5 25.5q14 16 16.5 35t2.5 57v37z" />
    <glyph glyph-name="adieresis" unicode="&#xe4;" horiz-adv-x="556" 
d="M118 631q0 26 18 44t44 18t44 -18t18 -44t-18 -44t-44 -18t-44 18t-18 44zM311 631q0 26 18 44t44 18t44 -18t18 -44t-18 -44t-44 -18t-44 18t-18 44zM378 54q-21 -24 -58 -40t-75 -16q-51 0 -90.5 22t-67.5 58t-42.5 82t-14.5 94q0 45 14 91t41.5 83.5t67.5 61t92 23.5
q38 0 70 -15t53 -39q0 7 3.5 16.5t11 17.5t19.5 14t30 6q26 0 45 -17t19 -40v-298q0 -17 3.5 -28.5t9.5 -19.5t11.5 -18t5.5 -27q0 -29 -19.5 -48t-44.5 -19q-20 0 -41.5 9.5t-42.5 46.5zM369 274q0 19 -0.5 32.5t-2 24t-5.5 19t-11 16.5q-13 16 -34.5 25.5t-47.5 9.5
q-23 0 -43 -11t-34.5 -31t-22.5 -47t-8 -58q0 -68 31.5 -106t76.5 -38q26 0 47.5 9.5t34.5 25.5q14 16 16.5 35t2.5 57v37z" />
    <glyph glyph-name="atilde" unicode="&#xe3;" horiz-adv-x="556" 
d="M306 668q7 -5 10.5 -6.5t5.5 -1.5q8 0 13 9l3 5q7 11 17.5 18t25.5 7q17 0 32.5 -11.5t15.5 -35.5q0 -12 -5 -27.5t-16.5 -30t-30 -24.5t-44.5 -10q-30 0 -52.5 11.5t-39.5 23.5q-7 5 -10.5 6.5t-5.5 1.5q-8 0 -13 -9l-3 -5q-7 -11 -17.5 -18t-25.5 -7q-17 0 -32.5 11.5
t-15.5 35.5q0 12 5 27.5t16.5 30t30 24.5t44.5 10q30 0 52.5 -11.5t39.5 -23.5zM378 54q-21 -24 -58 -40t-75 -16q-51 0 -90.5 22t-67.5 58t-42.5 82t-14.5 94q0 45 14 91t41.5 83.5t67.5 61t92 23.5q38 0 70 -15t53 -39q0 7 3.5 16.5t11 17.5t19.5 14t30 6q26 0 45 -17
t19 -40v-298q0 -17 3.5 -28.5t9.5 -19.5t11.5 -18t5.5 -27q0 -29 -19.5 -48t-44.5 -19q-20 0 -41.5 9.5t-42.5 46.5zM369 274q0 19 -0.5 32.5t-2 24t-5.5 19t-11 16.5q-13 16 -34.5 25.5t-47.5 9.5q-23 0 -43 -11t-34.5 -31t-22.5 -47t-8 -58q0 -68 31.5 -106t76.5 -38
q26 0 47.5 9.5t34.5 25.5q14 16 16.5 35t2.5 57v37z" />
    <glyph glyph-name="aring" unicode="&#xe5;" horiz-adv-x="556" 
d="M378 54q-21 -24 -58 -40t-75 -16q-51 0 -90.5 22t-67.5 58t-42.5 82t-14.5 94q0 45 14 91t41.5 83.5t67.5 61t92 23.5q38 0 70 -15t53 -39q0 7 3.5 16.5t11 17.5t19.5 14t30 6q26 0 45 -17t19 -40v-298q0 -17 3.5 -28.5t9.5 -19.5t11.5 -18t5.5 -27q0 -29 -19.5 -48
t-44.5 -19q-20 0 -41.5 9.5t-42.5 46.5zM369 274q0 19 -0.5 32.5t-2 24t-5.5 19t-11 16.5q-13 16 -34.5 25.5t-47.5 9.5q-23 0 -43 -11t-34.5 -31t-22.5 -47t-8 -58q0 -68 31.5 -106t76.5 -38q26 0 47.5 9.5t34.5 25.5q14 16 16.5 35t2.5 57v37zM191 631q0 18 7 34t19 28
t28 19t34 7t34 -7t28 -19t19 -28t7 -34t-7 -34t-19 -28.5t-28 -19.5t-34 -7t-34 7t-28 19.5t-19 28.5t-7 34zM245 631q0 -16 9 -26.5t25 -10.5q15 0 24 10.5t9 26.5q0 14 -9 24.5t-24 10.5q-16 0 -25 -10.5t-9 -24.5z" />
    <glyph glyph-name="ccedilla" unicode="&#xe7;" horiz-adv-x="490" 
d="M358 -108q0 -33 -24 -57.5t-68 -24.5q-22 0 -38.5 4t-29.5 10t-19.5 15.5t-6.5 18.5q0 11 7.5 21t22.5 10q4 0 7.5 -1t11.5 -5t18 -7.5t21 -3.5q9 0 16 5t7 15q0 6 -4.5 12t-12.5 8l-43 6q-17 2 -24 10.5t-7 19.5q0 7 2 13.5t6 16.5l9 26q-40 10 -73 33t-56.5 55.5
t-36.5 73.5t-13 88q0 53 18 100t50.5 82.5t77.5 56t98 20.5q37 0 70.5 -11t59 -29t41 -41.5t15.5 -49.5q0 -28 -19 -44.5t-39 -16.5t-31.5 9t-23.5 26q-13 19 -31.5 32t-45.5 13q-23 0 -43 -11t-35 -30.5t-23.5 -46.5t-8.5 -60t8.5 -59.5t23.5 -45.5t35 -29.5t43 -10.5
q22 0 42 9.5t38 33.5q14 17 25.5 23.5t25.5 6.5q25 0 41.5 -17t16.5 -40t-12.5 -44t-41.5 -43q-24 -18 -57 -29t-71 -12q-2 -5 -3.5 -10.5t-3.5 -11.5q38 -3 63 -21.5t25 -60.5z" />
    <glyph glyph-name="eacute" unicode="&#xe9;" horiz-adv-x="525" 
d="M268 407q-44 0 -73.5 -29t-35.5 -68h195q7 0 8.5 3t1.5 6q0 10 -6 25t-18 29t-30 24t-42 10zM277 -5q-54 0 -99.5 19t-78 53t-51 81t-18.5 102q0 57 18.5 105t51 83t75.5 55t93 20t91.5 -18t71.5 -48.5t47 -70.5t17 -83q0 -37 -22.5 -57t-53.5 -20h-262q8 -51 39 -81.5
t85 -30.5q22 0 43 8t41 29q25 27 55 27q22 0 38 -14.5t16 -37.5q0 -22 -16.5 -43.5t-44.5 -39t-63.5 -28t-72.5 -10.5zM291 710q8 5 16.5 7t16.5 2q23 0 38 -14.5t15 -34.5q0 -14 -8.5 -28t-28.5 -26l-105 -61q-8 -5 -16.5 -7t-16.5 -2q-23 0 -38 14.5t-15 34.5
q0 14 8.5 28.5t28.5 25.5z" />
    <glyph glyph-name="egrave" unicode="&#xe8;" horiz-adv-x="525" 
d="M268 407q-44 0 -73.5 -29t-35.5 -68h195q7 0 8.5 3t1.5 6q0 10 -6 25t-18 29t-30 24t-42 10zM277 -5q-54 0 -99.5 19t-78 53t-51 81t-18.5 102q0 57 18.5 105t51 83t75.5 55t93 20t91.5 -18t71.5 -48.5t47 -70.5t17 -83q0 -37 -22.5 -57t-53.5 -20h-262q8 -51 39 -81.5
t85 -30.5q22 0 43 8t41 29q25 27 55 27q22 0 38 -14.5t16 -37.5q0 -22 -16.5 -43.5t-44.5 -39t-63.5 -28t-72.5 -10.5zM186 612q-20 11 -28.5 25.5t-8.5 28.5q0 20 15 34.5t38 14.5q8 0 16.5 -2t16.5 -7l105 -61q20 -12 28.5 -26t8.5 -28q0 -20 -15 -34.5t-38 -14.5
q-8 0 -16.5 2t-16.5 7z" />
    <glyph glyph-name="ecircumflex" unicode="&#xea;" horiz-adv-x="525" 
d="M268 407q-44 0 -73.5 -29t-35.5 -68h195q7 0 8.5 3t1.5 6q0 10 -6 25t-18 29t-30 24t-42 10zM277 -5q-54 0 -99.5 19t-78 53t-51 81t-18.5 102q0 57 18.5 105t51 83t75.5 55t93 20t91.5 -18t71.5 -48.5t47 -70.5t17 -83q0 -37 -22.5 -57t-53.5 -20h-262q8 -51 39 -81.5
t85 -30.5q22 0 43 8t41 29q25 27 55 27q22 0 38 -14.5t16 -37.5q0 -22 -16.5 -43.5t-44.5 -39t-63.5 -28t-72.5 -10.5zM207 559q-18 -17 -39 -17q-20 0 -33.5 14.5t-13.5 34.5q0 9 4.5 20t20.5 25l70 63q21 20 47 20t47 -20l70 -63q16 -14 20.5 -25t4.5 -20
q0 -20 -13.5 -34.5t-33.5 -14.5q-21 0 -39 17l-56 52z" />
    <glyph glyph-name="edieresis" unicode="&#xeb;" horiz-adv-x="525" 
d="M268 407q-44 0 -73.5 -29t-35.5 -68h195q7 0 8.5 3t1.5 6q0 10 -6 25t-18 29t-30 24t-42 10zM277 -5q-54 0 -99.5 19t-78 53t-51 81t-18.5 102q0 57 18.5 105t51 83t75.5 55t93 20t91.5 -18t71.5 -48.5t47 -70.5t17 -83q0 -37 -22.5 -57t-53.5 -20h-262q8 -51 39 -81.5
t85 -30.5q22 0 43 8t41 29q25 27 55 27q22 0 38 -14.5t16 -37.5q0 -22 -16.5 -43.5t-44.5 -39t-63.5 -28t-72.5 -10.5zM104 631q0 26 18 44t44 18t44 -18t18 -44t-18 -44t-44 -18t-44 18t-18 44zM297 631q0 26 18 44t44 18t44 -18t18 -44t-18 -44t-44 -18t-44 18t-18 44z
" />
    <glyph glyph-name="iacute" unicode="&#xed;" horiz-adv-x="246" 
d="M186 52q0 -24 -18.5 -39t-44.5 -15t-44.5 15t-18.5 39v407q0 23 18.5 38.5t44.5 15.5t44.5 -15.5t18.5 -38.5v-407zM161 710q8 5 16.5 7t16.5 2q23 0 38 -14.5t15 -34.5q0 -14 -8.5 -28t-28.5 -26l-105 -61q-8 -5 -16.5 -7t-16.5 -2q-23 0 -38 14.5t-15 34.5
q0 14 8.5 28.5t28.5 25.5z" />
    <glyph glyph-name="igrave" unicode="&#xec;" horiz-adv-x="246" 
d="M186 52q0 -24 -18.5 -39t-44.5 -15t-44.5 15t-18.5 39v407q0 23 18.5 38.5t44.5 15.5t44.5 -15.5t18.5 -38.5v-407zM46 612q-20 11 -28.5 25.5t-8.5 28.5q0 20 15 34.5t38 14.5q8 0 16.5 -2t16.5 -7l105 -61q20 -12 28.5 -26t8.5 -28q0 -20 -15 -34.5t-38 -14.5
q-8 0 -16.5 2t-16.5 7z" />
    <glyph glyph-name="icircumflex" unicode="&#xee;" horiz-adv-x="246" 
d="M186 52q0 -24 -18.5 -39t-44.5 -15t-44.5 15t-18.5 39v407q0 23 18.5 38.5t44.5 15.5t44.5 -15.5t18.5 -38.5v-407zM67 559q-18 -17 -39 -17q-20 0 -33.5 14.5t-13.5 34.5q0 9 4.5 20t20.5 25l70 63q21 20 47 20t47 -20l70 -63q16 -14 20.5 -25t4.5 -20
q0 -20 -13.5 -34.5t-33.5 -14.5q-21 0 -39 17l-56 52z" />
    <glyph glyph-name="idieresis" unicode="&#xef;" horiz-adv-x="246" 
d="M186 52q0 -24 -18.5 -39t-44.5 -15t-44.5 15t-18.5 39v407q0 23 18.5 38.5t44.5 15.5t44.5 -15.5t18.5 -38.5v-407zM-35 631q0 26 18 44t44 18t44 -18t18 -44t-18 -44t-44 -18t-44 18t-18 44zM158 631q0 26 18 44t44 18t44 -18t18 -44t-18 -44t-44 -18t-44 18t-18 44z
" />
    <glyph glyph-name="ntilde" unicode="&#xf1;" horiz-adv-x="542" 
d="M355 313q0 13 -3.5 28.5t-12 28.5t-22.5 22t-35 9q-44 0 -69.5 -28t-25.5 -73v-248q0 -24 -19 -39t-45 -15t-44.5 15t-18.5 39v407q0 24 19 39t45 15q23 0 43 -14t20 -40q20 21 53.5 37.5t78.5 16.5q72 0 117.5 -51t45.5 -141v-269q0 -24 -18.5 -39t-44.5 -15t-45 15
t-19 39v261zM301 668q7 -5 10.5 -6.5t5.5 -1.5q8 0 13 9l3 5q7 11 17.5 18t25.5 7q17 0 32.5 -11.5t15.5 -35.5q0 -12 -5 -27.5t-16.5 -30t-30 -24.5t-44.5 -10q-30 0 -52.5 11.5t-39.5 23.5q-7 5 -10.5 6.5t-5.5 1.5q-8 0 -13 -9l-3 -5q-7 -11 -17.5 -18t-25.5 -7
q-17 0 -32.5 11.5t-15.5 35.5q0 12 5 27.5t16.5 30t30 24.5t44.5 10q30 0 52.5 -11.5t39.5 -23.5z" />
    <glyph glyph-name="oacute" unicode="&#xf3;" horiz-adv-x="548" 
d="M274 107q24 0 44.5 10t36.5 29t25 46t9 62q0 34 -9 61.5t-25 46.5t-36.5 29t-44.5 10t-44.5 -10t-36.5 -29t-25 -46.5t-9 -61.5q0 -35 9 -62t25 -46t36.5 -29t44.5 -10zM274 -5q-49 0 -93.5 19t-78 53.5t-53 82t-19.5 104.5t19.5 104.5t52.5 82t77.5 53.5t94.5 19
t94.5 -19t77.5 -53.5t52.5 -82t19.5 -104.5t-19.5 -104.5t-53 -82t-78 -53.5t-93.5 -19zM312 710q8 5 16.5 7t16.5 2q23 0 38 -14.5t15 -34.5q0 -14 -8.5 -28t-28.5 -26l-105 -61q-8 -5 -16.5 -7t-16.5 -2q-23 0 -38 14.5t-15 34.5q0 14 8.5 28.5t28.5 25.5z" />
    <glyph glyph-name="ograve" unicode="&#xf2;" horiz-adv-x="548" 
d="M274 107q24 0 44.5 10t36.5 29t25 46t9 62q0 34 -9 61.5t-25 46.5t-36.5 29t-44.5 10t-44.5 -10t-36.5 -29t-25 -46.5t-9 -61.5q0 -35 9 -62t25 -46t36.5 -29t44.5 -10zM274 -5q-49 0 -93.5 19t-78 53.5t-53 82t-19.5 104.5t19.5 104.5t52.5 82t77.5 53.5t94.5 19
t94.5 -19t77.5 -53.5t52.5 -82t19.5 -104.5t-19.5 -104.5t-53 -82t-78 -53.5t-93.5 -19zM187 612q-20 11 -28.5 25.5t-8.5 28.5q0 20 15 34.5t38 14.5q8 0 16.5 -2t16.5 -7l105 -61q20 -12 28.5 -26t8.5 -28q0 -20 -15 -34.5t-38 -14.5q-8 0 -16.5 2t-16.5 7z" />
    <glyph glyph-name="ocircumflex" unicode="&#xf4;" horiz-adv-x="548" 
d="M274 107q24 0 44.5 10t36.5 29t25 46t9 62q0 34 -9 61.5t-25 46.5t-36.5 29t-44.5 10t-44.5 -10t-36.5 -29t-25 -46.5t-9 -61.5q0 -35 9 -62t25 -46t36.5 -29t44.5 -10zM274 -5q-49 0 -93.5 19t-78 53.5t-53 82t-19.5 104.5t19.5 104.5t52.5 82t77.5 53.5t94.5 19
t94.5 -19t77.5 -53.5t52.5 -82t19.5 -104.5t-19.5 -104.5t-53 -82t-78 -53.5t-93.5 -19zM218 559q-18 -17 -39 -17q-20 0 -33.5 14.5t-13.5 34.5q0 9 4.5 20t20.5 25l70 63q21 20 47 20t47 -20l70 -63q16 -14 20.5 -25t4.5 -20q0 -20 -13.5 -34.5t-33.5 -14.5q-21 0 -39 17
l-56 52z" />
    <glyph glyph-name="odieresis" unicode="&#xf6;" horiz-adv-x="548" 
d="M274 107q24 0 44.5 10t36.5 29t25 46t9 62q0 34 -9 61.5t-25 46.5t-36.5 29t-44.5 10t-44.5 -10t-36.5 -29t-25 -46.5t-9 -61.5q0 -35 9 -62t25 -46t36.5 -29t44.5 -10zM274 -5q-49 0 -93.5 19t-78 53.5t-53 82t-19.5 104.5t19.5 104.5t52.5 82t77.5 53.5t94.5 19
t94.5 -19t77.5 -53.5t52.5 -82t19.5 -104.5t-19.5 -104.5t-53 -82t-78 -53.5t-93.5 -19zM116 631q0 26 18 44t44 18t44 -18t18 -44t-18 -44t-44 -18t-44 18t-18 44zM309 631q0 26 18 44t44 18t44 -18t18 -44t-18 -44t-44 -18t-44 18t-18 44z" />
    <glyph glyph-name="otilde" unicode="&#xf5;" horiz-adv-x="548" 
d="M274 107q24 0 44.5 10t36.5 29t25 46t9 62q0 34 -9 61.5t-25 46.5t-36.5 29t-44.5 10t-44.5 -10t-36.5 -29t-25 -46.5t-9 -61.5q0 -35 9 -62t25 -46t36.5 -29t44.5 -10zM274 -5q-49 0 -93.5 19t-78 53.5t-53 82t-19.5 104.5t19.5 104.5t52.5 82t77.5 53.5t94.5 19
t94.5 -19t77.5 -53.5t52.5 -82t19.5 -104.5t-19.5 -104.5t-53 -82t-78 -53.5t-93.5 -19zM304 668q7 -5 10.5 -6.5t5.5 -1.5q8 0 13 9l3 5q7 11 17.5 18t25.5 7q17 0 32.5 -11.5t15.5 -35.5q0 -12 -5 -27.5t-16.5 -30t-30 -24.5t-44.5 -10q-30 0 -52.5 11.5t-39.5 23.5
q-7 5 -10.5 6.5t-5.5 1.5q-8 0 -13 -9l-3 -5q-7 -11 -17.5 -18t-25.5 -7q-17 0 -32.5 11.5t-15.5 35.5q0 12 5 27.5t16.5 30t30 24.5t44.5 10q30 0 52.5 -11.5t39.5 -23.5z" />
    <glyph glyph-name="uacute" unicode="&#xfa;" horiz-adv-x="542" 
d="M187 198q0 -13 3.5 -28.5t12 -28.5t22.5 -22t35 -9q44 0 69.5 28t25.5 73v248q0 24 19 39t45 15t44.5 -15t18.5 -39v-407q0 -24 -19 -39t-45 -15q-23 0 -43 14t-20 40q-20 -21 -53.5 -37.5t-78.5 -16.5q-72 0 -117.5 51t-45.5 141v269q0 24 18.5 39t44.5 15t45 -15
t19 -39v-261zM309 710q8 5 16.5 7t16.5 2q23 0 38 -14.5t15 -34.5q0 -14 -8.5 -28t-28.5 -26l-105 -61q-8 -5 -16.5 -7t-16.5 -2q-23 0 -38 14.5t-15 34.5q0 14 8.5 28.5t28.5 25.5z" />
    <glyph glyph-name="ugrave" unicode="&#xf9;" horiz-adv-x="542" 
d="M187 198q0 -13 3.5 -28.5t12 -28.5t22.5 -22t35 -9q44 0 69.5 28t25.5 73v248q0 24 19 39t45 15t44.5 -15t18.5 -39v-407q0 -24 -19 -39t-45 -15q-23 0 -43 14t-20 40q-20 -21 -53.5 -37.5t-78.5 -16.5q-72 0 -117.5 51t-45.5 141v269q0 24 18.5 39t44.5 15t45 -15
t19 -39v-261zM177 612q-20 11 -28.5 25.5t-8.5 28.5q0 20 15 34.5t38 14.5q8 0 16.5 -2t16.5 -7l105 -61q20 -12 28.5 -26t8.5 -28q0 -20 -15 -34.5t-38 -14.5q-8 0 -16.5 2t-16.5 7z" />
    <glyph glyph-name="ucircumflex" unicode="&#xfb;" horiz-adv-x="542" 
d="M187 198q0 -13 3.5 -28.5t12 -28.5t22.5 -22t35 -9q44 0 69.5 28t25.5 73v248q0 24 19 39t45 15t44.5 -15t18.5 -39v-407q0 -24 -19 -39t-45 -15q-23 0 -43 14t-20 40q-20 -21 -53.5 -37.5t-78.5 -16.5q-72 0 -117.5 51t-45.5 141v269q0 24 18.5 39t44.5 15t45 -15
t19 -39v-261zM215 559q-18 -17 -39 -17q-20 0 -33.5 14.5t-13.5 34.5q0 9 4.5 20t20.5 25l70 63q21 20 47 20t47 -20l70 -63q16 -14 20.5 -25t4.5 -20q0 -20 -13.5 -34.5t-33.5 -14.5q-21 0 -39 17l-56 52z" />
    <glyph glyph-name="udieresis" unicode="&#xfc;" horiz-adv-x="542" 
d="M187 198q0 -13 3.5 -28.5t12 -28.5t22.5 -22t35 -9q44 0 69.5 28t25.5 73v248q0 24 19 39t45 15t44.5 -15t18.5 -39v-407q0 -24 -19 -39t-45 -15q-23 0 -43 14t-20 40q-20 -21 -53.5 -37.5t-78.5 -16.5q-72 0 -117.5 51t-45.5 141v269q0 24 18.5 39t44.5 15t45 -15
t19 -39v-261zM113 631q0 26 18 44t44 18t44 -18t18 -44t-18 -44t-44 -18t-44 18t-18 44zM306 631q0 26 18 44t44 18t44 -18t18 -44t-18 -44t-44 -18t-44 18t-18 44z" />
    <glyph glyph-name="dagger" unicode="&#x2020;" horiz-adv-x="510" 
d="M192 660q0 23 18.5 39.5t44.5 16.5t44.5 -16.5t18.5 -39.5v-156h112q27 0 40.5 -18t13.5 -39t-13.5 -38.5t-40.5 -17.5h-112v-473q0 -23 -18.5 -39.5t-44.5 -16.5t-44.5 16.5t-18.5 39.5v473h-112q-27 0 -40.5 17.5t-13.5 38.5t13.5 39t40.5 18h112v156z" />
    <glyph glyph-name="degree" unicode="&#xb0;" horiz-adv-x="484" 
d="M186 564q0 -28 15.5 -44t40.5 -16t40.5 16t15.5 44t-15.5 44t-40.5 16t-40.5 -16t-15.5 -44zM80 564q0 33 12.5 61t34.5 49t51.5 33t63.5 12t63.5 -12t51.5 -33t34.5 -49t12.5 -61t-12.5 -61t-34.5 -49t-51.5 -33t-63.5 -12t-63.5 12t-51.5 33t-34.5 49t-12.5 61z" />
    <glyph glyph-name="cent" unicode="&#xa2;" 
d="M338 590q62 -6 104 -36q27 -19 42.5 -39t15.5 -43q0 -19 -13 -37t-41 -18q-13 0 -24.5 6t-25.5 20q-28 32 -58 36v-267q15 2 29.5 12t28.5 25q14 14 25.5 20t24.5 6q28 0 41 -18t13 -37q0 -23 -15.5 -43t-42.5 -39q-42 -31 -104 -37v-70q0 -17 -9.5 -26.5t-26.5 -9.5
t-26.5 9.5t-9.5 26.5v71q-43 6 -78.5 27t-61.5 53t-40.5 74t-14.5 90t14.5 90t40.5 74t61.5 53t78.5 27v69q0 17 9.5 26.5t26.5 9.5t26.5 -9.5t9.5 -26.5v-69zM185 346q0 -23 6.5 -45.5t17.5 -41t25.5 -31t31.5 -16.5v268q-17 -4 -31.5 -17t-25.5 -31.5t-17.5 -40.5
t-6.5 -45z" />
    <glyph glyph-name="sterling" unicode="&#xa3;" horiz-adv-x="584" 
d="M318 582q-15 0 -30 -5t-27 -18.5t-20 -36.5t-8 -58q0 -14 1 -29.5t4 -50.5h123q31 0 47 -17.5t16 -39.5q0 -21 -15.5 -39t-47.5 -18h-112q1 -8 1 -16v-16q0 -39 -7 -69t-20 -50h247q31 0 46.5 -18.5t15.5 -38.5t-15 -38.5t-47 -18.5h-342q-35 0 -50.5 17.5t-15.5 40.5
q0 12 4.5 21t11.5 18l14 17.5t12 19.5q8 17 13.5 37t5.5 43q0 13 -0.5 21.5t-2.5 29.5h-22q-32 0 -47.5 18t-15.5 39q0 22 15.5 39.5t47.5 17.5h12q-2 30 -2.5 48t-0.5 32q0 50 13.5 92.5t41.5 73.5t69 48.5t97 17.5q39 0 74 -11.5t62 -30t43 -41.5t16 -45q0 -29 -18 -44.5
t-37 -15.5q-18 0 -31.5 8.5t-33.5 24.5l-6 5q-21 17 -38.5 26.5t-40.5 9.5z" />
    <glyph glyph-name="section" unicode="&#xa7;" 
d="M337 168q42 32 42 75q0 17 -9.5 30.5t-24.5 25t-33.5 20l-36.5 16.5l-38 17q-42 -32 -42 -75q0 -17 9.5 -30.5t24.5 -25t33.5 -20.5t36.5 -16zM429 111q28 -22 39.5 -53t11.5 -61q0 -31 -11.5 -60.5t-35.5 -53t-61 -38t-88 -14.5q-35 0 -68.5 8.5t-60.5 24.5t-43.5 37
t-16.5 47q0 27 17.5 42t41.5 15q17 0 29.5 -7.5t23.5 -18.5q17 -16 37 -25t46 -9q28 0 45.5 15t17.5 35q0 15 -12 32t-40 28l-49 20q-48 20 -82 41t-57 44t-34.5 50t-11.5 56q0 38 19.5 75t58.5 68q-27 22 -39 53t-12 61q0 31 11.5 60.5t35.5 53t61 38t88 14.5q34 0 68 -8.5
t61 -24.5t43.5 -37.5t16.5 -46.5q0 -27 -17.5 -42t-41.5 -15q-17 0 -29.5 7.5t-23.5 18.5q-17 16 -37 25t-46 9q-28 0 -45.5 -15t-17.5 -35q0 -15 12 -32t40 -28l49 -20q48 -20 82 -41t57 -44t34.5 -50t11.5 -56q0 -38 -19.5 -75t-58.5 -68z" />
    <glyph glyph-name="bullet" unicode="&#x2022;" horiz-adv-x="306" 
d="M52 272q0 21 8 39.5t22 32.5t32.5 22t39.5 8t39.5 -8t32.5 -22t22 -32.5t8 -39.5t-8 -39.5t-22 -32.5t-32.5 -22t-39.5 -8t-39.5 8t-32.5 22t-22 32.5t-8 39.5z" />
    <glyph glyph-name="paragraph" unicode="&#xb6;" 
d="M470 686q32 0 47.5 -18t15.5 -41q0 -22 -15.5 -40.5t-44.5 -18.5v-669q0 -26 -18 -38.5t-39 -12.5t-38.5 12.5t-17.5 38.5v669h-67v-669q0 -26 -18 -38.5t-39 -12.5t-38.5 12.5t-17.5 38.5v424q-68 22 -99 69t-31 100q0 36 14 71t40.5 62t65.5 44t89 17h211v0z" />
    <glyph glyph-name="germandbls" unicode="&#xdf;" horiz-adv-x="572" 
d="M325 110q38 0 59.5 26.5t21.5 69.5q0 39 -21.5 69.5t-66.5 35.5l-8 1q-24 3 -37 20t-13 37q0 15 8 29t26 22l7 3q28 12 44.5 36.5t16.5 60.5q0 46 -24 66.5t-57 20.5q-52 0 -73.5 -35t-21.5 -88v-432q0 -23 -18.5 -38.5t-44.5 -15.5t-44.5 15.5t-18.5 38.5v434
q0 53 17.5 96t48.5 73.5t71.5 47t87.5 16.5q39 0 76.5 -12.5t66.5 -36.5t46.5 -60t17.5 -83q0 -45 -19 -83t-57 -66q60 -26 90 -73t30 -102q0 -44 -17 -81.5t-46 -65t-66.5 -43t-78.5 -15.5q-45 0 -73 14.5t-28 46.5q0 20 14 38.5t37 18.5q7 0 13 -1t11 -2l10 -2t13 -1z" />
    <glyph glyph-name="registered" unicode="&#xae;" horiz-adv-x="809" 
d="M268 521q0 14 11 28t31 14h88q36 0 62.5 -11.5t44.5 -30t26.5 -41.5t8.5 -45q0 -34 -20.5 -66t-58.5 -48q18 -25 40 -52.5t39 -46.5q10 -13 13 -23t3 -15q0 -19 -15 -30.5t-29 -11.5q-22 0 -39 23l-20 25t-25 33l-27 37.5l-27 38.5q-4 6 -11 6h-12v-122q0 -19 -11.5 -30
t-29.5 -11t-30 11t-12 30v338zM351 378h46q27 0 41 17.5t14 39.5q0 19 -13 36t-41 17h-47v-110zM752 347q0 -65 -22 -128.5t-66 -113t-110 -80t-154 -30.5t-154 30.5t-110.5 80t-66.5 113t-22 128.5t22 127.5t66 112t110 79.5t155 30q88 0 154.5 -30t110 -79.5t65.5 -112
t22 -127.5zM670 347q0 49 -17 97.5t-50.5 87t-84.5 62t-118 23.5q-68 0 -119 -23.5t-84.5 -62t-50.5 -87t-17 -97.5q0 -50 17 -99t51 -87.5t84.5 -62.5t118.5 -24q67 0 118 24t84.5 62.5t50.5 87.5t17 99z" />
    <glyph glyph-name="copyright" unicode="&#xa9;" horiz-adv-x="809" 
d="M479 437q-17 20 -35.5 32.5t-47.5 12.5q-28 0 -48.5 -12t-34 -31t-20.5 -43t-7 -49q0 -26 7.5 -51t21.5 -44.5t34 -31.5t45 -12q27 0 46 10.5t39 35.5q9 11 19 14.5t19 3.5q14 0 26.5 -11t12.5 -27q0 -15 -11.5 -33t-32 -33.5t-49.5 -26t-63 -10.5q-50 0 -87.5 18.5
t-62.5 48.5t-38 69t-13 80q0 45 14.5 84t40.5 67.5t63.5 45t82.5 16.5t80 -17.5t55 -38.5q21 -26 21 -46q0 -13 -11.5 -25.5t-28.5 -13.5q-10 0 -19 3.5t-18 14.5zM752 347q0 -65 -22 -128.5t-66 -113t-110 -80t-154 -30.5t-154 30.5t-110.5 80t-66.5 113t-22 128.5
t22 127.5t66 112t110 79.5t155 30q88 0 154.5 -30t110 -79.5t65.5 -112t22 -127.5zM670 347q0 49 -17 97.5t-50.5 87t-84.5 62t-118 23.5q-68 0 -119 -23.5t-84.5 -62t-50.5 -87t-17 -97.5q0 -50 17 -99t51 -87.5t84.5 -62.5t118.5 -24q67 0 118 24t84.5 62.5t50.5 87.5
t17 99z" />
    <glyph glyph-name="trademark" unicode="&#x2122;" horiz-adv-x="605" 
d="M561 442q0 -14 -10.5 -22t-22.5 -8q-13 0 -23 8t-10 22v109l-38 -59q-11 -17 -30 -17t-30 18l-38 60v-110q0 -15 -10.5 -23t-22.5 -8q-13 0 -23 8t-10 23v209q0 14 11.5 22.5t25.5 8.5q9 0 17.5 -4t14.5 -13l33 -51.5t35 -52.5l30.5 51.5l31.5 51.5q5 8 14 12.5t19 4.5
q14 0 25 -7.5t11 -23.5v-209zM228 680q15 0 23 -9.5t8 -21.5q0 -11 -7 -20t-24 -9h-50v-177q0 -15 -10 -23t-23 -8q-12 0 -22.5 8t-10.5 23v177h-50q-17 0 -24 9.5t-7 20.5t7 20.5t24 9.5h166z" />
    <glyph glyph-name="acute" unicode="&#xb4;" horiz-adv-x="560" 
d="M310 710q8 5 16.5 7t16.5 2q23 0 38 -14.5t15 -34.5q0 -14 -8.5 -28t-28.5 -26l-105 -61q-8 -5 -16.5 -7t-16.5 -2q-23 0 -38 14.5t-15 34.5q0 14 8.5 28.5t28.5 25.5z" />
    <glyph glyph-name="dieresis" unicode="&#xa8;" horiz-adv-x="560" 
d="M121 631q0 26 18 44t44 18t44 -18t18 -44t-18 -44t-44 -18t-44 18t-18 44zM314 631q0 26 18 44t44 18t44 -18t18 -44t-18 -44t-44 -18t-44 18t-18 44z" />
    <glyph glyph-name="notequal" unicode="&#x2260;" 
d="M195 210l46 84h-120q-28 0 -42 17.5t-14 38.5t13.5 37.5t42.5 16.5h181l41 74q12 21 26 28t28 7q25 0 44 -16.5t19 -40.5q0 -16 -8 -29l-13 -23h14q29 0 43.5 -17t14.5 -38t-14.5 -38t-43.5 -17h-75l-46 -84h121q28 0 43 -17.5t15 -38.5t-14.5 -37.5t-43.5 -16.5h-182
l-39 -71q-12 -21 -26 -27.5t-28 -6.5q-25 0 -44 16t-19 40q0 16 8 29l11 20h-13q-28 0 -42 17.5t-14 38.5t13.5 37.5t42.5 16.5h74z" />
    <glyph glyph-name="AE" unicode="&#xc6;" horiz-adv-x="917" 
d="M519 5q-26 0 -45 14.5t-19 36.5v130h-215l-95 -156q-8 -13 -22 -22.5t-31 -9.5q-33 0 -49 18t-16 41q0 20 11 40l48 78.5l61 97l68 106l69 105.5l64.5 95.5l54.5 77.5q11 16 26.5 22.5t33.5 6.5h349q29 0 43.5 -18.5t14.5 -40.5q0 -21 -14.5 -38.5t-43.5 -17.5h-226v-167
h200q29 0 44 -18t15 -40t-14.5 -39.5t-44.5 -17.5h-200v-169h228q29 0 44.5 -18.5t15.5 -40.5q0 -21 -15 -38.5t-45 -17.5h-295zM455 522l-31 -47.5l-36 -55.5l-38 -59.5l-37 -58.5h142v221z" />
    <glyph glyph-name="Oslash" unicode="&#xd8;" horiz-adv-x="752" 
d="M376 -5q-48 0 -91.5 13t-81.5 37l-25 -30q-9 -11 -20 -15.5t-22 -4.5q-23 0 -40 16.5t-17 39.5q0 20 15 38l26 31q-35 45 -54.5 101.5t-19.5 123.5q0 78 27 143t72 111t105 71.5t126 25.5q48 0 92.5 -13.5t83.5 -39.5l27 33q9 11 20 15.5t22 4.5q23 0 40 -16.5t17 -39.5
q0 -20 -15 -38l-29 -35q33 -45 52.5 -100.5t19.5 -121.5q0 -78 -27 -142.5t-72 -110.5t-105 -71.5t-126 -25.5zM183 345q0 -68 24 -119l268 324q-22 15 -47 23.5t-52 8.5q-44 0 -80 -17.5t-61 -49t-38.5 -75t-13.5 -95.5zM376 110q39 0 74.5 16.5t61.5 47.5t41.5 74.5
t15.5 96.5q0 32 -6 61t-17 54l-266 -322q44 -28 96 -28z" />
    <glyph glyph-name="infinity" unicode="&#x221e;" horiz-adv-x="798" 
d="M565 63q-26 0 -50 8t-46 21t-40.5 30.5t-32.5 36.5q-32 -44 -72.5 -70t-90.5 -26q-36 0 -70 12t-61 36.5t-43.5 62.5t-16.5 91q0 48 16.5 85.5t43 63t61 39t70.5 13.5q51 0 94 -25.5t75 -73.5q11 19 28 37t38.5 32t46 22t50.5 8q36 0 70.5 -13.5t61 -39t43 -63
t16.5 -85.5q0 -53 -16.5 -91t-43.5 -62.5t-61 -36.5t-70 -12zM555 178q12 0 25 5t23.5 16t17.5 27t7 39q0 21 -6.5 37t-17 27t-23.5 16.5t-26 5.5q-28 0 -51.5 -26.5t-43.5 -64.5q19 -36 42 -59t53 -23zM243 178q29 0 52 23t42 60q-19 37 -43 63.5t-51 26.5q-13 0 -26 -5.5
t-23.5 -16.5t-17 -27t-6.5 -37q0 -23 7 -39t17.5 -27t23.5 -16t25 -5z" />
    <glyph glyph-name="plusminus" unicode="&#xb1;" 
d="M116 316q-27 0 -41.5 18t-14.5 39t14 38t42 17h112v112q0 26 18.5 39.5t41.5 13.5q22 0 40 -13t18 -40v-112h112q27 0 41.5 -18t14.5 -39t-14 -38t-42 -17h-112v-112q0 -26 -18.5 -39.5t-41.5 -13.5q-22 0 -40 13t-18 40v112h-112zM116 5q-27 0 -41.5 18t-14.5 39t14 38
t42 17h342q27 0 41.5 -18t14.5 -39t-14 -38t-42 -17h-342z" />
    <glyph glyph-name="lessequal" unicode="&#x2264;" 
d="M116 5q-27 0 -41.5 18t-14.5 39t14 38t42 17h342q27 0 41.5 -18t14.5 -39t-14 -38t-42 -17h-342zM460 255q23 -11 33 -26t10 -29q0 -21 -17.5 -37t-42.5 -16q-8 0 -16.5 2.5t-25.5 10.5l-292 148q-36 19 -36 53t36 53l292 148q17 8 25.5 10.5t16.5 2.5q25 0 42.5 -16
t17.5 -37q0 -14 -10 -29t-33 -26l-213 -106z" />
    <glyph glyph-name="greaterequal" unicode="&#x2265;" horiz-adv-x="584" 
d="M116 5q-28 0 -42 17t-14 38t14.5 39t41.5 18h342q28 0 42 -17t14 -38t-14.5 -39t-41.5 -18h-342zM327 361l-213 106q-23 11 -33 26t-10 29q0 21 17.5 37t42.5 16q8 0 16.5 -2.5t25.5 -10.5l292 -148q36 -19 36 -53t-36 -53l-292 -148q-17 -8 -25.5 -10.5t-16.5 -2.5
q-25 0 -42.5 16t-17.5 37q0 14 10 29t33 26z" />
    <glyph glyph-name="yen" unicode="&#xa5;" 
d="M169 436l-38.5 54l-34.5 50.5l-28 41l-18 26.5q-5 10 -8 17.5t-3 15.5q0 19 18 37t49 18q14 0 28.5 -6t24.5 -20l26 -39l22 -34l21.5 -33l25 -36.5t32.5 -44.5l35 48.5l36.5 52.5l32.5 48l24 36q11 16 24.5 22t30.5 6q29 0 47.5 -18t18.5 -37q0 -8 -3.5 -16.5
t-12.5 -21.5l-39 -52l-39.5 -53.5l-45.5 -61.5h68q28 0 42 -17.5t14 -37.5t-13.5 -36t-42.5 -16h-114v-54h114q28 0 42 -17t14 -37t-13.5 -36.5t-42.5 -16.5h-114v-115q0 -24 -19.5 -39.5t-46.5 -15.5t-46 15.5t-19 39.5v115h-107q-28 0 -42 17.5t-14 37.5t13.5 36t42.5 16
h107v54h-107q-28 0 -42 17t-14 37t13.5 36.5t42.5 16.5h58z" />
    <glyph glyph-name="mu" unicode="&#xb5;" horiz-adv-x="534" 
d="M415 -2q-18 0 -33 8t-23 21q-41 -29 -90 -29q-22 0 -44 6t-42 19v-157q0 -23 -19 -39.5t-45 -16.5t-44.5 16.5t-18.5 39.5v589q0 23 18.5 38.5t44.5 15.5t45 -15.5t19 -38.5v-254q0 -35 21 -62.5t63 -27.5q39 0 61.5 26.5t22.5 63.5v254q0 23 19 38.5t45 15.5t44.5 -15.5
t18.5 -38.5v-401q0 -23 -18.5 -39.5t-44.5 -16.5z" />
    <glyph glyph-name="partialdiff" unicode="&#x2202;" horiz-adv-x="584" 
d="M44 248q0 54 18.5 101.5t52 83t81 56t106.5 20.5h20t21 -2q-28 45 -62.5 68.5t-73.5 23.5q-15 0 -32.5 -4t-46.5 -15q-7 -2 -11.5 -3t-12.5 -1q-27 0 -41.5 17.5t-14.5 40.5q0 17 9.5 33t29.5 24q34 14 61 19t59 5q70 0 130 -37.5t103.5 -98t68 -138.5t24.5 -159
q0 -68 -22 -121t-57.5 -89t-81.5 -55t-94 -19q-57 0 -101 22t-73.5 57t-44.5 80t-15 91zM404 282q0 29 -4.5 55.5t-12.5 52.5q-20 6 -39.5 7.5t-32.5 1.5q-38 0 -65 -12.5t-44 -33t-25 -48t-8 -57.5q0 -27 7 -51.5t20 -43.5t32.5 -30t45.5 -11q24 0 46.5 10.5t40.5 31.5
t28.5 53t10.5 75z" />
    <glyph glyph-name="summation" unicode="&#x2211;" horiz-adv-x="682" 
d="M337 265l-250 350q-13 17 -13 39q0 23 16 41.5t43 18.5h417q31 0 47 -18t16 -40q0 -21 -15.5 -38.5t-47.5 -17.5h-302l214 -297q15 -23 15 -38q0 -9 -4 -18t-11 -19l-214 -299h302q31 0 47 -18t16 -40q0 -21 -15.5 -38.5t-47.5 -17.5h-417q-26 0 -42 18.5t-16 42.5
q0 20 12 38z" />
    <glyph glyph-name="product" unicode="&#x220f;" horiz-adv-x="760" 
d="M625 714q26 0 45.5 -18t19.5 -39v-789q0 -28 -19.5 -41.5t-43.5 -13.5q-23 0 -43.5 13.5t-20.5 41.5v735h-366v-735q0 -28 -19 -41.5t-43 -13.5t-44.5 13.5t-20.5 41.5v789q0 21 19.5 39t45.5 18h490z" />
    <glyph glyph-name="pi" unicode="&#x3c0;" horiz-adv-x="582" 
d="M216 393v-341q0 -23 -18.5 -38.5t-44.5 -15.5t-45 15.5t-19 38.5v341h-22q-26 0 -41.5 18t-15.5 38q0 21 15.5 39t41.5 18h448q26 0 41.5 -18t15.5 -39q0 -20 -15.5 -38t-41.5 -18h-22v-341q0 -23 -19 -38.5t-45 -15.5t-44.5 15.5t-18.5 38.5v341h-150z" />
    <glyph glyph-name="integral" unicode="&#x222b;" horiz-adv-x="422" 
d="M276 17q0 -45 -9 -81.5t-29 -62.5t-54 -40.5t-83 -14.5q-12 0 -28 3t-29.5 10t-23 19.5t-9.5 30.5q0 23 18 39t41 16q8 0 13 -0.5t10 -1.5q8 -2 16 -2q22 0 29.5 25.5t7.5 69.5v485q0 45 9 81.5t29 62.5t53.5 40.5t83.5 14.5q12 0 28 -3t29.5 -10t23 -19.5t9.5 -30.5
q0 -23 -18 -39t-41 -16q-9 0 -14 0.5t-10 1.5q-8 2 -15 2q-22 0 -29.5 -25.5t-7.5 -69.5v-485z" />
    <glyph glyph-name="ordfeminine" unicode="&#xaa;" horiz-adv-x="339" 
d="M274 357q27 0 41 -15.5t14 -34.5t-14 -34.5t-41 -15.5h-194q-28 0 -41.5 15.5t-13.5 34.5t13.5 34.5t41.5 15.5h194zM216 555q0 18 -1 26.5t-8 16.5q-14 17 -39 17q-23 0 -36.5 -21t-13.5 -51q0 -32 14 -51t36 -19q12 0 22.5 4.5t16.5 12.5q7 8 8 16.5t1 27.5v21z
M229 423q-17 -20 -41.5 -28t-44.5 -8q-23 0 -44.5 10.5t-38 30.5t-26.5 48.5t-10 65.5q0 36 10 65t26.5 48.5t38 30t44.5 10.5q22 0 39 -7.5t34 -24.5q4 15 17.5 23.5t30.5 8.5q18 0 32.5 -10.5t14.5 -36.5v-158q0 -12 3 -19t7 -12q4 -6 7 -12.5t3 -15.5q0 -17 -13 -31
t-36 -14q-17 0 -31 9.5t-22 26.5z" />
    <glyph glyph-name="ordmasculine" unicode="&#xba;" horiz-adv-x="340" 
d="M119 543q0 -34 15.5 -53.5t35.5 -19.5t35.5 19.5t15.5 53.5t-15.5 53.5t-35.5 19.5t-35.5 -19.5t-15.5 -53.5zM24 543q0 34 11.5 62t31.5 48t46.5 31.5t56.5 11.5t56.5 -11.5t46.5 -31.5t31.5 -48t11.5 -62t-11.5 -62t-31.5 -48.5t-46.5 -31.5t-56.5 -11t-56.5 11
t-46.5 31.5t-31.5 48.5t-11.5 62zM261 357q27 0 41 -15.5t14 -34.5t-14 -34.5t-41 -15.5h-182q-28 0 -41.5 15.5t-13.5 34.5t13.5 34.5t41.5 15.5h182z" />
    <glyph glyph-name="Omega" unicode="&#x2126;" horiz-adv-x="752" 
d="M376 579q-39 0 -74.5 -15t-61.5 -44t-41.5 -70.5t-15.5 -94.5q0 -81 30.5 -139t75.5 -88l21 -14q32 -22 32 -51q0 -22 -14.5 -40t-42.5 -18h-177q-30 0 -44.5 17.5t-14.5 39.5q0 21 14.5 39t44.5 18h51q-50 48 -80 107.5t-30 134.5q0 76 26.5 138t71 106t104 67.5
t125.5 23.5t125.5 -23.5t104 -67.5t71 -106t26.5 -138q0 -75 -30 -134.5t-80 -107.5h51q30 0 44.5 -18t14.5 -39q0 -22 -14.5 -39.5t-44.5 -17.5h-177q-28 0 -42.5 18t-14.5 40q0 29 32 51l21 14q45 30 75.5 88t30.5 139q0 53 -15.5 94.5t-41.5 70.5t-61.5 44t-74.5 15z" />
    <glyph glyph-name="ae" unicode="&#xe6;" horiz-adv-x="770" 
d="M529 -4q-95 0 -157 54q-26 -20 -69 -37t-97 -17q-41 0 -74 11t-56 30.5t-35 45.5t-12 57q0 47 23 78.5t60.5 50.5t85.5 28t99 11v21q0 24 -6 39t-15 23t-19 10.5t-19 2.5q-16 0 -32.5 -5.5t-33.5 -13.5l-10 -5q-11 -5 -27 -13.5t-34 -8.5q-23 0 -38 16t-15 39
q0 15 7.5 29t26.5 27q29 20 70 32t86 12q102 0 143 -63q31 29 69.5 46t83.5 17q43 0 80.5 -18t65.5 -48t44 -69.5t16 -82.5q0 -37 -22 -57.5t-52 -20.5h-251q8 -51 36.5 -82t80.5 -31q21 0 42.5 7.5t40.5 29.5q14 16 25 21.5t25 5.5q24 0 40 -14.5t16 -37.5
q0 -22 -16.5 -43.5t-43.5 -38.5t-61.5 -27.5t-70.5 -10.5zM215 91q18 0 46 9t56 28q-9 20 -14.5 41.5t-7.5 46.5q-79 0 -111.5 -21.5t-32.5 -51.5q0 -22 15.5 -37t48.5 -15zM520 406q-20 0 -37.5 -8t-31 -21t-22.5 -31t-12 -37h186q6 0 7.5 3t1.5 6q0 10 -4.5 25t-15 29
t-28 24t-44.5 10z" />
    <glyph glyph-name="oslash" unicode="&#xf8;" horiz-adv-x="548" 
d="M274 -5q-63 0 -117 31l-9 -11q-9 -11 -20 -15.5t-22 -4.5q-23 0 -40 16.5t-17 39.5q0 20 15 38l11 13q-21 31 -33 69t-12 83q0 57 19.5 104.5t52.5 82t77.5 53.5t94.5 19q32 0 61 -8t55 -22l8 9q9 11 20 16t22 5q23 0 40 -17t17 -40q0 -20 -15 -38l-9 -11q21 -32 33 -70
t12 -83q0 -57 -19.5 -104.5t-53 -82t-78 -53.5t-93.5 -19zM274 98q25 0 47.5 10.5t39 31t26 49.5t9.5 65q0 15 -2 28.5t-5 25.5l-165 -199q24 -11 50 -11zM152 254q0 -29 6 -53l164 198q-24 11 -48 11q-25 0 -47.5 -10.5t-39 -30.5t-26 -49t-9.5 -66z" />
    <glyph glyph-name="questiondown" unicode="&#xbf;" horiz-adv-x="533" 
d="M185 -3q0 -36 27 -54.5t60 -18.5q17 0 33.5 5t29 14.5t20.5 24t8 34.5v9q0 27 16.5 41t38.5 14q24 0 45.5 -18t21.5 -56q0 -30 -14 -62t-41 -58.5t-66 -43.5t-89 -17q-46 0 -86.5 14t-70.5 38.5t-47 58t-17 72.5q0 25 5 45.5t15.5 38.5t26 35.5t36.5 35.5q21 19 35.5 34
t23.5 29.5t14 29.5t8 34l1 7q4 26 21 37.5t37 11.5q24 0 45 -16.5t21 -48.5q0 -53 -27.5 -94.5t-63.5 -73.5l-10 -9q-32 -29 -44.5 -49t-12.5 -44zM349 440q0 -30 -21 -51t-51 -21t-51 21t-21 51t21 51t51 21t51 -21t21 -51z" />
    <glyph glyph-name="exclamdown" unicode="&#xa1;" horiz-adv-x="244" 
d="M122 334q28 0 45.5 -17t17.5 -41v-81q0 -43 0.5 -83.5t1.5 -80t1.5 -80t0.5 -84.5q0 -24 -20.5 -39.5t-46.5 -15.5t-46.5 15.5t-20.5 39.5q0 39 0.5 75.5t1.5 75.5t1.5 82t0.5 95v81q0 24 17.5 41t45.5 17zM194 441q0 -30 -21 -51t-51 -21t-51 21t-21 51t21 51t51 21
t51 -21t21 -51z" />
    <glyph glyph-name="logicalnot" unicode="&#xac;" 
d="M513 99q0 -26 -16.5 -38t-41.5 -12q-24 0 -42 12t-18 38v145h-286q-32 0 -47 17.5t-15 38.5q0 22 15.5 40t46.5 18h341q26 0 44.5 -14.5t18.5 -36.5v-208v0z" />
    <glyph glyph-name="radical" unicode="&#x221a;" 
d="M126 131q-13 -7 -27 -7q-26 0 -42 17.5t-16 40.5q0 15 7.5 29.5t24.5 23.5l58 30q16 9 32 9q34 0 49 -32l32 -72q16 -36 23 -60.5t11 -41.5q2 23 6.5 79t18.5 138l63 379q5 27 23 40t39 13q24 0 42.5 -15.5t18.5 -42.5q0 -2 -0.5 -10.5t-3.5 -26.5l-62.5 -371l-62.5 -370
q-5 -26 -22.5 -38.5t-37.5 -12.5q-17 0 -33.5 9t-26.5 31z" />
    <glyph glyph-name="florin" unicode="&#x192;" horiz-adv-x="584" 
d="M442 598q-35 0 -53 -27q-9 -14 -14 -34l-12 -49l-21 -94h76q30 0 45.5 -18.5t15.5 -40.5q0 -21 -14.5 -38t-46.5 -17h-100l-40 -190l-40 -190q-5 -27 -25 -37.5t-40 -10.5q-29 0 -46.5 15.5t-17.5 35.5q0 2 0.5 9.5t2.5 18.5l73 349h-25q-30 0 -45.5 18t-15.5 40
q0 21 15 38.5t46 17.5h50l25 115q8 38 24 74.5t40.5 65.5t58 46.5t76.5 17.5q52 0 83 -20t31 -48q0 -21 -12.5 -37t-35.5 -16q-7 0 -14.5 1t-12.5 2t-14 2t-17 1z" />
    <glyph glyph-name="approxequal" unicode="&#x2248;" 
d="M215 305q-17 0 -28.5 -4t-21.5 -8.5t-20 -8t-23 -3.5q-25 0 -41 17t-16 38q0 15 9.5 31t31.5 28q44 25 97 25q17 0 37 -4l40.5 -8.5t40.5 -8t38 -3.5q16 0 28 3.5t22 8t20 8.5t23 4q25 0 41 -17t16 -38q0 -15 -9.5 -31t-31.5 -28q-44 -25 -97 -25q-17 0 -37 3.5t-40.5 8
l-40.5 8.5t-38 4zM215 109q-17 0 -28.5 -4t-21.5 -8.5t-20 -8t-23 -3.5q-25 0 -41 17t-16 38q0 15 9.5 31t31.5 28q44 25 97 25q17 0 37 -4l40.5 -8.5t40.5 -8t38 -3.5q16 0 28 3.5t22 8t20 8.5t23 4q25 0 41 -17t16 -38q0 -15 -9.5 -31t-31.5 -28q-44 -25 -97 -25
q-17 0 -37 3.5t-40.5 8l-40.5 8.5t-38 4z" />
    <glyph glyph-name="Delta" unicode="&#x2206;" horiz-adv-x="672" 
d="M29 60q0 5 1 11t7 20q19 54 48.5 128l62.5 153l66.5 154l59.5 131q10 20 27 29t35 9q17 0 35 -8.5t28 -29.5l60 -131l63.5 -147.5l61.5 -150t53 -137.5q8 -20 8 -34q-1 -17 -19.5 -34.5t-47.5 -17.5h-484q-26 0 -45.5 16.5t-19.5 38.5zM334 495l-75 -179.5t-75 -193.5
h302l-28.5 73.5l-32.5 81.5l-40.5 97.5z" />
    <glyph glyph-name="guillemotleft" unicode="&#xab;" 
d="M181 253q0 -6 10 -17l51 -56.5l29 -33.5q9 -11 13 -21.5t4 -19.5q0 -22 -16.5 -35.5t-39.5 -13.5q-14 0 -28 5.5t-27 19.5q-9 9 -24 25.5l-30.5 35l-30.5 37t-24 32.5q-14 23 -14 42t14 42q9 14 24 32.5l30.5 37l30.5 35t24 25.5q13 14 27 19.5t28 5.5q23 0 39.5 -13.5
t16.5 -35.5q0 -9 -4 -19.5t-13 -21.5l-29 -33.5l-51 -56.5q-10 -11 -10 -17zM402 253q0 -6 10 -17l51 -56.5l29 -33.5q9 -11 13 -21.5t4 -19.5q0 -22 -16.5 -35.5t-39.5 -13.5q-14 0 -28 5.5t-27 19.5q-9 9 -24 25.5l-30.5 35l-30.5 37t-24 32.5q-14 23 -14 42t14 42
q9 14 24 32.5l30.5 37l30.5 35t24 25.5q13 14 27 19.5t28 5.5q23 0 39.5 -13.5t16.5 -35.5q0 -9 -4 -19.5t-13 -21.5l-29 -33.5l-51 -56.5q-10 -11 -10 -17z" />
    <glyph glyph-name="guillemotright" unicode="&#xbb;" 
d="M382 253q0 6 -10 17l-51 56.5l-29 33.5q-9 11 -13 21.5t-4 19.5q0 22 16.5 35.5t39.5 13.5q14 0 28 -5.5t27 -19.5q9 -9 24 -25.5l30.5 -35l30.5 -37t24 -32.5q14 -23 14 -42t-14 -42q-9 -14 -24 -32.5l-30.5 -37l-30.5 -35t-24 -25.5q-13 -14 -27 -19.5t-28 -5.5
q-23 0 -39.5 13.5t-16.5 35.5q0 9 4 19.5t13 21.5l29 33.5l51 56.5q10 11 10 17zM161 253q0 6 -10 17l-51 56.5l-29 33.5q-9 11 -13 21.5t-4 19.5q0 22 16.5 35.5t39.5 13.5q14 0 28 -5.5t27 -19.5q9 -9 24 -25.5l30.5 -35l30.5 -37t24 -32.5q14 -23 14 -42t-14 -42
q-9 -14 -24 -32.5l-30.5 -37l-30.5 -35t-24 -25.5q-13 -14 -27 -19.5t-28 -5.5q-23 0 -39.5 13.5t-16.5 35.5q0 9 4 19.5t13 21.5l29 33.5l51 56.5q10 11 10 17z" />
    <glyph glyph-name="ellipsis" unicode="&#x2026;" horiz-adv-x="696" 
d="M44 67q0 30 21 51t51 21t51 -21t21 -51t-21 -51t-51 -21t-51 21t-21 51zM276 67q0 30 21 51t51 21t51 -21t21 -51t-21 -51t-51 -21t-51 21t-21 51zM508 67q0 30 21 51t51 21t51 -21t21 -51t-21 -51t-51 -21t-51 21t-21 51z" />
    <glyph glyph-name="uni00A0" unicode="&#xa0;" horiz-adv-x="250" 
 />
    <glyph glyph-name="Agrave" unicode="&#xc0;" horiz-adv-x="704" 
d="M255 794q-20 11 -28.5 25.5t-8.5 28.5q0 20 15 34.5t38 14.5q8 0 16.5 -2t16.5 -7l105 -61q20 -12 28.5 -26t8.5 -28q0 -20 -15 -34.5t-38 -14.5q-8 0 -16.5 2t-16.5 7zM489 185h-277l-50 -141q-8 -25 -25.5 -35.5t-36.5 -10.5q-25 0 -44.5 15.5t-19.5 44.5q0 7 1.5 15.5
t8.5 27.5q50 137 109.5 276.5t125.5 271.5q11 23 31.5 35t43.5 12q21 0 40.5 -11t31.5 -36q62 -124 118 -258t113 -290q7 -19 8.5 -27.5t1.5 -15.5q0 -29 -19.5 -44.5t-44.5 -15.5q-19 0 -37 10.5t-26 35.5zM352 530l-25 -57.5l-26 -61l-25 -59l-22 -52.5h193l-19.5 48
l-24 59l-26 63z" />
    <glyph glyph-name="Atilde" unicode="&#xc3;" horiz-adv-x="704" 
d="M381 850q7 -5 10.5 -6.5t5.5 -1.5q8 0 13 9l3 5q7 11 17.5 18t25.5 7q17 0 32.5 -11.5t15.5 -35.5q0 -12 -5 -27.5t-16.5 -30t-30 -24.5t-44.5 -10q-30 0 -52.5 11.5t-39.5 23.5q-7 5 -10.5 6.5t-5.5 1.5q-8 0 -13 -9l-3 -5q-7 -11 -17.5 -18t-25.5 -7q-17 0 -32.5 11.5
t-15.5 35.5q0 12 5 27.5t16.5 30t30 24.5t44.5 10q30 0 52.5 -11.5t39.5 -23.5zM489 185h-277l-50 -141q-8 -25 -25.5 -35.5t-36.5 -10.5q-25 0 -44.5 15.5t-19.5 44.5q0 7 1.5 15.5t8.5 27.5q50 137 109.5 276.5t125.5 271.5q11 23 31.5 35t43.5 12q21 0 40.5 -11t31.5 -36
q62 -124 118 -258t113 -290q7 -19 8.5 -27.5t1.5 -15.5q0 -29 -19.5 -44.5t-44.5 -15.5q-19 0 -37 10.5t-26 35.5zM352 530l-25 -57.5l-26 -61l-25 -59l-22 -52.5h193l-19.5 48l-24 59l-26 63z" />
    <glyph glyph-name="Otilde" unicode="&#xd5;" horiz-adv-x="752" 
d="M376 -5q-66 0 -126 25.5t-105 71.5t-72 110.5t-27 142.5t27 142.5t72 110.5t105 71.5t126 25.5t126 -25.5t105 -71.5t72 -110.5t27 -142.5t-27 -142.5t-72 -110.5t-105 -71.5t-126 -25.5zM376 110q39 0 74.5 16.5t61.5 47.5t41.5 74.5t15.5 96.5t-15.5 96.5t-41.5 74.5
t-61.5 48t-74.5 17q-40 0 -75 -17t-61.5 -48t-41.5 -74.5t-15 -96.5t15 -96.5t41.5 -74.5t61.5 -47.5t75 -16.5zM405 850q7 -5 10.5 -6.5t5.5 -1.5q8 0 13 9l3 5q7 11 17.5 18t25.5 7q17 0 32.5 -11.5t15.5 -35.5q0 -12 -5 -27.5t-16.5 -30t-30 -24.5t-44.5 -10
q-30 0 -52.5 11.5t-39.5 23.5q-7 5 -10.5 6.5t-5.5 1.5q-8 0 -13 -9l-3 -5q-7 -11 -17.5 -18t-25.5 -7q-17 0 -32.5 11.5t-15.5 35.5q0 12 5 27.5t16.5 30t30 24.5t44.5 10q30 0 52.5 -11.5t39.5 -23.5z" />
    <glyph glyph-name="OE" unicode="&#x152;" horiz-adv-x="889" 
d="M407 571q-59 0 -102 -18t-70.5 -48t-41 -70.5t-13.5 -85.5q0 -46 14.5 -87.5t43 -73t71 -50t98.5 -18.5h25v451h-25zM416 5q-93 0 -162.5 28.5t-115.5 76t-69 108.5t-23 127t23.5 127.5t70 109t115.5 76t161 28.5h371q30 0 45 -18t15 -40t-15 -39.5t-45 -17.5h-226v-167
h200q31 0 46 -18t15 -39q0 -22 -15.5 -40t-45.5 -18h-200v-169h228q31 0 46 -18t15 -40t-15 -39.5t-46 -17.5h-373z" />
    <glyph glyph-name="oe" unicode="&#x153;" horiz-adv-x="874" 
d="M633 -5q-63 0 -111 25t-79 69q-29 -48 -72 -71t-97 -23q-49 0 -93.5 19t-78 53.5t-53 82t-19.5 104.5t19.5 104.5t52.5 81.5t77.5 53t94.5 19q54 0 100 -22.5t80 -69.5q27 44 74.5 68t101.5 24q48 0 88.5 -18t70 -48.5t46 -70t16.5 -82.5q0 -37 -22.5 -57t-53.5 -20h-262
q8 -51 39 -81.5t85 -30.5q22 0 43 8t41 29q25 27 55 27q22 0 38 -14.5t16 -37.5q0 -22 -16.5 -43.5t-44.5 -39t-63.5 -28t-72.5 -10.5zM272 106q23 0 43.5 10t36 29.5t24.5 46.5t9 62q0 34 -9 62t-24.5 47.5t-36 30t-43.5 10.5t-43.5 -10.5t-36 -30t-24.5 -47.5t-9 -62
q0 -35 9 -62t24.5 -46.5t36 -29.5t43.5 -10zM624 407q-44 0 -73.5 -29t-35.5 -68h195q7 0 8.5 3t1.5 6q0 10 -6 25t-18 29t-30 24t-42 10z" />
    <glyph glyph-name="endash" unicode="&#x2013;" horiz-adv-x="534" 
d="M445 310q29 0 44 -17.5t15 -38.5t-15 -38.5t-44 -17.5h-356q-30 0 -44.5 17.5t-14.5 38.5t14.5 38.5t44.5 17.5h356z" />
    <glyph glyph-name="emdash" unicode="&#x2014;" horiz-adv-x="754" 
d="M665 310q29 0 44 -17.5t15 -38.5t-15 -38.5t-44 -17.5h-576q-30 0 -44.5 17.5t-14.5 38.5t14.5 38.5t44.5 17.5h576z" />
    <glyph glyph-name="quotedblleft" unicode="&#x201c;" horiz-adv-x="436" 
d="M393 510q0 -30 -19.5 -50.5t-49.5 -20.5q-25 0 -41 10t-25.5 25.5t-13 33t-3.5 32.5q0 20 3 41t8 40t11.5 35.5t13.5 28.5q11 17 23.5 24t24.5 7q21 0 36 -13t15 -33q0 -8 -3 -16l-8 -22q-5 -12 -10 -28t-8 -33q21 -5 33.5 -21.5t12.5 -39.5zM195 510q0 -30 -19.5 -50.5
t-49.5 -20.5q-25 0 -41 10t-25.5 25.5t-13 33t-3.5 32.5q0 20 3 41t8 40t11.5 35.5t13.5 28.5q11 17 23.5 24t24.5 7q21 0 36 -13t15 -33q0 -8 -3 -16l-8 -22q-5 -12 -10 -28t-8 -33q21 -5 33.5 -21.5t12.5 -39.5z" />
    <glyph glyph-name="quotedblright" unicode="&#x201d;" horiz-adv-x="436" 
d="M43 645q0 30 19.5 50.5t49.5 20.5q25 0 41 -10t25.5 -25.5t13 -33t3.5 -32.5q0 -20 -3 -41t-8 -40t-11.5 -35.5t-13.5 -28.5q-11 -17 -23.5 -24t-24.5 -7q-21 0 -36 13t-15 33q0 8 3 16l8 22q5 12 10 28t8 33q-21 5 -33.5 21.5t-12.5 39.5zM241 645q0 30 19.5 50.5
t49.5 20.5q25 0 41 -10t25.5 -25.5t13 -33t3.5 -32.5q0 -20 -3 -41t-8 -40t-11.5 -35.5t-13.5 -28.5q-11 -17 -23.5 -24t-24.5 -7q-21 0 -36 13t-15 33q0 8 3 16l8 22q5 12 10 28t8 33q-21 5 -33.5 21.5t-12.5 39.5z" />
    <glyph glyph-name="quoteleft" unicode="&#x2018;" horiz-adv-x="218" 
d="M185 510q0 -30 -19.5 -50.5t-49.5 -20.5q-25 0 -41 10t-25.5 25.5t-13 33t-3.5 32.5q0 20 3 41t8 40t11.5 35.5t13.5 28.5q11 17 23.5 24t24.5 7q21 0 36 -13t15 -33q0 -8 -3 -16l-8 -22q-5 -12 -10 -28t-8 -33q21 -5 33.5 -21.5t12.5 -39.5z" />
    <glyph glyph-name="quoteright" unicode="&#x2019;" horiz-adv-x="218" 
d="M33 645q0 30 19.5 50.5t49.5 20.5q25 0 41 -10t25.5 -25.5t13 -33t3.5 -32.5q0 -20 -3 -41t-8 -40t-11.5 -35.5t-13.5 -28.5q-11 -17 -23.5 -24t-24.5 -7q-21 0 -36 13t-15 33q0 8 3 16l8 22q5 12 10 28t8 33q-21 5 -33.5 21.5t-12.5 39.5z" />
    <glyph glyph-name="divide" unicode="&#xf7;" 
d="M470 310q29 0 43 -17.5t14 -38.5t-14 -38.5t-43 -17.5h-356q-29 0 -43 17.5t-14 38.5t14 38.5t43 17.5h356zM215 72q0 30 21 51t51 21t51 -21t21 -51t-21 -51t-51 -21t-51 21t-21 51zM215 432q0 30 21 51t51 21t51 -21t21 -51t-21 -51t-51 -21t-51 21t-21 51z" />
    <glyph glyph-name="lozenge" unicode="&#x25ca;" horiz-adv-x="584" 
d="M292 -5l117 268l-117 271l-117 -271zM49 263q0 19 12 46l158 359q10 23 30 34t43 11t43 -11t30 -34l157 -359q6 -14 9.5 -24.5t3.5 -21.5t-3 -21t-9 -24l-158 -357q-10 -23 -30 -34t-43 -11t-43 11t-30 34l-157 357q-6 14 -9.5 24t-3.5 21z" />
    <glyph glyph-name="ydieresis" unicode="&#xff;" horiz-adv-x="504" 
d="M284 -34q-22 -45 -43.5 -75t-43 -48t-43 -25.5t-43.5 -7.5q-30 0 -46 18.5t-16 38.5q0 16 10 31t34 26q13 6 23.5 12.5t19.5 16t18 23t20 33.5l15 28l-17 35q-38 77 -73 165.5l-69 182.5q-4 11 -6.5 19.5t-2.5 16.5q0 26 20 41.5t45 15.5q17 0 32.5 -9t23.5 -27
q29 -73 55 -147t58 -149l22.5 58l23.5 64l26 74.5l31 90.5q8 23 23 34t41 11q28 0 44.5 -17.5t16.5 -38.5q0 -8 -3.5 -22.5t-12.5 -39.5q-32 -86 -69.5 -177.5t-77.5 -176.5zM96 631q0 26 18 44t44 18t44 -18t18 -44t-18 -44t-44 -18t-44 18t-18 44zM289 631q0 26 18 44
t44 18t44 -18t18 -44t-18 -44t-44 -18t-44 18t-18 44z" />
    <glyph glyph-name="Ydieresis" unicode="&#x178;" horiz-adv-x="602" 
d="M235 282l-56 83.5l-58.5 87.5l-52.5 79.5l-37 57.5q-8 15 -10.5 23.5t-2.5 17.5q0 10 4 20.5t12 19.5t20 15t28 6q14 0 31.5 -7t27.5 -23l18 -28l67 -107.5t77 -116.5q15 21 33 49l36.5 58l36.5 59l32 52l20 32q11 19 25.5 25.5t28.5 6.5q16 0 29 -6t22 -15t13.5 -19.5
t4.5 -20.5q0 -9 -3.5 -17.5t-11.5 -22.5l-78 -119l-33.5 -50.5l-34 -51.5l-31.5 -47.5l-27 -40.5v-227q0 -24 -19 -40.5t-46 -16.5t-46 16.5t-19 40.5v227zM142 813q0 26 18 44t44 18t44 -18t18 -44t-18 -44t-44 -18t-44 18t-18 44zM335 813q0 26 18 44t44 18t44 -18t18 -44
t-18 -44t-44 -18t-44 18t-18 44z" />
    <glyph glyph-name="fraction" unicode="&#x2044;" horiz-adv-x="180" 
d="M-77 16q-9 -13 -21 -17.5t-22 -4.5q-17 0 -30.5 12t-13.5 31q0 11 6 22t12 20l405 593q9 14 20.5 19t21.5 5q17 0 31.5 -11.5t14.5 -31.5q0 -10 -6 -21.5t-13 -21.5z" />
    <glyph glyph-name="Euro" unicode="&#x20ac;" 
d="M537 133q-1 -24 -17 -49t-41.5 -44.5t-59 -32t-69.5 -12.5q-46 0 -86 16.5t-72 46t-55.5 70.5t-36.5 91h-33q-24 0 -37 14t-13 33t13.5 34t37.5 15h17q-1 8 -1 18.5v36.5h-17q-25 0 -37.5 14.5t-12.5 33.5q0 20 13 34.5t37 14.5h31q13 51 36.5 93t55.5 72t72.5 47
t87.5 17q35 0 68.5 -10t60 -26.5t42.5 -36.5t16 -41q0 -29 -17.5 -45.5t-43.5 -16.5t-60 31q-17 15 -34.5 23.5t-41.5 8.5q-40 0 -71 -33.5t-45 -82.5h192q24 0 37 -14.5t13 -34.5q0 -19 -12.5 -33.5t-37.5 -14.5h-208v-36.5t1 -18.5h141q24 0 37 -15t13 -34t-12.5 -33
t-37.5 -14h-125q16 -48 46.5 -79.5t68.5 -31.5q32 0 49 12.5t31 29.5q11 14 26 27t36 13q22 0 38.5 -13.5t16.5 -43.5z" />
    <glyph glyph-name="guilsinglleft" unicode="&#x2039;" horiz-adv-x="382" 
d="M201 253q0 -6 10 -17l51 -56.5l29 -33.5q9 -11 13 -21.5t4 -19.5q0 -22 -16.5 -35.5t-39.5 -13.5q-14 0 -28 5.5t-27 19.5q-9 9 -24 25.5l-30.5 35l-30.5 37t-24 32.5q-14 23 -14 42t14 42q9 14 24 32.5l30.5 37l30.5 35t24 25.5q13 14 27 19.5t28 5.5q23 0 39.5 -13.5
t16.5 -35.5q0 -9 -4 -19.5t-13 -21.5l-29 -33.5l-51 -56.5q-10 -11 -10 -17z" />
    <glyph glyph-name="guilsinglright" unicode="&#x203a;" horiz-adv-x="382" 
d="M181 253q0 6 -10 17l-51 56.5l-29 33.5q-9 11 -13 21.5t-4 19.5q0 22 16.5 35.5t39.5 13.5q14 0 28 -5.5t27 -19.5q9 -9 24 -25.5l30.5 -35l30.5 -37t24 -32.5q14 -23 14 -42t-14 -42q-9 -14 -24 -32.5l-30.5 -37l-30.5 -35t-24 -25.5q-13 -14 -27 -19.5t-28 -5.5
q-23 0 -39.5 13.5t-16.5 35.5q0 9 4 19.5t13 21.5l29 33.5l51 56.5q10 11 10 17z" />
    <glyph glyph-name="daggerdbl" unicode="&#x2021;" horiz-adv-x="510" 
d="M192 391h-112q-27 0 -40.5 17.5t-13.5 38.5t13.5 39t40.5 18h112v156q0 23 18.5 39.5t44.5 16.5t44.5 -16.5t18.5 -39.5v-156h112q27 0 40.5 -18t13.5 -39t-13.5 -38.5t-40.5 -17.5h-112v-204h112q27 0 40.5 -17.5t13.5 -38.5t-13.5 -39t-40.5 -18h-112v-156
q0 -23 -18.5 -39.5t-44.5 -16.5t-44.5 16.5t-18.5 39.5v156h-112q-27 0 -40.5 18t-13.5 39t13.5 38.5t40.5 17.5h112v204z" />
    <glyph glyph-name="periodcentered" unicode="&#xb7;" horiz-adv-x="232" 
d="M44 358q0 30 21 51t51 21t51 -21t21 -51t-21 -51t-51 -21t-51 21t-21 51z" />
    <glyph glyph-name="quotesinglbase" unicode="&#x201a;" horiz-adv-x="232" 
d="M44 68q0 30 19.5 50.5t49.5 20.5q25 0 41 -10t25.5 -25.5t13 -33t3.5 -32.5q0 -20 -3 -41t-8 -40t-11.5 -35.5t-13.5 -28.5q-11 -17 -23.5 -24t-24.5 -7q-21 0 -36 12.5t-15 30.5q0 10 2.5 18t6.5 18l9 24.5t5 17.5q4 15 4 19t-2 5t-7 3q-17 7 -26 22.5t-9 35.5z" />
    <glyph glyph-name="quotedblbase" unicode="&#x201e;" horiz-adv-x="436" 
d="M43 67q0 30 19.5 50.5t49.5 20.5q25 0 41 -10t25.5 -25.5t13 -33t3.5 -32.5q0 -20 -3 -41t-8 -40t-11.5 -35.5t-13.5 -28.5q-11 -17 -23.5 -24t-24.5 -7q-21 0 -36 13t-15 33q0 8 3 16l8 22q5 12 10 28t8 33q-21 5 -33.5 21.5t-12.5 39.5zM241 67q0 30 19.5 50.5
t49.5 20.5q25 0 41 -10t25.5 -25.5t13 -33t3.5 -32.5q0 -20 -3 -41t-8 -40t-11.5 -35.5t-13.5 -28.5q-11 -17 -23.5 -24t-24.5 -7q-21 0 -36 13t-15 33q0 8 3 16l8 22q5 12 10 28t8 33q-21 5 -33.5 21.5t-12.5 39.5z" />
    <glyph glyph-name="perthousand" unicode="&#x2030;" horiz-adv-x="1125" 
d="M33 525q0 33 10 63.5t29.5 54.5t48 38t65.5 14q36 0 64 -14t47.5 -38t30 -54.5t10.5 -63.5t-10.5 -63.5t-30 -54.5t-47.5 -38t-64 -14q-37 0 -65.5 14t-48 38t-29.5 54.5t-10 63.5zM140 525q0 -31 11.5 -56t34.5 -25q22 0 33.5 25t11.5 56t-11.5 56t-33.5 25
q-23 0 -34.5 -25t-11.5 -56zM438 164q0 33 10 64t29.5 54.5t48 38t64.5 14.5t64.5 -14.5t48 -38t30 -54.5t10.5 -64t-10.5 -63.5t-30 -54t-48 -37.5t-64.5 -14t-64.5 14t-48 37.5t-29.5 54t-10 63.5zM545 164q0 -31 11 -55.5t34 -24.5t34.5 24.5t11.5 55.5t-11.5 56.5
t-34.5 25.5t-34 -25.5t-11 -56.5zM250 19q-10 -15 -23 -19.5t-26 -4.5q-21 0 -37.5 13t-16.5 36q0 12 5.5 24t13.5 23l363 578q11 16 22.5 21t25.5 5q20 0 37.5 -13.5t17.5 -36.5q0 -9 -6 -22t-14 -24zM787 164q0 33 10 64t29.5 54.5t48 38t64.5 14.5t64.5 -14.5t48 -38
t30 -54.5t10.5 -64t-10.5 -63.5t-30 -54t-48 -37.5t-64.5 -14t-64.5 14t-48 37.5t-29.5 54t-10 63.5zM894 164q0 -31 11 -55.5t34 -24.5t34.5 24.5t11.5 55.5t-11.5 56.5t-34.5 25.5t-34 -25.5t-11 -56.5z" />
    <glyph glyph-name="Acircumflex" unicode="&#xc2;" horiz-adv-x="704" 
d="M296 740q-18 -17 -39 -17q-20 0 -33.5 14.5t-13.5 34.5q0 9 4.5 20t20.5 25l70 63q21 20 47 20t47 -20l70 -63q16 -14 20.5 -25t4.5 -20q0 -20 -13.5 -34.5t-33.5 -14.5q-21 0 -39 17l-56 52zM489 185h-277l-50 -141q-8 -25 -25.5 -35.5t-36.5 -10.5q-25 0 -44.5 15.5
t-19.5 44.5q0 7 1.5 15.5t8.5 27.5q50 137 109.5 276.5t125.5 271.5q11 23 31.5 35t43.5 12q21 0 40.5 -11t31.5 -36q62 -124 118 -258t113 -290q7 -19 8.5 -27.5t1.5 -15.5q0 -29 -19.5 -44.5t-44.5 -15.5q-19 0 -37 10.5t-26 35.5zM352 530l-25 -57.5l-26 -61l-25 -59
l-22 -52.5h193l-19.5 48l-24 59l-26 63z" />
    <glyph glyph-name="Ecircumflex" unicode="&#xca;" horiz-adv-x="524" 
d="M396 404q30 0 45 -18t15 -40t-15 -39.5t-45 -17.5h-200v-169h228q31 0 46 -18t15 -40t-15 -39.5t-46 -17.5h-295q-25 0 -44 14.5t-19 36.5v572q0 23 19 40.5t44 17.5h293q30 0 45 -18t15 -40t-15 -39.5t-45 -17.5h-226v-167h200zM212 740q-18 -17 -39 -17
q-20 0 -33.5 14.5t-13.5 34.5q0 9 4.5 20t20.5 25l70 63q21 20 47 20t47 -20l70 -63q16 -14 20.5 -25t4.5 -20q0 -20 -13.5 -34.5t-33.5 -14.5q-21 0 -39 17l-56 52z" />
    <glyph glyph-name="Aacute" unicode="&#xc1;" horiz-adv-x="704" 
d="M390 891q8 5 16.5 7t16.5 2q23 0 38 -14.5t15 -34.5q0 -14 -8.5 -28t-28.5 -26l-105 -61q-8 -5 -16.5 -7t-16.5 -2q-23 0 -38 14.5t-15 34.5q0 14 8.5 28.5t28.5 25.5zM489 185h-277l-50 -141q-8 -25 -25.5 -35.5t-36.5 -10.5q-25 0 -44.5 15.5t-19.5 44.5q0 7 1.5 15.5
t8.5 27.5q50 137 109.5 276.5t125.5 271.5q11 23 31.5 35t43.5 12q21 0 40.5 -11t31.5 -36q62 -124 118 -258t113 -290q7 -19 8.5 -27.5t1.5 -15.5q0 -29 -19.5 -44.5t-44.5 -15.5q-19 0 -37 10.5t-26 35.5zM352 530l-25 -57.5l-26 -61l-25 -59l-22 -52.5h193l-19.5 48
l-24 59l-26 63z" />
    <glyph glyph-name="Edieresis" unicode="&#xcb;" horiz-adv-x="524" 
d="M396 404q30 0 45 -18t15 -40t-15 -39.5t-45 -17.5h-200v-169h228q31 0 46 -18t15 -40t-15 -39.5t-46 -17.5h-295q-25 0 -44 14.5t-19 36.5v572q0 23 19 40.5t44 17.5h293q30 0 45 -18t15 -40t-15 -39.5t-45 -17.5h-226v-167h200zM114 813q0 26 18 44t44 18t44 -18t18 -44
t-18 -44t-44 -18t-44 18t-18 44zM307 813q0 26 18 44t44 18t44 -18t18 -44t-18 -44t-44 -18t-44 18t-18 44z" />
    <glyph glyph-name="Egrave" unicode="&#xc8;" horiz-adv-x="524" 
d="M396 404q30 0 45 -18t15 -40t-15 -39.5t-45 -17.5h-200v-169h228q31 0 46 -18t15 -40t-15 -39.5t-46 -17.5h-295q-25 0 -44 14.5t-19 36.5v572q0 23 19 40.5t44 17.5h293q30 0 45 -18t15 -40t-15 -39.5t-45 -17.5h-226v-167h200zM185 797q-20 11 -28.5 25.5t-8.5 28.5
q0 20 15 34.5t38 14.5q8 0 16.5 -2t16.5 -7l105 -61q20 -12 28.5 -26t8.5 -28q0 -20 -15 -34.5t-38 -14.5q-8 0 -16.5 2t-16.5 7z" />
    <glyph glyph-name="Iacute" unicode="&#xcd;" horiz-adv-x="262" 
d="M66 634q0 24 19 40.5t46 16.5t46 -16.5t19 -40.5v-577q0 -24 -19 -40.5t-46 -16.5t-46 16.5t-19 40.5v577zM159 891q8 5 16.5 7t16.5 2q23 0 38 -14.5t15 -34.5q0 -14 -8.5 -28t-28.5 -26l-105 -61q-8 -5 -16.5 -7t-16.5 -2q-23 0 -38 14.5t-15 34.5q0 14 8.5 28.5
t28.5 25.5z" />
    <glyph glyph-name="Icircumflex" unicode="&#xce;" horiz-adv-x="262" 
d="M66 634q0 24 19 40.5t46 16.5t46 -16.5t19 -40.5v-577q0 -24 -19 -40.5t-46 -16.5t-46 16.5t-19 40.5v577zM75 740q-18 -17 -39 -17q-20 0 -33.5 14.5t-13.5 34.5q0 9 4.5 20t20.5 25l70 63q21 20 47 20t47 -20l70 -63q16 -14 20.5 -25t4.5 -20q0 -20 -13.5 -34.5
t-33.5 -14.5q-21 0 -39 17l-56 52z" />
    <glyph glyph-name="Idieresis" unicode="&#xcf;" horiz-adv-x="262" 
d="M66 634q0 24 19 40.5t46 16.5t46 -16.5t19 -40.5v-577q0 -24 -19 -40.5t-46 -16.5t-46 16.5t-19 40.5v577zM-27 813q0 26 18 44t44 18t44 -18t18 -44t-18 -44t-44 -18t-44 18t-18 44zM166 813q0 26 18 44t44 18t44 -18t18 -44t-18 -44t-44 -18t-44 18t-18 44z" />
    <glyph glyph-name="Igrave" unicode="&#xcc;" horiz-adv-x="262" 
d="M66 634q0 24 19 40.5t46 16.5t46 -16.5t19 -40.5v-577q0 -24 -19 -40.5t-46 -16.5t-46 16.5t-19 40.5v577zM54 797q-20 11 -28.5 25.5t-8.5 28.5q0 20 15 34.5t38 14.5q8 0 16.5 -2t16.5 -7l105 -61q20 -12 28.5 -26t8.5 -28q0 -20 -15 -34.5t-38 -14.5q-8 0 -16.5 2
t-16.5 7z" />
    <glyph glyph-name="Oacute" unicode="&#xd3;" horiz-adv-x="752" 
d="M376 -5q-66 0 -126 25.5t-105 71.5t-72 110.5t-27 142.5t27 142.5t72 110.5t105 71.5t126 25.5t126 -25.5t105 -71.5t72 -110.5t27 -142.5t-27 -142.5t-72 -110.5t-105 -71.5t-126 -25.5zM376 110q39 0 74.5 16.5t61.5 47.5t41.5 74.5t15.5 96.5t-15.5 96.5t-41.5 74.5
t-61.5 48t-74.5 17q-40 0 -75 -17t-61.5 -48t-41.5 -74.5t-15 -96.5t15 -96.5t41.5 -74.5t61.5 -47.5t75 -16.5zM414 891q8 5 16.5 7t16.5 2q23 0 38 -14.5t15 -34.5q0 -14 -8.5 -28t-28.5 -26l-105 -61q-8 -5 -16.5 -7t-16.5 -2q-23 0 -38 14.5t-15 34.5q0 14 8.5 28.5
t28.5 25.5z" />
    <glyph glyph-name="Ocircumflex" unicode="&#xd4;" horiz-adv-x="752" 
d="M376 -5q-66 0 -126 25.5t-105 71.5t-72 110.5t-27 142.5t27 142.5t72 110.5t105 71.5t126 25.5t126 -25.5t105 -71.5t72 -110.5t27 -142.5t-27 -142.5t-72 -110.5t-105 -71.5t-126 -25.5zM376 110q39 0 74.5 16.5t61.5 47.5t41.5 74.5t15.5 96.5t-15.5 96.5t-41.5 74.5
t-61.5 48t-74.5 17q-40 0 -75 -17t-61.5 -48t-41.5 -74.5t-15 -96.5t15 -96.5t41.5 -74.5t61.5 -47.5t75 -16.5zM320 740q-18 -17 -39 -17q-20 0 -33.5 14.5t-13.5 34.5q0 9 4.5 20t20.5 25l70 63q21 20 47 20t47 -20l70 -63q16 -14 20.5 -25t4.5 -20q0 -20 -13.5 -34.5
t-33.5 -14.5q-21 0 -39 17l-56 52z" />
    <glyph glyph-name="apple" unicode="&#xf8ff;" horiz-adv-x="860" 
d="M582 202q9 -4 9 -12t-9 -12l-140 -79q-7 -4 -11 -4q-7 0 -12 4l-361 209q-8 3 -8 15v181q0 9 2.5 14.5t10.5 11.5l349 200q5 3 9.5 4t9.5 1t9.5 -1.5t8.5 -3.5l346 -199q15 -8 15 -33v-158q0 -8 -7 -8q-3 0 -7 2l-341 197q-11 7 -24 7q-6 0 -12.5 -2.5t-12.5 -5.5
l-146 -83q-18 -11 -18 -30t18 -29zM278 406q-9 4 -9 12t9 12l140 79q7 4 11 4q7 0 12 -4l361 -209q8 -3 8 -15v-181q0 -9 -2.5 -14.5t-10.5 -11.5l-349 -200q-8 -5 -19 -5q-5 0 -9.5 1.5t-8.5 3.5l-346 199q-15 8 -15 33v158q0 8 7 8q3 0 7 -2l341 -197q11 -7 24 -7
q6 0 12.5 2.5t12.5 5.5l146 83q18 10 18 30q0 19 -18 29z" />
    <glyph glyph-name="Ograve" unicode="&#xd2;" horiz-adv-x="752" 
d="M376 -5q-66 0 -126 25.5t-105 71.5t-72 110.5t-27 142.5t27 142.5t72 110.5t105 71.5t126 25.5t126 -25.5t105 -71.5t72 -110.5t27 -142.5t-27 -142.5t-72 -110.5t-105 -71.5t-126 -25.5zM376 110q39 0 74.5 16.5t61.5 47.5t41.5 74.5t15.5 96.5t-15.5 96.5t-41.5 74.5
t-61.5 48t-74.5 17q-40 0 -75 -17t-61.5 -48t-41.5 -74.5t-15 -96.5t15 -96.5t41.5 -74.5t61.5 -47.5t75 -16.5zM289 797q-20 11 -28.5 25.5t-8.5 28.5q0 20 15 34.5t38 14.5q8 0 16.5 -2t16.5 -7l105 -61q20 -12 28.5 -26t8.5 -28q0 -20 -15 -34.5t-38 -14.5q-8 0 -16.5 2
t-16.5 7z" />
    <glyph glyph-name="Uacute" unicode="&#xda;" horiz-adv-x="653" 
d="M457 633q0 24 19 41t46 17t46 -17t19 -41v-374q0 -64 -22 -113.5t-58 -83t-83 -50.5t-97 -17t-97 17t-83.5 50.5t-58.5 83t-22 113.5v375q0 20 17 38.5t48 18.5q29 0 47 -18.5t18 -38.5v-375q0 -39 11 -67t29.5 -46.5t42 -27t48.5 -8.5t48.5 8.5t41.5 27t29 46.5t11 67
v374zM364 891q8 5 16.5 7t16.5 2q23 0 38 -14.5t15 -34.5q0 -14 -8.5 -28t-28.5 -26l-105 -61q-8 -5 -16.5 -7t-16.5 -2q-23 0 -38 14.5t-15 34.5q0 14 8.5 28.5t28.5 25.5z" />
    <glyph glyph-name="Ucircumflex" unicode="&#xdb;" horiz-adv-x="653" 
d="M457 633q0 24 19 41t46 17t46 -17t19 -41v-374q0 -64 -22 -113.5t-58 -83t-83 -50.5t-97 -17t-97 17t-83.5 50.5t-58.5 83t-22 113.5v375q0 20 17 38.5t48 18.5q29 0 47 -18.5t18 -38.5v-375q0 -39 11 -67t29.5 -46.5t42 -27t48.5 -8.5t48.5 8.5t41.5 27t29 46.5t11 67
v374zM270 740q-18 -17 -39 -17q-20 0 -33.5 14.5t-13.5 34.5q0 9 4.5 20t20.5 25l70 63q21 20 47 20t47 -20l70 -63q16 -14 20.5 -25t4.5 -20q0 -20 -13.5 -34.5t-33.5 -14.5q-21 0 -39 17l-56 52z" />
    <glyph glyph-name="Ugrave" unicode="&#xd9;" horiz-adv-x="653" 
d="M457 633q0 24 19 41t46 17t46 -17t19 -41v-374q0 -64 -22 -113.5t-58 -83t-83 -50.5t-97 -17t-97 17t-83.5 50.5t-58.5 83t-22 113.5v375q0 20 17 38.5t48 18.5q29 0 47 -18.5t18 -38.5v-375q0 -39 11 -67t29.5 -46.5t42 -27t48.5 -8.5t48.5 8.5t41.5 27t29 46.5t11 67
v374zM239 797q-20 11 -28.5 25.5t-8.5 28.5q0 20 15 34.5t38 14.5q8 0 16.5 -2t16.5 -7l105 -61q20 -12 28.5 -26t8.5 -28q0 -20 -15 -34.5t-38 -14.5q-8 0 -16.5 2t-16.5 7z" />
    <glyph glyph-name="dotlessi" unicode="&#x131;" horiz-adv-x="246" 
d="M186 52q0 -24 -18.5 -39t-44.5 -15t-44.5 15t-18.5 39v407q0 23 18.5 38.5t44.5 15.5t44.5 -15.5t18.5 -38.5v-407z" />
    <glyph glyph-name="circumflex" unicode="&#x2c6;" horiz-adv-x="560" 
d="M224 559q-18 -17 -39 -17q-20 0 -33.5 14.5t-13.5 34.5q0 9 4.5 20t20.5 25l70 63q21 20 47 20t47 -20l70 -63q16 -14 20.5 -25t4.5 -20q0 -20 -13.5 -34.5t-33.5 -14.5q-21 0 -39 17l-56 52z" />
    <glyph glyph-name="tilde" unicode="&#x2dc;" horiz-adv-x="560" 
d="M311 668q7 -5 10.5 -6.5t5.5 -1.5q8 0 13 9l3 5q7 11 17.5 18t25.5 7q17 0 32.5 -11.5t15.5 -35.5q0 -12 -5 -27.5t-16.5 -30t-30 -24.5t-44.5 -10q-30 0 -52.5 11.5t-39.5 23.5q-7 5 -10.5 6.5t-5.5 1.5q-8 0 -13 -9l-3 -5q-7 -11 -17.5 -18t-25.5 -7q-17 0 -32.5 11.5
t-15.5 35.5q0 12 5 27.5t16.5 30t30 24.5t44.5 10q30 0 52.5 -11.5t39.5 -23.5z" />
    <glyph glyph-name="macron" unicode="&#xaf;" horiz-adv-x="560" 
d="M176 580q-26 0 -39 16t-13 35t13 34t39 15h209q26 0 39 -15t13 -34t-13 -35t-39 -16h-209z" />
    <glyph glyph-name="breve" unicode="&#x2d8;" horiz-adv-x="560" 
d="M279 545q-39 0 -65.5 13t-43.5 31t-24.5 38.5t-7.5 35.5q0 24 14 40t40 16q17 0 32 -10t18 -32l1 -7q2 -15 13 -22.5t24 -7.5q12 0 22.5 7t12.5 23l1 7q3 22 18 32t32 10q23 0 38.5 -13.5t15.5 -42.5q0 -15 -7.5 -35.5t-24.5 -38.5t-43.5 -31t-65.5 -13z" />
    <glyph glyph-name="dotaccent" unicode="&#x2d9;" horiz-adv-x="560" 
d="M211 647q0 29 20 49t49 20t49 -20t20 -49t-20 -49t-49 -20t-49 20t-20 49z" />
    <glyph glyph-name="ring" unicode="&#x2da;" horiz-adv-x="560" 
d="M191 631q0 18 7 34t19 28t28 19t34 7t34 -7t28 -19t19 -28t7 -34t-7 -34t-19 -28.5t-28 -19.5t-34 -7t-34 7t-28 19.5t-19 28.5t-7 34zM245 631q0 -16 9 -26.5t25 -10.5q15 0 24 10.5t9 26.5q0 14 -9 24.5t-24 10.5q-16 0 -25 -10.5t-9 -24.5z" />
    <glyph glyph-name="cedilla" unicode="&#xb8;" horiz-adv-x="560" 
d="M366 -108q0 -33 -24 -57.5t-68 -24.5q-22 0 -38.5 4t-29.5 10t-19.5 15.5t-6.5 18.5q0 11 7.5 21t22.5 10q4 0 7.5 -1t11.5 -5t18 -7.5t21 -3.5q9 0 16 5t7 15q0 6 -4.5 12t-12.5 8l-43 6q-17 2 -24 10.5t-7 19.5q0 7 2 13.5t6 16.5l12 32q5 14 14 19t19 5q12 0 23 -7
t11 -22q0 -3 -3 -12t-6 -19q38 -3 63 -21.5t25 -60.5z" />
    <glyph glyph-name="hungarumlaut" unicode="&#x2dd;" horiz-adv-x="560" 
d="M172 700q19 19 39 19q21 0 37.5 -16t16.5 -37q0 -20 -17 -37l-70 -68q-19 -19 -39 -19q-21 0 -37.5 16t-16.5 37q0 20 17 37zM355 700q19 19 39 19q21 0 37.5 -16t16.5 -37q0 -20 -17 -37l-70 -68q-19 -19 -39 -19q-21 0 -37.5 16t-16.5 37q0 20 17 37z" />
    <glyph glyph-name="ogonek" unicode="&#x2db;" horiz-adv-x="560" 
d="M274 68q8 5 15.5 7.5t13.5 2.5q20 0 34.5 -14.5t14.5 -34.5q0 -22 -22 -36l-37 -26.5t-22 -18t-11 -13.5t-3 -12q0 -10 6 -13.5t13 -3.5q13 0 32 13q12 8 22 12.5t21 4.5q17 0 30 -13.5t13 -33.5q0 -13 -8.5 -25t-22.5 -22q-18 -12 -40.5 -21t-48.5 -9q-54 0 -88.5 26.5
t-34.5 77.5q0 41 28.5 76t94.5 76z" />
    <glyph glyph-name="caron" unicode="&#x2c7;" horiz-adv-x="560" 
d="M336 702q18 17 39 17q20 0 33.5 -14.5t13.5 -34.5q0 -9 -4.5 -20t-20.5 -25l-70 -63q-21 -20 -47 -20t-47 20l-70 63q-16 14 -20.5 25t-4.5 20q0 20 13.5 34.5t33.5 14.5q21 0 39 -17l56 -52z" />
    <glyph glyph-name="uni00AD" unicode="&#xad;" horiz-adv-x="324" 
d="M236 327q29 0 44 -17.5t15 -38.5t-15 -38.5t-44 -17.5h-148q-30 0 -44.5 17.5t-14.5 38.5t14.5 38.5t44.5 17.5h148z" />
    <glyph glyph-name="currency" unicode="&#xa4;" 
d="M103 344q0 52 25 93q-15 16 -29.5 30l-29.5 29q-12 12 -12 28q0 20 16.5 35t35.5 15q8 0 15.5 -2.5t13.5 -8.5l59 -57q41 23 90 23q48 0 89 -23l59 57q6 6 13.5 8.5t15.5 2.5q19 0 35.5 -15t16.5 -35q0 -16 -12 -28l-58 -59q12 -20 19 -44t7 -49q0 -51 -27 -95l56 -56
q12 -12 12 -28q0 -20 -16.5 -35t-35.5 -15q-16 0 -29 11l-57 55q-19 -10 -41 -15.5t-47 -5.5q-47 0 -88 22l-58 -56q-13 -11 -29 -11q-19 0 -35.5 15t-16.5 35q0 16 12 28l57 57q-12 21 -19 44.5t-7 49.5zM201 344q0 -37 25 -63.5t61 -26.5q37 0 62 26.5t25 63.5
q0 38 -25 64.5t-62 26.5q-18 0 -33.5 -7t-27.5 -19.5t-18.5 -29t-6.5 -35.5z" />
    <glyph glyph-name="uni03A9" unicode="&#x3a9;" horiz-adv-x="752" 
d="M376 579q-39 0 -74.5 -15t-61.5 -44t-41.5 -70.5t-15.5 -94.5q0 -81 30.5 -139t75.5 -88l21 -14q32 -22 32 -51q0 -22 -14.5 -40t-42.5 -18h-178q-30 0 -44 17.5t-14 39.5q0 21 14 39t44 18h52q-50 48 -80 107.5t-30 134.5q0 76 26.5 138t71 106t104 67.5t125.5 23.5
t125.5 -23.5t104 -67.5t71 -106t26.5 -138q0 -75 -30 -134.5t-80 -107.5h52q30 0 44 -18t14 -39q0 -22 -14 -39.5t-44 -17.5h-178q-28 0 -42.5 18t-14.5 40q0 29 32 51l21 14q45 30 75.5 88t30.5 139q0 53 -15.5 94.5t-41.5 70.5t-61.5 44t-74.5 15z" />
    <glyph glyph-name="uni0394" unicode="&#x394;" horiz-adv-x="672" 
d="M29 60q0 5 1 11t7 20q19 54 48.5 128l62.5 153l66.5 154l59.5 131q10 20 27 29t35 9q17 0 35 -8.5t28 -29.5l60 -131l63.5 -147.5l61.5 -150t53 -137.5q8 -20 8 -34q-1 -17 -19.5 -34.5t-47.5 -17.5h-484q-26 0 -45.5 16.5t-19.5 38.5zM334 495l-75 -179.5t-75 -193.5
h302l-28.5 73.5l-32.5 81.5l-40.5 97.5z" />
    <glyph glyph-name="uni03BC" unicode="&#x3bc;" horiz-adv-x="534" 
d="M415 0q-18 0 -33 8t-23 21q-41 -29 -90 -29q-22 0 -44 6t-42 19v-159q0 -23 -19 -39.5t-45 -16.5t-44.5 16.5t-18.5 39.5v589q0 23 18.5 38.5t44.5 15.5t45 -15.5t19 -38.5v-262q0 -35 21 -57.5t63 -22.5q39 0 61.5 21.5t22.5 58.5v262q0 23 19 38.5t45 15.5t44.5 -15.5
t18.5 -38.5v-399q0 -23 -18.5 -39.5t-44.5 -16.5z" />
    <glyph glyph-name="zero.numr" horiz-adv-x="344" 
d="M116 496q0 -21 3 -41.5t10 -36.5t17 -26t24 -10t24 10t16.5 26t9.5 36.5t3 41.5q0 22 -3 43t-9.5 37.5t-16.5 26t-24 9.5t-24.5 -9.5t-17 -26t-9.5 -37.5t-3 -43zM22 496q0 42 10.5 78.5t30 63.5t46.5 42.5t61 15.5t61.5 -15.5t47 -42.5t30 -63.5t10.5 -78.5
q0 -41 -10.5 -77t-30 -62.5t-47 -42t-61.5 -15.5t-61 15.5t-46.5 42t-30 62.5t-10.5 77z" />
    <glyph glyph-name="one.numr" horiz-adv-x="344" 
d="M266 390q20 0 32 -13.5t12 -29.5q0 -17 -12 -30t-32 -13h-206q-19 0 -31 13t-12 30q0 16 12 29.5t31 13.5h58v187l-25 -15q-9 -5 -16.5 -7.5t-12.5 -2.5q-23 0 -34 12.5t-11 28.5q0 8 6.5 21t21.5 22l84 50q17 10 33 10q23 0 36 -13.5t13 -36.5v-256h53v0z" />
    <glyph glyph-name="two.numr" horiz-adv-x="344" 
d="M269 390q21 0 34 -10.5t13 -32.5q0 -17 -13 -30t-34 -13h-186q-25 0 -39 14t-14 33q0 25 24 45l75 63q36 30 57.5 56.5t21.5 53.5q0 17 -12.5 30t-34.5 13q-23 0 -34.5 -11.5t-11.5 -26.5q0 -4 2 -12t2 -14q0 -14 -10.5 -25t-33.5 -11q-12 0 -24 7.5t-19 24.5
q-3 9 -4 16.5t-1 16.5q0 23 10 44.5t27.5 38t42.5 26.5t55 10q32 0 58 -10t44 -27t28 -40t10 -50q0 -48 -34.5 -91.5t-85.5 -81.5l-8 -6h95z" />
    <glyph glyph-name="three.numr" horiz-adv-x="344" 
d="M297 643q0 -13 -4 -21t-11 -17l-55 -68q42 -14 63.5 -45.5t21.5 -63.5q0 -26 -10 -49t-28 -41t-44 -28.5t-58 -10.5q-29 0 -54.5 10t-41.5 23q-18 15 -29.5 34.5t-11.5 34.5q0 13 10.5 27t32.5 14q28 0 43 -29q6 -11 19 -20.5t31 -9.5q26 0 38 15t12 30q0 32 -51 43
l-10 2q-45 9 -45 38q0 17 17 39l45 55h-91q-19 0 -32.5 11t-13.5 31q0 17 13.5 30t32.5 13h161q23 0 36.5 -14t13.5 -33z" />
    <glyph glyph-name="four.numr" horiz-adv-x="344" 
d="M172 381h-111q-23 0 -38.5 14.5t-15.5 37.5q0 13 13 35l30 46.5l36 52.5l38 53.5l36 49.5q10 13 24 19.5t28 6.5q21 0 36 -13.5t15 -39.5v-180h23q21 0 31.5 -13t10.5 -29q0 -15 -10.5 -27.5t-31.5 -12.5h-23v-37q0 -20 -12 -32.5t-33 -12.5q-20 0 -33 12.5t-13 32.5v37z
M174 462v102l-71 -102h71z" />
    <glyph glyph-name="five.numr" horiz-adv-x="344" 
d="M162 299q-27 0 -52.5 10t-41.5 23q-18 15 -29 34.5t-11 34.5q0 13 9.5 27t31.5 14q29 0 44 -29q6 -11 19 -20.5t31 -9.5q23 0 35 16t12 36q0 16 -11.5 30t-37.5 14q-7 0 -16 -0.5t-16 -1.5q-8 -1 -15 -1.5t-18 -0.5q-17 0 -31.5 12t-14.5 33v5l18 127q2 17 15 27t31 10
h140q20 0 33.5 -12.5t13.5 -30.5t-13.5 -30t-33.5 -12h-105l-6 -49h18q37 0 64 -10t45 -26.5t26.5 -38.5t8.5 -46q0 -26 -10 -50.5t-28.5 -43t-45 -30t-59.5 -11.5z" />
    <glyph glyph-name="six.numr" horiz-adv-x="344" 
d="M177 478q-17 0 -34 -10t-17 -30q0 -23 16 -40.5t36 -17.5q21 0 32.5 15.5t11.5 35.5q0 23 -14.5 35t-30.5 12zM311 433q0 -26 -9 -50t-26 -42.5t-42 -30t-57 -11.5t-59.5 13t-47 38t-30.5 60t-11 79q0 39 9.5 76t29.5 66t50 47t71 18q19 0 35 -4t30 -10q23 -11 35 -24.5
t12 -27.5q0 -15 -10.5 -30t-34.5 -15q-15 0 -32 13q-11 10 -21.5 12.5t-19.5 2.5q-17 -1 -28 -10t-17.5 -21.5t-10 -27t-4.5 -27.5q16 11 33.5 15.5t35.5 4.5q22 0 43.5 -7.5t38.5 -22t27 -35.5t10 -49z" />
    <glyph glyph-name="seven.numr" horiz-adv-x="344" 
d="M280 690q25 0 38 -15t13 -35q0 -16 -7 -30l-24 -49l-54 -111.5t-53 -119.5q-7 -17 -19.5 -25t-26.5 -8q-19 0 -33 13t-14 33q0 4 1 9.5t3 9.5q23 56 54.5 120.5l63.5 125.5h-90v-18q0 -23 -13.5 -34t-30.5 -11t-30.5 10.5t-13.5 34.5v53q0 20 12.5 33.5t34.5 13.5h189v0z
" />
    <glyph glyph-name="eight.numr" horiz-adv-x="344" 
d="M27 416q0 29 19.5 52.5t48.5 36.5q-26 11 -42.5 32.5t-16.5 49.5q0 22 10.5 42t28.5 35t42.5 23.5t53.5 8.5t54 -8.5t43 -23.5t28 -35t10 -42q0 -28 -15.5 -48.5t-42.5 -33.5q27 -11 47.5 -35.5t20.5 -53.5q0 -27 -11.5 -48.5t-31.5 -37t-46.5 -23.5t-55.5 -8t-55 8
t-46 23.5t-31.5 37t-11.5 48.5zM180 462q-6 2 -9 2q-5 0 -9 -2q-26 -12 -34 -22.5t-8 -21.5q0 -16 15 -27.5t36 -11.5t36 11.5t15 27.5q0 11 -8 21.5t-34 22.5zM159 543q7 -3 12 -3q2 0 6 1t6 2q18 8 25.5 19t7.5 19q0 14 -12.5 24.5t-32.5 10.5q-19 0 -31.5 -10.5
t-12.5 -24.5q0 -8 6 -19t26 -19z" />
    <glyph glyph-name="nine.numr" horiz-adv-x="344" 
d="M163 517q17 0 34 10t17 30q0 23 -16 40.5t-36 17.5q-21 0 -32.5 -15.5t-11.5 -35.5q0 -23 14.5 -35t30.5 -12zM29 562q0 25 9 49.5t26 43t42 30t57 11.5t59.5 -13t47 -38t30.5 -60t11 -79q0 -39 -9.5 -76t-29.5 -66t-50 -47t-71 -18q-19 0 -35 4t-30 10q-23 11 -35 24.5
t-12 27.5q0 15 10.5 30t34.5 15q15 0 32 -13q11 -10 21.5 -12.5t19.5 -2.5q16 1 27.5 10t18 21.5t10 27t4.5 27.5q-16 -11 -33.5 -15.5t-35.5 -4.5q-23 0 -44 7.5t-38 22t-27 35.5t-10 49z" />
    <glyph glyph-name="zero.dnom" horiz-adv-x="344" 
d="M120 197q0 -21 3 -41.5t9 -36.5t15.5 -26t22.5 -10q12 0 21.5 10t15.5 26t9 36.5t3 41.5q0 22 -3 43t-9 37.5t-15.5 26t-21.5 9.5q-13 0 -22.5 -9.5t-15.5 -26t-9 -37.5t-3 -43zM26 197q0 42 10 78.5t28.5 63.5t45 42.5t60.5 15.5t60.5 -15.5t45.5 -42.5t29 -63.5
t10 -78.5q0 -41 -10 -77t-29 -62.5t-45.5 -42t-60.5 -15.5t-60.5 15.5t-45 42t-28.5 62.5t-10 77z" />
    <glyph glyph-name="one.dnom" horiz-adv-x="344" 
d="M276 91q20 0 32 -13.5t12 -29.5q0 -17 -12 -30t-32 -13h-206q-19 0 -31 13t-12 30q0 16 12 29.5t31 13.5h58v187l-25 -15q-9 -5 -16.5 -7.5t-12.5 -2.5q-23 0 -34 12.5t-11 28.5q0 8 6.5 21t21.5 22l84 50q17 10 33 10q23 0 36 -13.5t13 -36.5v-256h53v0z" />
    <glyph glyph-name="two.dnom" horiz-adv-x="344" 
d="M274 91q21 0 34 -10.5t13 -32.5q0 -17 -13 -30t-34 -13h-186q-25 0 -39 14t-14 33q0 25 24 45l75 63q36 30 57.5 56.5t21.5 53.5q0 17 -12.5 30t-34.5 13q-23 0 -34.5 -11.5t-11.5 -26.5q0 -4 2 -12t2 -14q0 -14 -10.5 -25t-33.5 -11q-12 0 -24 7.5t-19 24.5
q-3 9 -4 16.5t-1 16.5q0 23 10 44.5t27.5 38t42.5 26.5t55 10q32 0 58 -10t44 -27t28 -40t10 -50q0 -48 -34.5 -91.5t-85.5 -81.5l-8 -6h95z" />
    <glyph glyph-name="three.dnom" horiz-adv-x="344" 
d="M297 344q0 -13 -4 -21t-11 -17l-55 -68q42 -14 63.5 -45.5t21.5 -63.5q0 -26 -10 -49t-28 -41t-44 -28.5t-58 -10.5q-29 0 -54.5 10t-41.5 23q-18 15 -29.5 34.5t-11.5 34.5q0 13 10.5 27t32.5 14q28 0 43 -29q6 -11 19 -20.5t31 -9.5q26 0 38 15t12 30q0 32 -51 43
l-10 2q-45 9 -45 38q0 17 17 39l45 55h-91q-19 0 -32.5 11t-13.5 31q0 17 13.5 30t32.5 13h161q23 0 36.5 -14t13.5 -33z" />
    <glyph glyph-name="four.dnom" horiz-adv-x="344" 
d="M162 82h-111q-23 0 -38.5 14.5t-15.5 37.5q0 13 13 35l30 46.5l36 52.5l38 53.5l36 49.5q10 13 24 19.5t28 6.5q21 0 36 -13.5t15 -39.5v-180h23q21 0 31.5 -13t10.5 -29q0 -15 -10.5 -27.5t-31.5 -12.5h-23v-37q0 -20 -12 -32.5t-33 -12.5q-20 0 -33 12.5t-13 32.5v37z
M164 163v102l-71 -102h71z" />
    <glyph glyph-name="five.dnom" horiz-adv-x="344" 
d="M161 0q-27 0 -52.5 10t-41.5 23q-18 15 -29 34.5t-11 34.5q0 13 9.5 27t31.5 14q29 0 44 -29q6 -11 19 -20.5t31 -9.5q23 0 35 16t12 36q0 16 -11.5 30t-37.5 14q-7 0 -16 -0.5t-16 -1.5q-8 -1 -15 -1.5t-18 -0.5q-17 0 -31.5 12t-14.5 33v5l18 127q2 17 15 27t31 10h140
q20 0 33.5 -12.5t13.5 -30.5t-13.5 -30t-33.5 -12h-105l-6 -49h18q37 0 64 -10t45 -26.5t26.5 -38.5t8.5 -46q0 -26 -10 -50.5t-28.5 -43t-45 -30t-59.5 -11.5z" />
    <glyph glyph-name="six.dnom" horiz-adv-x="344" 
d="M179 179q-17 0 -34 -10t-17 -30q0 -23 16 -40.5t36 -17.5q21 0 32.5 15.5t11.5 35.5q0 23 -14.5 35t-30.5 12zM313 134q0 -26 -9 -50t-26 -42.5t-42 -30t-57 -11.5t-59.5 13t-47 38t-30.5 60t-11 79q0 39 9.5 76t29.5 66t50 47t71 18q19 0 35 -4t30 -10q23 -11 35 -24.5
t12 -27.5q0 -15 -10.5 -30t-34.5 -15q-15 0 -32 13q-11 10 -21.5 12.5t-19.5 2.5q-17 -1 -28 -10t-17.5 -21.5t-10 -27t-4.5 -27.5q16 11 33.5 15.5t35.5 4.5q22 0 43.5 -7.5t38.5 -22t27 -35.5t10 -49z" />
    <glyph glyph-name="seven.dnom" horiz-adv-x="344" 
d="M274 391q25 0 38 -15t13 -35q0 -16 -7 -30l-24 -49l-54 -111.5t-53 -119.5q-7 -17 -19.5 -25t-26.5 -8q-19 0 -33 13t-14 33q0 4 1 9.5t3 9.5q23 56 54.5 120.5l63.5 125.5h-90v-18q0 -23 -13.5 -34t-30.5 -11t-30.5 10.5t-13.5 34.5v53q0 20 12.5 33.5t34.5 13.5h189v0z
" />
    <glyph glyph-name="eight.dnom" horiz-adv-x="344" 
d="M27 117q0 29 19.5 52.5t48.5 36.5q-26 11 -42.5 32.5t-16.5 49.5q0 22 10.5 42t28.5 35t42.5 23.5t53.5 8.5t54 -8.5t43 -23.5t28 -35t10 -42q0 -28 -15.5 -48.5t-42.5 -33.5q27 -11 47.5 -35.5t20.5 -53.5q0 -27 -11.5 -48.5t-31.5 -37t-46.5 -23.5t-55.5 -8t-55 8
t-46 23.5t-31.5 37t-11.5 48.5zM180 163q-6 2 -9 2q-5 0 -9 -2q-26 -12 -34 -22.5t-8 -21.5q0 -16 15 -27.5t36 -11.5t36 11.5t15 27.5q0 11 -8 21.5t-34 22.5zM159 244q7 -3 12 -3q2 0 6 1t6 2q18 8 25.5 19t7.5 19q0 14 -12.5 24.5t-32.5 10.5q-19 0 -31.5 -10.5
t-12.5 -24.5q0 -8 6 -19t26 -19z" />
    <glyph glyph-name="nine.dnom" horiz-adv-x="344" 
d="M163 218q17 0 34 10t17 30q0 23 -16 40.5t-36 17.5q-21 0 -32.5 -15.5t-11.5 -35.5q0 -23 14.5 -35t30.5 -12zM29 263q0 25 9 49.5t26 43t42 30t57 11.5t59.5 -13t47 -38t30.5 -60t11 -79q0 -39 -9.5 -76t-29.5 -66t-50 -47t-71 -18q-19 0 -35 4t-30 10q-23 11 -35 24.5
t-12 27.5q0 15 10.5 30t34.5 15q15 0 32 -13q11 -10 21.5 -12.5t19.5 -2.5q16 1 27.5 10t18 21.5t10 27t4.5 27.5q-16 -11 -33.5 -15.5t-35.5 -4.5q-23 0 -44 7.5t-38 22t-27 35.5t-10 49z" />
    <glyph glyph-name=".null" horiz-adv-x="0" 
 />
    <glyph glyph-name=".null" horiz-adv-x="0" 
 />
    <glyph glyph-name="Amacron" unicode="&#x100;" horiz-adv-x="704" 
d="M247 762q-26 0 -39 16t-13 35t13 34t39 15h209q26 0 39 -15t13 -34t-13 -35t-39 -16h-209zM489 185h-277l-50 -141q-8 -25 -25.5 -35.5t-36.5 -10.5q-25 0 -44.5 15.5t-19.5 44.5q0 7 1.5 15.5t8.5 27.5q50 137 109.5 276.5t125.5 271.5q11 23 31.5 35t43.5 12
q21 0 40.5 -11t31.5 -36q62 -124 118 -258t113 -290q7 -19 8.5 -27.5t1.5 -15.5q0 -29 -19.5 -44.5t-44.5 -15.5q-19 0 -37 10.5t-26 35.5zM352 530l-25 -57.5l-26 -61l-25 -59l-22 -52.5h193l-19.5 48l-24 59l-26 63z" />
    <glyph glyph-name="Abreve" unicode="&#x102;" horiz-adv-x="704" 
d="M352 726q-39 0 -65.5 13t-43.5 31t-24.5 38.5t-7.5 35.5q0 24 14 40t40 16q17 0 32 -10t18 -32l1 -7q2 -15 13 -22.5t24 -7.5q12 0 22.5 7t12.5 23l1 7q3 22 18 32t32 10q23 0 38.5 -13.5t15.5 -42.5q0 -15 -7.5 -35.5t-24.5 -38.5t-43.5 -31t-65.5 -13zM489 185h-277
l-50 -141q-8 -25 -25.5 -35.5t-36.5 -10.5q-25 0 -44.5 15.5t-19.5 44.5q0 7 1.5 15.5t8.5 27.5q50 137 109.5 276.5t125.5 271.5q11 23 31.5 35t43.5 12q21 0 40.5 -11t31.5 -36q62 -124 118 -258t113 -290q7 -19 8.5 -27.5t1.5 -15.5q0 -29 -19.5 -44.5t-44.5 -15.5
q-19 0 -37 10.5t-26 35.5zM352 530l-25 -57.5l-26 -61l-25 -59l-22 -52.5h193l-19.5 48l-24 59l-26 63z" />
    <glyph glyph-name="Aogonek" unicode="&#x104;" horiz-adv-x="704" 
d="M604 -15q-23 -13 -42 -28.5t-19 -31.5q0 -7 5 -13t15 -6q12 0 31 13q12 8 22 12.5t21 4.5q17 0 29.5 -13t12.5 -33q0 -13 -8.5 -25.5t-22.5 -22.5q-18 -12 -40.5 -21t-48.5 -9q-54 0 -88 26.5t-34 77.5q0 37 23.5 69.5t77.5 68.5l-49 132h-277l-50 -142
q-8 -25 -25.5 -35.5t-36.5 -10.5q-25 0 -44.5 15.5t-19.5 44.5q0 7 1.5 15.5t8.5 27.5q50 137 109.5 276.5t125.5 271.5q11 23 31.5 35t43.5 12q21 0 40.5 -11t31.5 -36q62 -124 118 -257.5t113 -289.5q7 -19 8.5 -27.5t1.5 -15.5q0 -22 -13.5 -36.5t-51.5 -37.5zM352 530
l-25 -57.5l-26 -60.5l-25 -58.5l-22 -52.5h193l-19.5 47.5l-24 58.5l-26 63z" />
    <glyph glyph-name="AEacute" unicode="&#x1fc;" horiz-adv-x="917" 
d="M519 5q-26 0 -45 14.5t-19 36.5v130h-215l-95 -158q-8 -13 -22 -22.5t-31 -9.5q-33 0 -49 18t-16 41q0 20 11 40l48 79l61 97.5l68 106l69 106l64.5 96l54.5 77.5q11 16 26.5 22.5t33.5 6.5h349q29 0 43.5 -18.5t14.5 -40.5q0 -21 -14.5 -38.5t-43.5 -17.5h-226v-167h200
q29 0 44 -18t15 -40t-14.5 -39.5t-44.5 -17.5h-200v-169h228q29 0 44.5 -18.5t15.5 -40.5q0 -21 -15 -38.5t-45 -17.5h-295zM455 522l-31 -47.5l-36 -55.5l-38 -59.5l-37 -58.5h142v221zM516 891q8 5 16.5 7t16.5 2q23 0 38 -14.5t15 -34.5q0 -14 -8.5 -28t-28.5 -26
l-105 -61q-8 -5 -16.5 -7t-16.5 -2q-23 0 -38 14.5t-15 34.5q0 14 8.5 28.5t28.5 25.5z" />
    <glyph glyph-name="Cacute" unicode="&#x106;" horiz-adv-x="669" 
d="M510 503q-29 34 -61.5 56t-82.5 22q-48 0 -83 -20.5t-58.5 -54t-35 -75.5t-11.5 -85q0 -44 12.5 -86.5t36.5 -75.5t58.5 -53.5t77.5 -20.5q24 0 43.5 4.5t36.5 14t33.5 24.5t33.5 36q14 17 28 22t28 5q22 0 40.5 -16t18.5 -40t-18.5 -53t-52 -53.5t-80 -41.5t-102.5 -17
q-80 0 -141 30t-102 79t-62 112t-21 130q0 74 23 138t65.5 111t103 74t134.5 27q36 0 69 -8t61 -20.5t51 -29t39 -34.5q33 -36 33 -71q0 -19 -16.5 -37.5t-43.5 -19.5q-14 0 -27.5 5t-27.5 22zM372 891q8 5 16.5 7t16.5 2q23 0 38 -14.5t15 -34.5q0 -14 -8.5 -28t-28.5 -26
l-105 -61q-8 -5 -16.5 -7t-16.5 -2q-23 0 -38 14.5t-15 34.5q0 14 8.5 28.5t28.5 25.5z" />
    <glyph glyph-name="Ccircumflex" unicode="&#x108;" horiz-adv-x="669" 
d="M510 503q-29 34 -61.5 56t-82.5 22q-48 0 -83 -20.5t-58.5 -54t-35 -75.5t-11.5 -85q0 -44 12.5 -86.5t36.5 -75.5t58.5 -53.5t77.5 -20.5q24 0 43.5 4.5t36.5 14t33.5 24.5t33.5 36q14 17 28 22t28 5q22 0 40.5 -16t18.5 -40t-18.5 -53t-52 -53.5t-80 -41.5t-102.5 -17
q-80 0 -141 30t-102 79t-62 112t-21 130q0 74 23 138t65.5 111t103 74t134.5 27q36 0 69 -8t61 -20.5t51 -29t39 -34.5q33 -36 33 -71q0 -19 -16.5 -37.5t-43.5 -19.5q-14 0 -27.5 5t-27.5 22zM308 740q-18 -17 -39 -17q-20 0 -33.5 14.5t-13.5 34.5q0 9 4.5 20t20.5 25
l70 63q21 20 47 20t47 -20l70 -63q16 -14 20.5 -25t4.5 -20q0 -20 -13.5 -34.5t-33.5 -14.5q-21 0 -39 17l-56 52z" />
    <glyph glyph-name="Cdotaccent" unicode="&#x10a;" horiz-adv-x="669" 
d="M510 503q-29 34 -61.5 56t-82.5 22q-48 0 -83 -20.5t-58.5 -54t-35 -75.5t-11.5 -85q0 -44 12.5 -86.5t36.5 -75.5t58.5 -53.5t77.5 -20.5q24 0 43.5 4.5t36.5 14t33.5 24.5t33.5 36q14 17 28 22t28 5q22 0 40.5 -16t18.5 -40t-18.5 -53t-52 -53.5t-80 -41.5t-102.5 -17
q-80 0 -141 30t-102 79t-62 112t-21 130q0 74 23 138t65.5 111t103 74t134.5 27q36 0 69 -8t61 -20.5t51 -29t39 -34.5q33 -36 33 -71q0 -19 -16.5 -37.5t-43.5 -19.5q-14 0 -27.5 5t-27.5 22zM298 812q0 29 20 49t49 20t49 -20t20 -49t-20 -49t-49 -20t-49 20t-20 49z" />
    <glyph glyph-name="Ccaron" unicode="&#x10c;" horiz-adv-x="669" 
d="M510 503q-29 34 -61.5 56t-82.5 22q-48 0 -83 -20.5t-58.5 -54t-35 -75.5t-11.5 -85q0 -44 12.5 -86.5t36.5 -75.5t58.5 -53.5t77.5 -20.5q24 0 43.5 4.5t36.5 14t33.5 24.5t33.5 36q14 17 28 22t28 5q22 0 40.5 -16t18.5 -40t-18.5 -53t-52 -53.5t-80 -41.5t-102.5 -17
q-80 0 -141 30t-102 79t-62 112t-21 130q0 74 23 138t65.5 111t103 74t134.5 27q36 0 69 -8t61 -20.5t51 -29t39 -34.5q33 -36 33 -71q0 -19 -16.5 -37.5t-43.5 -19.5q-14 0 -27.5 5t-27.5 22zM422 883q18 17 39 17q20 0 33.5 -14.5t13.5 -34.5q0 -9 -4.5 -20t-20.5 -25
l-70 -63q-21 -20 -47 -20t-47 20l-70 63q-16 14 -20.5 25t-4.5 20q0 20 13.5 34.5t33.5 14.5q21 0 39 -17l56 -52z" />
    <glyph glyph-name="Dcaron" unicode="&#x10e;" horiz-adv-x="676" 
d="M278 686q72 0 136 -23.5t112 -68t76 -107.5t28 -142q0 -75 -26 -137.5t-72.5 -107.5t-110 -70t-138.5 -25h-153q-26 0 -45 14.5t-19 35.5v573q0 22 18.5 40t45.5 18h148zM196 571v-451h89q47 0 85.5 16.5t66 46.5t42.5 71t15 91q0 48 -14.5 89.5t-41.5 72t-67 47.5
t-91 17h-84zM384 883q18 17 39 17q20 0 33.5 -14.5t13.5 -34.5q0 -9 -4.5 -20t-20.5 -25l-70 -63q-21 -20 -47 -20t-47 20l-70 63q-16 14 -20.5 25t-4.5 20q0 20 13.5 34.5t33.5 14.5q21 0 39 -17l56 -52z" />
    <glyph glyph-name="Dcroat" unicode="&#x110;" horiz-adv-x="676" 
d="M278 686q72 0 136 -23.5t112 -68t76 -107.5t28 -142q0 -75 -26 -137.5t-72.5 -107.5t-110 -70t-138.5 -25h-153q-26 0 -45 14.5t-19 35.5v573q0 22 18.5 40t45.5 18h148zM196 571v-451h89q47 0 85.5 16.5t66 46.5t42.5 71t15 91q0 48 -14.5 89.5t-41.5 72t-67 47.5
t-91 17h-84zM223 762q-26 0 -39 16t-13 35t13 34t39 15h209q26 0 39 -15t13 -34t-13 -35t-39 -16h-209z" />
    <glyph glyph-name="Emacron" unicode="&#x112;" horiz-adv-x="524" 
d="M396 404q30 0 45 -18t15 -40t-15 -39.5t-45 -17.5h-200v-169h228q31 0 46 -18t15 -40t-15 -39.5t-46 -17.5h-295q-25 0 -44 14.5t-19 36.5v572q0 23 19 40.5t44 17.5h293q30 0 45 -18t15 -40t-15 -39.5t-45 -17.5h-226v-167h200zM168 762q-26 0 -39 16t-13 35t13 34
t39 15h209q26 0 39 -15t13 -34t-13 -35t-39 -16h-209z" />
    <glyph glyph-name="Ebreve" unicode="&#x114;" horiz-adv-x="524" 
d="M396 404q30 0 45 -18t15 -40t-15 -39.5t-45 -17.5h-200v-169h228q31 0 46 -18t15 -40t-15 -39.5t-46 -17.5h-295q-25 0 -44 14.5t-19 36.5v572q0 23 19 40.5t44 17.5h293q30 0 45 -18t15 -40t-15 -39.5t-45 -17.5h-226v-167h200zM272 726q-39 0 -65.5 13t-43.5 31
t-24.5 38.5t-7.5 35.5q0 24 14 40t40 16q17 0 32 -10t18 -32l1 -7q2 -15 13 -22.5t24 -7.5q12 0 22.5 7t12.5 23l1 7q3 22 18 32t32 10q23 0 38.5 -13.5t15.5 -42.5q0 -15 -7.5 -35.5t-24.5 -38.5t-43.5 -31t-65.5 -13z" />
    <glyph glyph-name="Edotaccent" unicode="&#x116;" horiz-adv-x="524" 
d="M396 404q30 0 45 -18t15 -40t-15 -39.5t-45 -17.5h-200v-169h228q31 0 46 -18t15 -40t-15 -39.5t-46 -17.5h-295q-25 0 -44 14.5t-19 36.5v572q0 23 19 40.5t44 17.5h293q30 0 45 -18t15 -40t-15 -39.5t-45 -17.5h-226v-167h200zM203 812q0 29 20 49t49 20t49 -20t20 -49
t-20 -49t-49 -20t-49 20t-20 49z" />
    <glyph glyph-name="Eogonek" unicode="&#x118;" horiz-adv-x="524" 
d="M399 -81q12 8 22 12.5t21 4.5q17 0 30 -13t13 -33q0 -13 -8.5 -25.5t-22.5 -22.5q-18 -12 -41.5 -21t-55.5 -9q-58 0 -86.5 27t-28.5 64q0 27 15.5 54.5t44.5 47.5h-173q-25 0 -44 14.5t-19 36.5v572q0 23 19 40.5t44 17.5h293q30 0 45 -18t15 -40t-15 -39.5t-45 -17.5
h-226v-167h200q30 0 45 -18t15 -40t-15 -39.5t-45 -17.5h-200v-169h228q31 0 46 -18t15 -40q0 -26 -18 -42q-14 -13 -35 -24t-44 -27l-25 -17.5t-15 -26.5q0 -7 5 -13t15 -6q12 0 31 13z" />
    <glyph glyph-name="Ecaron" unicode="&#x11a;" horiz-adv-x="524" 
d="M396 404q30 0 45 -18t15 -40t-15 -39.5t-45 -17.5h-200v-169h228q31 0 46 -18t15 -40t-15 -39.5t-46 -17.5h-295q-25 0 -44 14.5t-19 36.5v572q0 23 19 40.5t44 17.5h293q30 0 45 -18t15 -40t-15 -39.5t-45 -17.5h-226v-167h200zM328 883q18 17 39 17q20 0 33.5 -14.5
t13.5 -34.5q0 -9 -4.5 -20t-20.5 -25l-70 -63q-21 -20 -47 -20t-47 20l-70 63q-16 14 -20.5 25t-4.5 20q0 20 13.5 34.5t33.5 14.5q21 0 39 -17l56 -52z" />
    <glyph glyph-name="Gcircumflex" unicode="&#x11c;" horiz-adv-x="705" 
d="M46 349q0 74 23.5 137.5t66.5 110t103.5 73t134.5 26.5q49 0 95.5 -15.5t82.5 -39.5t57.5 -51.5t21.5 -51.5q0 -23 -17 -42t-44 -20q-14 0 -29 6.5t-35 29.5q-32 36 -69 52.5t-73 16.5q-33 0 -63.5 -12.5t-55.5 -37.5q-34 -34 -50.5 -84t-16.5 -101t13.5 -94.5t39 -75
t62 -49.5t81.5 -18q42 0 73 13t51 35q14 16 16.5 27.5t2.5 28.5v16h-82q-30 0 -46 19t-16 41q0 21 15 38t47 17h147q26 0 44.5 -15t18.5 -36v-85q0 -46 -22 -85t-59.5 -67.5t-86.5 -44.5t-103 -16q-71 0 -131 25t-103.5 71.5t-68.5 111.5t-25 146zM314 740q-18 -17 -39 -17
q-20 0 -33.5 14.5t-13.5 34.5q0 9 4.5 20t20.5 25l70 63q21 20 47 20t47 -20l70 -63q16 -14 20.5 -25t4.5 -20q0 -20 -13.5 -34.5t-33.5 -14.5q-21 0 -39 17l-56 52z" />
    <glyph glyph-name="Gbreve" unicode="&#x11e;" horiz-adv-x="705" 
d="M46 349q0 74 23.5 137.5t66.5 110t103.5 73t134.5 26.5q49 0 95.5 -15.5t82.5 -39.5t57.5 -51.5t21.5 -51.5q0 -23 -17 -42t-44 -20q-14 0 -29 6.5t-35 29.5q-32 36 -69 52.5t-73 16.5q-33 0 -63.5 -12.5t-55.5 -37.5q-34 -34 -50.5 -84t-16.5 -101t13.5 -94.5t39 -75
t62 -49.5t81.5 -18q42 0 73 13t51 35q14 16 16.5 27.5t2.5 28.5v16h-82q-30 0 -46 19t-16 41q0 21 15 38t47 17h147q26 0 44.5 -15t18.5 -36v-85q0 -46 -22 -85t-59.5 -67.5t-86.5 -44.5t-103 -16q-71 0 -131 25t-103.5 71.5t-68.5 111.5t-25 146zM365 726q-39 0 -65.5 13
t-43.5 31t-24.5 38.5t-7.5 35.5q0 24 14 40t40 16q17 0 32 -10t18 -32l1 -7q2 -15 13 -22.5t24 -7.5q12 0 22.5 7t12.5 23l1 7q3 22 18 32t32 10q23 0 38.5 -13.5t15.5 -42.5q0 -15 -7.5 -35.5t-24.5 -38.5t-43.5 -31t-65.5 -13z" />
    <glyph glyph-name="Gdotaccent" unicode="&#x120;" horiz-adv-x="705" 
d="M46 349q0 74 23.5 137.5t66.5 110t103.5 73t134.5 26.5q49 0 95.5 -15.5t82.5 -39.5t57.5 -51.5t21.5 -51.5q0 -23 -17 -42t-44 -20q-14 0 -29 6.5t-35 29.5q-32 36 -69 52.5t-73 16.5q-33 0 -63.5 -12.5t-55.5 -37.5q-34 -34 -50.5 -84t-16.5 -101t13.5 -94.5t39 -75
t62 -49.5t81.5 -18q42 0 73 13t51 35q14 16 16.5 27.5t2.5 28.5v16h-82q-30 0 -46 19t-16 41q0 21 15 38t47 17h147q26 0 44.5 -15t18.5 -36v-85q0 -46 -22 -85t-59.5 -67.5t-86.5 -44.5t-103 -16q-71 0 -131 25t-103.5 71.5t-68.5 111.5t-25 146zM298 814q0 29 20 49t49 20
t49 -20t20 -49t-20 -49t-49 -20t-49 20t-20 49z" />
    <glyph glyph-name="Gcommaaccent" unicode="&#x122;" horiz-adv-x="705" 
d="M46 349q0 74 23.5 137.5t66.5 110t103.5 73t134.5 26.5q49 0 95.5 -15.5t82.5 -39.5t57.5 -51.5t21.5 -51.5q0 -23 -17 -42t-44 -20q-14 0 -29 6.5t-35 29.5q-32 36 -69 52.5t-73 16.5q-33 0 -63.5 -12.5t-55.5 -37.5q-34 -34 -50.5 -84t-16.5 -101t13.5 -94.5t39 -75
t62 -49.5t81.5 -18q42 0 73 13t51 35q14 16 16.5 27.5t2.5 28.5v16h-82q-30 0 -46 19t-16 41q0 21 15 38t47 17h147q26 0 44.5 -15t18.5 -36v-85q0 -46 -22 -85t-59.5 -67.5t-86.5 -44.5t-103 -16q-71 0 -131 25t-103.5 71.5t-68.5 111.5t-25 146zM432 -81q0 -12 -3 -33.5
t-11 -38.5q-8 -18 -23 -27.5t-31 -9.5q-20 0 -35.5 13.5t-15.5 36.5q0 18 1.5 33.5l3.5 35.5q3 23 20 35t37 12q22 0 39.5 -14t17.5 -43z" />
    <glyph glyph-name="Hcircumflex" unicode="&#x124;" horiz-adv-x="673" 
d="M476 289h-279v-234q0 -24 -19.5 -40.5t-46.5 -16.5t-46 16.5t-19 40.5v579q0 24 19 40.5t46 16.5t46.5 -16.5t19.5 -40.5v-230h279v230q0 24 19.5 40.5t46.5 16.5t46 -16.5t19 -40.5v-579q0 -24 -19 -40.5t-46 -16.5t-46.5 16.5t-19.5 40.5v234zM280 740q-18 -17 -39 -17
q-20 0 -33.5 14.5t-13.5 34.5q0 9 4.5 20t20.5 25l70 63q21 20 47 20t47 -20l70 -63q16 -14 20.5 -25t4.5 -20q0 -20 -13.5 -34.5t-33.5 -14.5q-21 0 -39 17l-56 52z" />
    <glyph glyph-name="Hbar" unicode="&#x126;" horiz-adv-x="699" 
d="M488 289h-279v-234q0 -24 -19.5 -40.5t-46.5 -16.5t-46 16.5t-19 40.5v423h-15q-29 0 -42.5 17t-13.5 38q0 20 13.5 37.5t42.5 17.5h15v46q0 24 19 40.5t46 16.5t46.5 -16.5t19.5 -40.5v-46h279v46q0 24 19.5 40.5t46.5 16.5t46 -16.5t19 -40.5v-46h15q28 0 42 -17.5
t14 -37.5q0 -21 -14 -38t-42 -17h-15v-423q0 -24 -19 -40.5t-46 -16.5t-46.5 16.5t-19.5 40.5v234zM488 399v79h-279v-79h279z" />
    <glyph glyph-name="Itilde" unicode="&#x128;" horiz-adv-x="262" 
d="M66 634q0 24 19 40.5t46 16.5t46 -16.5t19 -40.5v-579q0 -24 -19 -40.5t-46 -16.5t-46 16.5t-19 40.5v579zM161 850q7 -5 10.5 -6.5t5.5 -1.5q8 0 13 9l3 5q7 11 17.5 18t25.5 7q17 0 32.5 -11.5t15.5 -35.5q0 -12 -5 -27.5t-16.5 -30t-30 -24.5t-44.5 -10
q-30 0 -52.5 11.5t-39.5 23.5q-7 5 -10.5 6.5t-5.5 1.5q-8 0 -13 -9l-3 -5q-7 -11 -17.5 -18t-25.5 -7q-17 0 -32.5 11.5t-15.5 35.5q0 12 5 27.5t16.5 30t30 24.5t44.5 10q30 0 52.5 -11.5t39.5 -23.5z" />
    <glyph glyph-name="Imacron" unicode="&#x12a;" horiz-adv-x="262" 
d="M66 634q0 24 19 40.5t46 16.5t46 -16.5t19 -40.5v-579q0 -24 -19 -40.5t-46 -16.5t-46 16.5t-19 40.5v579zM27 762q-26 0 -39 16t-13 35t13 34t39 15h209q26 0 39 -15t13 -34t-13 -35t-39 -16h-209z" />
    <glyph glyph-name="Ibreve" unicode="&#x12c;" horiz-adv-x="262" 
d="M66 634q0 24 19 40.5t46 16.5t46 -16.5t19 -40.5v-579q0 -24 -19 -40.5t-46 -16.5t-46 16.5t-19 40.5v579zM131 726q-39 0 -65.5 13t-43.5 31t-24.5 38.5t-7.5 35.5q0 24 14 40t40 16q17 0 32 -10t18 -32l1 -7q2 -15 13 -22.5t24 -7.5q12 0 22.5 7t12.5 23l1 7
q3 22 18 32t32 10q23 0 38.5 -13.5t15.5 -42.5q0 -15 -7.5 -35.5t-24.5 -38.5t-43.5 -31t-65.5 -13z" />
    <glyph glyph-name="Iogonek" unicode="&#x12e;" horiz-adv-x="262" 
d="M66 634q0 24 19 40.5t46 16.5t46.5 -16.5t19.5 -40.5v-589q0 -27 -12 -43t-26 -27l-8 -6q-23 -17 -29.5 -27t-6.5 -19q0 -10 6 -13.5t13 -3.5q13 0 32 13q12 8 22 12.5t21 4.5q17 0 30 -13.5t13 -33.5q0 -13 -8.5 -25t-22.5 -22q-18 -12 -40.5 -21t-48.5 -9
q-54 0 -88.5 26.5t-34.5 77.5q0 30 15.5 57t49.5 55q-8 13 -8 29v577z" />
    <glyph glyph-name="Idotaccent" unicode="&#x130;" horiz-adv-x="262" 
d="M66 634q0 24 19 40.5t46 16.5t46 -16.5t19 -40.5v-579q0 -24 -19 -40.5t-46 -16.5t-46 16.5t-19 40.5v579zM62 812q0 29 20 49t49 20t49 -20t20 -49t-20 -49t-49 -20t-49 20t-20 49z" />
    <glyph glyph-name="IJ" unicode="&#x132;" horiz-adv-x="700" 
d="M66 634q0 24 19 40.5t46 16.5t46 -16.5t19 -40.5v-579q0 -24 -19 -40.5t-46 -16.5t-46 16.5t-19 40.5v579zM503 635q0 24 19 40t46 16t46.5 -16t19.5 -40v-442q0 -47 -15 -83.5t-41.5 -62t-62.5 -39t-78 -13.5q-34 0 -64 10.5t-53 28t-36.5 40t-13.5 46.5q0 29 18.5 45
t42.5 16q15 0 30 -7.5t26 -21.5l8 -11q8 -11 19.5 -21t26.5 -10q27 1 44.5 19.5t17.5 63.5v442z" />
    <glyph glyph-name="Jcircumflex" unicode="&#x134;" horiz-adv-x="448" 
d="M251 635q0 24 19 40t46 16t46.5 -16t19.5 -40v-442q0 -47 -15 -83.5t-41.5 -62t-62.5 -39t-78 -13.5q-34 0 -64 10.5t-53 28t-36.5 40t-13.5 46.5q0 29 18.5 45t42.5 16q15 0 30 -7.5t26 -21.5l8 -11q8 -11 19.5 -21t26.5 -10q27 1 44.5 19.5t17.5 63.5v442zM261 740
q-18 -17 -39 -17q-20 0 -33.5 14.5t-13.5 34.5q0 9 4.5 20t20.5 25l70 63q21 20 47 20t47 -20l70 -63q16 -14 20.5 -25t4.5 -20q0 -20 -13.5 -34.5t-33.5 -14.5q-21 0 -39 17l-56 52z" />
    <glyph glyph-name="Kcommaaccent" unicode="&#x136;" horiz-adv-x="618" 
d="M66 634q0 24 19.5 40.5t46.5 16.5t46 -16.5t19 -40.5v-220l126 121.5l130 128.5q17 17 28.5 22t27.5 5q28 0 44.5 -19.5t16.5 -43.5q0 -12 -5.5 -25t-22.5 -29l-61 -57l-50.5 -46.5l-45.5 -41.5l-46 -41l52.5 -69l57.5 -74l56.5 -72l50.5 -63q14 -17 19 -29.5t5 -20.5
q0 -27 -21 -44.5t-45 -17.5q-15 0 -31 8t-27 22l-101.5 128.5l-111.5 148.5l-46 -42v-208q0 -24 -19 -40.5t-46 -16.5t-46.5 16.5t-19.5 40.5v579zM368 -81q0 -12 -3 -33.5t-11 -38.5q-8 -18 -23 -27.5t-31 -9.5q-20 0 -35.5 13.5t-15.5 36.5q0 18 1.5 33.5l3.5 35.5
q3 23 20 35t37 12q22 0 39.5 -14t17.5 -43z" />
    <glyph glyph-name="Lacute" unicode="&#x139;" horiz-adv-x="501" 
d="M66 634q0 24 19 40.5t46 16.5t46 -16.5t19 -40.5v-514h221q30 0 45 -17.5t15 -38.5t-15 -39t-45 -20h-287q-13 0 -24.5 5t-20.5 13.5t-14 18.5t-5 20v572zM279 891q8 5 16.5 7t16.5 2q23 0 38 -14.5t15 -34.5q0 -14 -8.5 -28t-28.5 -26l-105 -61q-8 -5 -16.5 -7t-16.5 -2
q-23 0 -38 14.5t-15 34.5q0 14 8.5 28.5t28.5 25.5z" />
    <glyph glyph-name="Lcommaaccent" unicode="&#x13b;" horiz-adv-x="501" 
d="M66 634q0 24 19 40.5t46 16.5t46 -16.5t19 -40.5v-514h221q30 0 45 -17.5t15 -38.5t-15 -39t-45 -20h-287q-13 0 -24.5 5t-20.5 13.5t-14 18.5t-5 20v572zM310 -81q0 -12 -3 -33.5t-11 -38.5q-8 -18 -23 -27.5t-31 -9.5q-20 0 -35.5 13.5t-15.5 36.5q0 18 1.5 33.5
l3.5 35.5q3 23 20 35t37 12q22 0 39.5 -14t17.5 -43z" />
    <glyph glyph-name="Lcaron" unicode="&#x13d;" horiz-adv-x="501" 
d="M66 634q0 24 19 40.5t46 16.5t46 -16.5t19 -40.5v-514h221q30 0 45 -17.5t15 -38.5t-15 -39t-45 -20h-287q-13 0 -24.5 5t-20.5 13.5t-14 18.5t-5 20v572zM406 664q0 -11 -2.5 -26.5t-6 -32t-8.5 -33.5t-11 -31q-8 -19 -22 -27.5t-30 -8.5q-20 0 -36.5 13t-16.5 38
q0 2 0.5 7.5t3.5 16.5q5 20 8.5 41t6.5 47t20.5 38.5t37.5 12.5q21 0 38.5 -14t17.5 -41z" />
    <glyph glyph-name="Ldot" unicode="&#x13f;" horiz-adv-x="545" 
d="M66 634q0 24 19 40.5t46 16.5t46 -16.5t19 -40.5v-514h221q30 0 45 -17.5t15 -38.5t-15 -39t-45 -20h-287q-13 0 -24.5 5t-20.5 13.5t-14 18.5t-5 20v572zM333 344q0 30 21 51t51 21t51 -21t21 -51t-21 -51t-51 -21t-51 21t-21 51z" />
    <glyph glyph-name="Nacute" unicode="&#x143;" horiz-adv-x="708" 
d="M642 54q0 -24 -19.5 -40t-45.5 -16q-28 0 -42.5 12.5t-26.5 29.5l-21 30q-69 99 -143.5 193.5t-148.5 200.5v-409q0 -24 -19 -40.5t-45 -16.5q-27 0 -46 16.5t-19 40.5v570q0 34 22 50t51 16q18 0 33.5 -7.5t29.5 -26.5l85.5 -109.5l78.5 -103l74 -101l73 -105.5v396
q0 24 19 40.5t45 16.5q27 0 46 -16.5t19 -40.5v-580zM392 891q8 5 16.5 7t16.5 2q23 0 38 -14.5t15 -34.5q0 -14 -8.5 -28t-28.5 -26l-105 -61q-8 -5 -16.5 -7t-16.5 -2q-23 0 -38 14.5t-15 34.5q0 14 8.5 28.5t28.5 25.5z" />
    <glyph glyph-name="Ncommaaccent" unicode="&#x145;" horiz-adv-x="708" 
d="M642 54q0 -24 -19.5 -40t-45.5 -16q-28 0 -42.5 12.5t-26.5 29.5l-21 30q-69 99 -143.5 193.5t-148.5 200.5v-409q0 -24 -19 -40.5t-45 -16.5q-27 0 -46 16.5t-19 40.5v570q0 34 22 50t51 16q18 0 33.5 -7.5t29.5 -26.5l85.5 -109.5l78.5 -103l74 -101l73 -105.5v396
q0 24 19 40.5t45 16.5q27 0 46 -16.5t19 -40.5v-580zM413 -81q0 -12 -3 -33.5t-11 -38.5q-8 -18 -23 -27.5t-31 -9.5q-20 0 -35.5 13.5t-15.5 36.5q0 18 1.5 33.5l3.5 35.5q3 23 20 35t37 12q22 0 39.5 -14t17.5 -43z" />
    <glyph glyph-name="Ncaron" unicode="&#x147;" horiz-adv-x="708" 
d="M642 54q0 -24 -19.5 -40t-45.5 -16q-28 0 -42.5 12.5t-26.5 29.5l-21 30q-69 99 -143.5 193.5t-148.5 200.5v-409q0 -24 -19 -40.5t-45 -16.5q-27 0 -46 16.5t-19 40.5v570q0 34 22 50t51 16q18 0 33.5 -7.5t29.5 -26.5l85.5 -109.5l78.5 -103l74 -101l73 -105.5v396
q0 24 19 40.5t45 16.5q27 0 46 -16.5t19 -40.5v-580zM410 883q18 17 39 17q20 0 33.5 -14.5t13.5 -34.5q0 -9 -4.5 -20t-20.5 -25l-70 -63q-21 -20 -47 -20t-47 20l-70 63q-16 14 -20.5 25t-4.5 20q0 20 13.5 34.5t33.5 14.5q21 0 39 -17l56 -52z" />
    <glyph glyph-name="Eng" unicode="&#x14a;" horiz-adv-x="708" 
d="M511 37l-24 35q-69 98 -144 192.5t-148 199.5v-409q0 -24 -19 -40.5t-45 -16.5q-27 0 -46 16.5t-19 40.5v570q0 34 22 50t51 16q18 0 33.5 -7.5t29.5 -26.5l85.5 -109l78.5 -102l74 -100.5l73 -105.5v394q0 24 19 40.5t45 16.5q27 0 46 -16.5t19 -40.5v-625
q0 -47 -15 -83.5t-41.5 -62t-62.5 -39t-78 -13.5q-34 0 -64 10.5t-53 28t-36.5 40t-13.5 46.5q0 29 18.5 45t42.5 16q15 0 30 -7.5t26 -21.5l8 -11q8 -11 19.5 -21t26.5 -10q27 1 44.5 19.5t17.5 63.5v28z" />
    <glyph glyph-name="Omacron" unicode="&#x14c;" horiz-adv-x="752" 
d="M376 -5q-66 0 -126 25.5t-105 71.5t-72 110.5t-27 142.5t27 142.5t72 110.5t105 71.5t126 25.5t126 -25.5t105 -71.5t72 -110.5t27 -142.5t-27 -142.5t-72 -110.5t-105 -71.5t-126 -25.5zM376 110q39 0 74.5 16.5t61.5 47.5t41.5 74.5t15.5 96.5t-15.5 96.5t-41.5 74.5
t-61.5 48t-74.5 17q-40 0 -75 -17t-61.5 -48t-41.5 -74.5t-15 -96.5t15 -96.5t41.5 -74.5t61.5 -47.5t75 -16.5zM271 762q-26 0 -39 16t-13 35t13 34t39 15h209q26 0 39 -15t13 -34t-13 -35t-39 -16h-209z" />
    <glyph glyph-name="Obreve" unicode="&#x14e;" horiz-adv-x="752" 
d="M376 -5q-66 0 -126 25.5t-105 71.5t-72 110.5t-27 142.5t27 142.5t72 110.5t105 71.5t126 25.5t126 -25.5t105 -71.5t72 -110.5t27 -142.5t-27 -142.5t-72 -110.5t-105 -71.5t-126 -25.5zM376 110q39 0 74.5 16.5t61.5 47.5t41.5 74.5t15.5 96.5t-15.5 96.5t-41.5 74.5
t-61.5 48t-74.5 17q-40 0 -75 -17t-61.5 -48t-41.5 -74.5t-15 -96.5t15 -96.5t41.5 -74.5t61.5 -47.5t75 -16.5zM376 726q-39 0 -65.5 13t-43.5 31t-24.5 38.5t-7.5 35.5q0 24 14 40t40 16q17 0 32 -10t18 -32l1 -7q2 -15 13 -22.5t24 -7.5q12 0 22.5 7t12.5 23l1 7
q3 22 18 32t32 10q23 0 38.5 -13.5t15.5 -42.5q0 -15 -7.5 -35.5t-24.5 -38.5t-43.5 -31t-65.5 -13z" />
    <glyph glyph-name="Ohungarumlaut" unicode="&#x150;" horiz-adv-x="752" 
d="M376 -5q-66 0 -126 25.5t-105 71.5t-72 110.5t-27 142.5t27 142.5t72 110.5t105 71.5t126 25.5t126 -25.5t105 -71.5t72 -110.5t27 -142.5t-27 -142.5t-72 -110.5t-105 -71.5t-126 -25.5zM376 110q39 0 74.5 16.5t61.5 47.5t41.5 74.5t15.5 96.5t-15.5 96.5t-41.5 74.5
t-61.5 48t-74.5 17q-40 0 -75 -17t-61.5 -48t-41.5 -74.5t-15 -96.5t15 -96.5t41.5 -74.5t61.5 -47.5t75 -16.5zM303 881q19 19 39 19q21 0 37.5 -16t16.5 -37q0 -20 -17 -37l-70 -68q-19 -19 -39 -19q-21 0 -37.5 16t-16.5 37q0 20 17 37zM486 881q19 19 39 19
q21 0 37.5 -16t16.5 -37q0 -20 -17 -37l-70 -68q-19 -19 -39 -19q-21 0 -37.5 16t-16.5 37q0 20 17 37z" />
    <glyph glyph-name="Oslashacute" unicode="&#x1fe;" horiz-adv-x="752" 
d="M376 -5q-48 0 -91.5 13t-81.5 37l-25 -30q-9 -11 -20 -15.5t-22 -4.5q-23 0 -40 16.5t-17 39.5q0 20 15 38l26 31q-35 45 -54.5 101.5t-19.5 123.5q0 78 27 143t72 111t105 71.5t126 25.5q48 0 92.5 -14t83.5 -40l27 33q9 11 20 16t22 5q23 0 40 -17t17 -40
q0 -20 -15 -38l-29 -33q33 -45 52.5 -101t19.5 -122q0 -78 -27 -142.5t-72 -110.5t-105 -71.5t-126 -25.5zM183 345q0 -68 24 -119l268 325q-45 31 -99 31q-44 0 -80 -17.5t-61 -49t-38.5 -75t-13.5 -95.5zM376 110q39 0 74.5 16.5t61.5 47.5t41.5 74.5t15.5 96.5
q0 32 -6 61.5t-17 54.5l-266 -323q44 -28 96 -28zM414 891q8 5 16.5 7t16.5 2q23 0 38 -14.5t15 -34.5q0 -14 -8.5 -28t-28.5 -26l-105 -61q-8 -5 -16.5 -7t-16.5 -2q-23 0 -38 14.5t-15 34.5q0 14 8.5 28.5t28.5 25.5z" />
    <glyph glyph-name="Racute" unicode="&#x154;" horiz-adv-x="579" 
d="M317 891q8 5 16.5 7t16.5 2q23 0 38 -14.5t15 -34.5q0 -14 -8.5 -28t-28.5 -26l-105 -61q-8 -5 -16.5 -7t-16.5 -2q-23 0 -38 14.5t-15 34.5q0 14 8.5 28.5t28.5 25.5zM528 110q14 -17 19 -29.5t5 -20.5q0 -27 -21 -44.5t-45 -17.5q-15 0 -31.5 8.5t-27.5 22.5l-75 95.5
t-97 134.5q-7 10 -13 13t-16 3h-29v-220q0 -24 -19 -40.5t-46 -16.5t-46.5 16.5t-19.5 40.5v574q0 22 19 39.5t47 17.5h154q60 0 104 -17.5t73 -45.5t43.5 -64.5t14.5 -73.5q0 -30 -8.5 -59t-25 -54.5t-42.5 -46t-60 -33.5l26.5 -36l30.5 -40l38 -47.5zM196 375h94
q23 0 41 8.5t30 23t18.5 32.5t6.5 37q0 18 -6 35t-17.5 30.5t-29.5 21.5t-42 8h-95v-196z" />
    <glyph glyph-name="Rcommaaccent" unicode="&#x156;" horiz-adv-x="579" 
d="M349 -81q0 -12 -3 -33.5t-11 -38.5q-8 -18 -23 -27.5t-31 -9.5q-20 0 -35.5 13.5t-15.5 36.5q0 18 1.5 33.5l3.5 35.5q3 23 20 35t37 12q22 0 39.5 -14t17.5 -43zM528 110q14 -17 19 -29.5t5 -20.5q0 -27 -21 -44.5t-45 -17.5q-15 0 -31.5 8.5t-27.5 22.5l-75 95.5
t-97 134.5q-7 10 -13 13t-16 3h-29v-220q0 -24 -19 -40.5t-46 -16.5t-46.5 16.5t-19.5 40.5v574q0 22 19 39.5t47 17.5h154q60 0 104 -17.5t73 -45.5t43.5 -64.5t14.5 -73.5q0 -30 -8.5 -59t-25 -54.5t-42.5 -46t-60 -33.5l26.5 -36l30.5 -40l38 -47.5zM196 375h94
q23 0 41 8.5t30 23t18.5 32.5t6.5 37q0 18 -6 35t-17.5 30.5t-29.5 21.5t-42 8h-95v-196z" />
    <glyph glyph-name="Rcaron" unicode="&#x158;" horiz-adv-x="579" 
d="M345 883q18 17 39 17q20 0 33.5 -14.5t13.5 -34.5q0 -9 -4.5 -20t-20.5 -25l-70 -63q-21 -20 -47 -20t-47 20l-70 63q-16 14 -20.5 25t-4.5 20q0 20 13.5 34.5t33.5 14.5q21 0 39 -17l56 -52zM528 110q14 -17 19 -29.5t5 -20.5q0 -27 -21 -44.5t-45 -17.5
q-15 0 -31.5 8.5t-27.5 22.5l-75 95.5t-97 134.5q-7 10 -13 13t-16 3h-29v-220q0 -24 -19 -40.5t-46 -16.5t-46.5 16.5t-19.5 40.5v574q0 22 19 39.5t47 17.5h154q60 0 104 -17.5t73 -45.5t43.5 -64.5t14.5 -73.5q0 -30 -8.5 -59t-25 -54.5t-42.5 -46t-60 -33.5l26.5 -36
l30.5 -40l38 -47.5zM196 375h94q23 0 41 8.5t30 23t18.5 32.5t6.5 37q0 18 -6 35t-17.5 30.5t-29.5 21.5t-42 8h-95v-196z" />
    <glyph glyph-name="Sacute" unicode="&#x15a;" 
d="M289 109q48 0 81 22.5t33 57.5q0 12 -6 25t-21.5 26t-42.5 26t-69 27l-25 8q-102 32 -146.5 84t-44.5 118q0 45 18 81t49.5 60.5t75 38t94.5 13.5q50 0 92 -12.5t72 -32t46.5 -42.5t16.5 -43q0 -25 -17.5 -43t-44.5 -18q-15 0 -28 7t-33 26t-44.5 31.5t-61.5 12.5
q-48 0 -77 -21t-29 -52q0 -29 30 -51t94 -43l24 -8q61 -20 101 -44t63.5 -50t33 -54.5t9.5 -58.5q0 -48 -20 -86t-54 -64.5t-79 -40.5t-94 -14q-55 0 -101.5 16t-80.5 40t-53 53t-19 56q0 24 19 40t41 16q14 0 28 -5t28 -22q34 -42 66 -61t76 -19zM325 891q8 5 16.5 7
t16.5 2q23 0 38 -14.5t15 -34.5q0 -14 -8.5 -28t-28.5 -26l-105 -61q-8 -5 -16.5 -7t-16.5 -2q-23 0 -38 14.5t-15 34.5q0 14 8.5 28.5t28.5 25.5z" />
    <glyph glyph-name="Scircumflex" unicode="&#x15c;" 
d="M289 109q48 0 81 22.5t33 57.5q0 12 -6 25t-21.5 26t-42.5 26t-69 27l-25 8q-102 32 -146.5 84t-44.5 118q0 45 18 81t49.5 60.5t75 38t94.5 13.5q50 0 92 -12.5t72 -32t46.5 -42.5t16.5 -43q0 -25 -17.5 -43t-44.5 -18q-15 0 -28 7t-33 26t-44.5 31.5t-61.5 12.5
q-48 0 -77 -21t-29 -52q0 -29 30 -51t94 -43l24 -8q61 -20 101 -44t63.5 -50t33 -54.5t9.5 -58.5q0 -48 -20 -86t-54 -64.5t-79 -40.5t-94 -14q-55 0 -101.5 16t-80.5 40t-53 53t-19 56q0 24 19 40t41 16q14 0 28 -5t28 -22q34 -42 66 -61t76 -19zM231 740q-18 -17 -39 -17
q-20 0 -33.5 14.5t-13.5 34.5q0 9 4.5 20t20.5 25l70 63q21 20 47 20t47 -20l70 -63q16 -14 20.5 -25t4.5 -20q0 -20 -13.5 -34.5t-33.5 -14.5q-21 0 -39 17l-56 52z" />
    <glyph glyph-name="Scedilla" unicode="&#x15e;" 
d="M380 -108q0 -33 -24 -57.5t-68 -24.5q-22 0 -38.5 4t-29.5 10t-19.5 15.5t-6.5 18.5q0 11 7.5 21t22.5 10q4 0 7.5 -1t11.5 -5t18 -7.5t21 -3.5q9 0 16 5t7 15q0 6 -4.5 12t-12.5 8l-43 6q-17 2 -24 10.5t-7 19.5q0 7 2 13.5t6 16.5l8 22q-44 7 -81 24t-63 39.5t-40.5 48
t-14.5 48.5q0 24 19 40t41 16q14 0 28 -5t28 -22q34 -42 66 -61t76 -19q48 0 81 22.5t33 57.5q0 12 -6 25t-21.5 26t-42.5 26t-69 27l-25 8q-102 32 -146.5 84t-44.5 118q0 45 18 81t49.5 60.5t75 38t94.5 13.5q50 0 92 -12.5t72 -32t46.5 -42.5t16.5 -43q0 -25 -17.5 -43
t-44.5 -18q-15 0 -28 7t-33 26t-44.5 31.5t-61.5 12.5q-48 0 -77 -21t-29 -52q0 -29 30 -51t94 -43l24 -8q61 -20 101 -44t63.5 -50t33 -54.5t9.5 -58.5q0 -47 -19 -84t-51 -63t-74 -41t-89 -17q-2 -5 -3.5 -10t-3.5 -11q38 -3 63 -21.5t25 -60.5z" />
    <glyph glyph-name="uni0218" unicode="&#x218;" 
d="M289 109q48 0 81 22.5t33 57.5q0 12 -6 25t-21.5 26t-42.5 26t-69 27l-25 8q-102 32 -146.5 84t-44.5 118q0 45 18 81t49.5 60.5t75 38t94.5 13.5q50 0 92 -12.5t72 -32t46.5 -42.5t16.5 -43q0 -25 -17.5 -43t-44.5 -18q-15 0 -28 7t-33 26t-44.5 31.5t-61.5 12.5
q-48 0 -77 -21t-29 -52q0 -29 30 -51t94 -43l24 -8q61 -20 101 -44t63.5 -50t33 -54.5t9.5 -58.5q0 -48 -20 -86t-54 -64.5t-79 -40.5t-94 -14q-55 0 -101.5 16t-80.5 40t-53 53t-19 56q0 24 19 40t41 16q14 0 28 -5t28 -22q34 -42 66 -61t76 -19zM336 -81q0 -12 -3 -33.5
t-11 -38.5q-8 -18 -23 -27.5t-31 -9.5q-20 0 -35.5 13.5t-15.5 36.5q0 18 1.5 33.5l3.5 35.5q3 23 20 35t37 12q22 0 39.5 -14t17.5 -43z" />
    <glyph glyph-name="Tcaron" unicode="&#x164;" horiz-adv-x="546" 
d="M208 570h-132q-29 0 -43.5 18.5t-14.5 40.5t14.5 39.5t43.5 17.5h394q29 0 43.5 -18.5t14.5 -41.5q0 -21 -14.5 -38.5t-43.5 -17.5h-132v-515q0 -24 -19 -40.5t-46 -16.5t-46 16.5t-19 40.5v515zM329 883q18 17 39 17q20 0 33.5 -14.5t13.5 -34.5q0 -9 -4.5 -20
t-20.5 -25l-70 -63q-21 -20 -47 -20t-47 20l-70 63q-16 14 -20.5 25t-4.5 20q0 20 13.5 34.5t33.5 14.5q21 0 39 -17l56 -52z" />
    <glyph glyph-name="Tbar" unicode="&#x166;" horiz-adv-x="546" 
d="M338 294v-239q0 -24 -19 -40.5t-46 -16.5t-46 16.5t-19 40.5v239h-39q-26 0 -39 16t-13 35t13 34t39 15h39v176h-132q-29 0 -43.5 18.5t-14.5 40.5t14.5 39.5t43.5 17.5h394q29 0 43.5 -18.5t14.5 -41.5q0 -21 -14.5 -38.5t-43.5 -17.5h-132v-176h40q26 0 39 -15t13 -34
t-13 -35t-39 -16h-40z" />
    <glyph glyph-name="uni021A" unicode="&#x21a;" horiz-adv-x="546" 
d="M208 570h-132q-29 0 -43.5 18.5t-14.5 40.5t14.5 39.5t43.5 17.5h394q29 0 43.5 -18.5t14.5 -41.5q0 -21 -14.5 -38.5t-43.5 -17.5h-132v-515q0 -24 -19 -40.5t-46 -16.5t-46 16.5t-19 40.5v515zM335 -81q0 -12 -3 -33.5t-11 -38.5q-8 -18 -23 -27.5t-31 -9.5
q-20 0 -35.5 13.5t-15.5 36.5q0 18 1.5 33.5l3.5 35.5q3 23 20 35t37 12q22 0 39.5 -14t17.5 -43z" />
    <glyph glyph-name="uni0162" unicode="&#x162;" horiz-adv-x="546" 
d="M364 -108q0 -33 -24 -57.5t-68 -24.5q-22 0 -38.5 4t-29.5 10t-19.5 15.5t-6.5 18.5q0 11 7.5 21t22.5 10q4 0 7.5 -1t11.5 -5t18 -7.5t21 -3.5q9 0 16 5t7 15q0 6 -4.5 12t-12.5 8l-43 6q-17 2 -24 10.5t-7 19.5q0 7 2 13.5t6 16.5l12 32q1 4 5 10q-15 15 -15 37v513
h-132q-29 0 -43.5 18.5t-14.5 40.5t14.5 39.5t43.5 17.5h394q29 0 43.5 -18.5t14.5 -41.5q0 -21 -14.5 -38.5t-43.5 -17.5h-132v-513q0 -22 -15.5 -37.5t-38.5 -19.5q-1 -4 -3.5 -11t-4.5 -15q38 -3 63 -21.5t25 -60.5z" />
    <glyph glyph-name="Utilde" unicode="&#x168;" horiz-adv-x="653" 
d="M457 633q0 24 19 41t46 17t46 -17t19 -41v-374q0 -64 -22 -113.5t-58 -83t-83 -50.5t-97 -17t-97 17t-83.5 50.5t-58.5 83t-22 113.5v375q0 20 17 38.5t48 18.5q29 0 47 -18.5t18 -38.5v-375q0 -39 11 -67t29.5 -46.5t42 -27t48.5 -8.5t48.5 8.5t41.5 27t29 46.5t11 67
v374zM356 850q7 -5 10.5 -6.5t5.5 -1.5q8 0 13 9l3 5q7 11 17.5 18t25.5 7q17 0 32.5 -11.5t15.5 -35.5q0 -12 -5 -27.5t-16.5 -30t-30 -24.5t-44.5 -10q-30 0 -52.5 11.5t-39.5 23.5q-7 5 -10.5 6.5t-5.5 1.5q-8 0 -13 -9l-3 -5q-7 -11 -17.5 -18t-25.5 -7
q-17 0 -32.5 11.5t-15.5 35.5q0 12 5 27.5t16.5 30t30 24.5t44.5 10q30 0 52.5 -11.5t39.5 -23.5z" />
    <glyph glyph-name="Umacron" unicode="&#x16a;" horiz-adv-x="653" 
d="M457 633q0 24 19 41t46 17t46 -17t19 -41v-374q0 -64 -22 -113.5t-58 -83t-83 -50.5t-97 -17t-97 17t-83.5 50.5t-58.5 83t-22 113.5v375q0 20 17 38.5t48 18.5q29 0 47 -18.5t18 -38.5v-375q0 -39 11 -67t29.5 -46.5t42 -27t48.5 -8.5t48.5 8.5t41.5 27t29 46.5t11 67
v374zM222 762q-26 0 -39 16t-13 35t13 34t39 15h209q26 0 39 -15t13 -34t-13 -35t-39 -16h-209z" />
    <glyph glyph-name="Ubreve" unicode="&#x16c;" horiz-adv-x="653" 
d="M457 633q0 24 19 41t46 17t46 -17t19 -41v-374q0 -64 -22 -113.5t-58 -83t-83 -50.5t-97 -17t-97 17t-83.5 50.5t-58.5 83t-22 113.5v375q0 20 17 38.5t48 18.5q29 0 47 -18.5t18 -38.5v-375q0 -39 11 -67t29.5 -46.5t42 -27t48.5 -8.5t48.5 8.5t41.5 27t29 46.5t11 67
v374zM326 726q-39 0 -65.5 13t-43.5 31t-24.5 38.5t-7.5 35.5q0 24 14 40t40 16q17 0 32 -10t18 -32l1 -7q2 -15 13 -22.5t24 -7.5q12 0 22.5 7t12.5 23l1 7q3 22 18 32t32 10q23 0 38.5 -13.5t15.5 -42.5q0 -15 -7.5 -35.5t-24.5 -38.5t-43.5 -31t-65.5 -13z" />
    <glyph glyph-name="Uring" unicode="&#x16e;" horiz-adv-x="653" 
d="M457 633q0 24 19 41t46 17t46 -17t19 -41v-374q0 -64 -22 -113.5t-58 -83t-83 -50.5t-97 -17t-97 17t-83.5 50.5t-58.5 83t-22 113.5v375q0 20 17 38.5t48 18.5q29 0 47 -18.5t18 -38.5v-375q0 -39 11 -67t29.5 -46.5t42 -27t48.5 -8.5t48.5 8.5t41.5 27t29 46.5t11 67
v374zM238 812q0 18 7 34t19 28t28 19t34 7t34 -7t28 -19t19 -28t7 -34t-7 -34t-19 -28.5t-28 -19.5t-34 -7t-34 7t-28 19.5t-19 28.5t-7 34zM292 812q0 -16 9 -26.5t25 -10.5q15 0 24 10.5t9 26.5q0 14 -9 24.5t-24 10.5q-16 0 -25 -10.5t-9 -24.5z" />
    <glyph glyph-name="Uhungarumlaut" unicode="&#x170;" horiz-adv-x="653" 
d="M457 633q0 24 19 41t46 17t46 -17t19 -41v-374q0 -64 -22 -113.5t-58 -83t-83 -50.5t-97 -17t-97 17t-83.5 50.5t-58.5 83t-22 113.5v375q0 20 17 38.5t48 18.5q29 0 47 -18.5t18 -38.5v-375q0 -39 11 -67t29.5 -46.5t42 -27t48.5 -8.5t48.5 8.5t41.5 27t29 46.5t11 67
v374zM244 881q19 19 39 19q21 0 37.5 -16t16.5 -37q0 -20 -17 -37l-70 -68q-19 -19 -39 -19q-21 0 -37.5 16t-16.5 37q0 20 17 37zM427 881q19 19 39 19q21 0 37.5 -16t16.5 -37q0 -20 -17 -37l-70 -68q-19 -19 -39 -19q-21 0 -37.5 16t-16.5 37q0 20 17 37z" />
    <glyph glyph-name="Uogonek" unicode="&#x172;" horiz-adv-x="653" 
d="M457 633q0 24 19 41t46 17t46 -17t19 -41v-374q0 -85 -34.5 -139.5t-90.5 -90.5l-48 -30t-46 -32q-14 -11 -22.5 -21t-8.5 -21q0 -10 6 -14.5t13 -4.5q13 0 32 13q12 8 22 12.5t21 4.5q17 0 30 -13.5t13 -33.5q0 -13 -8.5 -25t-22.5 -22q-18 -12 -40.5 -21t-48.5 -9
q-54 0 -88.5 25.5t-34.5 70.5q0 28 12 50t35 42q-43 7 -81.5 27.5t-67.5 53t-46 77.5t-17 101v375q0 20 17 38.5t48 18.5q29 0 47 -18.5t18 -38.5v-375q0 -39 11 -67t29.5 -46.5t42 -27t48.5 -8.5t48.5 8.5t41.5 27t29 46.5t11 67v374z" />
    <glyph glyph-name="Wcircumflex" unicode="&#x174;" horiz-adv-x="1005" 
d="M174 635q15 -61 47 -172l78 -263l51 175.5l50 161.5l31 98q10 32 31 44t41 12q21 0 41 -11.5t30 -41.5l33 -102l27 -84l30 -94.5l29 -91t23 -74.5l40 145l30.5 116.5l24.5 97.5l22 89q6 23 25 37t39 14q24 0 44.5 -16.5t20.5 -42.5q0 -20 -6 -39.5t-11 -39.5
q-29 -115 -68.5 -239t-87.5 -257q-12 -33 -32 -46t-42 -13q-23 0 -44 13t-33 45q-38 106 -70.5 216l-64.5 219l-31 -113l-35 -118.5l-35.5 -112.5t-33.5 -95q-11 -27 -32 -40.5t-44 -13.5t-42.5 12.5t-30.5 41.5l-90 269t-75 260q-11 44 -11 49q0 26 16 43.5t48 17.5
q23 0 42 -14.5t25 -41.5zM446 740q-18 -17 -39 -17q-20 0 -33.5 14.5t-13.5 34.5q0 9 4.5 20t20.5 25l70 63q21 20 47 20t47 -20l70 -63q16 -14 20.5 -25t4.5 -20q0 -20 -13.5 -34.5t-33.5 -14.5q-21 0 -39 17l-56 52z" />
    <glyph glyph-name="Wgrave" unicode="&#x1e80;" horiz-adv-x="1005" 
d="M174 635q15 -61 47 -172l78 -263l51 175.5l50 161.5l31 98q10 32 31 44t41 12q21 0 41 -11.5t30 -41.5l33 -102l27 -84l30 -94.5l29 -91t23 -74.5l40 145l30.5 116.5l24.5 97.5l22 89q6 23 25 37t39 14q24 0 44.5 -16.5t20.5 -42.5q0 -20 -6 -39.5t-11 -39.5
q-29 -115 -68.5 -239t-87.5 -257q-12 -33 -32 -46t-42 -13q-23 0 -44 13t-33 45q-38 106 -70.5 216l-64.5 219l-31 -113l-35 -118.5l-35.5 -112.5t-33.5 -95q-11 -27 -32 -40.5t-44 -13.5t-42.5 12.5t-30.5 41.5l-90 269t-75 260q-11 44 -11 49q0 26 16 43.5t48 17.5
q23 0 42 -14.5t25 -41.5zM425 797q-20 11 -28.5 25.5t-8.5 28.5q0 20 15 34.5t38 14.5q8 0 16.5 -2t16.5 -7l105 -61q20 -12 28.5 -26t8.5 -28q0 -20 -15 -34.5t-38 -14.5q-8 0 -16.5 2t-16.5 7z" />
    <glyph glyph-name="Wacute" unicode="&#x1e82;" horiz-adv-x="1005" 
d="M174 635q15 -61 47 -172l78 -263l51 175.5l50 161.5l31 98q10 32 31 44t41 12q21 0 41 -11.5t30 -41.5l33 -102l27 -84l30 -94.5l29 -91t23 -74.5l40 145l30.5 116.5l24.5 97.5l22 89q6 23 25 37t39 14q24 0 44.5 -16.5t20.5 -42.5q0 -20 -6 -39.5t-11 -39.5
q-29 -115 -68.5 -239t-87.5 -257q-12 -33 -32 -46t-42 -13q-23 0 -44 13t-33 45q-38 106 -70.5 216l-64.5 219l-31 -113l-35 -118.5l-35.5 -112.5t-33.5 -95q-11 -27 -32 -40.5t-44 -13.5t-42.5 12.5t-30.5 41.5l-90 269t-75 260q-11 44 -11 49q0 26 16 43.5t48 17.5
q23 0 42 -14.5t25 -41.5zM530 891q8 5 16.5 7t16.5 2q23 0 38 -14.5t15 -34.5q0 -14 -8.5 -28t-28.5 -26l-105 -61q-8 -5 -16.5 -7t-16.5 -2q-23 0 -38 14.5t-15 34.5q0 14 8.5 28.5t28.5 25.5z" />
    <glyph glyph-name="Wdieresis" unicode="&#x1e84;" horiz-adv-x="1005" 
d="M174 635q15 -61 47 -172l78 -263l51 175.5l50 161.5l31 98q10 32 31 44t41 12q21 0 41 -11.5t30 -41.5l33 -102l27 -84l30 -94.5l29 -91t23 -74.5l40 145l30.5 116.5l24.5 97.5l22 89q6 23 25 37t39 14q24 0 44.5 -16.5t20.5 -42.5q0 -20 -6 -39.5t-11 -39.5
q-29 -115 -68.5 -239t-87.5 -257q-12 -33 -32 -46t-42 -13q-23 0 -44 13t-33 45q-38 106 -70.5 216l-64.5 219l-31 -113l-35 -118.5l-35.5 -112.5t-33.5 -95q-11 -27 -32 -40.5t-44 -13.5t-42.5 12.5t-30.5 41.5l-90 269t-75 260q-11 44 -11 49q0 26 16 43.5t48 17.5
q23 0 42 -14.5t25 -41.5zM344 813q0 26 18 44t44 18t44 -18t18 -44t-18 -44t-44 -18t-44 18t-18 44zM537 813q0 26 18 44t44 18t44 -18t18 -44t-18 -44t-44 -18t-44 18t-18 44z" />
    <glyph glyph-name="Ycircumflex" unicode="&#x176;" horiz-adv-x="602" 
d="M235 282l-56 83.5l-58.5 87.5l-52.5 79.5l-37 57.5q-8 15 -10.5 23.5t-2.5 17.5q0 10 4 20.5t12 19.5t20 15t28 6q14 0 31.5 -7t27.5 -23l18 -28l67 -107.5t77 -116.5q15 21 33 49l36.5 58l36.5 59l32 52l20 32q11 19 25.5 25.5t28.5 6.5q16 0 29 -6t22 -15t13.5 -19.5
t4.5 -20.5q0 -9 -3.5 -17.5t-11.5 -22.5l-78 -119l-33.5 -50.5l-34 -51.5l-31.5 -47.5l-27 -40.5v-227q0 -24 -19 -40.5t-46 -16.5t-46 16.5t-19 40.5v227zM245 740q-18 -17 -39 -17q-20 0 -33.5 14.5t-13.5 34.5q0 9 4.5 20t20.5 25l70 63q21 20 47 20t47 -20l70 -63
q16 -14 20.5 -25t4.5 -20q0 -20 -13.5 -34.5t-33.5 -14.5q-21 0 -39 17l-56 52z" />
    <glyph glyph-name="Ygrave" unicode="&#x1ef2;" horiz-adv-x="602" 
d="M235 282l-56 83.5l-58.5 87.5l-52.5 79.5l-37 57.5q-8 15 -10.5 23.5t-2.5 17.5q0 10 4 20.5t12 19.5t20 15t28 6q14 0 31.5 -7t27.5 -23l18 -28l67 -107.5t77 -116.5q15 21 33 49l36.5 58l36.5 59l32 52l20 32q11 19 25.5 25.5t28.5 6.5q16 0 29 -6t22 -15t13.5 -19.5
t4.5 -20.5q0 -9 -3.5 -17.5t-11.5 -22.5l-78 -119l-33.5 -50.5l-34 -51.5l-31.5 -47.5l-27 -40.5v-227q0 -24 -19 -40.5t-46 -16.5t-46 16.5t-19 40.5v227zM214 797q-20 11 -28.5 25.5t-8.5 28.5q0 20 15 34.5t38 14.5q8 0 16.5 -2t16.5 -7l105 -61q20 -12 28.5 -26t8.5 -28
q0 -20 -15 -34.5t-38 -14.5q-8 0 -16.5 2t-16.5 7z" />
    <glyph glyph-name="Zacute" unicode="&#x179;" horiz-adv-x="610" 
d="M41 66q0 10 4 20t15 27l156.5 227.5l165.5 230.5h-273q-29 0 -43.5 18.5t-14.5 40.5q0 21 14.5 38.5t43.5 17.5h386q26 0 44.5 -17.5t18.5 -40.5q0 -9 -3.5 -22t-22.5 -41l-158.5 -221.5l-158.5 -223.5h296q29 0 44 -18t15 -40t-14.5 -39.5t-44.5 -17.5h-406
q-29 0 -46.5 18t-17.5 43zM342 891q8 5 16.5 7t16.5 2q23 0 38 -14.5t15 -34.5q0 -14 -8.5 -28t-28.5 -26l-105 -61q-8 -5 -16.5 -7t-16.5 -2q-23 0 -38 14.5t-15 34.5q0 14 8.5 28.5t28.5 25.5z" />
    <glyph glyph-name="Zdotaccent" unicode="&#x17b;" horiz-adv-x="610" 
d="M41 66q0 10 4 20t15 27l156.5 227.5l165.5 230.5h-273q-29 0 -43.5 18.5t-14.5 40.5q0 21 14.5 38.5t43.5 17.5h386q26 0 44.5 -17.5t18.5 -40.5q0 -9 -3.5 -22t-22.5 -41l-158.5 -221.5l-158.5 -223.5h296q29 0 44 -18t15 -40t-14.5 -39.5t-44.5 -17.5h-406
q-29 0 -46.5 18t-17.5 43zM236 812q0 29 20 49t49 20t49 -20t20 -49t-20 -49t-49 -20t-49 20t-20 49z" />
    <glyph glyph-name="uni018F" unicode="&#x18f;" horiz-adv-x="707" 
d="M337 582q-37 0 -66.5 -13.5t-49.5 -32.5t-33 -26t-28 -7q-27 0 -44.5 18t-17.5 43q0 20 18 43.5t50 43t75.5 32.5t93.5 13q80 0 141 -29.5t102 -78.5t62 -112t21 -130q0 -77 -26 -141.5t-69.5 -111t-100 -72.5t-117.5 -26q-68 0 -123.5 25.5t-95 69.5t-61.5 104.5
t-22 131.5q0 29 17.5 52.5t57.5 23.5h403q-7 37 -23.5 70t-40.5 57.5t-55.5 38.5t-67.5 14zM348 109q32 0 61.5 13t53.5 36.5t40 57t21 75.5h-341q1 -38 13.5 -71t34.5 -57.5t52 -39t65 -14.5z" />
    <glyph glyph-name="uni1E9E" unicode="&#x1e9e;" horiz-adv-x="688" 
d="M421 -2q-39 0 -72 11.5t-57.5 29.5t-38.5 39t-14 40q0 29 18 44.5t37 15.5q18 0 32.5 -8t32.5 -26l6 -6q15 -15 31 -20.5t35 -5.5q16 0 31 8t26.5 21.5t18.5 32t7 39.5q0 25 -10 44.5t-27 33t-40 21t-48 9.5l-11 1q-33 3 -49 18t-16 38q0 18 12 38l93 165h-110
q-24 0 -42 -7t-30.5 -18.5t-20 -25.5t-10.5 -27q-5 -17 -5.5 -33t-0.5 -46v-370q0 -24 -19 -40t-46 -16t-46.5 16t-19.5 40v371q0 61 9 97q8 31 24.5 60.5t44 52.5t67.5 37t95 14h181q34 0 57.5 -19t23.5 -50q0 -11 -3.5 -22.5t-14.5 -30.5l-87 -150q39 -9 72 -25.5
t57 -41.5t37.5 -58.5t13.5 -75.5q0 -48 -17 -87.5t-47 -68t-71 -44t-89 -15.5z" />
    <glyph glyph-name="amacron" unicode="&#x101;" horiz-adv-x="556" 
d="M172 580q-26 0 -39 16t-13 35t13 34t39 15h209q26 0 39 -15t13 -34t-13 -35t-39 -16h-209zM378 54q-21 -24 -58 -40t-75 -16q-51 0 -90.5 22t-67.5 58t-42.5 82t-14.5 94q0 45 14 91t41.5 83.5t67.5 61t92 23.5q38 0 70 -15t53 -39q0 7 3.5 16.5t11 17.5t19.5 14t30 6
q26 0 45 -17t19 -40v-298q0 -17 3.5 -28.5t9.5 -19.5t11.5 -18t5.5 -27q0 -29 -19.5 -48t-44.5 -19q-20 0 -41.5 9.5t-42.5 46.5zM369 274q0 19 -0.5 32.5t-2 24t-5.5 19t-11 16.5q-13 16 -34.5 25.5t-47.5 9.5q-23 0 -43 -11t-34.5 -31t-22.5 -47t-8 -58q0 -68 31.5 -106
t76.5 -38q26 0 47.5 9.5t34.5 25.5q14 16 16.5 35t2.5 57v37z" />
    <glyph glyph-name="abreve" unicode="&#x103;" horiz-adv-x="556" 
d="M276 545q-39 0 -65.5 13t-43.5 31t-24.5 38.5t-7.5 35.5q0 24 14 40t40 16q17 0 32 -10t18 -32l1 -7q2 -15 13 -22.5t24 -7.5q12 0 22.5 7t12.5 23l1 7q3 22 18 32t32 10q23 0 38.5 -13.5t15.5 -42.5q0 -15 -7.5 -35.5t-24.5 -38.5t-43.5 -31t-65.5 -13zM378 54
q-21 -24 -58 -40t-75 -16q-51 0 -90.5 22t-67.5 58t-42.5 82t-14.5 94q0 45 14 91t41.5 83.5t67.5 61t92 23.5q38 0 70 -15t53 -39q0 7 3.5 16.5t11 17.5t19.5 14t30 6q26 0 45 -17t19 -40v-298q0 -17 3.5 -28.5t9.5 -19.5t11.5 -18t5.5 -27q0 -29 -19.5 -48t-44.5 -19
q-20 0 -41.5 9.5t-42.5 46.5zM369 274q0 19 -0.5 32.5t-2 24t-5.5 19t-11 16.5q-13 16 -34.5 25.5t-47.5 9.5q-23 0 -43 -11t-34.5 -31t-22.5 -47t-8 -58q0 -68 31.5 -106t76.5 -38q26 0 47.5 9.5t34.5 25.5q14 16 16.5 35t2.5 57v37z" />
    <glyph glyph-name="aogonek" unicode="&#x105;" horiz-adv-x="556" 
d="M374 59q-21 -24 -56 -42.5t-73 -18.5q-51 0 -90.5 22t-67.5 58t-42.5 82t-14.5 94q0 45 14 91t41.5 83.5t67.5 61t92 23.5q38 0 70 -15t53 -39q0 7 3 16.5t10.5 18t20 14t30.5 5.5q26 0 45 -16.5t19 -39.5v-302q0 -17 3.5 -28.5t9.5 -19.5q17 -23 17 -46q0 -40 -44 -68
q-23 -15 -37 -26t-21 -18.5t-9 -13.5t-2 -12q0 -10 6 -13.5t13 -3.5q11 0 30 13q12 8 21 12.5t20 4.5q17 0 30 -13.5t13 -33.5q0 -13 -8.5 -25t-22.5 -22q-18 -12 -40.5 -21t-57.5 -9q-54 0 -82 25.5t-28 62.5q0 38 23.5 65t68.5 57q-16 14 -25 37zM369 274q0 19 -0.5 32.5
t-2 24t-5.5 19t-11 16.5q-13 16 -34.5 25.5t-47.5 9.5q-23 0 -43 -11t-34.5 -31t-22.5 -47t-8 -58q0 -68 31.5 -106t76.5 -38q26 0 47.5 9.5t34.5 25.5q14 16 16.5 35t2.5 57v37z" />
    <glyph glyph-name="aeacute" unicode="&#x1fd;" horiz-adv-x="767" 
d="M457 710q8 5 16.5 7t16.5 2q23 0 38 -14.5t15 -34.5q0 -14 -8.5 -28t-28.5 -26l-105 -61q-8 -5 -16.5 -7t-16.5 -2q-23 0 -38 14.5t-15 34.5q0 14 8.5 28.5t28.5 25.5zM529 -4q-95 0 -157 54q-26 -20 -69 -37t-97 -17q-41 0 -74 11t-56 30.5t-35 45.5t-12 57
q0 47 23 78.5t60.5 50.5t85.5 28t99 11v21q0 24 -6 39t-15 23t-19 10.5t-19 2.5q-16 0 -32.5 -5.5t-33.5 -13.5l-10 -5q-11 -5 -27 -13.5t-34 -8.5q-23 0 -38 16t-15 39q0 15 7.5 29t26.5 27q29 20 70 32t86 12q102 0 143 -63q31 29 69.5 46t83.5 17q43 0 80.5 -18t65.5 -48
t44 -69.5t16 -82.5q0 -37 -22 -57.5t-52 -20.5h-251q8 -51 36.5 -82t80.5 -31q21 0 42.5 7.5t40.5 29.5q14 16 25 21.5t25 5.5q24 0 40 -14.5t16 -37.5q0 -22 -16.5 -43.5t-43.5 -38.5t-61.5 -27.5t-70.5 -10.5zM215 91q18 0 46 9t56 28q-9 20 -14.5 41.5t-7.5 46.5
q-79 0 -111.5 -21.5t-32.5 -51.5q0 -22 15.5 -37t48.5 -15zM520 406q-20 0 -37.5 -8t-31 -21t-22.5 -31t-12 -37h186q6 0 7.5 3t1.5 6q0 10 -4.5 25t-15 29t-28 24t-44.5 10z" />
    <glyph glyph-name="cacute" unicode="&#x107;" horiz-adv-x="490" 
d="M270 401q-23 0 -43 -11t-35 -30.5t-23.5 -46.5t-8.5 -60t8.5 -59.5t23.5 -45.5t35 -29.5t43 -10.5q22 0 42 9.5t38 33.5q14 17 25.5 23.5t25.5 6.5q25 0 41.5 -17t16.5 -40t-12.5 -44t-41.5 -43q-24 -18 -57.5 -29.5t-73.5 -11.5q-53 0 -97.5 19.5t-77 54t-51 81.5
t-18.5 103q0 53 18 100t50.5 82.5t77.5 56t98 20.5q37 0 70.5 -11t59 -29t41 -41.5t15.5 -49.5q0 -28 -19 -44.5t-39 -16.5t-31.5 9t-23.5 26q-13 19 -31.5 32t-45.5 13zM297 710q8 5 16.5 7t16.5 2q23 0 38 -14.5t15 -34.5q0 -14 -8.5 -28t-28.5 -26l-105 -61
q-8 -5 -16.5 -7t-16.5 -2q-23 0 -38 14.5t-15 34.5q0 14 8.5 28.5t28.5 25.5z" />
    <glyph glyph-name="ccircumflex" unicode="&#x109;" horiz-adv-x="490" 
d="M270 401q-23 0 -43 -11t-35 -30.5t-23.5 -46.5t-8.5 -60t8.5 -59.5t23.5 -45.5t35 -29.5t43 -10.5q22 0 42 9.5t38 33.5q14 17 25.5 23.5t25.5 6.5q25 0 41.5 -17t16.5 -40t-12.5 -44t-41.5 -43q-24 -18 -57.5 -29.5t-73.5 -11.5q-53 0 -97.5 19.5t-77 54t-51 81.5
t-18.5 103q0 53 18 100t50.5 82.5t77.5 56t98 20.5q37 0 70.5 -11t59 -29t41 -41.5t15.5 -49.5q0 -28 -19 -44.5t-39 -16.5t-31.5 9t-23.5 26q-13 19 -31.5 32t-45.5 13zM213 559q-18 -17 -39 -17q-20 0 -33.5 14.5t-13.5 34.5q0 9 4.5 20t20.5 25l70 63q21 20 47 20t47 -20
l70 -63q16 -14 20.5 -25t4.5 -20q0 -20 -13.5 -34.5t-33.5 -14.5q-21 0 -39 17l-56 52z" />
    <glyph glyph-name="cdotaccent" unicode="&#x10b;" horiz-adv-x="490" 
d="M270 401q-23 0 -43 -11t-35 -30.5t-23.5 -46.5t-8.5 -60t8.5 -59.5t23.5 -45.5t35 -29.5t43 -10.5q22 0 42 9.5t38 33.5q14 17 25.5 23.5t25.5 6.5q25 0 41.5 -17t16.5 -40t-12.5 -44t-41.5 -43q-24 -18 -57.5 -29.5t-73.5 -11.5q-53 0 -97.5 19.5t-77 54t-51 81.5
t-18.5 103q0 53 18 100t50.5 82.5t77.5 56t98 20.5q37 0 70.5 -11t59 -29t41 -41.5t15.5 -49.5q0 -28 -19 -44.5t-39 -16.5t-31.5 9t-23.5 26q-13 19 -31.5 32t-45.5 13zM197 647q0 29 20 49t49 20t49 -20t20 -49t-20 -49t-49 -20t-49 20t-20 49z" />
    <glyph glyph-name="ccaron" unicode="&#x10d;" horiz-adv-x="490" 
d="M270 401q-23 0 -43 -11t-35 -30.5t-23.5 -46.5t-8.5 -60t8.5 -59.5t23.5 -45.5t35 -29.5t43 -10.5q22 0 42 9.5t38 33.5q14 17 25.5 23.5t25.5 6.5q25 0 41.5 -17t16.5 -40t-12.5 -44t-41.5 -43q-24 -18 -57.5 -29.5t-73.5 -11.5q-53 0 -97.5 19.5t-77 54t-51 81.5
t-18.5 103q0 53 18 100t50.5 82.5t77.5 56t98 20.5q37 0 70.5 -11t59 -29t41 -41.5t15.5 -49.5q0 -28 -19 -44.5t-39 -16.5t-31.5 9t-23.5 26q-13 19 -31.5 32t-45.5 13zM321 702q18 17 39 17q20 0 33.5 -14.5t13.5 -34.5q0 -9 -4.5 -20t-20.5 -25l-70 -63q-21 -20 -47 -20
t-47 20l-70 63q-16 14 -20.5 25t-4.5 20q0 20 13.5 34.5t33.5 14.5q21 0 39 -17l56 -52z" />
    <glyph glyph-name="dcaron" unicode="&#x10f;" horiz-adv-x="622" 
d="M245 513q34 0 67.5 -13.5t56.5 -33.5v196q0 23 18.5 38.5t45.5 15.5q26 0 44.5 -15.5t18.5 -38.5v-602q0 -28 -17.5 -45t-43.5 -17q-18 0 -30 5.5t-20 13.5t-12 17.5t-5 17.5q-21 -24 -53 -39t-70 -15q-49 0 -89 20.5t-68 55.5t-43 82t-15 100q0 46 14 91.5t41 82.5
t67 60t93 23zM369 274q0 19 -0.5 32.5t-2 24t-5.5 19t-11 16.5q-13 16 -34.5 25.5t-47.5 9.5q-49 0 -78.5 -38.5t-29.5 -106.5t29.5 -107t78.5 -39q26 0 47.5 9.5t34.5 25.5q14 16 16.5 35t2.5 57v37zM674 665q0 -11 -2.5 -26.5t-6 -32t-8.5 -33.5t-11 -31q-8 -19 -22 -27.5
t-30 -8.5q-20 0 -36.5 13t-16.5 38q0 2 0.5 7.5t3.5 16.5q5 20 8.5 41t6.5 47t20.5 38.5t37.5 12.5q21 0 38.5 -14t17.5 -41z" />
    <glyph glyph-name="dcroat" unicode="&#x111;" horiz-adv-x="556" 
d="M496 558v-498q0 -28 -17.5 -45t-43.5 -17q-18 0 -30 5.5t-20 13.5t-12 17.5t-5 17.5q-21 -24 -53 -39t-70 -15q-49 0 -89 20.5t-68 55.5t-43 82.5t-15 100.5q0 46 14 91.5t41 82t67 59.5t93 23q34 0 67.5 -13.5t56.5 -33.5v92h-57q-25 0 -37.5 15t-12.5 33q0 17 12 31.5
t38 14.5h57v11q0 23 18.5 39.5t45.5 16.5q26 0 44.5 -16.5t18.5 -39.5v-11h15q24 0 36.5 -15t12.5 -32q0 -18 -12.5 -32.5t-36.5 -14.5h-15zM369 274q0 19 -0.5 32.5t-2 24t-5.5 19t-11 16.5q-13 16 -34.5 25.5t-47.5 9.5q-49 0 -78.5 -38t-29.5 -106t29.5 -107.5
t78.5 -39.5q26 0 47.5 9.5t34.5 25.5q14 16 16.5 35t2.5 57v37z" />
    <glyph glyph-name="emacron" unicode="&#x113;" horiz-adv-x="525" 
d="M268 407q-44 0 -73.5 -29t-35.5 -68h195q7 0 8.5 3t1.5 6q0 10 -6 25t-18 29t-30 24t-42 10zM277 -5q-54 0 -99.5 19t-78 53t-51 81t-18.5 102q0 57 18.5 105t51 83t75.5 55t93 20t91.5 -18t71.5 -48.5t47 -70.5t17 -83q0 -37 -22.5 -57t-53.5 -20h-262q8 -51 39 -81.5
t85 -30.5q22 0 43 8t41 29q25 27 55 27q22 0 38 -14.5t16 -37.5q0 -22 -16.5 -43.5t-44.5 -39t-63.5 -28t-72.5 -10.5zM165 580q-26 0 -39 16t-13 35t13 34t39 15h209q26 0 39 -15t13 -34t-13 -35t-39 -16h-209z" />
    <glyph glyph-name="ebreve" unicode="&#x115;" horiz-adv-x="525" 
d="M268 407q-44 0 -73.5 -29t-35.5 -68h195q7 0 8.5 3t1.5 6q0 10 -6 25t-18 29t-30 24t-42 10zM277 -5q-54 0 -99.5 19t-78 53t-51 81t-18.5 102q0 57 18.5 105t51 83t75.5 55t93 20t91.5 -18t71.5 -48.5t47 -70.5t17 -83q0 -37 -22.5 -57t-53.5 -20h-262q8 -51 39 -81.5
t85 -30.5q22 0 43 8t41 29q25 27 55 27q22 0 38 -14.5t16 -37.5q0 -22 -16.5 -43.5t-44.5 -39t-63.5 -28t-72.5 -10.5zM269 545q-39 0 -65.5 13t-43.5 31t-24.5 38.5t-7.5 35.5q0 24 14 40t40 16q17 0 32 -10t18 -32l1 -7q2 -15 13 -22.5t24 -7.5q12 0 22.5 7t12.5 23l1 7
q3 22 18 32t32 10q23 0 38.5 -13.5t15.5 -42.5q0 -15 -7.5 -35.5t-24.5 -38.5t-43.5 -31t-65.5 -13z" />
    <glyph glyph-name="edotaccent" unicode="&#x117;" horiz-adv-x="525" 
d="M268 407q-44 0 -73.5 -29t-35.5 -68h195q7 0 8.5 3t1.5 6q0 10 -6 25t-18 29t-30 24t-42 10zM277 -5q-54 0 -99.5 19t-78 53t-51 81t-18.5 102q0 57 18.5 105t51 83t75.5 55t93 20t91.5 -18t71.5 -48.5t47 -70.5t17 -83q0 -37 -22.5 -57t-53.5 -20h-262q8 -51 39 -81.5
t85 -30.5q22 0 43 8t41 29q25 27 55 27q22 0 38 -14.5t16 -37.5q0 -22 -16.5 -43.5t-44.5 -39t-63.5 -28t-72.5 -10.5zM199 647q0 29 20 49t49 20t49 -20t20 -49t-20 -49t-49 -20t-49 20t-20 49z" />
    <glyph glyph-name="eogonek" unicode="&#x119;" horiz-adv-x="525" 
d="M192 -90q0 50 42 88q-45 7 -82.5 29t-64.5 55t-42 75.5t-15 92.5q0 57 18.5 105t51 83t75.5 55t93 20t91.5 -18t71.5 -48.5t47 -70.5t17 -83q0 -37 -22.5 -57t-53.5 -20h-262q8 -51 39 -81.5t85 -30.5q22 0 43 8t41 29q25 27 55 27q22 0 38 -14.5t16 -37.5
q0 -20 -13 -39.5t-36 -36.5l-34 -27t-40 -29q-17 -12 -27.5 -21t-16 -15.5t-7.5 -12t-2 -9.5q0 -11 6 -15.5t13 -4.5q13 0 32 13q12 8 22 12.5t21 4.5q17 0 30 -13.5t13 -33.5q0 -13 -8.5 -25t-22.5 -22q-18 -12 -41.5 -21t-55.5 -9q-24 0 -44.5 6.5t-36.5 19.5t-25 31
t-9 41zM268 407q-44 0 -73.5 -29t-35.5 -68h195q7 0 8.5 3t1.5 6q0 10 -6 25t-18 29t-30 24t-42 10z" />
    <glyph glyph-name="ecaron" unicode="&#x11b;" horiz-adv-x="525" 
d="M268 407q-44 0 -73.5 -29t-35.5 -68h195q7 0 8.5 3t1.5 6q0 10 -6 25t-18 29t-30 24t-42 10zM277 -5q-54 0 -99.5 19t-78 53t-51 81t-18.5 102q0 57 18.5 105t51 83t75.5 55t93 20t91.5 -18t71.5 -48.5t47 -70.5t17 -83q0 -37 -22.5 -57t-53.5 -20h-262q8 -51 39 -81.5
t85 -30.5q22 0 43 8t41 29q25 27 55 27q22 0 38 -14.5t16 -37.5q0 -22 -16.5 -43.5t-44.5 -39t-63.5 -28t-72.5 -10.5zM324 702q18 17 39 17q20 0 33.5 -14.5t13.5 -34.5q0 -9 -4.5 -20t-20.5 -25l-70 -63q-21 -20 -47 -20t-47 20l-70 63q-16 14 -20.5 25t-4.5 20
q0 20 13.5 34.5t33.5 14.5q21 0 39 -17l56 -52z" />
    <glyph glyph-name="gcircumflex" unicode="&#x11d;" horiz-adv-x="560" 
d="M224 559q-18 -17 -39 -17q-20 0 -33.5 14.5t-13.5 34.5q0 9 4.5 20t20.5 25l70 63q21 20 47 20t47 -20l70 -63q16 -14 20.5 -25t4.5 -20q0 -20 -13.5 -34.5t-33.5 -14.5q-21 0 -39 17l-56 52zM270 -78q42 0 72.5 25.5t30.5 77.5v32q-23 -20 -56.5 -33.5t-67.5 -13.5
q-49 0 -89 19t-68 53t-43 79t-15 98q0 45 15 90.5t43 81.5t68 59t89 23q38 0 70 -15t53 -39q0 5 3 14t10 18t19.5 15.5t31.5 6.5q26 0 45 -16.5t19 -39.5v-416q0 -58 -18.5 -101.5t-51 -72t-75.5 -43t-91 -14.5q-23 0 -45.5 3.5t-41 9.5t-33 13t-21.5 15q-11 11 -17 23
t-6 29q0 18 14.5 35t40.5 17q10 0 23 -4t27 -11q13 -7 32 -12.5t33 -5.5zM373 274q0 19 -0.5 32.5t-2 24t-5.5 19t-11 16.5q-13 16 -34.5 25.5t-47.5 9.5q-47 0 -77.5 -39t-30.5 -103q0 -68 29.5 -104.5t78.5 -36.5q26 0 47.5 9.5t34.5 25.5q14 16 16.5 35t2.5 57v29z" />
    <glyph glyph-name="gbreve" unicode="&#x11f;" horiz-adv-x="560" 
d="M280 545q-39 0 -65.5 13t-43.5 31t-24.5 38.5t-7.5 35.5q0 24 14 40t40 16q17 0 32 -10t18 -32l1 -7q2 -15 13 -22.5t24 -7.5q12 0 22.5 7t12.5 23l1 7q3 22 18 32t32 10q23 0 38.5 -13.5t15.5 -42.5q0 -15 -7.5 -35.5t-24.5 -38.5t-43.5 -31t-65.5 -13zM270 -78
q42 0 72.5 25.5t30.5 77.5v32q-23 -20 -56.5 -33.5t-67.5 -13.5q-49 0 -89 19t-68 53t-43 79t-15 98q0 45 15 90.5t43 81.5t68 59t89 23q38 0 70 -15t53 -39q0 5 3 14t10 18t19.5 15.5t31.5 6.5q26 0 45 -16.5t19 -39.5v-416q0 -58 -18.5 -101.5t-51 -72t-75.5 -43
t-91 -14.5q-23 0 -45.5 3.5t-41 9.5t-33 13t-21.5 15q-11 11 -17 23t-6 29q0 18 14.5 35t40.5 17q10 0 23 -4t27 -11q13 -7 32 -12.5t33 -5.5zM373 274q0 19 -0.5 32.5t-2 24t-5.5 19t-11 16.5q-13 16 -34.5 25.5t-47.5 9.5q-47 0 -77.5 -39t-30.5 -103q0 -68 29.5 -104.5
t78.5 -36.5q26 0 47.5 9.5t34.5 25.5q14 16 16.5 35t2.5 57v29z" />
    <glyph glyph-name="gdotaccent" unicode="&#x121;" horiz-adv-x="560" 
d="M211 647q0 29 20 49t49 20t49 -20t20 -49t-20 -49t-49 -20t-49 20t-20 49zM270 -78q42 0 72.5 25.5t30.5 77.5v32q-23 -20 -56.5 -33.5t-67.5 -13.5q-49 0 -89 19t-68 53t-43 79t-15 98q0 45 15 90.5t43 81.5t68 59t89 23q38 0 70 -15t53 -39q0 5 3 14t10 18t19.5 15.5
t31.5 6.5q26 0 45 -16.5t19 -39.5v-416q0 -58 -18.5 -101.5t-51 -72t-75.5 -43t-91 -14.5q-23 0 -45.5 3.5t-41 9.5t-33 13t-21.5 15q-11 11 -17 23t-6 29q0 18 14.5 35t40.5 17q10 0 23 -4t27 -11q13 -7 32 -12.5t33 -5.5zM373 274q0 19 -0.5 32.5t-2 24t-5.5 19t-11 16.5
q-13 16 -34.5 25.5t-47.5 9.5q-47 0 -77.5 -39t-30.5 -103q0 -68 29.5 -104.5t78.5 -36.5q26 0 47.5 9.5t34.5 25.5q14 16 16.5 35t2.5 57v29z" />
    <glyph glyph-name="gcommaaccent" unicode="&#x123;" horiz-adv-x="560" 
d="M217 610q0 12 3 33.5t11 38.5q8 18 23 27.5t31 9.5q20 0 35.5 -13.5t15.5 -36.5q0 -18 -1.5 -33.5l-3.5 -35.5q-3 -23 -20 -35t-37 -12q-22 0 -39.5 14t-17.5 43zM270 -78q42 0 72.5 25.5t30.5 77.5v32q-23 -20 -56.5 -33.5t-67.5 -13.5q-49 0 -89 19t-68 53t-43 79
t-15 98q0 45 15 90.5t43 81.5t68 59t89 23q38 0 70 -15t53 -39q0 5 3 14t10 18t19.5 15.5t31.5 6.5q26 0 45 -16.5t19 -39.5v-416q0 -58 -18.5 -101.5t-51 -72t-75.5 -43t-91 -14.5q-23 0 -45.5 3.5t-41 9.5t-33 13t-21.5 15q-11 11 -17 23t-6 29q0 18 14.5 35t40.5 17
q10 0 23 -4t27 -11q13 -7 32 -12.5t33 -5.5zM373 274q0 19 -0.5 32.5t-2 24t-5.5 19t-11 16.5q-13 16 -34.5 25.5t-47.5 9.5q-47 0 -77.5 -39t-30.5 -103q0 -68 29.5 -104.5t78.5 -36.5q26 0 47.5 9.5t34.5 25.5q14 16 16.5 35t2.5 57v29z" />
    <glyph glyph-name="hcircumflex" unicode="&#x125;" horiz-adv-x="542" 
d="M482 52q0 -24 -18.5 -39t-44.5 -15t-45 15t-19 39v261q0 13 -3 28.5t-10.5 28.5t-21 22t-34.5 9q-20 0 -40 -7.5t-37 -24.5q-8 -8 -15 -22t-7 -47v-248q0 -24 -19 -39t-45 -15t-44.5 15t-18.5 39v601q0 24 19 40t45 16q23 0 43 -15t20 -41v-194q20 21 53.5 37.5
t78.5 16.5q72 0 117.5 -51t45.5 -141v-269zM215 740q-18 -17 -39 -17q-20 0 -33.5 14.5t-13.5 34.5q0 9 4.5 20t20.5 25l70 63q21 20 47 20t47 -20l70 -63q16 -14 20.5 -25t4.5 -20q0 -20 -13.5 -34.5t-33.5 -14.5q-21 0 -39 17l-56 52z" />
    <glyph glyph-name="hbar" unicode="&#x127;" horiz-adv-x="542" 
d="M482 52q0 -24 -18.5 -39t-44.5 -15t-45 15t-19 39v261q0 13 -3 28.5t-10.5 28.5t-21 22t-34.5 9q-20 0 -40 -7.5t-37 -24.5q-8 -8 -15 -22t-7 -47v-248q0 -24 -19 -39t-45 -15t-44.5 15t-18.5 39v506h-10q-25 0 -37.5 15t-12.5 33q0 17 12 31.5t38 14.5h10v11q0 24 19 40
t45 16q23 0 43 -15t20 -41v-11h62q24 0 36.5 -15t12.5 -32q0 -18 -12.5 -32.5t-36.5 -14.5h-62v-99q20 21 53.5 37.5t78.5 16.5q72 0 117.5 -51t45.5 -141v-269z" />
    <glyph glyph-name="itilde" unicode="&#x129;" horiz-adv-x="246" 
d="M186 52q0 -24 -18.5 -39t-44.5 -15t-44.5 15t-18.5 39v407q0 23 18.5 38.5t44.5 15.5t44.5 -15.5t18.5 -38.5v-407zM156 668q7 -5 10.5 -6.5t5.5 -1.5q8 0 13 9l3 5q7 11 17.5 18t25.5 7q17 0 32.5 -11.5t15.5 -35.5q0 -12 -5 -27.5t-16.5 -30t-30 -24.5t-44.5 -10
q-30 0 -52.5 11.5t-39.5 23.5q-7 5 -10.5 6.5t-5.5 1.5q-8 0 -13 -9l-3 -5q-7 -11 -17.5 -18t-25.5 -7q-17 0 -32.5 11.5t-15.5 35.5q0 12 5 27.5t16.5 30t30 24.5t44.5 10q30 0 52.5 -11.5t39.5 -23.5z" />
    <glyph glyph-name="imacron" unicode="&#x12b;" horiz-adv-x="246" 
d="M186 52q0 -24 -18.5 -39t-44.5 -15t-44.5 15t-18.5 39v407q0 23 18.5 38.5t44.5 15.5t44.5 -15.5t18.5 -38.5v-407zM49 580q-26 0 -39 16t-13 35t13 34t39 15h149q26 0 39 -15t13 -34t-13 -35t-39 -16h-149z" />
    <glyph glyph-name="ibreve" unicode="&#x12d;" horiz-adv-x="246" 
d="M186 52q0 -24 -18.5 -39t-44.5 -15t-44.5 15t-18.5 39v407q0 23 18.5 38.5t44.5 15.5t44.5 -15.5t18.5 -38.5v-407zM123 545q-39 0 -65.5 13t-43.5 31t-24.5 38.5t-7.5 35.5q0 24 14 40t40 16q17 0 32 -10t18 -32l1 -7q2 -15 13 -22.5t24 -7.5q12 0 22.5 7t12.5 23l1 7
q3 22 18 32t32 10q23 0 38.5 -13.5t15.5 -42.5q0 -15 -7.5 -35.5t-24.5 -38.5t-43.5 -31t-65.5 -13z" />
    <glyph glyph-name="iogonek" unicode="&#x12f;" horiz-adv-x="246" 
d="M54 647q0 29 20 49t49 20t49 -20t20 -49t-20 -49t-49 -20t-49 20t-20 49zM60 459q0 23 18.5 38.5t44.5 15.5t44.5 -15.5t18.5 -38.5v-414q0 -27 -11 -43t-25 -27l-8 -6q-22 -16 -29 -26q-7 -8 -7 -18q0 -7 5 -13t15 -6q12 0 31 13q12 8 22 12.5t21 4.5q17 0 30 -13.5
t13 -33.5q0 -13 -8.5 -25t-22.5 -22q-18 -12 -40.5 -21t-48.5 -9q-54 0 -88.5 26.5t-34.5 77.5q0 30 17 57t51 55q-8 13 -8 29v402z" />
    <glyph glyph-name="ij" unicode="&#x133;" horiz-adv-x="491" 
d="M186 52q0 -24 -18.5 -39t-44.5 -15t-44.5 15t-18.5 39v407q0 23 18.5 38.5t44.5 15.5t44.5 -15.5t18.5 -38.5v-407zM54 647q0 29 20 49t49 20t49 -20t20 -49t-20 -49t-49 -20t-49 20t-20 49zM303 460q0 23 19 37.5t45 14.5t44.5 -15.5t18.5 -38.5v-461q0 -42 -7 -68.5
t-19 -46.5q-20 -33 -52 -52.5t-74 -19.5q-32 0 -49.5 15.5t-17.5 43.5q0 14 10.5 30.5t39.5 24.5q16 5 25 11.5t14 22.5q2 6 2.5 14.5t0.5 24.5v463zM299 647q0 29 20 49t49 20t49 -20t20 -49t-20 -49t-49 -20t-49 20t-20 49z" />
    <glyph glyph-name="jcircumflex" unicode="&#x135;" horiz-adv-x="246" 
d="M58 460q0 23 19 37.5t45 14.5t44.5 -15.5t18.5 -38.5v-461q0 -42 -7 -68.5t-19 -46.5q-20 -33 -52 -52.5t-74 -19.5q-32 0 -49.5 15.5t-17.5 43.5q0 14 10.5 30.5t39.5 24.5q16 5 25 11.5t14 22.5q2 6 2.5 14.5t0.5 24.5v463zM66 559q-18 -17 -39 -17q-20 0 -33.5 14.5
t-13.5 34.5q0 9 4.5 20t20.5 25l70 63q21 20 47 20t47 -20l70 -63q16 -14 20.5 -25t4.5 -20q0 -20 -13.5 -34.5t-33.5 -14.5q-21 0 -39 17l-56 52z" />
    <glyph glyph-name="dotlessj" unicode="&#x237;" horiz-adv-x="246" 
d="M58 460q0 23 19 37.5t45 14.5t44.5 -15.5t18.5 -38.5v-461q0 -42 -7 -68.5t-19 -46.5q-20 -33 -52 -52.5t-74 -19.5q-32 0 -49.5 15.5t-17.5 43.5q0 14 10.5 30.5t39.5 24.5q16 5 25 11.5t14 22.5q2 6 2.5 14.5t0.5 24.5v463z" />
    <glyph glyph-name="kcommaaccent" unicode="&#x137;" horiz-adv-x="512" 
d="M444 402q-27 -24 -61 -51.5l-72 -59.5l27 -36l32 -41l41 -51.5l55 -67.5q10 -12 13.5 -22.5t3.5 -18.5q0 -21 -17 -38.5t-43 -17.5q-30 0 -52 22l-28.5 34.5l-30 37.5l-38 50l-54.5 73l-18 -14t-19 -16v-133q0 -23 -19 -38.5t-45 -15.5t-44.5 15.5t-18.5 38.5v613
q0 23 18.5 38.5t44.5 15.5t45 -15.5t19 -38.5v-336l88.5 78l89.5 81q18 17 32 21t25 4q22 0 39 -18.5t17 -41.5q0 -8 -5 -20t-25 -31zM316 -81q0 -12 -3 -33.5t-11 -38.5q-8 -18 -23 -27.5t-31 -9.5q-20 0 -35.5 13.5t-15.5 36.5q0 18 1.5 33.5l3.5 35.5q3 23 20 35t37 12
q22 0 39.5 -14t17.5 -43z" />
    <glyph glyph-name="lacute" unicode="&#x13a;" horiz-adv-x="246" 
d="M186 52q0 -23 -18.5 -38.5t-44.5 -15.5t-44.5 15.5t-18.5 38.5v599q0 23 18.5 38.5t44.5 15.5t44.5 -15.5t18.5 -38.5v-599zM157 891q8 5 16.5 7t16.5 2q23 0 38 -14.5t15 -34.5q0 -14 -8.5 -28t-28.5 -26l-105 -61q-8 -5 -16.5 -7t-16.5 -2q-23 0 -38 14.5t-15 34.5
q0 14 8.5 28.5t28.5 25.5z" />
    <glyph glyph-name="lcommaaccent" unicode="&#x13c;" horiz-adv-x="246" 
d="M186 54q0 -23 -18.5 -38.5t-44.5 -15.5t-44.5 15.5t-18.5 38.5v611q0 23 18.5 38.5t44.5 15.5t44.5 -15.5t18.5 -38.5v-611zM183 -81q0 -12 -3 -33.5t-11 -38.5q-8 -18 -23 -27.5t-31 -9.5q-20 0 -35.5 13.5t-15.5 36.5q0 18 1.5 33.5l3.5 35.5q3 23 20 35t37 12
q22 0 39.5 -14t17.5 -43z" />
    <glyph glyph-name="lcaron" unicode="&#x13e;" horiz-adv-x="314" 
d="M186 52q0 -23 -18.5 -38.5t-44.5 -15.5t-44.5 15.5t-18.5 38.5v610q0 23 18.5 38.5t44.5 15.5t44.5 -15.5t18.5 -38.5v-610zM366 665q0 -11 -2.5 -26.5t-6 -32t-8.5 -33.5t-11 -31q-8 -19 -22 -27.5t-30 -8.5q-20 0 -36.5 13t-16.5 38q0 2 0.5 7.5t3.5 16.5q5 20 8.5 41
t6.5 47t20.5 38.5t37.5 12.5q21 0 38.5 -14t17.5 -41z" />
    <glyph glyph-name="ldot" unicode="&#x140;" horiz-adv-x="402" 
d="M186 52q0 -23 -18.5 -38.5t-44.5 -15.5t-44.5 15.5t-18.5 38.5v610q0 23 18.5 38.5t44.5 15.5t44.5 -15.5t18.5 -38.5v-610zM252 358q0 30 21 51t51 21t51 -21t21 -51t-21 -51t-51 -21t-51 21t-21 51z" />
    <glyph glyph-name="nacute" unicode="&#x144;" horiz-adv-x="542" 
d="M355 313q0 13 -3.5 28.5t-12 28.5t-22.5 22t-35 9q-44 0 -69.5 -28t-25.5 -73v-248q0 -24 -19 -39t-45 -15t-44.5 15t-18.5 39v407q0 24 19 39t45 15q23 0 43 -14t20 -40q20 21 53.5 37.5t78.5 16.5q72 0 117.5 -51t45.5 -141v-269q0 -24 -18.5 -39t-44.5 -15t-45 15
t-19 39v261zM306 710q8 5 16.5 7t16.5 2q23 0 38 -14.5t15 -34.5q0 -14 -8.5 -28t-28.5 -26l-105 -61q-8 -5 -16.5 -7t-16.5 -2q-23 0 -38 14.5t-15 34.5q0 14 8.5 28.5t28.5 25.5z" />
    <glyph glyph-name="ncommaaccent" unicode="&#x146;" horiz-adv-x="542" 
d="M355 313q0 13 -3.5 28.5t-12 28.5t-22.5 22t-35 9q-44 0 -69.5 -28t-25.5 -73v-248q0 -24 -19 -39t-45 -15t-44.5 15t-18.5 39v407q0 24 19 39t45 15q23 0 43 -14t20 -40q20 21 53.5 37.5t78.5 16.5q72 0 117.5 -51t45.5 -141v-269q0 -24 -18.5 -39t-44.5 -15t-45 15
t-19 39v261zM331 -81q0 -12 -3 -33.5t-11 -38.5q-8 -18 -23 -27.5t-31 -9.5q-20 0 -35.5 13.5t-15.5 36.5q0 18 1.5 33.5l3.5 35.5q3 23 20 35t37 12q22 0 39.5 -14t17.5 -43z" />
    <glyph glyph-name="ncaron" unicode="&#x148;" horiz-adv-x="542" 
d="M355 313q0 13 -3.5 28.5t-12 28.5t-22.5 22t-35 9q-44 0 -69.5 -28t-25.5 -73v-248q0 -24 -19 -39t-45 -15t-44.5 15t-18.5 39v407q0 24 19 39t45 15q23 0 43 -14t20 -40q20 21 53.5 37.5t78.5 16.5q72 0 117.5 -51t45.5 -141v-269q0 -24 -18.5 -39t-44.5 -15t-45 15
t-19 39v261zM327 702q18 17 39 17q20 0 33.5 -14.5t13.5 -34.5q0 -9 -4.5 -20t-20.5 -25l-70 -63q-21 -20 -47 -20t-47 20l-70 63q-16 14 -20.5 25t-4.5 20q0 20 13.5 34.5t33.5 14.5q21 0 39 -17l56 -52z" />
    <glyph glyph-name="napostrophe" unicode="&#x149;" horiz-adv-x="672" 
d="M485 313q0 13 -3.5 28.5t-12 28.5t-22.5 22t-35 9q-44 0 -69.5 -28t-25.5 -73v-248q0 -24 -19 -39t-45 -15t-44.5 15t-18.5 39v407q0 24 19 39t45 15q23 0 43 -14t20 -40q20 21 53.5 37.5t78.5 16.5q72 0 117.5 -51t45.5 -141v-269q0 -24 -18.5 -39t-44.5 -15t-45 15
t-19 39v261zM17 645q0 30 19.5 50.5t49.5 20.5q25 0 41 -10t25.5 -25.5t13 -33t3.5 -32.5q0 -20 -3 -41t-8 -40t-11.5 -35.5t-13.5 -28.5q-11 -17 -23.5 -24t-24.5 -7q-21 0 -36 13t-15 33q0 8 3 16l8 22q5 12 10 28t8 33q-21 5 -33.5 21.5t-12.5 39.5z" />
    <glyph glyph-name="eng" unicode="&#x14b;" horiz-adv-x="542" 
d="M355 313q0 13 -3.5 28.5t-12 28.5t-22.5 22t-35 9q-44 0 -69.5 -28t-25.5 -73v-248q0 -24 -19 -39t-45 -15t-44.5 15t-18.5 39v407q0 24 19 39t45 15q23 0 43 -14t20 -40q20 21 53.5 37.5t78.5 16.5q72 0 117.5 -51t45.5 -141v-324q0 -42 -7 -68.5t-19 -46.5
q-20 -33 -52 -52.5t-74 -19.5q-32 0 -49.5 15.5t-17.5 43.5q0 14 10.5 30.5t39.5 24.5q16 5 25 11.5t14 22.5q2 6 2.5 14.5t0.5 24.5v316z" />
    <glyph glyph-name="omacron" unicode="&#x14d;" horiz-adv-x="548" 
d="M274 107q24 0 44.5 10t36.5 29t25 46t9 62q0 34 -9 61.5t-25 46.5t-36.5 29t-44.5 10t-44.5 -10t-36.5 -29t-25 -46.5t-9 -61.5q0 -35 9 -62t25 -46t36.5 -29t44.5 -10zM274 -5q-49 0 -93.5 19t-78 53.5t-53 82t-19.5 104.5t19.5 104.5t52.5 82t77.5 53.5t94.5 19
t94.5 -19t77.5 -53.5t52.5 -82t19.5 -104.5t-19.5 -104.5t-53 -82t-78 -53.5t-93.5 -19zM170 580q-26 0 -39 16t-13 35t13 34t39 15h209q26 0 39 -15t13 -34t-13 -35t-39 -16h-209z" />
    <glyph glyph-name="obreve" unicode="&#x14f;" horiz-adv-x="548" 
d="M274 107q24 0 44.5 10t36.5 29t25 46t9 62q0 34 -9 61.5t-25 46.5t-36.5 29t-44.5 10t-44.5 -10t-36.5 -29t-25 -46.5t-9 -61.5q0 -35 9 -62t25 -46t36.5 -29t44.5 -10zM274 -5q-49 0 -93.5 19t-78 53.5t-53 82t-19.5 104.5t19.5 104.5t52.5 82t77.5 53.5t94.5 19
t94.5 -19t77.5 -53.5t52.5 -82t19.5 -104.5t-19.5 -104.5t-53 -82t-78 -53.5t-93.5 -19zM274 545q-39 0 -65.5 13t-43.5 31t-24.5 38.5t-7.5 35.5q0 24 14 40t40 16q17 0 32 -10t18 -32l1 -7q2 -15 13 -22.5t24 -7.5q12 0 22.5 7t12.5 23l1 7q3 22 18 32t32 10
q23 0 38.5 -13.5t15.5 -42.5q0 -15 -7.5 -35.5t-24.5 -38.5t-43.5 -31t-65.5 -13z" />
    <glyph glyph-name="oslashacute" unicode="&#x1ff;" horiz-adv-x="548" 
d="M274 -5q-63 0 -117 31l-9 -11q-9 -11 -20 -15.5t-22 -4.5q-23 0 -40 16.5t-17 39.5q0 20 15 38l11 13q-21 31 -33 69t-12 83q0 57 19.5 104.5t52.5 82t77.5 53.5t94.5 19q32 0 61 -8t55 -22l8 9q9 11 20 16t22 5q23 0 40 -17t17 -40q0 -20 -15 -38l-9 -11q21 -32 33 -70
t12 -83q0 -57 -19.5 -104.5t-53 -82t-78 -53.5t-93.5 -19zM274 98q25 0 47.5 10.5t39 31t26 49.5t9.5 65q0 15 -2 28.5t-5 25.5l-165 -199q24 -11 50 -11zM152 254q0 -29 6 -53l164 198q-24 11 -48 11q-25 0 -47.5 -10.5t-39 -30.5t-26 -49t-9.5 -66zM312 710q8 5 16.5 7
t16.5 2q23 0 38 -14.5t15 -34.5q0 -14 -8.5 -28t-28.5 -26l-105 -61q-8 -5 -16.5 -7t-16.5 -2q-23 0 -38 14.5t-15 34.5q0 14 8.5 28.5t28.5 25.5z" />
    <glyph glyph-name="ohungarumlaut" unicode="&#x151;" horiz-adv-x="548" 
d="M274 107q24 0 44.5 10t36.5 29t25 46t9 62q0 34 -9 61.5t-25 46.5t-36.5 29t-44.5 10t-44.5 -10t-36.5 -29t-25 -46.5t-9 -61.5q0 -35 9 -62t25 -46t36.5 -29t44.5 -10zM274 -5q-49 0 -93.5 19t-78 53.5t-53 82t-19.5 104.5t19.5 104.5t52.5 82t77.5 53.5t94.5 19
t94.5 -19t77.5 -53.5t52.5 -82t19.5 -104.5t-19.5 -104.5t-53 -82t-78 -53.5t-93.5 -19zM208 700q19 19 39 19q21 0 37.5 -16t16.5 -37q0 -20 -17 -37l-70 -68q-19 -19 -39 -19q-21 0 -37.5 16t-16.5 37q0 20 17 37zM391 700q19 19 39 19q21 0 37.5 -16t16.5 -37
q0 -20 -17 -37l-70 -68q-19 -19 -39 -19q-21 0 -37.5 16t-16.5 37q0 20 17 37z" />
    <glyph glyph-name="racute" unicode="&#x155;" horiz-adv-x="373" 
d="M227 710q8 5 16.5 7t16.5 2q23 0 38 -14.5t15 -34.5q0 -14 -8.5 -28t-28.5 -26l-105 -61q-8 -5 -16.5 -7t-16.5 -2q-23 0 -38 14.5t-15 34.5q0 14 8.5 28.5t28.5 25.5zM292 513q37 0 53 -19.5t16 -43.5q0 -20 -13 -39.5t-39 -19.5q-8 0 -12.5 0.5t-9.5 1.5t-10 1.5
t-13 0.5q-10 0 -23.5 -2.5t-27.5 -13.5q-17 -14 -22 -33.5t-5 -46.5v-247q0 -24 -18.5 -39t-44.5 -15t-44.5 15t-18.5 39v407q0 23 18.5 38.5t44.5 15.5q32 0 47.5 -18t16.5 -35q23 24 49 38.5t56 14.5z" />
    <glyph glyph-name="rcommaaccent" unicode="&#x157;" horiz-adv-x="373" 
d="M180 -81q0 -12 -3 -33.5t-11 -38.5q-8 -18 -23 -27.5t-31 -9.5q-20 0 -35.5 13.5t-15.5 36.5q0 18 1.5 33.5l3.5 35.5q3 23 20 35t37 12q22 0 39.5 -14t17.5 -43zM292 513q37 0 53 -19.5t16 -43.5q0 -20 -13 -39.5t-39 -19.5q-8 0 -12.5 0.5t-9.5 1.5t-10 1.5t-13 0.5
q-10 0 -23.5 -2.5t-27.5 -13.5q-17 -14 -22 -33.5t-5 -46.5v-247q0 -24 -18.5 -39t-44.5 -15t-44.5 15t-18.5 39v407q0 23 18.5 38.5t44.5 15.5q32 0 47.5 -18t16.5 -35q23 24 49 38.5t56 14.5z" />
    <glyph glyph-name="rcaron" unicode="&#x159;" horiz-adv-x="373" 
d="M245 702q18 17 39 17q20 0 33.5 -14.5t13.5 -34.5q0 -9 -4.5 -20t-20.5 -25l-70 -63q-21 -20 -47 -20t-47 20l-70 63q-16 14 -20.5 25t-4.5 20q0 20 13.5 34.5t33.5 14.5q21 0 39 -17l56 -52zM292 513q37 0 53 -19.5t16 -43.5q0 -20 -13 -39.5t-39 -19.5q-8 0 -12.5 0.5
t-9.5 1.5t-10 1.5t-13 0.5q-10 0 -23.5 -2.5t-27.5 -13.5q-17 -14 -22 -33.5t-5 -46.5v-247q0 -24 -18.5 -39t-44.5 -15t-44.5 15t-18.5 39v407q0 23 18.5 38.5t44.5 15.5q32 0 47.5 -18t16.5 -35q23 24 49 38.5t56 14.5z" />
    <glyph glyph-name="sacute" unicode="&#x15b;" horiz-adv-x="454" 
d="M269 710q8 5 16.5 7t16.5 2q23 0 38 -14.5t15 -34.5q0 -14 -8.5 -28t-28.5 -26l-105 -61q-8 -5 -16.5 -7t-16.5 -2q-23 0 -38 14.5t-15 34.5q0 14 8.5 28.5t28.5 25.5zM217 408q-23 0 -38 -13t-15 -30q0 -9 3 -16t11.5 -13.5t23.5 -12.5t38 -12l19 -5q48 -13 79 -30
t48.5 -37t24 -42.5t6.5 -46.5q0 -35 -16 -63.5t-42.5 -49t-61.5 -31.5t-73 -11q-43 0 -78.5 11.5t-59.5 28.5q-29 20 -41.5 42t-12.5 43q0 23 15.5 38t40.5 15q14 0 27 -6t24 -20q19 -25 44.5 -36t47.5 -11q29 0 45 14t16 33q0 7 -3 14.5t-12.5 15.5t-27 15.5t-45.5 15.5
l-19 5q-82 22 -113.5 60t-31.5 87q0 35 14 63t38.5 48t58.5 31t73 11q36 0 68.5 -8t56.5 -22t38.5 -32.5t14.5 -38.5q0 -23 -15 -39.5t-38 -16.5q-13 0 -26.5 5t-27.5 16q-37 31 -78 31z" />
    <glyph glyph-name="scircumflex" unicode="&#x15d;" horiz-adv-x="454" 
d="M171 559q-18 -17 -39 -17q-20 0 -33.5 14.5t-13.5 34.5q0 9 4.5 20t20.5 25l70 63q21 20 47 20t47 -20l70 -63q16 -14 20.5 -25t4.5 -20q0 -20 -13.5 -34.5t-33.5 -14.5q-21 0 -39 17l-56 52zM217 408q-23 0 -38 -13t-15 -30q0 -9 3 -16t11.5 -13.5t23.5 -12.5t38 -12
l19 -5q48 -13 79 -30t48.5 -37t24 -42.5t6.5 -46.5q0 -35 -16 -63.5t-42.5 -49t-61.5 -31.5t-73 -11q-43 0 -78.5 11.5t-59.5 28.5q-29 20 -41.5 42t-12.5 43q0 23 15.5 38t40.5 15q14 0 27 -6t24 -20q19 -25 44.5 -36t47.5 -11q29 0 45 14t16 33q0 7 -3 14.5t-12.5 15.5
t-27 15.5t-45.5 15.5l-19 5q-82 22 -113.5 60t-31.5 87q0 35 14 63t38.5 48t58.5 31t73 11q36 0 68.5 -8t56.5 -22t38.5 -32.5t14.5 -38.5q0 -23 -15 -39.5t-38 -16.5q-13 0 -26.5 5t-27.5 16q-37 31 -78 31z" />
    <glyph glyph-name="scedilla" unicode="&#x15f;" horiz-adv-x="454" 
d="M321 -108q0 -33 -24 -57.5t-68 -24.5q-22 0 -38.5 4t-29.5 10t-19.5 15.5t-6.5 18.5q0 11 7.5 21t22.5 10q4 0 7.5 -1t11.5 -5t18 -7.5t21 -3.5q9 0 16 5t7 15q0 6 -4.5 12t-12.5 8l-43 6q-17 2 -24 10.5t-7 19.5q0 7 2 13.5t6 16.5l8 22q-26 5 -47.5 14.5t-37.5 20.5
q-29 20 -41.5 42t-12.5 43q0 23 15.5 38t40.5 15q14 0 27 -6t24 -20q19 -25 44.5 -36t47.5 -11q29 0 45 14t16 33q0 7 -3 14.5t-12.5 15.5t-27 15.5t-45.5 15.5l-19 5q-82 22 -113.5 60t-31.5 87q0 35 14 63t38.5 48t58.5 31t73 11q36 0 68.5 -8t56.5 -22t38.5 -32.5
t14.5 -38.5q0 -23 -15 -39.5t-38 -16.5q-13 0 -26.5 5t-27.5 16q-37 31 -78 31q-23 0 -38 -13t-15 -30q0 -9 3 -16t11.5 -13.5t23.5 -12.5t38 -12l19 -5q48 -13 79 -30t48.5 -37t24 -42.5t6.5 -46.5q0 -33 -14.5 -60.5t-39 -47.5t-56.5 -32t-67 -14q-2 -5 -3.5 -10.5
t-3.5 -11.5q38 -3 63 -21.5t25 -60.5z" />
    <glyph glyph-name="uni0219" unicode="&#x219;" horiz-adv-x="454" 
d="M281 -81q0 -12 -3 -33.5t-11 -38.5q-8 -18 -23 -27.5t-31 -9.5q-20 0 -35.5 13.5t-15.5 36.5q0 18 1.5 33.5l3.5 35.5q3 23 20 35t37 12q22 0 39.5 -14t17.5 -43zM217 408q-23 0 -38 -13t-15 -30q0 -9 3 -16t11.5 -13.5t23.5 -12.5t38 -12l19 -5q48 -13 79 -30t48.5 -37
t24 -42.5t6.5 -46.5q0 -35 -16 -63.5t-42.5 -49t-61.5 -31.5t-73 -11q-43 0 -78.5 11.5t-59.5 28.5q-29 20 -41.5 42t-12.5 43q0 23 15.5 38t40.5 15q14 0 27 -6t24 -20q19 -25 44.5 -36t47.5 -11q29 0 45 14t16 33q0 7 -3 14.5t-12.5 15.5t-27 15.5t-45.5 15.5l-19 5
q-82 22 -113.5 60t-31.5 87q0 35 14 63t38.5 48t58.5 31t73 11q36 0 68.5 -8t56.5 -22t38.5 -32.5t14.5 -38.5q0 -23 -15 -39.5t-38 -16.5q-13 0 -26.5 5t-27.5 16q-37 31 -78 31z" />
    <glyph glyph-name="longs" unicode="&#x17f;" horiz-adv-x="282" 
d="M224 52q0 -23 -19 -38.5t-45 -15.5t-44.5 15.5t-18.5 38.5v344h-37q-27 0 -41 18t-14 39t13.5 38t41.5 17h37v22q0 33 3 54.5t11 40.5q17 41 58 67.5t95 26.5q45 0 74 -14.5t29 -46.5q0 -20 -14 -38.5t-37 -18.5q-7 0 -13 1t-11 2l-10 2t-13 1q-23 0 -34 -14t-11 -46
v-495z" />
    <glyph glyph-name="tcaron" unicode="&#x165;" horiz-adv-x="420" 
d="M472 665q0 -11 -2.5 -26.5t-6 -32t-8.5 -33.5t-11 -31q-8 -19 -22 -27.5t-30 -8.5q-20 0 -36.5 13t-16.5 38q0 2 0.5 7.5t3.5 16.5q5 20 8.5 41t6.5 47t20.5 38.5t37.5 12.5q21 0 38.5 -14t17.5 -41zM364 66q0 -28 -31 -48t-83 -20t-89.5 25t-51.5 69q-6 19 -8.5 39.5
t-2.5 55.5v209h-38q-25 0 -39.5 18t-14.5 38q0 21 14.5 38.5t39.5 17.5h38v81q0 23 19 39.5t45 16.5t44.5 -16.5t18.5 -39.5v-81h80q25 0 39.5 -17.5t14.5 -38.5q0 -20 -14.5 -38t-39.5 -18h-80v-214q0 -39 14 -54t30 -15q8 0 13 1l10 2t11 2t13 1q23 0 35.5 -16t12.5 -37z
" />
    <glyph glyph-name="tbar" unicode="&#x167;" horiz-adv-x="368" 
d="M364 66q0 -28 -31 -48t-83 -20t-89.5 25t-51.5 69q-6 19 -8.5 39.5t-2.5 55.5v32h-22q-26 0 -39 16t-13 35t13 34t39 15h22v77h-38q-25 0 -39.5 18t-14.5 38q0 21 14.5 38.5t39.5 17.5h38v81q0 23 19 39.5t45 16.5t44.5 -16.5t18.5 -39.5v-81h80q25 0 39.5 -17.5
t14.5 -38.5q0 -20 -14.5 -38t-39.5 -18h-80v-77h60q26 0 39 -15t13 -34t-13 -35t-39 -16h-60v-37q0 -39 14 -54t30 -15q8 0 13 1l10 2t11 2t13 1q23 0 35.5 -16t12.5 -37z" />
    <glyph glyph-name="uni021B" unicode="&#x21b;" horiz-adv-x="368" 
d="M244 -81q0 -12 -3 -33.5t-11 -38.5q-8 -18 -23 -27.5t-31 -9.5q-20 0 -35.5 13.5t-15.5 36.5q0 18 1.5 33.5l3.5 35.5q3 23 20 35t37 12q22 0 39.5 -14t17.5 -43zM364 66q0 -28 -31 -48t-83 -20t-89.5 25t-51.5 69q-6 19 -8.5 39.5t-2.5 55.5v209h-38q-25 0 -39.5 18
t-14.5 38q0 21 14.5 38.5t39.5 17.5h38v81q0 23 19 39.5t45 16.5t44.5 -16.5t18.5 -39.5v-81h80q25 0 39.5 -17.5t14.5 -38.5q0 -20 -14.5 -38t-39.5 -18h-80v-214q0 -39 14 -54t30 -15q8 0 13 1l10 2t11 2t13 1q23 0 35.5 -16t12.5 -37z" />
    <glyph glyph-name="uni0163" unicode="&#x163;" horiz-adv-x="368" 
d="M297 -108q0 -33 -24 -57.5t-68 -24.5q-22 0 -38.5 4t-29.5 10t-19.5 15.5t-6.5 18.5q0 11 7.5 21t22.5 10q4 0 7.5 -1t11.5 -5t18 -7.5t21 -3.5q9 0 16 5t7 15q0 6 -4.5 12t-12.5 8l-43 6q-17 2 -24 10.5t-7 19.5q0 7 2 13.5t6 16.5l12 32q4 10 7 13q-35 24 -49 68
q-6 19 -8.5 39.5t-2.5 55.5v210h-38q-25 0 -39.5 18t-14.5 38q0 21 14.5 38.5t39.5 17.5h38v81q0 23 19 39.5t45 16.5t44.5 -16.5t18.5 -39.5v-81h80q25 0 39.5 -17.5t14.5 -38.5q0 -20 -14.5 -38t-39.5 -18h-80v-215q0 -39 14 -54t30 -15q8 0 13 1l10 2t11 2t13 1
q23 0 35.5 -16t12.5 -37q0 -28 -31 -48t-83 -20q-18 0 -33 3l-8 -26q38 -3 63 -21.5t25 -60.5z" />
    <glyph glyph-name="utilde" unicode="&#x169;" horiz-adv-x="542" 
d="M187 198q0 -13 3.5 -28.5t12 -28.5t22.5 -22t35 -9q44 0 69.5 28t25.5 73v248q0 24 19 39t45 15t44.5 -15t18.5 -39v-407q0 -24 -19 -39t-45 -15q-23 0 -43 14t-20 40q-20 -21 -53.5 -37.5t-78.5 -16.5q-72 0 -117.5 51t-45.5 141v269q0 24 18.5 39t44.5 15t45 -15
t19 -39v-261zM301 668q7 -5 10.5 -6.5t5.5 -1.5q8 0 13 9l3 5q7 11 17.5 18t25.5 7q17 0 32.5 -11.5t15.5 -35.5q0 -12 -5 -27.5t-16.5 -30t-30 -24.5t-44.5 -10q-30 0 -52.5 11.5t-39.5 23.5q-7 5 -10.5 6.5t-5.5 1.5q-8 0 -13 -9l-3 -5q-7 -11 -17.5 -18t-25.5 -7
q-17 0 -32.5 11.5t-15.5 35.5q0 12 5 27.5t16.5 30t30 24.5t44.5 10q30 0 52.5 -11.5t39.5 -23.5z" />
    <glyph glyph-name="umacron" unicode="&#x16b;" horiz-adv-x="542" 
d="M187 198q0 -13 3.5 -28.5t12 -28.5t22.5 -22t35 -9q44 0 69.5 28t25.5 73v248q0 24 19 39t45 15t44.5 -15t18.5 -39v-407q0 -24 -19 -39t-45 -15q-23 0 -43 14t-20 40q-20 -21 -53.5 -37.5t-78.5 -16.5q-72 0 -117.5 51t-45.5 141v269q0 24 18.5 39t44.5 15t45 -15
t19 -39v-261zM167 580q-26 0 -39 16t-13 35t13 34t39 15h209q26 0 39 -15t13 -34t-13 -35t-39 -16h-209z" />
    <glyph glyph-name="ubreve" unicode="&#x16d;" horiz-adv-x="542" 
d="M187 198q0 -13 3.5 -28.5t12 -28.5t22.5 -22t35 -9q44 0 69.5 28t25.5 73v248q0 24 19 39t45 15t44.5 -15t18.5 -39v-407q0 -24 -19 -39t-45 -15q-23 0 -43 14t-20 40q-20 -21 -53.5 -37.5t-78.5 -16.5q-72 0 -117.5 51t-45.5 141v269q0 24 18.5 39t44.5 15t45 -15
t19 -39v-261zM271 545q-39 0 -65.5 13t-43.5 31t-24.5 38.5t-7.5 35.5q0 24 14 40t40 16q17 0 32 -10t18 -32l1 -7q2 -15 13 -22.5t24 -7.5q12 0 22.5 7t12.5 23l1 7q3 22 18 32t32 10q23 0 38.5 -13.5t15.5 -42.5q0 -15 -7.5 -35.5t-24.5 -38.5t-43.5 -31t-65.5 -13z" />
    <glyph glyph-name="uring" unicode="&#x16f;" horiz-adv-x="542" 
d="M187 198q0 -13 3.5 -28.5t12 -28.5t22.5 -22t35 -9q44 0 69.5 28t25.5 73v248q0 24 19 39t45 15t44.5 -15t18.5 -39v-407q0 -24 -19 -39t-45 -15q-23 0 -43 14t-20 40q-20 -21 -53.5 -37.5t-78.5 -16.5q-72 0 -117.5 51t-45.5 141v269q0 24 18.5 39t44.5 15t45 -15
t19 -39v-261zM183 631q0 18 7 34t19 28t28 19t34 7t34 -7t28 -19t19 -28t7 -34t-7 -34t-19 -28.5t-28 -19.5t-34 -7t-34 7t-28 19.5t-19 28.5t-7 34zM237 631q0 -16 9 -26.5t25 -10.5q15 0 24 10.5t9 26.5q0 14 -9 24.5t-24 10.5q-16 0 -25 -10.5t-9 -24.5z" />
    <glyph glyph-name="uhungarumlaut" unicode="&#x171;" horiz-adv-x="542" 
d="M187 198q0 -13 3.5 -28.5t12 -28.5t22.5 -22t35 -9q44 0 69.5 28t25.5 73v248q0 24 19 39t45 15t44.5 -15t18.5 -39v-407q0 -24 -19 -39t-45 -15q-23 0 -43 14t-20 40q-20 -21 -53.5 -37.5t-78.5 -16.5q-72 0 -117.5 51t-45.5 141v269q0 24 18.5 39t44.5 15t45 -15
t19 -39v-261zM189 700q19 19 39 19q21 0 37.5 -16t16.5 -37q0 -20 -17 -37l-70 -68q-19 -19 -39 -19q-21 0 -37.5 16t-16.5 37q0 20 17 37zM372 700q19 19 39 19q21 0 37.5 -16t16.5 -37q0 -20 -17 -37l-70 -68q-19 -19 -39 -19q-21 0 -37.5 16t-16.5 37q0 20 17 37z" />
    <glyph glyph-name="uogonek" unicode="&#x173;" horiz-adv-x="542" 
d="M223 -2q-72 0 -117.5 51t-45.5 141v269q0 24 18.5 39t44.5 15t45 -15t19 -39v-261q0 -13 3.5 -28.5t12 -28.5t22.5 -22t35 -9q44 0 69.5 28t25.5 73v248q0 24 19 39t45 15t45 -15t19 -39v-304q0 -17 3.5 -28.5t9.5 -19.5q17 -23 17 -46q0 -40 -44 -68q-23 -15 -37 -26
t-21 -18.5t-9 -13.5t-2 -12q0 -10 6 -13.5t13 -3.5q11 0 30 13q12 8 21 12.5t20 4.5q17 0 30 -13.5t13 -33.5q0 -13 -8.5 -25t-22.5 -22q-18 -12 -40.5 -21t-57.5 -9q-54 0 -82 25.5t-28 62.5q0 38 23.5 65t68.5 57q-8 7 -14 15t-11 19q-11 -12 -26.5 -22.5t-34 -18.5
t-38.5 -12.5t-39 -4.5z" />
    <glyph glyph-name="wcircumflex" unicode="&#x175;" horiz-adv-x="798" 
d="M771 458q0 -14 -4.5 -28t-8.5 -28l-54.5 -180.5t-59.5 -169.5q-11 -30 -31 -42.5t-42 -12.5t-42.5 12t-33.5 40q-8 17 -17.5 40.5l-21.5 55l-26.5 73l-32.5 94.5l-34.5 -100.5l-27.5 -75t-21 -53l-15 -35.5q-12 -27 -32.5 -39t-42.5 -12q-21 0 -41 12.5t-32 44.5
q-35 91 -61.5 178l-46.5 155q-5 18 -8.5 29.5t-5 19t-2 12.5t-0.5 10q0 23 18 39t44 16q21 0 37.5 -10t22.5 -31l19 -70l19 -69l21.5 -72.5l25.5 -79.5l25.5 75.5l27 78l25.5 72.5t23 60q11 25 27 35.5t36 10.5t36.5 -10.5t26.5 -34.5l25.5 -66.5l29 -76.5l28.5 -76.5
l25 -67.5q15 51 34 123.5l45 167.5q6 21 22.5 31t37.5 10q26 0 44.5 -16t18.5 -39zM343 559q-18 -17 -39 -17q-20 0 -33.5 14.5t-13.5 34.5q0 9 4.5 20t20.5 25l70 63q21 20 47 20t47 -20l70 -63q16 -14 20.5 -25t4.5 -20q0 -20 -13.5 -34.5t-33.5 -14.5q-21 0 -39 17
l-56 52z" />
    <glyph glyph-name="wgrave" unicode="&#x1e81;" horiz-adv-x="798" 
d="M771 458q0 -14 -4.5 -28t-8.5 -28l-54.5 -180.5t-59.5 -169.5q-11 -30 -31 -43.5t-42 -13.5t-42.5 13t-33.5 41q-8 17 -17.5 40.5l-21.5 55l-26.5 73l-32.5 94.5l-34.5 -100.5l-27.5 -75t-21 -53l-15 -35.5q-12 -27 -32.5 -40t-42.5 -13q-21 0 -41 13.5t-32 45.5
q-35 91 -61.5 178l-46.5 155q-5 18 -8.5 29.5t-5 19t-2 12.5t-0.5 10q0 23 18 39t44 16q21 0 37.5 -10t22.5 -31l19 -70l19 -69l21.5 -72.5l25.5 -79.5l25.5 75.5l27 78l25.5 72.5t23 60q11 25 27 35.5t36 10.5t36.5 -10.5t26.5 -34.5l25.5 -66.5l29 -76.5l28.5 -76.5
l25 -67.5q15 51 34 123.5l45 167.5q6 21 22.5 31t37.5 10q26 0 44.5 -16t18.5 -39zM322 612q-20 11 -28.5 25.5t-8.5 28.5q0 20 15 34.5t38 14.5q8 0 16.5 -2t16.5 -7l105 -61q20 -12 28.5 -26t8.5 -28q0 -20 -15 -34.5t-38 -14.5q-8 0 -16.5 2t-16.5 7z" />
    <glyph glyph-name="wacute" unicode="&#x1e83;" horiz-adv-x="798" 
d="M771 458q0 -14 -4.5 -28t-8.5 -28l-54.5 -180.5t-59.5 -169.5q-11 -30 -31 -43.5t-42 -13.5t-42.5 13t-33.5 41q-8 17 -17.5 40.5l-21.5 55l-26.5 73l-32.5 94.5l-34.5 -100.5l-27.5 -75t-21 -53l-15 -35.5q-12 -27 -32.5 -40t-42.5 -13q-21 0 -41 13.5t-32 45.5
q-35 91 -61.5 178l-46.5 155q-5 18 -8.5 29.5t-5 19t-2 12.5t-0.5 10q0 23 18 39t44 16q21 0 37.5 -10t22.5 -31l19 -70l19 -69l21.5 -72.5l25.5 -79.5l25.5 75.5l27 78l25.5 72.5t23 60q11 25 27 35.5t36 10.5t36.5 -10.5t26.5 -34.5l25.5 -66.5l29 -76.5l28.5 -76.5
l25 -67.5q15 51 34 123.5l45 167.5q6 21 22.5 31t37.5 10q26 0 44.5 -16t18.5 -39zM427 710q8 5 16.5 7t16.5 2q23 0 38 -14.5t15 -34.5q0 -14 -8.5 -28t-28.5 -26l-105 -61q-8 -5 -16.5 -7t-16.5 -2q-23 0 -38 14.5t-15 34.5q0 14 8.5 28.5t28.5 25.5z" />
    <glyph glyph-name="wdieresis" unicode="&#x1e85;" horiz-adv-x="798" 
d="M771 458q0 -14 -4.5 -28t-8.5 -28l-54.5 -180.5t-59.5 -169.5q-11 -30 -31 -43.5t-42 -13.5t-42.5 13t-33.5 41q-8 17 -17.5 40.5l-21.5 55l-26.5 73l-32.5 94.5l-34.5 -100.5l-27.5 -75t-21 -53l-15 -35.5q-12 -27 -32.5 -40t-42.5 -13q-21 0 -41 13.5t-32 45.5
q-35 91 -61.5 178l-46.5 155q-5 18 -8.5 29.5t-5 19t-2 12.5t-0.5 10q0 23 18 39t44 16q21 0 37.5 -10t22.5 -31l19 -70l19 -69l21.5 -72.5l25.5 -79.5l25.5 75.5l27 78l25.5 72.5t23 60q11 25 27 35.5t36 10.5t36.5 -10.5t26.5 -34.5l25.5 -66.5l29 -76.5l28.5 -76.5
l25 -67.5q15 51 34 123.5l45 167.5q6 21 22.5 31t37.5 10q26 0 44.5 -16t18.5 -39zM240 631q0 26 18 44t44 18t44 -18t18 -44t-18 -44t-44 -18t-44 18t-18 44zM433 631q0 26 18 44t44 18t44 -18t18 -44t-18 -44t-44 -18t-44 18t-18 44z" />
    <glyph glyph-name="ycircumflex" unicode="&#x177;" horiz-adv-x="504" 
d="M284 -34q-22 -45 -43.5 -75t-43 -48t-43 -25.5t-43.5 -7.5q-30 0 -46 18.5t-16 38.5q0 16 10 31t34 26q13 6 23.5 12.5t19.5 16t18 23t20 33.5l15 28l-17 35q-38 77 -73 165.5l-69 182.5q-4 11 -6.5 19.5t-2.5 16.5q0 26 20 41.5t45 15.5q17 0 32.5 -9t23.5 -27
q29 -73 55 -147t58 -149l22.5 58l23.5 64l26 74.5l31 90.5q8 23 23 34t41 11q28 0 44.5 -17.5t16.5 -38.5q0 -8 -3.5 -22.5t-12.5 -39.5q-32 -86 -69.5 -177.5t-77.5 -176.5zM197 559q-18 -17 -39 -17q-20 0 -33.5 14.5t-13.5 34.5q0 9 4.5 20t20.5 25l70 63q21 20 47 20
t47 -20l70 -63q16 -14 20.5 -25t4.5 -20q0 -20 -13.5 -34.5t-33.5 -14.5q-21 0 -39 17l-56 52z" />
    <glyph glyph-name="ygrave" unicode="&#x1ef3;" horiz-adv-x="504" 
d="M284 -34q-22 -45 -43.5 -75t-43 -48t-43 -25.5t-43.5 -7.5q-30 0 -46 18.5t-16 38.5q0 16 10 31t34 26q13 6 23.5 12.5t19.5 16t18 23t20 33.5l15 28l-17 35q-38 77 -73 165.5l-69 182.5q-4 11 -6.5 19.5t-2.5 16.5q0 26 20 41.5t45 15.5q17 0 32.5 -9t23.5 -27
q29 -73 55 -147t58 -149l22.5 58l23.5 64l26 74.5l31 90.5q8 23 23 34t41 11q28 0 44.5 -17.5t16.5 -38.5q0 -8 -3.5 -22.5t-12.5 -39.5q-32 -86 -69.5 -177.5t-77.5 -176.5zM175 612q-20 11 -28.5 25.5t-8.5 28.5q0 20 15 34.5t38 14.5q8 0 16.5 -2t16.5 -7l105 -61
q20 -12 28.5 -26t8.5 -28q0 -20 -15 -34.5t-38 -14.5q-8 0 -16.5 2t-16.5 7z" />
    </font>
</defs>
</svg>
