<?xml version="1.0" standalone="no"?>
<!DOCTYPE svg PUBLIC "-//W3C//DTD SVG 1.1//EN" "http://www.w3.org/Graphics/SVG/1.1/DTD/svg11.dtd" >
<svg>
<metadata>
Created by FontForge 20090622 at Mon Oct 10 14:58:50 2016
 By deploy user
Copyright (c) 2011 by The Bank of Nova Scotia. All rights reserved.
</metadata>
<defs>
<font id="ScotiabankModern" horiz-adv-x="574" >
  <font-face 
    font-family="Scotiabank Modern"
    font-weight="400"
    font-stretch="normal"
    units-per-em="1000"
    panose-1="2 0 0 0 0 0 0 0 0 0"
    ascent="769"
    descent="-231"
    x-height="499"
    cap-height="693"
    bbox="-170 -190 989 900"
    underline-thickness="70"
    underline-position="-80"
    unicode-range="U+000D-U+FB04"
  />
<missing-glyph horiz-adv-x="500" 
d="M30 5v709h440v-709h-440zM91 66h318v586h-318v-586z" />
    <glyph glyph-name="fi" unicode="fi" horiz-adv-x="533" 
d="M319 674q0 -14 -9 -23t-22 -9t-23 3t-30 3q-29 0 -47 -21.5t-18 -73.5v-49h102q14 0 23.5 -10.5t9.5 -24.5t-9.5 -24.5t-23.5 -10.5h-102v-398q0 -17 -11.5 -27.5t-28.5 -10.5t-28.5 10.5t-11.5 27.5v398h-41q-14 0 -23.5 10.5t-9.5 24.5t9.5 24.5t23.5 10.5h41v34
q0 33 3 54t10 39q15 38 49 62.5t80 24.5q17 0 27.5 -1.5t23.5 -5.5q16 -5 26 -14t10 -23zM467 36q0 -17 -11.5 -27.5t-28.5 -10.5t-28.5 10.5t-11.5 27.5v432q0 17 11.5 27.5t28.5 10.5t28.5 -10.5t11.5 -27.5v-432zM472 654q0 -18 -12 -32t-33 -14q-20 0 -32.5 14t-12.5 32
t12 32t33 14t33 -14t12 -32z" />
    <glyph glyph-name="fl" unicode="fl" horiz-adv-x="533" 
d="M319 674q0 -14 -9 -23t-22 -9t-22.5 3t-30.5 3q-29 0 -47 -21.5t-18 -73.5v-49h102q14 0 23.5 -10.5t9.5 -24.5t-9.5 -24.5t-23.5 -10.5h-102v-398q0 -17 -11.5 -27.5t-28.5 -10.5t-28.5 10.5t-11.5 27.5v398h-41q-14 0 -23.5 10.5t-9.5 24.5t9.5 24.5t23.5 10.5h41v34
q0 33 3 54t10 39q15 38 49 62.5t80 24.5q17 0 27.5 -1.5t23.5 -5.5q16 -5 26 -14t10 -23zM467 36q0 -17 -11.5 -27.5t-28.5 -10.5t-28.5 10.5t-11.5 27.5v643q0 17 11.5 27.5t28.5 10.5t28.5 -10.5t11.5 -27.5v-643z" />
    <glyph glyph-name=".notdef" horiz-adv-x="500" 
d="M30 5v709h440v-709h-440zM91 66h318v586h-318v-586z" />
    <glyph glyph-name="Eth" unicode="&#xd0;" horiz-adv-x="667" 
d="M75 382v262q0 16 12 29t29 13h156q54 0 88.5 -7t63.5 -21q41 -19 76.5 -49.5t61.5 -70.5t40.5 -88.5t14.5 -104.5q0 -51 -12.5 -96.5t-35 -83.5t-53.5 -68.5t-67 -51.5q-34 -20 -74 -30t-98 -10h-161q-17 0 -29 10t-12 24v273h-31q-14 0 -24.5 10.5t-10.5 24.5t10.5 24.5
t24.5 10.5h31zM159 613v-231h82q14 0 24.5 -10.5t10.5 -24.5t-10.5 -24.5t-24.5 -10.5h-82v-234h120q46 0 76 8t53 22q54 34 86.5 94.5t32.5 142.5q0 44 -10.5 83t-29 70.5t-44.5 55.5t-56 39q-20 10 -44.5 15t-68.5 5h-115z" />
    <glyph glyph-name="eth" unicode="&#xf0;" horiz-adv-x="543" 
d="M189 543q-9 -4 -19 -4q-16 0 -25 10t-9 23q0 17 18 28l60 32q-19 7 -39.5 12.5t-37.5 7.5q-14 2 -23 12t-9 22q0 14 10.5 23.5t25.5 9.5q37 0 75.5 -12t75.5 -34l76 40q10 6 20 6q15 0 25 -10t10 -23q0 -18 -20 -29l-51 -27q63 -56 105 -145.5t42 -210.5
q0 -85 -26 -139.5t-62 -85.5t-74.5 -42.5t-64.5 -11.5q-56 0 -99 22.5t-71.5 58t-43 80t-14.5 88.5q0 54 16 100t43.5 79t66 52t83.5 19t79 -16.5t59 -41.5q-17 47 -45 86.5t-66 68.5zM127 244q0 -36 8.5 -68.5t26 -57t45 -39t65.5 -14.5q17 0 41.5 8.5t47.5 31.5t39.5 63.5
t16.5 105.5q0 27 -9.5 54.5t-28 49t-45.5 35.5t-61 14q-37 0 -64.5 -15t-45.5 -40.5t-27 -58.5t-9 -69z" />
    <glyph glyph-name="Lslash" unicode="&#x141;" horiz-adv-x="490" 
d="M75 242l-26 -15q-10 -6 -15.5 -7.5t-10.5 -1.5q-13 0 -23.5 9.5t-10.5 24.5q0 10 6 19.5t22 17.5l58 30v334q0 17 12.5 28.5t29.5 11.5t29.5 -11.5t12.5 -28.5v-294l117 65q12 7 18 8.5t12 1.5q13 0 22.5 -10t9.5 -25q0 -21 -25 -35l-154 -81v-205h260q16 0 27 -10
t11 -27q0 -15 -11 -25.5t-27 -10.5h-303q-17 0 -29 13t-12 28v196z" />
    <glyph glyph-name="lslash" unicode="&#x142;" horiz-adv-x="244" 
d="M161 417l30 18q11 6 16 7.5t9 1.5q14 0 24 -10.5t10 -25.5q0 -21 -24 -34l-65 -34v-304q0 -17 -11.5 -27.5t-28.5 -10.5t-28.5 10.5t-11.5 27.5v265l-28 -17q-11 -6 -16 -7.5t-10 -1.5q-12 0 -22 9.5t-10 24.5q0 10 5 19t19 16l62 33v302q0 17 11.5 27.5t28.5 10.5
t28.5 -10.5t11.5 -27.5v-262z" />
    <glyph glyph-name="Scaron" unicode="&#x160;" horiz-adv-x="535" 
d="M265 -5q-73 0 -128 29.5t-88 80.5q-8 13 -10.5 21.5t-2.5 16.5q0 14 10.5 26.5t27.5 12.5q11 0 20.5 -6t18.5 -20q6 -9 14.5 -20.5t17.5 -21.5q19 -20 48 -33t69 -13q27 0 52.5 7.5t45.5 22.5t32 36t12 48q0 42 -31 71.5t-100 52.5l-46 15q-96 32 -135.5 81.5
t-39.5 110.5q0 41 16.5 75t45.5 58t68.5 37t86.5 13t82.5 -13t61.5 -32q28 -21 42 -43t14 -37q0 -18 -12.5 -29t-25.5 -11q-14 0 -22.5 6t-24.5 27q-20 27 -49.5 42.5t-72.5 15.5q-26 0 -49.5 -7.5t-41.5 -21.5t-28.5 -34t-10.5 -45q0 -22 8 -38.5t25 -30.5t44 -26.5
t65 -25.5l45 -16q92 -33 129 -81.5t37 -110.5q0 -45 -20 -80.5t-51.5 -59.5t-70.5 -37t-78 -13zM269 818l70 64q12 9 23 9q14 0 23 -9.5t9 -22.5q0 -15 -16 -30l-84 -76q-11 -10 -25 -10t-25 10l-84 76q-9 8 -13 16t-4 16q0 13 9 21.5t22 8.5t25 -9z" />
    <glyph glyph-name="scaron" unicode="&#x161;" horiz-adv-x="430" 
d="M375 410q0 -16 -11 -25t-26 -9q-11 0 -20 5.5t-14 11.5q-10 12 -19 19q-33 27 -74 27q-25 0 -42 -6t-28 -15.5t-16 -21t-5 -21.5q0 -23 17.5 -42t68.5 -38l16 -6q48 -15 79 -32t49.5 -36t26 -40t7.5 -43q0 -34 -14.5 -60.5t-38.5 -45t-54.5 -28t-62.5 -9.5q-67 0 -122 35
q-22 14 -39 34t-17 39q0 17 10 28t24 11q17 0 29 -12q7 -6 18 -19t30 -27q12 -8 28.5 -13.5t43.5 -5.5q15 0 30.5 4t27.5 12.5t20 21.5t8 31q0 23 -23 42.5t-89 41.5l-15 6q-74 24 -104.5 60.5t-30.5 82.5q0 32 13.5 58t37 45t55.5 29t69 10q26 0 52 -7t47 -20
q20 -13 38.5 -32t19.5 -40zM214 636l70 64q12 9 23 9q14 0 23 -9.5t9 -22.5q0 -15 -16 -30l-84 -76q-11 -10 -25 -10t-25 10l-84 76q-9 8 -13 16t-4 16q0 13 9 21.5t22 8.5t25 -9z" />
    <glyph glyph-name="Yacute" unicode="&#xdd;" horiz-adv-x="584" 
d="M249 290l-59 89l-62 94l-56 86t-41 65q-9 16 -9 27q0 14 11 28t31 14q8 0 18 -4t17 -15l36.5 -58.5l49 -77l55 -84l54.5 -78.5q11 15 27.5 39.5l35.5 53.5l38 60l36.5 58.5l31 50t21.5 34.5t17 16.5t20 4.5q19 0 30 -14t11 -28q0 -13 -12 -32l-83 -127l-35.5 -54
l-36.5 -54.5l-34 -50.5l-28 -43v-252q0 -17 -12.5 -28.5t-29.5 -11.5t-29.5 11.5t-12.5 28.5v252zM335 889q16 11 30 11q17 0 26.5 -11t9.5 -25q0 -18 -13 -30l-99 -79q-16 -11 -30 -11q-16 0 -26.5 11.5t-10.5 25.5q0 17 14 28z" />
    <glyph glyph-name="yacute" unicode="&#xfd;" horiz-adv-x="500" 
d="M189 74q-45 93 -84.5 186.5t-74.5 185.5q-3 8 -4 13t-1 10q0 14 11 25.5t28 11.5q11 0 22 -6.5t16 -20.5q34 -89 73.5 -182t79.5 -178q18 39 36.5 83.5l37 91l36 93.5l33.5 92q4 11 13.5 19t23.5 8q17 0 28.5 -12t11.5 -26q0 -3 -1 -9t-3 -12q-39 -106 -86 -216
t-104 -224l-22 -44q-22 -44 -42.5 -73.5t-40 -46.5t-38.5 -24t-38 -7q-16 0 -26.5 12t-10.5 26q0 12 5.5 22t20.5 17l3 1q17 7 29 13.5t23 17t22 27.5t25 45l19 37zM294 707q16 11 30 11q17 0 26.5 -11t9.5 -25q0 -18 -13 -30l-99 -79q-16 -11 -30 -11q-16 0 -26.5 11.5
t-10.5 25.5q0 17 14 28z" />
    <glyph glyph-name="Thorn" unicode="&#xde;" horiz-adv-x="530" 
d="M75 653q0 17 12.5 28.5t29.5 11.5t29.5 -11.5t12.5 -28.5v-108h122q56 0 96.5 -17t67 -45t39 -63t12.5 -71q0 -38 -13.5 -75t-40.5 -67t-67.5 -48.5t-94.5 -18.5h-121v-102q0 -17 -12.5 -28.5t-29.5 -11.5t-29.5 11.5t-12.5 28.5v615zM159 472v-259h121q33 0 57 11.5
t40 31t23.5 43.5t7.5 50q0 22 -7 44t-22 39.5t-39.5 28.5t-58.5 11h-122z" />
    <glyph glyph-name="thorn" unicode="&#xfe;" horiz-adv-x="544" 
d="M146 444q27 31 63 48t79 17q48 0 87.5 -21t67 -56.5t43 -82t15.5 -97.5q0 -50 -15 -96.5t-43 -82t-67 -57t-88 -21.5q-43 0 -79 17.5t-63 47.5v-210q0 -17 -11.5 -27.5t-28.5 -10.5t-28.5 10.5t-11.5 27.5v829q0 17 11.5 27.5t28.5 10.5t28.5 -10.5t11.5 -27.5v-235z
M281 439q-29 0 -61.5 -14t-52.5 -39q-10 -12 -15.5 -30t-5.5 -53v-85q0 -44 6 -64.5t16 -33.5q19 -25 50 -40t63 -15t57 14.5t42.5 40t26.5 59.5t9 74q0 39 -9 73t-26.5 59t-42.5 39.5t-57 14.5z" />
    <glyph glyph-name="nonmarkingreturn" unicode="&#xd;" horiz-adv-x="296" 
 />
    <glyph glyph-name="Zcaron" unicode="&#x17d;" horiz-adv-x="588" 
d="M48 50q0 9 3.5 17.5t12.5 22.5l88 130l89.5 126l92.5 128.5l97 138.5h-338q-17 0 -26.5 11t-9.5 25q0 17 10 27t26 10h400q17 0 29 -12.5t12 -29.5q0 -9 -2 -17.5t-9 -19.5q-64 -95 -146 -204.5l-169 -235.5l-62 -89h361q15 0 26 -10t11 -25q0 -17 -10 -27.5t-27 -10.5
h-418q-18 0 -29.5 13.5t-11.5 31.5zM295 818l70 64q12 9 23 9q14 0 23 -9.5t9 -22.5q0 -15 -16 -30l-84 -76q-11 -10 -25 -10t-25 10l-84 76q-9 8 -13 16t-4 16q0 13 9 21.5t22 8.5t25 -9z" />
    <glyph glyph-name="zcaron" unicode="&#x17e;" horiz-adv-x="444" 
d="M72 5q-19 0 -27.5 13.5t-8.5 24.5q0 7 4.5 17t17.5 31q52 84 115.5 167t123.5 171h-228q-15 0 -24 10.5t-9 24.5t8.5 24.5t24.5 10.5h296q19 0 27.5 -13.5t8.5 -24.5q0 -7 -4 -17.5t-19 -30.5l-172 -233l-23 -31.5t-18 -25.5l-16 -23.5l-17 -24.5h245q15 0 24 -10.5
t9 -24.5t-9 -24.5t-24 -10.5h-305zM223 636l70 64q12 9 23 9q14 0 23 -9.5t9 -22.5q0 -15 -16 -30l-84 -76q-11 -10 -25 -10t-25 10l-84 76q-9 8 -13 16t-4 16q0 13 9 21.5t22 8.5t25 -9z" />
    <glyph glyph-name="onehalf" unicode="&#xbd;" horiz-adv-x="840" 
d="M276 369q14 0 22.5 -9.5t8.5 -20.5q0 -12 -8.5 -21.5t-22.5 -9.5h-197q-14 0 -22.5 9.5t-8.5 21.5q0 11 8.5 20.5t22.5 9.5h65v242l-42 -25q-14 -9 -24 -9q-17 0 -24.5 9t-7.5 20q0 6 4.5 15t18.5 17l82 49q15 9 27 9q17 0 27 -10.5t10 -27.5v-289h61zM239 13
q-8 -11 -16.5 -14.5t-16.5 -3.5q-14 0 -25 9t-11 24q0 11 5 20t12 19l418 609q8 12 16.5 16t16.5 4q14 0 25 -9t11 -25q0 -8 -5 -18t-12 -20zM582 261q2 -8 2 -13q0 -16 -9.5 -23.5t-22.5 -7.5q-9 0 -18.5 6.5t-14.5 18.5q-5 14 -5 31q0 22 9.5 42t27 36t41 25.5t51.5 9.5
q30 0 55 -9.5t42.5 -25.5t27 -38t9.5 -47q0 -23 -9.5 -45t-26 -43.5t-39 -42.5t-47.5 -41l-41 -33h143q15 0 25 -7.5t10 -22.5q0 -12 -10 -21.5t-25 -9.5h-197q-19 0 -31 10.5t-12 24.5q0 12 5 20.5t16 17.5l80 67q41 34 64.5 63.5t23.5 62.5q0 24 -17 42t-47 18
q-28 0 -45 -16.5t-17 -32.5q0 -5 0.5 -8.5t1.5 -7.5z" />
    <glyph glyph-name="onequarter" unicode="&#xbc;" horiz-adv-x="840" 
d="M629 82h-130q-18 0 -30.5 11.5t-12.5 28.5q0 5 1.5 10.5t5.5 10.5l35 55l39 58.5l39.5 57l36.5 50.5q8 11 21 16.5t24 5.5q17 0 29.5 -10.5t12.5 -30.5v-202h33q14 0 24 -7.5t10 -22.5q0 -14 -10 -22.5t-24 -8.5h-33v-54q0 -14 -10 -23.5t-25 -9.5t-25.5 9.5t-10.5 23.5
v54zM239 13q-8 -11 -16.5 -14.5t-16.5 -3.5q-14 0 -25 9t-11 24q0 11 5 20t12 19l418 609q8 12 16.5 16t16.5 4q14 0 25 -9t11 -25q0 -8 -5 -18t-12 -20zM276 369q14 0 22.5 -9.5t8.5 -20.5q0 -12 -8.5 -21.5t-22.5 -9.5h-197q-14 0 -22.5 9.5t-8.5 21.5q0 11 8.5 20.5
t22.5 9.5h65v242l-42 -25q-14 -9 -24 -9q-17 0 -24.5 9t-7.5 20q0 6 4.5 15t18.5 17l82 49q15 9 27 9q17 0 27 -10.5t10 -27.5v-289h61zM630 142v150l-100 -150h100z" />
    <glyph glyph-name="onesuperior" unicode="&#xb9;" horiz-adv-x="306" 
d="M254 369q14 0 22.5 -9.5t8.5 -20.5q0 -12 -8.5 -21.5t-22.5 -9.5h-197q-14 0 -22.5 9.5t-8.5 21.5q0 11 8.5 20.5t22.5 9.5h65v244l-42 -27q-14 -9 -26 -9q-14 0 -22 9t-8 22q0 7 4 14.5t13 12.5l88 52q15 9 27 9q17 0 27 -10.5t10 -27.5v-289h61v0z" />
    <glyph glyph-name="threequarters" unicode="&#xbe;" horiz-adv-x="840" 
d="M629 82h-130q-18 0 -30.5 11.5t-12.5 28.5q0 5 1.5 10.5t5.5 10.5l35 55l39 58.5l39.5 57l36.5 50.5q8 11 21 16.5t24 5.5q17 0 29.5 -10.5t12.5 -30.5v-202h33q14 0 24 -7.5t10 -22.5q0 -14 -10 -22.5t-24 -8.5h-33v-54q0 -14 -10 -23.5t-25 -9.5t-25.5 9.5t-10.5 23.5
v54zM239 13q-8 -11 -16.5 -14.5t-16.5 -3.5q-14 0 -25 9t-11 24q0 11 5 20t12 19l418 609q8 12 16.5 16t16.5 4q14 0 25 -9t11 -25q0 -8 -5 -18t-12 -20zM630 142v150l-100 -150h100zM284 651q0 -10 -3.5 -16.5t-9.5 -14.5l-64 -81q47 -14 70 -46t23 -66q0 -24 -9.5 -46
t-26.5 -39t-41.5 -27t-55.5 -10q-29 0 -53.5 9.5t-39.5 22.5q-17 14 -27 30.5t-10 30.5q0 9 7 19t23 10q21 0 33 -23q8 -14 25 -27t41 -13q18 0 30.5 6t21 15.5t12.5 20.5t4 21q0 23 -18 40t-51 20l-11 1q-11 1 -20 9t-9 22q0 5 2.5 12t10.5 18l62 78h-125q-14 0 -23.5 7.5
t-9.5 21.5q0 12 9.5 21t23.5 9h171q18 0 28 -10.5t10 -24.5z" />
    <glyph glyph-name="threesuperior" unicode="&#xb3;" horiz-adv-x="344" 
d="M284 651q0 -10 -3.5 -16.5t-9.5 -14.5l-64 -81q47 -14 70 -46t23 -66q0 -24 -9.5 -46t-26.5 -39t-41.5 -27t-55.5 -10q-29 0 -53.5 9.5t-39.5 22.5q-17 14 -27 30.5t-10 30.5q0 9 7 19t23 10q21 0 33 -23q8 -14 25 -27t41 -13q18 0 30.5 6t21 15.5t12.5 20.5t4 21
q0 23 -18 40t-51 20l-11 1q-11 1 -20 9t-9 22q0 5 2.5 12t10.5 18l62 78h-125q-14 0 -23.5 7.5t-9.5 21.5q0 12 9.5 21t23.5 9h171q18 0 28 -10.5t10 -24.5z" />
    <glyph glyph-name="twosuperior" unicode="&#xb2;" horiz-adv-x="344" 
d="M102 570q2 -8 2 -13q0 -16 -9.5 -22.5t-22.5 -6.5q-9 0 -17.5 6t-13.5 18q-5 14 -5 30q0 22 9.5 42t26.5 35.5t40.5 25t51.5 9.5q30 0 55 -9.5t42.5 -25.5t27 -38t9.5 -47q0 -23 -9.5 -45t-26 -43.5t-39 -42.5t-47.5 -41l-41 -33h143q15 0 25 -7.5t10 -22.5
q0 -12 -10 -21.5t-25 -9.5h-197q-20 0 -31 10.5t-11 24.5q0 20 20 36l80 67q41 34 65 64.5t24 63.5q0 24 -17.5 42t-47.5 18q-18 0 -30 -5.5t-19.5 -13t-10.5 -15.5t-3 -14q0 -5 0.5 -8.5t1.5 -7.5z" />
    <glyph glyph-name="brokenbar" unicode="&#xa6;" horiz-adv-x="280" 
d="M100 681q0 17 11.5 27.5t28.5 10.5t28.5 -10.5t11.5 -27.5v-291q0 -17 -11.5 -27.5t-28.5 -10.5t-28.5 10.5t-11.5 27.5v291zM100 141q0 17 11.5 27.5t28.5 10.5t28.5 -10.5t11.5 -27.5v-291q0 -17 -11.5 -27.5t-28.5 -10.5t-28.5 10.5t-11.5 27.5v291z" />
    <glyph glyph-name="minus" unicode="&#x2212;" 
d="M475 287q14 0 24.5 -10.5t10.5 -24.5t-10.5 -24.5t-24.5 -10.5h-376q-14 0 -24.5 10.5t-10.5 24.5t10.5 24.5t24.5 10.5h376z" />
    <glyph glyph-name="multiply" unicode="&#xd7;" 
d="M179 94q-9 -9 -21 -9q-15 0 -27 12t-12 26q0 11 10 21l109 108l-109 108q-11 11 -11 26q0 14 10.5 25t24.5 11q15 0 26 -12l108 -109l108 109q9 9 21 9q15 0 27 -12t12 -26q0 -11 -10 -21l-109 -108l109 -108q11 -11 11 -26q0 -14 -10.5 -25t-24.5 -11q-15 0 -26 12
l-108 109z" />
    <glyph glyph-name="space" unicode=" " horiz-adv-x="250" 
 />
    <glyph glyph-name="exclam" unicode="!" horiz-adv-x="234" 
d="M166 45q0 -21 -14 -35.5t-35 -14.5t-35 14.5t-14 35.5t14 35.5t35 14.5t35 -14.5t14 -35.5zM117 158q-17 0 -28.5 11t-11.5 28v89q0 163 -2 258t-2 109q0 17 13.5 28.5t30.5 11.5t30.5 -11.5t13.5 -28.5q0 -14 -2 -109t-2 -258v-89q0 -17 -11.5 -28t-28.5 -11z" />
    <glyph glyph-name="quotedbl" unicode="&#x22;" horiz-adv-x="340" 
d="M135 537q0 -17 -11.5 -27.5t-28.5 -10.5t-28.5 10.5t-11.5 27.5v140q0 17 11.5 27.5t28.5 10.5t28.5 -10.5t11.5 -27.5v-140zM285 537q0 -17 -11.5 -27.5t-28.5 -10.5t-28.5 10.5t-11.5 27.5v140q0 17 11.5 27.5t28.5 10.5t28.5 -10.5t11.5 -27.5v-140z" />
    <glyph glyph-name="numbersign" unicode="#" horiz-adv-x="671" 
d="M215 492l44 171q4 14 14 21t23 7q17 0 28.5 -10.5t11.5 -25.5q0 -9 -5 -27l-35 -136h151l44 171q4 14 14 21t23 7q17 0 28.5 -10.5t11.5 -25.5q0 -9 -5 -27l-35 -136h83q14 0 23.5 -10.5t9.5 -24.5t-9.5 -24.5t-23.5 -10.5h-100l-37 -145h120q14 0 23.5 -10.5t9.5 -24.5
t-9.5 -24.5t-23.5 -10.5h-137l-46 -182q-4 -14 -14 -21t-23 -7q-17 0 -28.5 10.5t-11.5 25.5q0 9 5 27l37 147h-151l-46 -182q-4 -14 -14 -21t-23 -7q-17 0 -28.5 10.5t-11.5 25.5q0 9 5 27l37 147h-86q-14 0 -23.5 10.5t-9.5 24.5t9.5 24.5t23.5 10.5h103l37 145h-123
q-14 0 -23.5 10.5t-9.5 24.5t9.5 24.5t23.5 10.5h140zM242 277h151l37 145h-151z" />
    <glyph glyph-name="dollar" unicode="$" 
d="M323 684q35 -4 60.5 -15t45.5 -26q26 -20 40.5 -40t14.5 -34q0 -17 -12.5 -27.5t-24.5 -10.5q-14 0 -22 5.5t-23 25.5t-33.5 35t-45.5 20v-240q50 -20 83.5 -41t53.5 -44t28 -48.5t8 -54.5q0 -38 -14.5 -68.5t-39 -53.5t-55.5 -37.5t-64 -19.5v-44q0 -17 -9.5 -26.5
t-26.5 -9.5t-26.5 9.5t-9.5 26.5v42q-58 6 -102 32.5t-72 69.5q-8 12 -10 20t-2 16q0 13 10 25.5t26 12.5q21 0 38 -25l14 -20t17 -21q14 -16 33 -28t48 -16v252q-49 18 -81.5 38.5t-52.5 43.5t-28.5 48.5t-8.5 53.5q0 30 11.5 58.5t33.5 52t53.5 40t72.5 22.5v46
q0 17 9.5 26.5t26.5 9.5t26.5 -9.5t9.5 -26.5v-45zM420 187q0 39 -26.5 69t-70.5 45v-227q41 8 69 36.5t28 76.5zM155 512q0 -42 27 -66.5t69 -40.5v213q-45 -7 -70.5 -36t-25.5 -70z" />
    <glyph glyph-name="percent" unicode="%" horiz-adv-x="700" 
d="M44 535q0 31 10.5 60t29.5 51.5t45.5 36t59.5 13.5q32 0 59 -13.5t46 -36t29.5 -51.5t10.5 -60t-10.5 -60t-29.5 -51t-46 -35.5t-59 -13.5q-33 0 -59.5 13.5t-45.5 35.5t-29.5 51t-10.5 60zM114 535q0 -20 4.5 -38.5t14 -33t23.5 -23.5t33 -9q18 0 32 9t23.5 23.5
t14.5 33t5 38.5q0 19 -5 38t-14.5 34t-23.5 24t-32 9q-19 0 -33 -9t-23.5 -24t-14 -34t-4.5 -38zM366 154q0 31 10.5 60t29.5 51.5t45.5 36t59.5 13.5q32 0 59 -13.5t46 -36t29.5 -51.5t10.5 -60t-10.5 -60t-29.5 -51t-46 -35.5t-59 -13.5q-33 0 -59.5 13.5t-45.5 35.5
t-29.5 51t-10.5 60zM436 154q0 -20 4.5 -38.5t14 -33t23.5 -23.5t33 -9q18 0 32 9t23.5 23.5t14.5 33t5 38.5q0 19 -5 38t-14.5 34t-23.5 24t-32 9q-19 0 -33 -9t-23.5 -24t-14 -34t-4.5 -38zM167 12q-8 -11 -16.5 -14.5t-16.5 -3.5q-14 0 -25 9t-11 24q0 11 5 20t12 19
l419 610q8 12 16.5 16t16.5 4q14 0 25 -9t11 -25q0 -8 -5 -18t-12 -20z" />
    <glyph glyph-name="ampersand" unicode="&#x26;" horiz-adv-x="679" 
d="M546 335q6 13 16 21t24 8q17 0 28.5 -12t11.5 -26q0 -3 -1 -9t-3 -12q-9 -20 -31.5 -63.5t-58.5 -90.5q9 -9 22 -20l26.5 -23l26.5 -23.5t23 -19.5q7 -5 10 -12.5t3 -15.5q0 -16 -12 -27t-29 -11t-28 10q-9 8 -22 18.5l-26.5 22l-26 22.5l-21.5 19q-41 -39 -91.5 -66.5
t-114.5 -27.5q-54 0 -95 16t-69.5 42.5t-43 60.5t-14.5 71q0 59 35 104t113 80l-14 15q-32 35 -48 69t-16 73q0 32 13 62t37 53.5t58 37.5t76 14q34 0 66.5 -11.5t58 -32.5t41 -50.5t15.5 -66.5q0 -104 -143 -170l-20 -9l16 -17q30 -32 65.5 -66l71.5 -69q29 40 46 77.5z
M246 320l-24 -11q-46 -20 -67 -50t-21 -72q0 -24 10 -45.5t28 -38t43.5 -26.5t56.5 -10q45 0 83 22t68 53l-81 78l-73 75zM203 529q0 -48 44 -95l28 -30l34 15q42 19 67.5 48t25.5 67q0 21 -8.5 38t-22 28.5t-31.5 18t-36 6.5q-19 0 -37 -6t-32.5 -18t-23 -30t-8.5 -42z" />
    <glyph glyph-name="quotesingle" unicode="'" horiz-adv-x="170" 
d="M125 537q0 -17 -11.5 -27.5t-28.5 -10.5t-28.5 10.5t-11.5 27.5v140q0 17 11.5 27.5t28.5 10.5t28.5 -10.5t11.5 -27.5v-140z" />
    <glyph glyph-name="parenleft" unicode="(" horiz-adv-x="338" 
d="M226 -169q-88 87 -132 199.5t-44 232.5q0 118 43 230.5t133 201.5q15 14 24 16.5t16 2.5q17 0 28 -10t11 -27q0 -9 -7 -19t-24 -28q-70 -74 -105.5 -169t-35.5 -198q0 -99 35 -195.5t106 -171.5q17 -18 24 -28t7 -19q0 -17 -11 -27t-28 -10q-7 0 -16 2.5t-24 16.5z" />
    <glyph glyph-name="parenright" unicode=")" horiz-adv-x="338" 
d="M112 -169q-15 -14 -24 -16.5t-16 -2.5q-17 0 -28 10t-11 27q0 9 7 19t24 28q71 75 106 171.5t35 195.5q0 103 -35.5 198t-105.5 169q-17 18 -24 28t-7 19q0 17 11 27t28 10q7 0 16 -2.5t24 -16.5q90 -89 133 -201.5t43 -230.5q0 -120 -44 -232.5t-132 -199.5z" />
    <glyph glyph-name="asterisk" unicode="*" horiz-adv-x="500" 
d="M250 460l-72 -98q-6 -9 -14 -12.5t-15 -3.5q-14 0 -24.5 9.5t-10.5 22.5q0 4 2 9.5t12 17.5l33 43.5l38 50.5l-115 38q-18 6 -23.5 14.5t-5.5 18.5q0 14 8.5 24t22.5 10q3 0 7.5 -0.5t15.5 -4.5l110 -42q0 3 -0.5 22t-1 41t-1 41.5t-0.5 23.5q0 17 10.5 25.5t23.5 8.5
t23.5 -8.5t10.5 -25.5q0 -4 -0.5 -23t-1 -41t-1 -41t-0.5 -23l110 42q11 4 15.5 4.5t7.5 0.5q14 0 22.5 -10t8.5 -24q0 -10 -5.5 -18.5t-23.5 -14.5l-115 -38l38 -50.5l33 -43.5q10 -12 12 -17.5t2 -9.5q0 -13 -10.5 -22.5t-24.5 -9.5q-7 0 -15 3.5t-14 12.5z" />
    <glyph glyph-name="plus" unicode="+" 
d="M102 217q-14 0 -23.5 10.5t-9.5 24.5t9.5 24.5t23.5 10.5h146v153q0 17 11 27.5t28 10.5t28 -10.5t11 -27.5v-153h146q14 0 23.5 -10.5t9.5 -24.5t-9.5 -24.5t-23.5 -10.5h-146v-153q0 -17 -11 -27.5t-28 -10.5t-28 10.5t-11 27.5v153h-146z" />
    <glyph glyph-name="comma" unicode="," horiz-adv-x="208" 
d="M84 4q-16 5 -24.5 16.5t-8.5 26.5q0 17 13 32.5t36 15.5q22 0 41.5 -18t19.5 -62q0 -32 -10 -63t-24 -54q-8 -13 -15.5 -16.5t-15.5 -3.5q-9 0 -19.5 7.5t-10.5 23.5q0 4 2 10t7 17l12.5 28t7.5 29q0 8 -11 11z" />
    <glyph glyph-name="hyphen" unicode="-" horiz-adv-x="314" 
d="M235 306q14 0 24.5 -10.5t10.5 -24.5t-10.5 -24.5t-24.5 -10.5h-156q-14 0 -24.5 10.5t-10.5 24.5t10.5 24.5t24.5 10.5h156z" />
    <glyph glyph-name="period" unicode="." horiz-adv-x="208" 
d="M153 45q0 -21 -14 -35.5t-35 -14.5t-35 14.5t-14 35.5t14 35.5t35 14.5t35 -14.5t14 -35.5z" />
    <glyph glyph-name="slash" unicode="/" horiz-adv-x="477" 
d="M116 -31q-7 -14 -17 -20t-21 -6q-14 0 -26 10t-12 27q0 8 2.5 17t12.5 30l306 664q13 28 38 28q16 0 27 -10t11 -27q0 -13 -7 -28z" />
    <glyph glyph-name="zero" unicode="0" 
d="M136 345q0 -53 9 -102.5t28 -88t47 -62t67 -23.5t67 23.5t47 62t28 88t9 102.5t-9 103t-28 89t-47 62.5t-67 23.5t-67 -23.5t-47 -62.5t-28 -89t-9 -103zM50 345q0 72 16 136t47 112t74.5 75.5t99.5 27.5q55 0 99 -27.5t75 -75.5t47 -112t16 -136t-16 -136t-47 -111
t-75 -74.5t-99 -27.5q-56 0 -99.5 27.5t-74.5 74.5t-47 111t-16 136z" />
    <glyph glyph-name="one" unicode="1" 
d="M494 77q14 0 23.5 -11t9.5 -25t-9.5 -25t-23.5 -11h-374q-14 0 -23.5 11t-9.5 25t9.5 25t23.5 11h152v525l-122 -74q-12 -8 -19.5 -10.5t-12.5 -2.5q-17 0 -26.5 10t-9.5 23q0 10 5 19.5t16 16.5l166 99q20 13 39 13q20 0 32 -14t12 -34v-571h142v0z" />
    <glyph glyph-name="two" unicode="2" 
d="M144 475q2 -7 2 -12v-7q0 -17 -11.5 -26.5t-26.5 -9.5q-12 0 -23 7t-16 22q-9 27 -9 54q0 38 15.5 73t44 61.5t68.5 42.5t88 16q51 0 92.5 -16t70 -44t44 -65.5t15.5 -80.5q0 -39 -15.5 -78t-43 -77t-65 -76t-81.5 -76l-43 -36.5l-40 -34.5l-42 -35h319q17 0 29 -9.5
t12 -26.5q0 -14 -12 -25t-29 -11h-372q-24 0 -40 15t-16 37q0 11 5 21t13 18l163 139q42 36 74.5 67t54.5 61t33.5 61t11.5 66q0 28 -10 52.5t-28 42.5t-43.5 28.5t-56.5 10.5t-56 -10t-42.5 -26.5t-27 -38.5t-9.5 -46q0 -6 0.5 -13.5t2.5 -14.5z" />
    <glyph glyph-name="three" unicode="3" 
d="M480 639q0 -14 -5.5 -24t-15.5 -23l-144 -181q51 -11 88 -32t61 -48.5t35.5 -59.5t11.5 -63q0 -42 -16.5 -80.5t-47 -68t-74.5 -47t-98 -17.5q-49 0 -90.5 15.5t-73.5 41.5q-14 12 -26 25.5t-20.5 27t-13.5 25.5t-5 20q0 14 9.5 26t27.5 12q17 0 27.5 -9t18.5 -25
q18 -35 55.5 -61t88.5 -26q40 0 69 13.5t47.5 34t27.5 45.5t9 48q0 53 -39 89.5t-114 47.5l-20 3q-12 2 -24.5 11.5t-12.5 26.5q0 8 2.5 16.5t10.5 17.5l154 194h-284q-18 0 -30 9.5t-12 26.5q0 14 12 25t30 11h328q25 0 39 -14t14 -33z" />
    <glyph glyph-name="four" unicode="4" 
d="M339 164h-256q-24 0 -40 15t-16 37q0 14 9 28l69 107.5l73 110l74 106.5l70 98q23 30 50 30q19 0 34 -12t15 -39v-409h89q16 0 27 -9.5t11 -26.5q0 -15 -11 -25.5t-27 -10.5h-89v-129q0 -17 -12 -28.5t-29 -11.5t-29 11.5t-12 28.5v129zM339 236v331l-65 -92l-61 -89
l-54 -81l-45 -69h225z" />
    <glyph glyph-name="five" unicode="5" 
d="M272 -5q-32 0 -61 8.5t-54.5 22.5t-45.5 33.5t-33 41.5q-13 20 -13 38q0 14 9 25.5t27 11.5q14 0 24.5 -8.5t18.5 -22.5q20 -37 51.5 -57.5t78.5 -20.5q37 0 64.5 13t46 34.5t27.5 48.5t9 55q0 25 -9 50.5t-27.5 45t-47 32t-68.5 12.5q-31 0 -58 -2t-60 -5h-4
q-17 0 -31.5 12t-14.5 32l36 260q2 13 13.5 22t27.5 9h281q17 0 28 -10.5t11 -24.5q0 -16 -11 -26.5t-28 -10.5h-249l-26 -187q17 1 38.5 1.5t46.5 0.5q62 0 106.5 -18t73.5 -47.5t43 -67.5t14 -78q0 -41 -16 -81t-46 -71.5t-73.5 -51t-98.5 -19.5z" />
    <glyph glyph-name="six" unicode="6" 
d="M305 358q-34 0 -68.5 -15.5t-59.5 -47.5q-24 -30 -24 -63q0 -12 2.5 -24t7.5 -25q18 -53 55.5 -84.5t89.5 -31.5q32 0 57 13t42 34t26 48t9 54q0 34 -11.5 60.5t-31 44.5t-44 27.5t-50.5 9.5zM525 219q0 -42 -15 -82t-43.5 -71.5t-70 -51t-94.5 -19.5t-97.5 23
t-76.5 66.5t-50.5 105t-18.5 138.5q0 69 16.5 135.5t49 118t81 83t113.5 31.5q58 0 100.5 -18t65.5 -44q11 -11 15 -21.5t4 -18.5q0 -13 -9 -26.5t-29 -13.5q-19 0 -38 19q-26 29 -53.5 40t-56.5 11q-50 0 -84 -28.5t-55 -71t-30.5 -93t-9.5 -94.5v-9q11 18 28.5 35.5
t41 31.5t52.5 23t62 9q37 0 73.5 -13t65 -39.5t46 -65.5t17.5 -90z" />
    <glyph glyph-name="seven" unicode="7" 
d="M530 638q0 -5 -2.5 -14.5t-10.5 -24.5l-141.5 -286t-125.5 -284q-8 -19 -19 -26.5t-22 -7.5q-16 0 -28 12t-12 30q0 10 4 19l60.5 137l69.5 147l72 145l68 131h-307v-79q0 -19 -12.5 -28.5t-26.5 -9.5t-26 9t-12 29v106q0 18 11 30.5t29 12.5h379q24 0 38 -15.5t14 -32.5
z" />
    <glyph glyph-name="eight" unicode="8" 
d="M497 520q0 -47 -29.5 -91.5t-98.5 -70.5q37 -13 64 -32.5t45 -42.5t27 -48.5t9 -51.5q0 -39 -18 -73t-48.5 -59.5t-72 -40.5t-88.5 -15t-88.5 15t-72 40.5t-48.5 59.5t-18 73q0 53 36.5 99t111.5 75q-36 13 -60.5 31t-40.5 40t-23 45.5t-7 46.5q0 36 16 68t44.5 56t67 38
t82.5 14q45 0 83.5 -14t66.5 -38t44 -56t16 -68zM430 183q0 16 -3.5 32.5t-15.5 33t-34.5 33.5t-60.5 34q-8 4 -14.5 6t-13.5 2q-6 0 -13 -2t-17 -6q-35 -16 -57 -33t-35 -34t-17.5 -34t-4.5 -32q0 -26 11 -47t30.5 -36.5t45.5 -24t56 -8.5t56 8.5t45.5 24t30.5 36.5t11 47z
M287 624q-27 0 -50 -7.5t-40.5 -21t-27.5 -33t-10 -42.5q0 -14 3.5 -29.5t14.5 -31.5t30 -31.5t51 -29.5q8 -3 14.5 -5t14.5 -2q12 0 26 6q33 15 53 31t31 32t14.5 31t3.5 29q0 23 -10 42.5t-27 33t-40.5 21t-50.5 7.5z" />
    <glyph glyph-name="nine" unicode="9" 
d="M269 333q34 0 69 15.5t60 47.5q24 30 24 63q0 12 -2.5 24t-7.5 25q-18 53 -56 84.5t-90 31.5q-32 0 -57 -13t-42 -34t-26 -48t-9 -54q0 -34 11.5 -60.5t31 -44.5t44 -27.5t50.5 -9.5zM49 472q0 42 15 82t43.5 71.5t70 51t94.5 19.5t97.5 -23t77 -66.5t51 -105
t18.5 -138.5q0 -69 -16.5 -135.5t-49 -118t-81.5 -83t-114 -31.5q-58 0 -100.5 18t-65.5 44q-11 11 -15 21.5t-4 18.5q0 13 9 26.5t29 13.5q19 0 38 -19q26 -29 53.5 -40t56.5 -11q50 0 84.5 28t55.5 71t30.5 93.5t9.5 94.5v9q-11 -18 -28.5 -35.5t-41 -31.5t-52.5 -23
t-63 -9q-37 0 -73.5 13t-65 39.5t-46 65.5t-17.5 90z" />
    <glyph glyph-name="colon" unicode=":" horiz-adv-x="208" 
d="M153 45q0 -21 -14 -35.5t-35 -14.5t-35 14.5t-14 35.5t14 35.5t35 14.5t35 -14.5t14 -35.5zM153 392q0 -21 -14 -35.5t-35 -14.5t-35 14.5t-14 35.5t14 35.5t35 14.5t35 -14.5t14 -35.5z" />
    <glyph glyph-name="semicolon" unicode=";" horiz-adv-x="208" 
d="M84 9q-15 5 -22 16t-7 24q0 17 11.5 31.5t34.5 14.5q22 0 40 -18.5t18 -62.5q0 -32 -9 -62.5t-23 -53.5q-8 -13 -15.5 -16.5t-15.5 -3.5q-9 0 -19.5 7.5t-10.5 23.5q0 4 2 10t7 17t12.5 30.5t7.5 31.5q0 7 -11 11zM153 392q0 -21 -14 -35.5t-35 -14.5t-35 14.5t-14 35.5
t14 35.5t35 14.5t35 -14.5t14 -35.5z" />
    <glyph glyph-name="less" unicode="&#x3c;" 
d="M85 252q0 11 5.5 20.5t16.5 14.5l321 162q9 5 14.5 6t10.5 1q16 0 26 -11t10 -26q0 -21 -21 -32l-269 -134l269 -135q21 -11 21 -33q0 -15 -10 -26t-26 -11q-5 0 -10.5 1t-14.5 6l-321 162q-11 5 -16.5 14.5t-5.5 20.5z" />
    <glyph glyph-name="equal" unicode="=" 
d="M462 384q14 0 23.5 -10.5t9.5 -24.5t-9.5 -24.5t-23.5 -10.5h-350q-14 0 -23.5 10.5t-9.5 24.5t9.5 24.5t23.5 10.5h350zM462 190q14 0 23.5 -10.5t9.5 -24.5t-9.5 -24.5t-23.5 -10.5h-350q-14 0 -23.5 10.5t-9.5 24.5t9.5 24.5t23.5 10.5h350z" />
    <glyph glyph-name="greater" unicode="&#x3e;" 
d="M489 252q0 -11 -5.5 -20.5t-16.5 -14.5l-321 -162q-9 -5 -14.5 -6t-10.5 -1q-16 0 -26 11t-10 26q0 22 21 33l269 135l-269 134q-21 11 -21 32q0 15 10 26t26 11q5 0 10.5 -1t14.5 -6l321 -162q11 -5 16.5 -14.5t5.5 -20.5z" />
    <glyph glyph-name="question" unicode="?" horiz-adv-x="519" 
d="M261 624q-27 0 -49.5 -8.5t-38 -22.5t-24 -32.5t-8.5 -37.5v-20q0 -23 -11.5 -32.5t-26.5 -9.5q-25 0 -33 19.5t-8 42.5q0 29 13.5 59.5t39.5 56t62.5 41.5t83.5 16q43 0 80.5 -13.5t65 -37t43 -55.5t15.5 -69q0 -24 -5.5 -46t-17 -43t-30 -43t-44.5 -47
q-39 -37 -54.5 -65.5t-15.5 -64.5v-19q0 -17 -11.5 -26t-25.5 -9q-16 0 -27 9t-13 26q-1 7 -1.5 13.5t-0.5 13.5q0 26 7.5 49t20 43t28 37.5t31.5 33.5q35 35 56 65.5t21 69.5q0 44 -32.5 75t-89.5 31zM310 45q0 -21 -14 -35.5t-35 -14.5t-35 14.5t-14 35.5t14 35.5t35 14.5
t35 -14.5t14 -35.5z" />
    <glyph glyph-name="at" unicode="@" horiz-adv-x="924" 
d="M602 485q16 -5 26 -17.5t10 -29.5q0 -2 -0.5 -11.5t-2.5 -18.5l-31 -203q-1 -6 -1.5 -11.5t-0.5 -10.5q0 -20 8.5 -28.5t25.5 -8.5q29 0 56 15t48 42.5t34 66.5t13 87q0 60 -19.5 111.5t-56.5 89t-91.5 59t-124.5 21.5q-87 0 -155 -31t-115 -82t-72 -117.5t-25 -137.5
q0 -75 23 -140.5t67 -114.5t108 -77t146 -28q36 0 68.5 4.5t62.5 13.5t59 23t60 34q15 9 28 9q17 0 28.5 -11.5t11.5 -26.5q0 -9 -5 -17.5t-17 -15.5q-35 -23 -68.5 -39t-69 -26t-74.5 -15t-84 -5q-94 0 -172 32t-134.5 89.5t-87.5 136.5t-31 174q0 93 35 173.5t95.5 140
t142.5 93t175 33.5q87 0 156.5 -28.5t118 -77.5t74 -113t25.5 -134q0 -57 -19 -108.5t-52 -90t-77.5 -61.5t-95.5 -23q-32 0 -57 14t-36 46q-29 -31 -65.5 -45.5t-61.5 -14.5q-35 0 -62 14.5t-45.5 38.5t-28 56t-9.5 67q0 43 14.5 88t44 81t74.5 59t106 23q32 0 60.5 -5.5
t42.5 -10.5zM413 146q18 0 36.5 7t33.5 19t26 29t14 37l25 157q2 11 2 14v5q0 6 -3 7.5t-9 3.5q-19 4 -39 4q-40 0 -69 -16.5t-48 -42.5t-28.5 -57.5t-9.5 -62.5q0 -42 16.5 -73t52.5 -31z" />
    <glyph glyph-name="A" unicode="A" horiz-adv-x="690" 
d="M647 63q5 -12 5.5 -17t0.5 -9q0 -14 -12 -26.5t-32 -12.5q-12 0 -23 7.5t-15 18.5l-38.5 100.5l-39.5 100.5h-302l-37.5 -98.5t-34.5 -98.5q-5 -15 -16.5 -22.5t-24.5 -7.5q-17 0 -29 12t-12 29q0 2 0.5 7t5.5 17q55 155 120 305.5t139 299.5q7 14 18.5 21t24.5 7
q14 0 26 -7t19 -21q72 -142 134.5 -291.5t122.5 -313.5zM468 297l-27 66l-31.5 74.5l-33.5 75.5l-32 68l-32 -69l-33.5 -74.5l-32 -74l-27.5 -66.5h249z" />
    <glyph glyph-name="B" unicode="B" horiz-adv-x="567" 
d="M75 644q0 17 12 29.5t29 12.5h176q51 0 89.5 -16t64 -42t38 -59t12.5 -68q0 -43 -25 -81.5t-76 -62.5q61 -23 92.5 -67.5t31.5 -93.5q0 -36 -14.5 -70.5t-42 -61t-68.5 -43t-94 -16.5h-184q-17 0 -29 12.5t-12 29.5v597zM159 315v-237h140q33 0 58 10t41 26.5t24 38
t8 43.5t-8 43.5t-24.5 38t-41 27t-57.5 10.5h-140zM159 388h124q32 0 55.5 9.5t39.5 24.5t23.5 35t7.5 41t-7 41.5t-22 37t-38 26.5t-54 10h-129v-225z" />
    <glyph glyph-name="C" unicode="C" horiz-adv-x="667" 
d="M542 525q-35 41 -73.5 68.5t-95.5 27.5q-61 0 -105 -23.5t-73 -62t-43 -87t-14 -99.5q0 -52 15.5 -102t45 -89.5t72 -63.5t96.5 -24q55 0 94.5 20.5t80.5 69.5q11 12 20.5 16t18.5 4q14 0 26 -10.5t12 -25.5q0 -13 -8 -26t-21.5 -28t-31.5 -29q-32 -26 -77 -46t-108 -20
q-79 0 -139.5 30t-101 79.5t-61.5 112t-21 128.5t21 129t62.5 112.5t101.5 79.5t138 30q66 0 112 -21.5t76 -46.5q29 -23 43.5 -45t14.5 -38q0 -15 -11 -27.5t-28 -12.5q-9 0 -18 4t-20 16z" />
    <glyph glyph-name="D" unicode="D" horiz-adv-x="667" 
d="M272 686q54 0 88.5 -7t63.5 -21q41 -19 76.5 -49.5t61.5 -70.5t40.5 -88.5t14.5 -104.5q0 -51 -12.5 -96.5t-35 -83.5t-53.5 -68.5t-67 -51.5q-34 -20 -74 -30t-98 -10h-161q-17 0 -29 10t-12 24v605q0 16 12 29t29 13h156zM159 613v-535h120q46 0 76 8t53 22
q54 34 86.5 94.5t32.5 142.5q0 44 -10.5 83t-29 70.5t-44.5 55.5t-56 39q-20 10 -44.5 15t-68.5 5h-115z" />
    <glyph glyph-name="E" unicode="E" horiz-adv-x="513" 
d="M433 347q0 -16 -10 -26.5t-26 -10.5h-238v-232h267q17 0 27 -11t10 -25q0 -17 -10 -27t-27 -10h-311q-16 0 -28 10t-12 25v604q0 17 12 29.5t28 12.5h309q15 0 25.5 -11.5t10.5 -25.5q0 -17 -10.5 -26.5t-25.5 -9.5h-265v-230h238q16 0 26 -10t10 -26z" />
    <glyph glyph-name="F" unicode="F" horiz-adv-x="496" 
d="M75 644q0 17 12 29.5t29 12.5h298q15 0 25.5 -11t10.5 -26q0 -17 -10.5 -26.5t-25.5 -9.5h-255v-241h228q16 0 26 -10.5t10 -25.5q0 -17 -10 -27t-26 -10h-228v-261q0 -17 -12.5 -28.5t-29.5 -11.5t-29.5 11.5t-12.5 28.5v606z" />
    <glyph glyph-name="G" unicode="G" horiz-adv-x="705" 
d="M367 622q-56 0 -99 -22.5t-71.5 -61t-43 -88t-14.5 -103.5q0 -58 16.5 -109t47 -88.5t73.5 -59t97 -21.5q51 0 90.5 17t63.5 42q20 21 25.5 35t5.5 35v50h-114q-17 0 -28 10.5t-11 24.5q0 17 10.5 27.5t28.5 10.5h155q17 0 28.5 -10.5t11.5 -24.5v-85q0 -18 -1.5 -32.5
t-6.5 -27.5t-14 -26t-24 -29q-39 -42 -94.5 -66.5t-125.5 -24.5q-69 0 -128 25t-102.5 71.5t-68 111.5t-24.5 146q0 73 22.5 136t64.5 110t102 74t134 27q66 0 112.5 -19.5t76.5 -44.5q29 -23 43.5 -45t14.5 -38q0 -15 -11 -27.5t-28 -12.5q-9 0 -18 4t-20 16
q-35 42 -75.5 67.5t-100.5 25.5z" />
    <glyph glyph-name="H" unicode="H" horiz-adv-x="667" 
d="M508 315h-349v-277q0 -17 -12.5 -28.5t-29.5 -11.5t-29.5 11.5t-12.5 28.5v615q0 17 12.5 28.5t29.5 11.5t29.5 -11.5t12.5 -28.5v-265h349v265q0 17 12.5 28.5t29.5 11.5t29.5 -11.5t12.5 -28.5v-615q0 -17 -12.5 -28.5t-29.5 -11.5t-29.5 11.5t-12.5 28.5v277z" />
    <glyph glyph-name="I" unicode="I" horiz-adv-x="234" 
d="M75 653q0 17 12.5 28.5t29.5 11.5t29.5 -11.5t12.5 -28.5v-615q0 -17 -12.5 -28.5t-29.5 -11.5t-29.5 11.5t-12.5 28.5v615z" />
    <glyph glyph-name="J" unicode="J" horiz-adv-x="435" 
d="M276 653q0 17 12.5 28.5t29.5 11.5t29.5 -11.5t12.5 -28.5v-470q0 -45 -13.5 -80t-37 -59t-55.5 -36.5t-68 -12.5q-55 0 -94 22q-11 6 -23 15.5t-22 20.5t-16 22.5t-6 22.5q0 14 11 26t28 12q12 0 22 -7t19 -18l4 -5q14 -17 31.5 -27.5t43.5 -10.5q41 1 66.5 29.5
t25.5 85.5v470z" />
    <glyph glyph-name="K" unicode="K" horiz-adv-x="609" 
d="M75 653q0 17 12.5 28.5t29.5 11.5t29.5 -11.5t12.5 -28.5v-297l84 80l123 120t124 120q11 9 18 13t16 4q17 0 28.5 -11.5t11.5 -30.5q0 -6 -3 -13.5t-12 -15.5l-122.5 -113.5l-129.5 -116.5l118 -154.5l124 -156.5q12 -14 15.5 -24t3.5 -17q0 -20 -13 -31t-29 -11
q-9 0 -18 4.5t-14 10.5l-130 166l-120 159l-75 -68v-232q0 -17 -12.5 -28.5t-29.5 -11.5t-29.5 11.5t-12.5 28.5v615z" />
    <glyph glyph-name="L" unicode="L" horiz-adv-x="490" 
d="M75 653q0 17 12.5 28.5t29.5 11.5t29.5 -11.5t12.5 -28.5v-575h260q16 0 27 -10t11 -27q0 -15 -11 -25.5t-27 -10.5h-303q-17 0 -29 13t-12 28v607z" />
    <glyph glyph-name="M" unicode="M" horiz-adv-x="795" 
d="M636 553l-53 -90l-76.5 -132l-72.5 -122q-14 -24 -39 -24q-11 0 -22 5.5t-19 18.5q-42 68 -78 132.5l-68 120.5l-52 91v-516q0 -17 -12 -28t-29 -11t-28.5 11t-11.5 28v606q0 26 15 38.5t34 12.5q13 0 26.5 -7t24.5 -25l57 -91.5l53.5 -89.5l53.5 -92.5l57 -99.5
l110 188.5t115 186.5q11 17 23.5 23.5t26.5 6.5q19 0 34 -12t15 -39v-605q0 -17 -12.5 -28.5t-29.5 -11.5t-29.5 11.5t-12.5 28.5v515z" />
    <glyph glyph-name="N" unicode="N" horiz-adv-x="704" 
d="M629 36q0 -17 -12 -28.5t-29 -11.5q-18 0 -29.5 11t-21.5 25l-23 32l-76 103l-80.5 108l-91.5 124l-109 152v-513q0 -17 -12 -28.5t-29 -11.5t-29 11.5t-12 28.5v605q0 26 15 38t35 12q11 0 22 -6t24 -22l97 -126.5l99 -132l95 -130.5l85 -122v499q0 17 12 28.5t29 11.5
t29 -11.5t12 -28.5v-617z" />
    <glyph glyph-name="O" unicode="O" horiz-adv-x="742" 
d="M371 -5q-65 0 -123 25.5t-102 71.5t-70 111t-26 143q0 79 26 143.5t70 110.5t102 71t123 25q64 0 122.5 -25t102.5 -71t70 -110.5t26 -143.5q0 -78 -26 -143t-70 -111t-102.5 -71.5t-122.5 -25.5zM371 70q47 0 89 20t73.5 56t50 87t18.5 113t-18.5 112.5t-50 86.5
t-73.5 56t-89 20q-48 0 -90 -20t-73.5 -56t-49.5 -86.5t-18 -112.5t18 -113t49.5 -87t73.5 -56t90 -20z" />
    <glyph glyph-name="P" unicode="P" horiz-adv-x="530" 
d="M159 352h121q33 0 57 12t40 31t23.5 43.5t7.5 50.5q0 22 -7 44t-22 40t-39.5 29t-58.5 11h-122v-261zM75 644q0 18 13 30t27 12h166q56 0 96.5 -17.5t67 -45t39 -63t12.5 -71.5q0 -38 -13.5 -75.5t-40.5 -67.5t-67.5 -48.5t-94.5 -18.5h-121v-241q0 -17 -12.5 -28.5
t-29.5 -11.5t-29.5 11.5t-12.5 28.5v606z" />
    <glyph glyph-name="Q" unicode="Q" horiz-adv-x="742" 
d="M371 -5q-65 0 -123 25.5t-102 71.5t-70 111t-26 143q0 79 26 143.5t70 110.5t102 71t123 25q64 0 122.5 -25t102.5 -71t70 -110.5t26 -143.5q0 -69 -20 -124.5t-55 -101.5l59 -55q16 -15 16 -33q-2 -17 -13 -27t-29 -10q-14 0 -27 11l-62 57q-41 -33 -89.5 -50.5
t-100.5 -17.5zM371 70q77 0 134 46l-83 79q-15 15 -15 31q0 17 12 28t28 11q9 0 15.5 -3t12.5 -8l82 -78q21 35 33 76t12 94q0 62 -18.5 112.5t-50 86.5t-73.5 56t-89 20q-48 0 -90 -20t-73.5 -56t-49.5 -86.5t-18 -112.5t18 -113t49.5 -87t73.5 -56t90 -20z" />
    <glyph glyph-name="R" unicode="R" horiz-adv-x="569" 
d="M75 645q0 16 12 28.5t30 12.5h158q56 0 97.5 -17t69 -45t41 -63t13.5 -71q0 -32 -10.5 -63t-30.5 -58t-49 -47t-67 -30q38 -54 84 -111.5l88 -109.5q12 -15 12 -31q0 -18 -12.5 -30t-29.5 -12q-11 0 -19.5 4.5t-18.5 16.5l-35.5 43.5l-40.5 53l-48 67l-58 84.5
q-3 5 -10 11t-21 6h-71v-246q0 -17 -12.5 -28.5t-29.5 -11.5t-29.5 11.5t-12.5 28.5v607zM159 354h115q33 0 58 11.5t42 30.5t25.5 43.5t8.5 50.5q0 22 -8 44t-24.5 39.5t-41.5 28.5t-59 11h-116v-259z" />
    <glyph glyph-name="S" unicode="S" horiz-adv-x="535" 
d="M265 -5q-73 0 -128 29.5t-88 80.5q-8 13 -10.5 21.5t-2.5 16.5q0 14 10.5 26.5t27.5 12.5q11 0 20.5 -6t18.5 -20q6 -9 14.5 -20.5t17.5 -21.5q19 -20 48.5 -33t69.5 -13q27 0 52 7.5t45 22.5t32 37t12 51q0 38 -31 67.5t-100 52.5l-46 15q-96 32 -135.5 81.5
t-39.5 110.5q0 38 16.5 71.5t45.5 58t68.5 39t86.5 14.5t82.5 -13t61.5 -32q28 -21 42 -43t14 -37q0 -18 -12.5 -29t-25.5 -11q-14 0 -22.5 6t-24.5 27q-20 27 -49.5 42.5t-72.5 15.5q-26 0 -49.5 -7.5t-41.5 -21.5t-28.5 -34t-10.5 -45q0 -22 8 -38.5t25 -30.5t44 -26.5
t65 -25.5l45 -16q92 -33 130 -81.5t38 -110.5q0 -45 -20 -80.5t-52 -59.5t-71.5 -37t-78.5 -13z" />
    <glyph glyph-name="T" unicode="T" horiz-adv-x="526" 
d="M221 612h-166q-15 0 -25 11t-10 26t10 26t25 11h416q15 0 25 -11t10 -26t-10 -26t-25 -11h-166v-574q0 -17 -12.5 -28.5t-29.5 -11.5t-29.5 11.5t-12.5 28.5v574z" />
    <glyph glyph-name="U" unicode="U" horiz-adv-x="647" 
d="M488 653q0 17 12.5 28.5t29.5 11.5t29.5 -11.5t12.5 -28.5v-398q0 -63 -21 -111.5t-55.5 -81.5t-79 -50t-92.5 -17q-47 0 -92 17t-80 50t-56 81.5t-21 111.5v399q0 14 11 26.5t31 12.5q19 0 30.5 -12.5t11.5 -26.5v-399q0 -45 14 -80t37 -59t52.5 -36t61.5 -12
q31 0 61 12t52.5 36t36.5 59t14 80v398z" />
    <glyph glyph-name="V" unicode="V" horiz-adv-x="662" 
d="M630 655q0 -4 -0.5 -9t-5.5 -17q-13 -38 -32 -87l-40.5 -103.5l-45 -111.5l-47 -111.5l-45 -103.5l-39.5 -88q-8 -16 -19.5 -22.5t-22.5 -6.5t-23 6t-19 23l-63.5 140l-67 157.5l-64.5 159.5l-56 148q-5 12 -5.5 17.5t-0.5 10.5q1 13 12.5 25t31.5 12q14 0 24 -8t15 -20
l50.5 -133.5l54.5 -138.5l56.5 -139l55.5 -134q53 120 108 261l106 281q5 13 15 22t26 9q17 0 29 -11.5t12 -27.5z" />
    <glyph glyph-name="W" unicode="W" horiz-adv-x="992" 
d="M669 29l-44.5 125.5l-44.5 132.5l-43.5 134l-40.5 130l-41.5 -130l-43 -134.5l-44 -132.5l-43.5 -124q-5 -15 -16 -24t-28 -9q-14 0 -26 8.5t-17 23.5q-55 154 -101.5 298t-86.5 298q-4 13 -4.5 17.5t-0.5 8.5q0 19 13 30.5t29 11.5q15 0 26 -9t15 -24q34 -133 74.5 -265
l80.5 -261l167 517q8 24 20 33t26 9t27 -9t21 -33l90 -270l80 -247q43 127 79.5 257.5l71.5 265.5q5 19 16.5 27.5t25.5 8.5q16 0 29 -10.5t13 -29.5q0 -4 -2 -14q-33 -131 -81 -285.5t-111 -323.5q-5 -15 -15.5 -24t-27.5 -9q-31 0 -42 32z" />
    <glyph glyph-name="X" unicode="X" horiz-adv-x="665" 
d="M616 654q0 -13 -9 -26l-47 -59l-57 -69l-61 -72.5l-59 -69.5q22 -30 54 -69.5l65 -80l63.5 -77.5l50.5 -61q8 -9 10.5 -16.5t2.5 -14.5q0 -16 -12 -28.5t-30 -12.5q-8 0 -17.5 4t-16.5 13l-40 49l-55.5 69l-63.5 79l-63 79l-111.5 -139.5l-106.5 -135.5q-8 -10 -17.5 -14
t-18.5 -4q-18 0 -29.5 13t-11.5 27q0 15 10 28q49 65 111.5 139l123.5 149l-64 77l-65.5 79l-57 69.5l-38.5 47.5q-6 8 -8 14t-2 13q0 14 10.5 27.5t30.5 13.5q9 0 18.5 -4t20.5 -18l22 -27.5l34 -42l40.5 -50.5l42 -52l38 -47l29.5 -36l59.5 74l52.5 65.5l49 61.5l48 61
q8 10 16.5 12.5t16.5 2.5q21 0 31.5 -14t10.5 -27z" />
    <glyph glyph-name="Y" unicode="Y" horiz-adv-x="584" 
d="M249 290l-59 89l-62 94l-56 86t-41 65q-9 16 -9 27q0 14 11 28t31 14q8 0 18 -4t17 -15l36.5 -58.5l49 -77l55 -84l54.5 -78.5q11 15 27.5 39.5l35.5 53.5l38 60l36.5 58.5l31 50t21.5 34.5t17 16.5t20 4.5q19 0 30 -14t11 -28q0 -13 -12 -32l-83 -127l-35.5 -54
l-36.5 -54.5l-34 -50.5l-28 -43v-252q0 -17 -12.5 -28.5t-29.5 -11.5t-29.5 11.5t-12.5 28.5v252z" />
    <glyph glyph-name="Z" unicode="Z" horiz-adv-x="588" 
d="M48 50q0 9 3.5 17.5t12.5 22.5l88 130l89.5 126l92.5 128.5l97 138.5h-338q-17 0 -26.5 11t-9.5 25q0 17 10 27t26 10h400q17 0 29 -12.5t12 -29.5q0 -9 -2 -17.5t-9 -19.5q-64 -95 -146 -204.5l-169 -235.5l-62 -89h361q15 0 26 -10t11 -25q0 -17 -10 -27.5t-27 -10.5
h-418q-18 0 -29.5 13.5t-11.5 31.5z" />
    <glyph glyph-name="bracketleft" unicode="[" horiz-adv-x="338" 
d="M155 -113h121q17 0 27 -10.5t10 -24.5q0 -17 -10 -27t-27 -10h-161q-16 0 -28 10t-12 25v822q0 17 12 29.5t28 12.5h159q15 0 25.5 -11.5t10.5 -25.5q0 -17 -10.5 -26t-25.5 -9h-119v-755z" />
    <glyph glyph-name="backslash" unicode="\" horiz-adv-x="526" 
d="M57 642q-5 10 -9 20t-4 18q2 17 14.5 27t25.5 10q11 -1 19 -5.5t15 -17.5l351 -651q5 -10 9 -19t4 -19q-2 -17 -14.5 -27t-25.5 -10q-11 1 -19.5 5t-14.5 16z" />
    <glyph glyph-name="bracketright" unicode="]" horiz-adv-x="400" 
d="M245 642h-159q-15 0 -25.5 9t-10.5 26q0 14 10.5 25.5t25.5 11.5h199q16 0 28 -12.5t12 -29.5v-822q0 -15 -12 -25t-28 -10h-201q-17 0 -27 10t-10 27q0 14 10 24.5t27 10.5h161v755z" />
    <glyph glyph-name="asciicircum" unicode="^" 
d="M255 679q12 15 31 15q20 0 33 -16l54 -84.5l53.5 -84l47.5 -76l37 -60.5q4 -8 6 -14t2 -13q0 -14 -9 -27t-29 -13q-8 0 -17.5 4t-16.5 15l-31.5 51.5l-38.5 63l-44 69.5l-48 72q-17 -23 -39.5 -58.5l-45.5 -73l-43 -71l-30 -51.5q-8 -12 -16.5 -16.5t-19.5 -4.5
q-18 0 -27.5 13t-9.5 27q0 13 11 32l71 113l62 99z" />
    <glyph glyph-name="underscore" unicode="_" horiz-adv-x="596" 
d="M596 -115q14 0 24.5 -10.5t10.5 -24.5t-10.5 -24.5t-24.5 -10.5h-596q-14 0 -24.5 10.5t-10.5 24.5t10.5 24.5t24.5 10.5h596z" />
    <glyph glyph-name="grave" unicode="`" horiz-adv-x="550" 
d="M350 627q14 -11 14 -28q0 -14 -10.5 -25.5t-26.5 -11.5q-14 0 -30 11l-99 79q-13 12 -13 30q0 14 9.5 25t26.5 11q14 0 30 -11z" />
    <glyph glyph-name="a" unicode="a" horiz-adv-x="555" 
d="M269 65q29 0 60.5 15t51.5 40q10 12 15.5 29.5t5.5 52.5v84q0 22 -1.5 37.5t-4.5 27t-7 19t-9 14.5q-19 25 -49 40t-62 15t-58 -14.5t-45 -40t-29 -59.5t-10 -74q0 -39 10 -73t28.5 -59t45 -39.5t58.5 -14.5zM260 -5q-48 0 -88 21t-68.5 56.5t-44 81.5t-15.5 97
q0 50 15.5 96.5t44 82.5t68 57.5t88.5 21.5q43 0 79 -17.5t63 -47.5v24q0 17 11.5 27.5t28.5 10.5t28.5 -10.5t11.5 -27.5v-356q0 -17 4.5 -27t10 -17.5t10 -14.5t4.5 -18q0 -14 -11.5 -27t-30.5 -13q-20 0 -36 16t-24 44q-29 -32 -67.5 -46t-81.5 -14z" />
    <glyph glyph-name="b" unicode="b" horiz-adv-x="544" 
d="M499 252q0 -51 -15 -97.5t-42.5 -82t-66.5 -56.5t-87 -21q-43 0 -79 17t-63 48v-24q0 -17 -11.5 -27.5t-28.5 -10.5t-28.5 10.5t-11.5 27.5v643q0 17 11.5 27.5t28.5 10.5t28.5 -10.5t11.5 -27.5v-235q27 30 63 47.5t79 17.5q49 0 88 -21.5t66.5 -57t42 -82t14.5 -96.5z
M281 65q32 0 57 14.5t42.5 40t26.5 59.5t9 74q0 39 -9.5 73t-27 59t-43 39.5t-57.5 14.5t-63.5 -14.5t-49.5 -40.5q-6 -8 -9.5 -16t-6 -19t-3.5 -26t-1 -37v-84q0 -35 5.5 -53t15.5 -30q20 -25 52.5 -39.5t61.5 -14.5z" />
    <glyph glyph-name="c" unicode="c" horiz-adv-x="492" 
d="M275 509q42 0 73.5 -11.5t52.5 -28.5q26 -20 38.5 -40t12.5 -36q0 -11 -9 -23t-26 -12t-26.5 11l-22.5 26q-38 44 -94 44q-32 0 -59 -15t-46.5 -40.5t-30.5 -60t-11 -72.5q0 -39 11.5 -72.5t31.5 -59t46.5 -40t55.5 -14.5q31 0 57 11t52 43q16 20 35 20q17 0 26.5 -11.5
t9.5 -22.5q0 -17 -14.5 -35.5t-39.5 -35.5q-24 -17 -55.5 -28t-67.5 -11q-47 0 -89 19t-73.5 53.5t-50 81.5t-18.5 103q0 52 17.5 99t48 82t73 55.5t92.5 20.5z" />
    <glyph glyph-name="d" unicode="d" horiz-adv-x="548" 
d="M44 251q0 50 15.5 96.5t44 82.5t68 57.5t88.5 21.5q43 0 79 -17.5t63 -47.5v235q0 17 11.5 27.5t28.5 10.5t28.5 -10.5t11.5 -27.5v-643q0 -17 -11.5 -27.5t-28.5 -10.5t-28.5 10.5t-11.5 27.5v24q-27 -31 -63 -48t-79 -17q-48 0 -88 21t-68.5 56.5t-44 81.5t-15.5 97z
M269 65q29 0 60.5 14t51.5 39q10 12 15.5 29.5t5.5 52.5v86q0 22 -1.5 37.5t-4.5 27t-7 19t-9 14.5q-19 25 -49 40t-62 15t-58 -14.5t-45 -40t-29 -59.5t-10 -74q0 -39 10 -73t28.5 -59t45 -39.5t58.5 -14.5z" />
    <glyph glyph-name="e" unicode="e" horiz-adv-x="524" 
d="M125 236q0 -33 10.5 -63.5t30 -54.5t48 -38.5t65.5 -14.5q34 0 63 14.5t47 31.5q15 15 23.5 21t20.5 6q14 0 23.5 -10t9.5 -24q0 -17 -11.5 -31.5t-31.5 -30.5q-21 -16 -58 -31.5t-88 -15.5t-93.5 19.5t-73 54t-48 81t-17.5 100.5q0 55 17.5 102.5t48 82.5t72 54.5
t89.5 19.5q47 0 85.5 -18t66.5 -48t43 -69t15 -81q0 -57 -62 -57h-295zM270 439q-30 0 -54 -12t-42.5 -31.5t-30 -44t-15.5 -49.5h263q8 0 8 8q0 20 -7.5 43t-23.5 42t-40 31.5t-58 12.5z" />
    <glyph glyph-name="f" unicode="f" horiz-adv-x="321" 
d="M324 674q0 -14 -9 -23t-22 -9t-22.5 3t-30.5 3q-29 0 -49.5 -21.5t-20.5 -73.5v-49h102q14 0 23.5 -10.5t9.5 -24.5t-9.5 -24.5t-23.5 -10.5h-102v-398q0 -17 -11.5 -27.5t-28.5 -10.5t-28.5 10.5t-11.5 27.5v398h-41q-14 0 -23.5 10.5t-9.5 24.5t9.5 24.5t23.5 10.5h41
v34q0 33 3 54t10 39q15 38 51.5 62.5t82.5 24.5q17 0 27.5 -1.5t23.5 -5.5q16 -5 26 -14t10 -23z" />
    <glyph glyph-name="g" unicode="g" horiz-adv-x="533" 
d="M264 74q38 0 65.5 15.5t44.5 36.5q10 12 15 28t5 52v83q0 37 -4.5 58t-16.5 38q-14 19 -41.5 36.5t-67.5 17.5q-31 0 -56 -14t-43 -39t-27.5 -58.5t-9.5 -72.5q0 -38 9.5 -71t27 -57.5t42.5 -38.5t57 -14zM257 -187q-43 0 -80.5 12.5t-51.5 27.5q-5 6 -7.5 13.5
t-2.5 13.5q0 14 9 26.5t26 12.5q6 0 12 -2t14 -7l5 -3q17 -11 39 -16.5t43 -5.5q60 0 96 38t36 107v40q-29 -32 -65 -48t-76 -16q-46 0 -84.5 19t-66.5 52.5t-43.5 79t-15.5 98.5q0 48 15 94t43 81.5t66.5 57t85.5 21.5q40 0 75.5 -17t64.5 -48v26q0 16 12.5 26t28.5 10
q15 0 27 -9.5t12 -25.5v-437q0 -56 -17 -97.5t-46 -69t-69 -41t-85 -13.5z" />
    <glyph glyph-name="h" unicode="h" horiz-adv-x="524" 
d="M146 36q0 -17 -11.5 -27.5t-28.5 -10.5t-28.5 10.5t-11.5 27.5v643q0 17 11.5 27.5t28.5 10.5t28.5 -10.5t11.5 -27.5v-238q32 35 70 51.5t75 16.5q80 0 123.5 -48.5t43.5 -135.5v-289q0 -17 -11.5 -27.5t-28.5 -10.5t-28.5 10.5t-11.5 27.5v281q0 26 -3 43.5t-8 28.5
q-12 25 -34 37.5t-51 12.5q-26 0 -54 -10.5t-49 -30.5q-12 -11 -22.5 -30t-10.5 -57v-275z" />
    <glyph glyph-name="i" unicode="i" horiz-adv-x="212" 
d="M146 36q0 -17 -11.5 -27.5t-28.5 -10.5t-28.5 10.5t-11.5 27.5v432q0 17 11.5 27.5t28.5 10.5t28.5 -10.5t11.5 -27.5v-432zM60 654q0 18 12.5 32.5t33.5 14.5t33.5 -14.5t12.5 -32.5t-12.5 -32.5t-33.5 -14.5t-33.5 14.5t-12.5 32.5z" />
    <glyph glyph-name="j" unicode="j" horiz-adv-x="212" 
d="M65 470q0 16 12 26t28 10q17 0 28.5 -10.5t11.5 -27.5v-483q0 -37 -5.5 -61.5t-19.5 -44.5q-9 -13 -21.5 -25t-27.5 -21.5t-31 -15t-31 -5.5q-20 0 -31.5 10.5t-11.5 27.5q0 12 8.5 22.5t25.5 15.5l3 1q24 8 38 19t20 33q4 13 4 47v482zM60 654q0 18 12.5 32.5t33.5 14.5
t33.5 -14.5t12.5 -32.5t-12.5 -32.5t-33.5 -14.5t-33.5 14.5t-12.5 32.5z" />
    <glyph glyph-name="k" unicode="k" horiz-adv-x="502" 
d="M276 289l75 -97.5l78 -97.5l23 -28q8 -11 10.5 -17.5t2.5 -13.5q0 -15 -11 -26t-27 -11q-9 0 -18 3.5t-16 11.5l-34 41l-37 47l-45.5 59.5l-59.5 79.5l-71 -60v-144q0 -17 -11.5 -27.5t-28.5 -10.5t-28.5 10.5t-11.5 27.5v643q0 17 11.5 27.5t28.5 10.5t28.5 -10.5
t11.5 -27.5v-414l55.5 49.5l56 50.5l60 56l68.5 67q14 14 22 16.5t15 2.5q14 0 25 -11t11 -27q0 -7 -3.5 -16.5t-19.5 -23.5l-73 -65.5z" />
    <glyph glyph-name="l" unicode="l" horiz-adv-x="212" 
d="M146 36q0 -17 -11.5 -27.5t-28.5 -10.5t-28.5 10.5t-11.5 27.5v643q0 17 11.5 27.5t28.5 10.5t28.5 -10.5t11.5 -27.5v-643z" />
    <glyph glyph-name="m" unicode="m" horiz-adv-x="816" 
d="M670 285q0 80 -15 109q-12 23 -32.5 34t-47.5 11q-26 0 -52.5 -13.5t-40.5 -27.5q-16 -16 -25 -33.5t-9 -48.5v-280q0 -17 -11.5 -27.5t-28.5 -10.5t-28.5 10.5t-11.5 27.5v253q0 35 -3.5 62t-10.5 41q-24 47 -81 47q-27 0 -55.5 -15t-46.5 -37q-9 -11 -17 -26t-8 -42
v-283q0 -17 -11.5 -27.5t-28.5 -10.5t-28.5 10.5t-11.5 27.5v432q0 17 11.5 27.5t28.5 10.5t28.5 -10.5t11.5 -27.5v-26q31 33 69 50t76 17q42 0 79 -20.5t57 -61.5q32 42 77 62t87 20q72 0 115.5 -47t43.5 -135v-291q0 -17 -11.5 -27.5t-28.5 -10.5t-28.5 10.5t-11.5 27.5
v249z" />
    <glyph glyph-name="n" unicode="n" horiz-adv-x="524" 
d="M378 317q0 26 -3 43.5t-8 28.5q-12 25 -34 37.5t-51 12.5q-26 0 -54 -10.5t-49 -30.5q-12 -11 -22.5 -30t-10.5 -57v-275q0 -17 -11.5 -27.5t-28.5 -10.5t-28.5 10.5t-11.5 27.5v430q0 17 11.5 28.5t28.5 11.5t28.5 -11.5t11.5 -28.5v-26q32 35 70 52t75 17
q80 0 123.5 -48.5t43.5 -135.5v-289q0 -17 -11.5 -27.5t-28.5 -10.5t-28.5 10.5t-11.5 27.5v281z" />
    <glyph glyph-name="o" unicode="o" horiz-adv-x="550" 
d="M275 65q30 0 57 14t47.5 39t32 59t11.5 75q0 40 -11.5 74.5t-32 59.5t-47.5 39t-57 14t-57 -14t-47.5 -39t-32 -59.5t-11.5 -74.5q0 -41 11.5 -75t32 -59t47.5 -39t57 -14zM275 -5q-47 0 -88.5 19t-73.5 53t-50.5 81.5t-18.5 103.5t18.5 103.5t50 81.5t73.5 53t89 19
t89 -19t73.5 -53t50 -81.5t18.5 -103.5t-18.5 -103.5t-50.5 -81.5t-74 -53t-88 -19z" />
    <glyph glyph-name="p" unicode="p" horiz-adv-x="544" 
d="M501 252q0 -50 -15 -96.5t-43 -82t-67 -57t-88 -21.5q-43 0 -79 17.5t-63 47.5v-210q0 -17 -11.5 -27.5t-28.5 -10.5t-28.5 10.5t-11.5 27.5v618q0 17 11.5 27.5t28.5 10.5t28.5 -10.5t11.5 -27.5v-24q27 31 63 48t79 17q48 0 87.5 -21t67 -56.5t43 -82t15.5 -97.5z
M281 439q-29 0 -61.5 -14t-52.5 -39q-10 -12 -15.5 -30t-5.5 -53v-85q0 -44 6 -64.5t16 -33.5q19 -25 50 -40t63 -15t57 14.5t42.5 40t26.5 59.5t9 74q0 39 -9 73t-26.5 59t-42.5 39.5t-57 14.5z" />
    <glyph glyph-name="q" unicode="q" horiz-adv-x="544" 
d="M45 252q0 51 15.5 97.5t43 82t67 56.5t87.5 21q43 0 79 -17t63 -48v24q0 17 11.5 27.5t28.5 10.5t28.5 -10.5t11.5 -27.5v-618q0 -17 -11.5 -27.5t-28.5 -10.5t-28.5 10.5t-11.5 27.5v210q-27 -30 -63 -47.5t-79 -17.5q-49 0 -88.5 21.5t-67 57t-42.5 82t-15 96.5z
M265 439q-32 0 -57.5 -14.5t-42.5 -39.5t-26 -59t-9 -73q0 -40 9 -74t26.5 -59.5t42.5 -40t57 -14.5t63 15t50 40q10 13 16 33.5t6 64.5v85q0 35 -5.5 53t-15.5 30q-20 25 -52.5 39t-61.5 14z" />
    <glyph glyph-name="r" unicode="r" horiz-adv-x="344" 
d="M333 465q0 -17 -10 -26.5t-23 -9.5q-5 0 -10.5 1t-11.5 3q-12 3 -23 3q-33 0 -64 -26q-13 -11 -22.5 -23t-14.5 -25q-8 -23 -8 -54v-272q0 -17 -11.5 -27.5t-28.5 -10.5t-28.5 10.5t-11.5 27.5v432q0 17 11.5 27.5t28.5 10.5t28.5 -10.5t11.5 -27.5v-29q29 36 61 53
t62 17q32 0 48 -13.5t16 -30.5z" />
    <glyph glyph-name="s" unicode="s" horiz-adv-x="430" 
d="M374 410q0 -16 -11.5 -25t-23.5 -9t-20.5 5.5t-14.5 11.5l-14 13q-35 33 -83 33q-47 0 -67 -20.5t-20 -43.5q0 -21 17 -40t71 -37l19 -7q47 -16 77.5 -33t48 -36t24.5 -40t7 -43q0 -34 -14.5 -60.5t-38.5 -45t-54.5 -28.5t-62.5 -10q-67 0 -122 35q-22 14 -39 34t-17 39
q0 17 10 28t24 11q17 0 29 -12q7 -6 18 -19t30 -27q12 -8 28.5 -13.5t43.5 -5.5q15 0 30.5 4.5t27.5 13t20 21.5t8 31q0 12 -4.5 22t-17 20.5t-34 21t-55.5 22.5l-17 6q-75 26 -104.5 61.5t-29.5 81.5q0 32 13.5 57.5t37 43.5t54.5 28t67 10q28 0 54.5 -7.5t47.5 -20.5
q20 -13 38 -31.5t19 -39.5z" />
    <glyph glyph-name="t" unicode="t" horiz-adv-x="337" 
d="M95 434h-46q-14 0 -23.5 10.5t-9.5 24.5t9.5 24.5t23.5 10.5h46v102q0 17 11.5 27.5t28.5 10.5t28.5 -10.5t11.5 -27.5v-102h104q14 0 23.5 -10.5t9.5 -24.5t-9.5 -24.5t-23.5 -10.5h-104v-301q0 -36 14 -49.5t37 -13.5q20 0 32.5 4.5t26.5 4.5t23 -9.5t9 -23.5
q0 -26 -38 -39q-26 -9 -60 -9q-35 0 -62 13.5t-43 39.5q-9 15 -14 38t-5 65v280z" />
    <glyph glyph-name="u" unicode="u" horiz-adv-x="524" 
d="M146 187q0 -26 3 -43.5t8 -28.5q12 -25 34 -37.5t51 -12.5q26 0 54 10.5t49 30.5q12 11 22.5 30t10.5 57v275q0 17 11.5 27.5t28.5 10.5t28.5 -10.5t11.5 -27.5v-430q0 -17 -11.5 -28.5t-28.5 -11.5t-28.5 11.5t-11.5 28.5v26q-32 -35 -70 -52t-75 -17q-80 0 -123.5 48.5
t-43.5 135.5v289q0 17 11.5 27.5t28.5 10.5t28.5 -10.5t11.5 -27.5v-281z" />
    <glyph glyph-name="v" unicode="v" horiz-adv-x="487" 
d="M66 506q11 0 21 -6.5t15 -20.5l71 -188.5t73 -182.5q38 86 72 184l65 187q5 13 15.5 20t22.5 7q17 0 29 -11t12 -25q0 -9 -3.5 -20.5t-8.5 -24.5l-77.5 -204.5t-81.5 -186.5q-11 -23 -22.5 -31t-24.5 -8q-27 0 -41 29q-45 95 -87 196t-79 205q-5 13 -8.5 24.5t-3.5 20.5
q0 14 12 25t29 11z" />
    <glyph glyph-name="w" unicode="w" horiz-adv-x="772" 
d="M384 378l-49.5 -137l-36 -96.5t-27.5 -69l-23 -54.5q-5 -13 -17 -18.5t-21 -5.5q-27 0 -37 24q-43 112 -74 213.5t-60 207.5l-4 16t-1 9q0 17 11 28t28 11q13 0 23 -7t15 -22l22.5 -82.5l26.5 -92l28.5 -95.5t29.5 -93l26.5 75l30.5 89.5l34.5 98.5t39.5 103q11 26 37 26
t37 -26l35 -89l37.5 -101l35 -97.5l27.5 -78.5q15 45 29 93l27 95.5l24.5 92t22.5 82.5q5 15 15 22t23 7q17 0 28 -11t11 -28q0 -5 -0.5 -9t-4.5 -16l-61.5 -207.5t-73.5 -213.5q-5 -11 -16 -17.5t-22 -6.5q-10 0 -21 5.5t-16 18.5l-23.5 54.5t-28.5 69l-37.5 96.5
t-49.5 137z" />
    <glyph glyph-name="x" unicode="x" horiz-adv-x="518" 
d="M477 467q0 -7 -3 -14.5t-11 -18.5q-9 -12 -26 -30.5l-38 -42l-44.5 -50.5l-47.5 -54l97 -110.5l66 -76.5q8 -9 11 -17t3 -15q0 -16 -11.5 -28t-28.5 -12q-18 0 -30 14l-26.5 32l-41 49l-46 55l-42.5 50l-47.5 -56.5l-43 -51.5l-35.5 -43t-25 -31q-15 -18 -33 -18
q-16 0 -28 11.5t-12 28.5q0 14 12 30q27 33 66.5 77l97.5 109l-90.5 104.5t-69.5 82.5q-9 12 -9 26q0 16 11.5 27.5t28.5 11.5q19 0 33 -17l59.5 -73.5l85.5 -103.5l43 51.5l40 48.5l34.5 42l26.5 33q15 19 34 19q15 0 27.5 -11t12.5 -28z" />
    <glyph glyph-name="y" unicode="y" horiz-adv-x="500" 
d="M189 74q-45 93 -84.5 186.5t-74.5 185.5q-3 8 -4 13t-1 10q0 14 11 25.5t28 11.5q11 0 22 -6.5t16 -20.5q34 -89 73.5 -182t79.5 -178q18 39 36.5 83.5l37 91l36 93.5l33.5 92q4 11 13.5 19t23.5 8q17 0 28.5 -12t11.5 -26q0 -3 -1 -9t-3 -12q-39 -106 -86 -216
t-104 -224l-22 -44q-22 -44 -42.5 -73.5t-40 -46.5t-38.5 -24t-38 -7q-16 0 -26.5 12t-10.5 26q0 12 5.5 22t20.5 17l3 1q17 7 29 13.5t23 17t22 27.5t25 45l19 37z" />
    <glyph glyph-name="z" unicode="z" horiz-adv-x="444" 
d="M72 5q-19 0 -27.5 13.5t-8.5 24.5q0 7 4 17.5t18 30.5q52 85 115.5 167.5t123.5 170.5h-228q-15 0 -24 10.5t-9 24.5t8.5 24.5t24.5 10.5h296q19 0 27.5 -13.5t8.5 -24.5q0 -7 -4 -17.5t-19 -30.5l-172 -233l-23 -31.5t-18 -25.5l-16 -23.5l-17 -24.5h245q15 0 24 -10.5
t9 -24.5t-9 -24.5t-24 -10.5h-305z" />
    <glyph glyph-name="braceleft" unicode="{" horiz-adv-x="338" 
d="M25 265q0 29 35 40l7 2q15 5 23.5 12.5t9.5 33.5l6 251q0 22 7.5 42.5t22.5 36t37.5 25t53.5 9.5h43q23 0 33 -10t10 -23t-8.5 -24t-29.5 -11h-44q-18 0 -31 -10.5t-14 -30.5l-6 -271q-1 -34 -16.5 -49t-45.5 -23q30 -8 45.5 -23t16.5 -49l6 -271q1 -20 14 -30.5
t31 -10.5h44q21 0 29.5 -11t8.5 -24t-10 -23t-33 -10h-43q-31 0 -53.5 9.5t-37.5 25t-22.5 36t-7.5 42.5l-6 251q-1 26 -9.5 33.5t-23.5 12.5l-7 2q-35 11 -35 40z" />
    <glyph glyph-name="bar" unicode="|" horiz-adv-x="280" 
d="M100 681q0 17 11.5 27.5t28.5 10.5t28.5 -10.5t11.5 -27.5v-832q0 -17 -11.5 -27.5t-28.5 -10.5t-28.5 10.5t-11.5 27.5v832z" />
    <glyph glyph-name="braceright" unicode="}" horiz-adv-x="338" 
d="M313 265q0 -29 -35 -40l-7 -2q-15 -5 -23.5 -12.5t-9.5 -33.5l-6 -251q0 -22 -7.5 -42.5t-22.5 -36t-37.5 -25t-53.5 -9.5h-43q-23 0 -33 10t-10 23t8.5 24t29.5 11h44q18 0 31 10.5t14 30.5l6 271q1 34 16.5 49t45.5 23q-30 8 -45.5 23t-16.5 49l-6 271q-1 20 -14 30.5
t-31 10.5h-44q-21 0 -29.5 11t-8.5 24t10 23t33 10h43q31 0 53.5 -9.5t37.5 -25t22.5 -36t7.5 -42.5l6 -251q1 -26 9.5 -33.5t23.5 -12.5l7 -2q35 -11 35 -40z" />
    <glyph glyph-name="asciitilde" unicode="~" 
d="M266 251q-19 11 -37.5 19.5t-30.5 8.5q-10 0 -22 -7t-23 -33q-13 -30 -38 -30q-15 0 -25.5 9.5t-10.5 26.5q0 7 3 18q5 15 15 30.5t24.5 28.5t34 21t43.5 8q31 0 59 -11.5t51 -24.5q19 -11 37.5 -19.5t30.5 -8.5q10 0 23 7.5t22 32.5q10 30 38 30q15 0 25.5 -9.5
t10.5 -26.5q0 -8 -3 -18q-5 -15 -15 -30.5t-25 -28.5t-34 -21t-43 -8q-31 0 -59 11.5t-51 24.5z" />
    <glyph glyph-name="DEL" horiz-adv-x="296" 
 />
    <glyph glyph-name="Adieresis" unicode="&#xc4;" horiz-adv-x="690" 
d="M647 63q5 -12 5.5 -17t0.5 -9q0 -14 -12 -26.5t-32 -12.5q-12 0 -23 7.5t-15 18.5l-38.5 100.5l-39.5 100.5h-302l-37.5 -98.5t-34.5 -98.5q-5 -15 -16.5 -22.5t-24.5 -7.5q-17 0 -29 12t-12 29q0 2 0.5 7t5.5 17q55 155 120 305.5t139 299.5q7 14 18.5 21t24.5 7
q14 0 26 -7t19 -21q72 -142 134.5 -291.5t122.5 -313.5zM468 297l-27 66l-31.5 74.5l-33.5 75.5l-32 68l-32 -69l-33.5 -74.5l-32 -74l-27.5 -66.5h249zM206 811q0 18 12.5 32.5t33.5 14.5t33.5 -14.5t12.5 -32.5t-12.5 -32.5t-33.5 -14.5t-33.5 14.5t-12.5 32.5zM392 811
q0 18 12.5 32.5t33.5 14.5t33.5 -14.5t12.5 -32.5t-12.5 -32.5t-33.5 -14.5t-33.5 14.5t-12.5 32.5z" />
    <glyph glyph-name="Aring" unicode="&#xc5;" horiz-adv-x="690" 
d="M647 63q5 -12 5.5 -17t0.5 -9q0 -14 -12 -26.5t-32 -12.5q-12 0 -23 7.5t-15 18.5l-38.5 100.5l-39.5 100.5h-302l-37.5 -98.5t-34.5 -98.5q-5 -15 -16.5 -22.5t-24.5 -7.5q-17 0 -29 12t-12 29q0 2 0.5 7t5.5 17q55 155 120 305.5t139 299.5q7 14 18.5 21t24.5 7
q14 0 26 -7t19 -21q72 -142 134.5 -291.5t122.5 -313.5zM468 297l-27 66l-31.5 74.5l-33.5 75.5l-32 68l-32 -69l-33.5 -74.5l-32 -74l-27.5 -66.5h249zM260 811q0 35 25 60t60 25t60 -25t25 -60q0 -18 -7 -33.5t-18.5 -27t-27 -18.5t-32.5 -7t-32.5 7t-27 18.5t-18.5 27
t-7 33.5zM299 811q0 -20 13 -33.5t33 -13.5q19 0 32 13.5t13 33.5q0 18 -13 31.5t-32 13.5q-20 0 -33 -13.5t-13 -31.5z" />
    <glyph glyph-name="Ccedilla" unicode="&#xc7;" horiz-adv-x="667" 
d="M459 -105q0 -30 -22 -52.5t-63 -22.5q-22 0 -37.5 3.5t-27.5 9.5q-11 5 -16.5 12.5t-5.5 15.5q0 9 6 16.5t17 7.5q6 0 16 -5q8 -4 19.5 -8t22.5 -4q12 0 21 6.5t9 20.5q0 18 -23 24q-7 2 -15 2.5t-14 1.5l-14 2q-25 4 -25 26q0 9 7 24l9 24q-67 9 -118 41.5t-85.5 80
t-52 106t-17.5 118.5q0 66 21 129t62.5 112.5t101.5 79.5t138 30q66 0 112 -21.5t76 -46.5q29 -23 43.5 -45t14.5 -38q0 -15 -11 -27.5t-28 -12.5q-9 0 -18 4t-20 16q-21 24 -40 42t-39.5 30t-43.5 18t-52 6q-57 0 -100 -23t-71.5 -61.5t-43 -87.5t-14.5 -100
q0 -52 15.5 -102t45 -89.5t72 -63.5t96.5 -24q55 0 94.5 20.5t80.5 69.5q11 12 20.5 16t18.5 4q17 0 27.5 -12.5t10.5 -25.5q0 -14 -17 -36.5t-44 -44.5q-31 -26 -75 -45.5t-105 -20.5l-10 -28q38 -2 64.5 -17.5t26.5 -54.5z" />
    <glyph glyph-name="Eacute" unicode="&#xc9;" horiz-adv-x="513" 
d="M433 347q0 -16 -10 -26.5t-26 -10.5h-238v-232h267q17 0 27 -11t10 -25q0 -17 -10 -27t-27 -10h-311q-16 0 -28 10t-12 25v604q0 17 12 29.5t28 12.5h309q15 0 25.5 -11.5t10.5 -25.5q0 -17 -10.5 -26.5t-25.5 -9.5h-265v-230h238q16 0 26 -10t10 -26zM280 889
q16 11 30 11q17 0 26.5 -11t9.5 -25q0 -18 -13 -30l-99 -79q-16 -11 -30 -11q-16 0 -26.5 11.5t-10.5 25.5q0 17 14 28z" />
    <glyph glyph-name="Ntilde" unicode="&#xd1;" horiz-adv-x="704" 
d="M629 36q0 -17 -12 -28.5t-29 -11.5q-18 0 -29.5 11t-21.5 25l-23 32l-76 103l-80.5 108l-91.5 124l-109 152v-513q0 -17 -12 -28.5t-29 -11.5t-29 11.5t-12 28.5v605q0 26 15 38t35 12q11 0 22 -6t24 -22l97 -126.5l99 -132l95 -130.5l85 -122v499q0 17 12 28.5t29 11.5
t29 -11.5t12 -28.5v-617zM410 752q-22 0 -39.5 8.5t-32.5 18t-26.5 18t-21.5 8.5q-9 -1 -15 -9.5t-11 -19.5q-11 -24 -34 -24q-11 0 -19 7t-8 20q0 10 6 25.5t18 30.5t29 25.5t38 10.5t38.5 -8.5t32 -18l26.5 -18t23 -8.5q9 1 15 9.5t11 19.5q10 24 34 24q11 0 19 -7t8 -20
q0 -10 -6 -25.5t-18 -30.5t-29 -25.5t-38 -10.5z" />
    <glyph glyph-name="Odieresis" unicode="&#xd6;" horiz-adv-x="742" 
d="M371 -5q-65 0 -123 25.5t-102 71.5t-70 111t-26 143q0 79 26 143.5t70 110.5t102 71t123 25q64 0 122.5 -25t102.5 -71t70 -110.5t26 -143.5q0 -78 -26 -143t-70 -111t-102.5 -71.5t-122.5 -25.5zM371 70q47 0 89 20t73.5 56t50 87t18.5 113t-18.5 112.5t-50 86.5
t-73.5 56t-89 20q-48 0 -90 -20t-73.5 -56t-49.5 -86.5t-18 -112.5t18 -113t49.5 -87t73.5 -56t90 -20zM232 811q0 18 12.5 32.5t33.5 14.5t33.5 -14.5t12.5 -32.5t-12.5 -32.5t-33.5 -14.5t-33.5 14.5t-12.5 32.5zM418 811q0 18 12.5 32.5t33.5 14.5t33.5 -14.5t12.5 -32.5
t-12.5 -32.5t-33.5 -14.5t-33.5 14.5t-12.5 32.5z" />
    <glyph glyph-name="Udieresis" unicode="&#xdc;" horiz-adv-x="647" 
d="M488 653q0 17 12.5 28.5t29.5 11.5t29.5 -11.5t12.5 -28.5v-398q0 -63 -21 -111.5t-55.5 -81.5t-79 -50t-92.5 -17q-47 0 -92 17t-80 50t-56 81.5t-21 111.5v399q0 14 11 26.5t31 12.5q19 0 30.5 -12.5t11.5 -26.5v-399q0 -45 14 -80t37 -59t52.5 -36t61.5 -12
q31 0 61 12t52.5 36t36.5 59t14 80v398zM184 811q0 18 12.5 32.5t33.5 14.5t33.5 -14.5t12.5 -32.5t-12.5 -32.5t-33.5 -14.5t-33.5 14.5t-12.5 32.5zM370 811q0 18 12.5 32.5t33.5 14.5t33.5 -14.5t12.5 -32.5t-12.5 -32.5t-33.5 -14.5t-33.5 14.5t-12.5 32.5z" />
    <glyph glyph-name="aacute" unicode="&#xe1;" horiz-adv-x="555" 
d="M269 65q29 0 60.5 15t51.5 40q10 12 15.5 29.5t5.5 52.5v84q0 22 -1.5 37.5t-4.5 27t-7 19t-9 14.5q-19 25 -49 40t-62 15t-58 -14.5t-45 -40t-29 -59.5t-10 -74q0 -39 10 -73t28.5 -59t45 -39.5t58.5 -14.5zM260 -5q-48 0 -88 21t-68.5 56.5t-44 81.5t-15.5 97
q0 50 15.5 96.5t44 82.5t68 57.5t88.5 21.5q43 0 79 -17.5t63 -47.5v24q0 17 11.5 27.5t28.5 10.5t28.5 -10.5t11.5 -27.5v-356q0 -17 4.5 -27t10 -17.5t10 -14.5t4.5 -18q0 -14 -11.5 -27t-30.5 -13q-20 0 -36 16t-24 44q-29 -32 -67.5 -46t-81.5 -14zM298 707q16 11 30 11
q17 0 26.5 -11t9.5 -25q0 -18 -13 -30l-99 -79q-16 -11 -30 -11q-16 0 -26.5 11.5t-10.5 25.5q0 17 14 28z" />
    <glyph glyph-name="agrave" unicode="&#xe0;" horiz-adv-x="555" 
d="M269 65q29 0 60.5 15t51.5 40q10 12 15.5 29.5t5.5 52.5v84q0 22 -1.5 37.5t-4.5 27t-7 19t-9 14.5q-19 25 -49 40t-62 15t-58 -14.5t-45 -40t-29 -59.5t-10 -74q0 -39 10 -73t28.5 -59t45 -39.5t58.5 -14.5zM260 -5q-48 0 -88 21t-68.5 56.5t-44 81.5t-15.5 97
q0 50 15.5 96.5t44 82.5t68 57.5t88.5 21.5q43 0 79 -17.5t63 -47.5v24q0 17 11.5 27.5t28.5 10.5t28.5 -10.5t11.5 -27.5v-356q0 -17 4.5 -27t10 -17.5t10 -14.5t4.5 -18q0 -14 -11.5 -27t-30.5 -13q-20 0 -36 16t-24 44q-29 -32 -67.5 -46t-81.5 -14zM340 627
q14 -11 14 -28q0 -14 -10.5 -25.5t-26.5 -11.5q-14 0 -30 11l-99 79q-13 12 -13 30q0 14 9.5 25t26.5 11q14 0 30 -11z" />
    <glyph glyph-name="acircumflex" unicode="&#xe2;" horiz-adv-x="555" 
d="M269 65q29 0 60.5 15t51.5 40q10 12 15.5 29.5t5.5 52.5v84q0 22 -1.5 37.5t-4.5 27t-7 19t-9 14.5q-19 25 -49 40t-62 15t-58 -14.5t-45 -40t-29 -59.5t-10 -74q0 -39 10 -73t28.5 -59t45 -39.5t58.5 -14.5zM260 -5q-48 0 -88 21t-68.5 56.5t-44 81.5t-15.5 97
q0 50 15.5 96.5t44 82.5t68 57.5t88.5 21.5q43 0 79 -17.5t63 -47.5v24q0 17 11.5 27.5t28.5 10.5t28.5 -10.5t11.5 -27.5v-356q0 -17 4.5 -27t10 -17.5t10 -14.5t4.5 -18q0 -14 -11.5 -27t-30.5 -13q-20 0 -36 16t-24 44q-29 -32 -67.5 -46t-81.5 -14zM266 634l-70 -64
q-11 -8 -23 -8q-14 0 -23 9t-9 22q0 15 16 30l84 76q11 10 25 10t25 -10l84 -76q9 -8 13 -16t4 -16q0 -13 -9 -21.5t-22 -8.5t-25 9z" />
    <glyph glyph-name="adieresis" unicode="&#xe4;" horiz-adv-x="555" 
d="M269 65q29 0 60.5 15t51.5 40q10 12 15.5 29.5t5.5 52.5v84q0 22 -1.5 37.5t-4.5 27t-7 19t-9 14.5q-19 25 -49 40t-62 15t-58 -14.5t-45 -40t-29 -59.5t-10 -74q0 -39 10 -73t28.5 -59t45 -39.5t58.5 -14.5zM260 -5q-48 0 -88 21t-68.5 56.5t-44 81.5t-15.5 97
q0 50 15.5 96.5t44 82.5t68 57.5t88.5 21.5q43 0 79 -17.5t63 -47.5v24q0 17 11.5 27.5t28.5 10.5t28.5 -10.5t11.5 -27.5v-356q0 -17 4.5 -27t10 -17.5t10 -14.5t4.5 -18q0 -14 -11.5 -27t-30.5 -13q-20 0 -36 16t-24 44q-29 -32 -67.5 -46t-81.5 -14zM124 624
q0 18 12.5 32.5t33.5 14.5t33.5 -14.5t12.5 -32.5t-12.5 -32.5t-33.5 -14.5t-33.5 14.5t-12.5 32.5zM310 624q0 18 12.5 32.5t33.5 14.5t33.5 -14.5t12.5 -32.5t-12.5 -32.5t-33.5 -14.5t-33.5 14.5t-12.5 32.5z" />
    <glyph glyph-name="atilde" unicode="&#xe3;" horiz-adv-x="555" 
d="M269 65q29 0 60.5 15t51.5 40q10 12 15.5 29.5t5.5 52.5v84q0 22 -1.5 37.5t-4.5 27t-7 19t-9 14.5q-19 25 -49 40t-62 15t-58 -14.5t-45 -40t-29 -59.5t-10 -74q0 -39 10 -73t28.5 -59t45 -39.5t58.5 -14.5zM260 -5q-48 0 -88 21t-68.5 56.5t-44 81.5t-15.5 97
q0 50 15.5 96.5t44 82.5t68 57.5t88.5 21.5q43 0 79 -17.5t63 -47.5v24q0 17 11.5 27.5t28.5 10.5t28.5 -10.5t11.5 -27.5v-356q0 -17 4.5 -27t10 -17.5t10 -14.5t4.5 -18q0 -14 -11.5 -27t-30.5 -13q-20 0 -36 16t-24 44q-29 -32 -67.5 -46t-81.5 -14zM326 573
q-22 0 -39.5 8.5t-32.5 18t-26.5 18t-21.5 8.5q-9 -1 -15 -9.5t-11 -19.5q-11 -24 -34 -24q-11 0 -19 7t-8 20q0 10 6 25.5t18 30.5t29 25.5t38 10.5t38.5 -8.5t32 -18l26.5 -18t23 -8.5q9 1 15 9.5t11 19.5q10 24 34 24q11 0 19 -7t8 -20q0 -10 -6 -25.5t-18 -30.5
t-29 -25.5t-38 -10.5z" />
    <glyph glyph-name="aring" unicode="&#xe5;" horiz-adv-x="555" 
d="M269 65q29 0 60.5 15t51.5 40q10 12 15.5 29.5t5.5 52.5v84q0 22 -1.5 37.5t-4.5 27t-7 19t-9 14.5q-19 25 -49 40t-62 15t-58 -14.5t-45 -40t-29 -59.5t-10 -74q0 -39 10 -73t28.5 -59t45 -39.5t58.5 -14.5zM260 -5q-48 0 -88 21t-68.5 56.5t-44 81.5t-15.5 97
q0 50 15.5 96.5t44 82.5t68 57.5t88.5 21.5q43 0 79 -17.5t63 -47.5v24q0 17 11.5 27.5t28.5 10.5t28.5 -10.5t11.5 -27.5v-356q0 -17 4.5 -27t10 -17.5t10 -14.5t4.5 -18q0 -14 -11.5 -27t-30.5 -13q-20 0 -36 16t-24 44q-29 -32 -67.5 -46t-81.5 -14zM175 634q0 35 25 60
t60 25t60 -25t25 -60q0 -18 -7 -33.5t-18.5 -27t-27 -18.5t-32.5 -7t-32.5 7t-27 18.5t-18.5 27t-7 33.5zM214 634q0 -20 13 -33.5t33 -13.5q19 0 32 13.5t13 33.5q0 18 -13 31.5t-32 13.5q-20 0 -33 -13.5t-13 -31.5z" />
    <glyph glyph-name="ccedilla" unicode="&#xe7;" horiz-adv-x="492" 
d="M353 -105q0 -30 -22 -52.5t-63 -22.5q-22 0 -37.5 3.5t-27.5 9.5q-11 5 -16.5 12.5t-5.5 15.5q0 9 6 16.5t17 7.5q6 0 16 -5q8 -4 19.5 -8t22.5 -4q12 0 21 6.5t9 20.5q0 18 -23 24q-7 2 -15 2.5t-14 1.5l-14 2q-25 4 -25 26q0 9 7 24l11 27q-37 10 -69 32.5t-55.5 55
t-37 74t-13.5 88.5q0 52 17.5 99t48 82t73 55.5t92.5 20.5q42 0 73.5 -11.5t52.5 -28.5q26 -20 38.5 -40t12.5 -36q0 -11 -9 -23t-26 -12t-26.5 11l-22.5 26q-38 44 -94 44q-32 0 -59 -15t-46.5 -40.5t-30.5 -60t-11 -72.5q0 -39 11.5 -72.5t31.5 -59t46.5 -40t55.5 -14.5
q31 0 57 11t52 43q16 20 35 20q17 0 26.5 -11.5t9.5 -22.5q0 -17 -14.5 -35.5t-39.5 -35.5q-24 -17 -56 -28t-70 -11l-10 -28q38 -2 64.5 -17.5t26.5 -54.5z" />
    <glyph glyph-name="eacute" unicode="&#xe9;" horiz-adv-x="524" 
d="M125 236q0 -33 10.5 -63.5t30 -54.5t48 -38.5t65.5 -14.5q34 0 63 14.5t47 31.5q15 15 23.5 21t20.5 6q14 0 23.5 -10t9.5 -24q0 -17 -11.5 -31.5t-31.5 -30.5q-21 -16 -58 -31.5t-88 -15.5t-93.5 19.5t-73 54t-48 81t-17.5 100.5q0 55 17.5 102.5t48 82.5t72 54.5
t89.5 19.5q47 0 85.5 -18t66.5 -48t43 -69t15 -81q0 -57 -62 -57h-295zM270 439q-30 0 -54 -12t-42.5 -31.5t-30 -44t-15.5 -49.5h263q8 0 8 8q0 20 -7.5 43t-23.5 42t-40 31.5t-58 12.5zM296 707q16 11 30 11q17 0 26.5 -11t9.5 -25q0 -18 -13 -30l-99 -79q-16 -11 -30 -11
q-16 0 -26.5 11.5t-10.5 25.5q0 17 14 28z" />
    <glyph glyph-name="egrave" unicode="&#xe8;" horiz-adv-x="524" 
d="M125 236q0 -33 10.5 -63.5t30 -54.5t48 -38.5t65.5 -14.5q34 0 63 14.5t47 31.5q15 15 23.5 21t20.5 6q14 0 23.5 -10t9.5 -24q0 -17 -11.5 -31.5t-31.5 -30.5q-21 -16 -58 -31.5t-88 -15.5t-93.5 19.5t-73 54t-48 81t-17.5 100.5q0 55 17.5 102.5t48 82.5t72 54.5
t89.5 19.5q47 0 85.5 -18t66.5 -48t43 -69t15 -81q0 -57 -62 -57h-295zM270 439q-30 0 -54 -12t-42.5 -31.5t-30 -44t-15.5 -49.5h263q8 0 8 8q0 20 -7.5 43t-23.5 42t-40 31.5t-58 12.5zM338 627q14 -11 14 -28q0 -14 -10.5 -25.5t-26.5 -11.5q-14 0 -30 11l-99 79
q-13 12 -13 30q0 14 9.5 25t26.5 11q14 0 30 -11z" />
    <glyph glyph-name="ecircumflex" unicode="&#xea;" horiz-adv-x="524" 
d="M125 236q0 -33 10.5 -63.5t30 -54.5t48 -38.5t65.5 -14.5q34 0 63 14.5t47 31.5q15 15 23.5 21t20.5 6q14 0 23.5 -10t9.5 -24q0 -17 -11.5 -31.5t-31.5 -30.5q-21 -16 -58 -31.5t-88 -15.5t-93.5 19.5t-73 54t-48 81t-17.5 100.5q0 55 17.5 102.5t48 82.5t72 54.5
t89.5 19.5q47 0 85.5 -18t66.5 -48t43 -69t15 -81q0 -57 -62 -57h-295zM270 439q-30 0 -54 -12t-42.5 -31.5t-30 -44t-15.5 -49.5h263q8 0 8 8q0 20 -7.5 43t-23.5 42t-40 31.5t-58 12.5zM269 634l-70 -64q-11 -8 -23 -8q-14 0 -23 9t-9 22q0 15 16 30l84 76q11 10 25 10
t25 -10l84 -76q9 -8 13 -16t4 -16q0 -13 -9 -21.5t-22 -8.5t-25 9z" />
    <glyph glyph-name="edieresis" unicode="&#xeb;" horiz-adv-x="524" 
d="M125 236q0 -33 10.5 -63.5t30 -54.5t48 -38.5t65.5 -14.5q34 0 63 14.5t47 31.5q15 15 23.5 21t20.5 6q14 0 23.5 -10t9.5 -24q0 -17 -11.5 -31.5t-31.5 -30.5q-21 -16 -58 -31.5t-88 -15.5t-93.5 19.5t-73 54t-48 81t-17.5 100.5q0 55 17.5 102.5t48 82.5t72 54.5
t89.5 19.5q47 0 85.5 -18t66.5 -48t43 -69t15 -81q0 -57 -62 -57h-295zM270 439q-30 0 -54 -12t-42.5 -31.5t-30 -44t-15.5 -49.5h263q8 0 8 8q0 20 -7.5 43t-23.5 42t-40 31.5t-58 12.5zM123 624q0 18 12.5 32.5t33.5 14.5t33.5 -14.5t12.5 -32.5t-12.5 -32.5t-33.5 -14.5
t-33.5 14.5t-12.5 32.5zM309 624q0 18 12.5 32.5t33.5 14.5t33.5 -14.5t12.5 -32.5t-12.5 -32.5t-33.5 -14.5t-33.5 14.5t-12.5 32.5z" />
    <glyph glyph-name="iacute" unicode="&#xed;" horiz-adv-x="212" 
d="M146 36q0 -17 -11.5 -27.5t-28.5 -10.5t-28.5 10.5t-11.5 27.5v432q0 17 11.5 27.5t28.5 10.5t28.5 -10.5t11.5 -27.5v-432zM130 707q16 11 30 11q17 0 26.5 -11t9.5 -25q0 -18 -13 -30l-99 -79q-16 -11 -30 -11q-16 0 -26.5 11.5t-10.5 25.5q0 17 14 28z" />
    <glyph glyph-name="igrave" unicode="&#xec;" horiz-adv-x="212" 
d="M146 36q0 -17 -11.5 -27.5t-28.5 -10.5t-28.5 10.5t-11.5 27.5v432q0 17 11.5 27.5t28.5 10.5t28.5 -10.5t11.5 -27.5v-432zM182 627q14 -11 14 -28q0 -14 -10.5 -25.5t-26.5 -11.5q-14 0 -30 11l-99 79q-13 12 -13 30q0 14 9.5 25t26.5 11q14 0 30 -11z" />
    <glyph glyph-name="icircumflex" unicode="&#xee;" horiz-adv-x="212" 
d="M146 36q0 -17 -11.5 -27.5t-28.5 -10.5t-28.5 10.5t-11.5 27.5v432q0 17 11.5 27.5t28.5 10.5t28.5 -10.5t11.5 -27.5v-432zM106 634l-70 -64q-11 -8 -23 -8q-14 0 -23 9t-9 22q0 15 16 30l84 76q11 10 25 10t25 -10l84 -76q9 -8 13 -16t4 -16q0 -13 -9 -21.5t-22 -8.5
t-25 9z" />
    <glyph glyph-name="idieresis" unicode="&#xef;" horiz-adv-x="212" 
d="M146 36q0 -17 -11.5 -27.5t-28.5 -10.5t-28.5 10.5t-11.5 27.5v432q0 17 11.5 27.5t28.5 10.5t28.5 -10.5t11.5 -27.5v-432zM-33 624q0 18 12.5 32.5t33.5 14.5t33.5 -14.5t12.5 -32.5t-12.5 -32.5t-33.5 -14.5t-33.5 14.5t-12.5 32.5zM153 624q0 18 12.5 32.5t33.5 14.5
t33.5 -14.5t12.5 -32.5t-12.5 -32.5t-33.5 -14.5t-33.5 14.5t-12.5 32.5z" />
    <glyph glyph-name="ntilde" unicode="&#xf1;" horiz-adv-x="524" 
d="M378 317q0 26 -3 43.5t-8 28.5q-12 25 -34 37.5t-51 12.5q-26 0 -54 -10.5t-49 -30.5q-12 -11 -22.5 -30t-10.5 -57v-275q0 -17 -11.5 -27.5t-28.5 -10.5t-28.5 10.5t-11.5 27.5v430q0 17 11.5 28.5t28.5 11.5t28.5 -11.5t11.5 -28.5v-26q32 35 70 52t75 17
q80 0 123.5 -48.5t43.5 -135.5v-289q0 -17 -11.5 -27.5t-28.5 -10.5t-28.5 10.5t-11.5 27.5v281zM327 573q-22 0 -39.5 8.5t-32.5 18t-26.5 18t-21.5 8.5q-9 -1 -15 -9.5t-11 -19.5q-11 -24 -34 -24q-11 0 -19 7t-8 20q0 10 6 25.5t18 30.5t29 25.5t38 10.5t38.5 -8.5
t32 -18l26.5 -18t23 -8.5q9 1 15 9.5t11 19.5q10 24 34 24q11 0 19 -7t8 -20q0 -10 -6 -25.5t-18 -30.5t-29 -25.5t-38 -10.5z" />
    <glyph glyph-name="oacute" unicode="&#xf3;" horiz-adv-x="550" 
d="M275 65q30 0 57 14t47.5 39t32 59t11.5 75q0 40 -11.5 74.5t-32 59.5t-47.5 39t-57 14t-57 -14t-47.5 -39t-32 -59.5t-11.5 -74.5q0 -41 11.5 -75t32 -59t47.5 -39t57 -14zM275 -5q-47 0 -88.5 19t-73.5 53t-50.5 81.5t-18.5 103.5t18.5 103.5t50 81.5t73.5 53t89 19
t89 -19t73.5 -53t50 -81.5t18.5 -103.5t-18.5 -103.5t-50.5 -81.5t-74 -53t-88 -19zM298 707q16 11 30 11q17 0 26.5 -11t9.5 -25q0 -18 -13 -30l-99 -79q-16 -11 -30 -11q-16 0 -26.5 11.5t-10.5 25.5q0 17 14 28z" />
    <glyph glyph-name="ograve" unicode="&#xf2;" horiz-adv-x="550" 
d="M275 65q30 0 57 14t47.5 39t32 59t11.5 75q0 40 -11.5 74.5t-32 59.5t-47.5 39t-57 14t-57 -14t-47.5 -39t-32 -59.5t-11.5 -74.5q0 -41 11.5 -75t32 -59t47.5 -39t57 -14zM275 -5q-47 0 -88.5 19t-73.5 53t-50.5 81.5t-18.5 103.5t18.5 103.5t50 81.5t73.5 53t89 19
t89 -19t73.5 -53t50 -81.5t18.5 -103.5t-18.5 -103.5t-50.5 -81.5t-74 -53t-88 -19zM350 627q14 -11 14 -28q0 -14 -10.5 -25.5t-26.5 -11.5q-14 0 -30 11l-99 79q-13 12 -13 30q0 14 9.5 25t26.5 11q14 0 30 -11z" />
    <glyph glyph-name="ocircumflex" unicode="&#xf4;" horiz-adv-x="550" 
d="M275 65q30 0 57 14t47.5 39t32 59t11.5 75q0 40 -11.5 74.5t-32 59.5t-47.5 39t-57 14t-57 -14t-47.5 -39t-32 -59.5t-11.5 -74.5q0 -41 11.5 -75t32 -59t47.5 -39t57 -14zM275 -5q-47 0 -88.5 19t-73.5 53t-50.5 81.5t-18.5 103.5t18.5 103.5t50 81.5t73.5 53t89 19
t89 -19t73.5 -53t50 -81.5t18.5 -103.5t-18.5 -103.5t-50.5 -81.5t-74 -53t-88 -19zM275 634l-70 -64q-11 -8 -23 -8q-14 0 -23 9t-9 22q0 15 16 30l84 76q11 10 25 10t25 -10l84 -76q9 -8 13 -16t4 -16q0 -13 -9 -21.5t-22 -8.5t-25 9z" />
    <glyph glyph-name="odieresis" unicode="&#xf6;" horiz-adv-x="550" 
d="M275 65q30 0 57 14t47.5 39t32 59t11.5 75q0 40 -11.5 74.5t-32 59.5t-47.5 39t-57 14t-57 -14t-47.5 -39t-32 -59.5t-11.5 -74.5q0 -41 11.5 -75t32 -59t47.5 -39t57 -14zM275 -5q-47 0 -88.5 19t-73.5 53t-50.5 81.5t-18.5 103.5t18.5 103.5t50 81.5t73.5 53t89 19
t89 -19t73.5 -53t50 -81.5t18.5 -103.5t-18.5 -103.5t-50.5 -81.5t-74 -53t-88 -19zM136 624q0 18 12.5 32.5t33.5 14.5t33.5 -14.5t12.5 -32.5t-12.5 -32.5t-33.5 -14.5t-33.5 14.5t-12.5 32.5zM322 624q0 18 12.5 32.5t33.5 14.5t33.5 -14.5t12.5 -32.5t-12.5 -32.5
t-33.5 -14.5t-33.5 14.5t-12.5 32.5z" />
    <glyph glyph-name="otilde" unicode="&#xf5;" horiz-adv-x="550" 
d="M275 65q30 0 57 14t47.5 39t32 59t11.5 75q0 40 -11.5 74.5t-32 59.5t-47.5 39t-57 14t-57 -14t-47.5 -39t-32 -59.5t-11.5 -74.5q0 -41 11.5 -75t32 -59t47.5 -39t57 -14zM275 -5q-47 0 -88.5 19t-73.5 53t-50.5 81.5t-18.5 103.5t18.5 103.5t50 81.5t73.5 53t89 19
t89 -19t73.5 -53t50 -81.5t18.5 -103.5t-18.5 -103.5t-50.5 -81.5t-74 -53t-88 -19zM333 573q-22 0 -39.5 8.5t-32.5 18t-26.5 18t-21.5 8.5q-9 -1 -15 -9.5t-11 -19.5q-11 -24 -34 -24q-11 0 -19 7t-8 20q0 10 6 25.5t18 30.5t29 25.5t38 10.5t38.5 -8.5t32 -18l26.5 -18
t23 -8.5q9 1 15 9.5t11 19.5q10 24 34 24q11 0 19 -7t8 -20q0 -10 -6 -25.5t-18 -30.5t-29 -25.5t-38 -10.5z" />
    <glyph glyph-name="uacute" unicode="&#xfa;" horiz-adv-x="524" 
d="M146 187q0 -26 3 -43.5t8 -28.5q12 -25 34 -37.5t51 -12.5q26 0 54 10.5t49 30.5q12 11 22.5 30t10.5 57v275q0 17 11.5 27.5t28.5 10.5t28.5 -10.5t11.5 -27.5v-430q0 -17 -11.5 -28.5t-28.5 -11.5t-28.5 11.5t-11.5 28.5v26q-32 -35 -70 -52t-75 -17q-80 0 -123.5 48.5
t-43.5 135.5v289q0 17 11.5 27.5t28.5 10.5t28.5 -10.5t11.5 -27.5v-281zM286 707q16 11 30 11q17 0 26.5 -11t9.5 -25q0 -18 -13 -30l-99 -79q-16 -11 -30 -11q-16 0 -26.5 11.5t-10.5 25.5q0 17 14 28z" />
    <glyph glyph-name="ugrave" unicode="&#xf9;" horiz-adv-x="524" 
d="M146 187q0 -26 3 -43.5t8 -28.5q12 -25 34 -37.5t51 -12.5q26 0 54 10.5t49 30.5q12 11 22.5 30t10.5 57v275q0 17 11.5 27.5t28.5 10.5t28.5 -10.5t11.5 -27.5v-430q0 -17 -11.5 -28.5t-28.5 -11.5t-28.5 11.5t-11.5 28.5v26q-32 -35 -70 -52t-75 -17q-80 0 -123.5 48.5
t-43.5 135.5v289q0 17 11.5 27.5t28.5 10.5t28.5 -10.5t11.5 -27.5v-281zM338 627q14 -11 14 -28q0 -14 -10.5 -25.5t-26.5 -11.5q-14 0 -30 11l-99 79q-13 12 -13 30q0 14 9.5 25t26.5 11q14 0 30 -11z" />
    <glyph glyph-name="ucircumflex" unicode="&#xfb;" horiz-adv-x="524" 
d="M146 187q0 -26 3 -43.5t8 -28.5q12 -25 34 -37.5t51 -12.5q26 0 54 10.5t49 30.5q12 11 22.5 30t10.5 57v275q0 17 11.5 27.5t28.5 10.5t28.5 -10.5t11.5 -27.5v-430q0 -17 -11.5 -28.5t-28.5 -11.5t-28.5 11.5t-11.5 28.5v26q-32 -35 -70 -52t-75 -17q-80 0 -123.5 48.5
t-43.5 135.5v289q0 17 11.5 27.5t28.5 10.5t28.5 -10.5t11.5 -27.5v-281zM262 634l-70 -64q-11 -8 -23 -8q-14 0 -23 9t-9 22q0 15 16 30l84 76q11 10 25 10t25 -10l84 -76q9 -8 13 -16t4 -16q0 -13 -9 -21.5t-22 -8.5t-25 9z" />
    <glyph glyph-name="udieresis" unicode="&#xfc;" horiz-adv-x="524" 
d="M146 187q0 -26 3 -43.5t8 -28.5q12 -25 34 -37.5t51 -12.5q26 0 54 10.5t49 30.5q12 11 22.5 30t10.5 57v275q0 17 11.5 27.5t28.5 10.5t28.5 -10.5t11.5 -27.5v-430q0 -17 -11.5 -28.5t-28.5 -11.5t-28.5 11.5t-11.5 28.5v26q-32 -35 -70 -52t-75 -17q-80 0 -123.5 48.5
t-43.5 135.5v289q0 17 11.5 27.5t28.5 10.5t28.5 -10.5t11.5 -27.5v-281zM123 624q0 18 12.5 32.5t33.5 14.5t33.5 -14.5t12.5 -32.5t-12.5 -32.5t-33.5 -14.5t-33.5 14.5t-12.5 32.5zM309 624q0 18 12.5 32.5t33.5 14.5t33.5 -14.5t12.5 -32.5t-12.5 -32.5t-33.5 -14.5
t-33.5 14.5t-12.5 32.5z" />
    <glyph glyph-name="dagger" unicode="&#x2020;" horiz-adv-x="500" 
d="M210 681q0 17 11.5 27.5t28.5 10.5t28.5 -10.5t11.5 -27.5v-177h145q14 0 23.5 -10.5t9.5 -24.5t-9.5 -24.5t-23.5 -10.5h-145v-537q0 -17 -11.5 -27.5t-28.5 -10.5t-28.5 10.5t-11.5 27.5v537h-145q-14 0 -23.5 10.5t-9.5 24.5t9.5 24.5t23.5 10.5h145v177z" />
    <glyph glyph-name="degree" unicode="&#xb0;" horiz-adv-x="442" 
d="M88 586q0 27 10.5 51t29 42.5t42.5 29t51 10.5t51 -10.5t42.5 -29t29 -42.5t10.5 -51t-10.5 -51.5t-29 -42.5t-42.5 -28.5t-51 -10.5t-51 10.5t-42.5 28.5t-29 42.5t-10.5 51.5zM149 586q0 -30 21 -51.5t51 -21.5q29 0 49.5 21.5t20.5 51.5q0 29 -20.5 49.5t-49.5 20.5
q-30 0 -51 -20.5t-21 -49.5z" />
    <glyph glyph-name="cent" unicode="&#xa2;" 
d="M338 590q32 -4 57 -15t43 -24q24 -17 39.5 -36t15.5 -33q0 -12 -8.5 -23.5t-24.5 -11.5t-26 11t-24 25q-14 15 -34 27t-38 14v-357q23 3 44.5 16.5t41.5 35.5q18 19 34 19q17 0 26 -11t9 -22q0 -16 -15.5 -33t-40.5 -34q-42 -29 -99 -37v-70q0 -17 -9.5 -26.5t-26.5 -9.5
t-26.5 9.5t-9.5 26.5v72q-41 7 -75 28.5t-58.5 53.5t-38 73t-13.5 88t13.5 88t37.5 73t58 53t76 28v71q0 17 9.5 26.5t26.5 9.5t26.5 -9.5t9.5 -26.5v-69zM157 345q0 -31 8 -60t22.5 -53t34.5 -41t44 -23v356q-20 -4 -39.5 -18t-35 -37.5t-25 -54.5t-9.5 -69z" />
    <glyph glyph-name="sterling" unicode="&#xa3;" 
d="M423 576q-41 45 -100 45q-23 0 -45.5 -7.5t-40 -25t-28 -46.5t-10.5 -72q0 -17 1.5 -40t5.5 -68h155q17 0 28.5 -10t11.5 -24v-4q0 -14 -11.5 -24t-28.5 -10h-148q2 -20 2.5 -40t0.5 -37q0 -35 -9 -71.5t-26 -64.5h295q19 0 28.5 -11t9.5 -25t-9 -25t-29 -11h-369
q-19 0 -30 11.5t-11 24.5q0 9 5.5 16.5t15.5 18.5q26 26 37.5 59.5t11.5 76.5q0 14 -1.5 34.5t-3.5 43.5h-59q-17 0 -28.5 10t-11.5 24v4q0 14 11.5 24t28.5 10h53q-4 45 -5 68t-1 40q0 57 16.5 99t44.5 69.5t65 41t77 13.5q39 0 73.5 -10.5t61.5 -31.5q26 -20 38.5 -40
t12.5 -36q0 -11 -9.5 -23.5t-26.5 -12.5q-16 0 -24 9z" />
    <glyph glyph-name="section" unicode="&#xa7;" horiz-adv-x="500" 
d="M52 295q0 24 8 45t21.5 39t29.5 33.5t33 27.5q-33 21 -49 54.5t-16 67.5q0 29 10.5 56.5t32 49.5t54 35t77.5 13q32 0 61.5 -7.5t52.5 -22.5q19 -13 36 -31.5t18 -39.5q0 -15 -10 -24t-24 -9q-11 0 -18.5 6l-13.5 11q-26 25 -50.5 37t-56.5 12q-42 0 -67 -25t-25 -58
q0 -24 16 -48.5t53 -43.5q13 -7 27 -13t28 -11q29 -14 59 -30t54 -37.5t39.5 -50.5t15.5 -68q0 -24 -8 -45t-21.5 -39t-30 -33.5t-32.5 -27.5q33 -21 49 -55.5t16 -68.5q0 -29 -10.5 -57t-32 -50.5t-54 -36.5t-77.5 -14q-32 0 -61.5 7.5t-52.5 22.5q-19 13 -36 31.5
t-18 39.5q0 16 10 24.5t24 8.5q11 0 18.5 -5.5t13.5 -10.5q26 -26 50.5 -37.5t56.5 -11.5q21 0 38 7t29 19t18.5 27.5t6.5 32.5q0 24 -16 50t-53 44q-13 7 -27 13l-28 12q-29 13 -59 29t-54 37.5t-39.5 50.5t-15.5 68zM371 257q0 27 -11 46t-28 34t-39 26l-44 21l-53 25
q-31 -23 -49 -47.5t-18 -59.5q0 -27 11 -46.5t28.5 -34.5t39 -26t43.5 -21q17 -8 28 -12.5t25 -12.5q31 23 49 48t18 60z" />
    <glyph glyph-name="bullet" unicode="&#x2022;" horiz-adv-x="296" 
d="M149 349q38 0 59.5 -25.5t21.5 -55.5q0 -29 -22 -53t-59 -24q-19 0 -34 7t-25.5 18.5t-16 25.5t-5.5 29t5.5 29t16 25t25.5 17.5t34 6.5z" />
    <glyph glyph-name="paragraph" unicode="&#xb6;" horiz-adv-x="500" 
d="M472 648q0 -14 -11.5 -24t-28.5 -10h-21v-736q0 -14 -10.5 -24t-27.5 -10t-27.5 10t-10.5 24v736h-83v-736q0 -14 -10.5 -24t-27.5 -10t-27.5 10t-10.5 24v456q-35 9 -61 26t-43 39.5t-25 48.5t-8 53q0 34 12.5 67.5t37.5 59.5t61 42t83 16h199q17 0 28.5 -10t11.5 -24
v-4z" />
    <glyph glyph-name="germandbls" unicode="&#xdf;" horiz-adv-x="553" 
d="M424 197q0 54 -32 91.5t-104 41.5l-18 1q-18 2 -27 11.5t-9 22.5q0 12 9 23.5t27 13.5l7 1q23 3 42 14.5t33 28t22 38t8 45.5q0 29 -10 51t-26 36.5t-37.5 22t-43.5 7.5q-35 0 -58 -12.5t-36.5 -34.5t-19 -50.5t-5.5 -59.5v-456q0 -14 -11.5 -24.5t-28.5 -10.5
t-28.5 10.5t-11.5 24.5v458q0 35 3 55.5t8 37.5q22 70 75 102t117 32q37 0 72 -11.5t62.5 -34.5t44.5 -56.5t17 -78.5q0 -53 -24.5 -94.5t-76.5 -67.5q75 -19 109 -69t34 -112q0 -42 -16 -78.5t-42.5 -62.5t-61.5 -41t-73 -15q-29 0 -54.5 6.5t-44.5 14.5q-21 10 -21 32
q0 14 10 26t26 12q7 0 20 -5q11 -5 27.5 -9.5t36.5 -4.5q27 0 47.5 10t34.5 27.5t21 41t7 49.5z" />
    <glyph glyph-name="registered" unicode="&#xae;" horiz-adv-x="799" 
d="M278 530q0 11 9 23t26 12h91q35 0 61 -11t43 -29t25.5 -40t8.5 -44q0 -35 -21 -67.5t-64 -46.5l44.5 -58.5t42.5 -52.5q11 -13 13 -21t2 -13q0 -16 -12.5 -25.5t-24.5 -9.5q-18 0 -35 20t-45.5 58t-55.5 80q-3 4 -6.5 7t-11.5 3h-20v-134q0 -16 -10 -25t-25 -9t-25 9
t-10 25v349zM348 374h55q32 0 48.5 20.5t16.5 46.5q0 23 -16 42.5t-48 19.5h-56v-129zM752 347q0 -65 -22 -128.5t-66 -113t-110 -80t-154 -30.5t-154 30.5t-110.5 80t-66.5 113t-22 128.5t22 127.5t66 112t110 79.5t155 30q88 0 154.5 -30t110 -79.5t65.5 -112t22 -127.5z
M687 347q0 53 -18 104.5t-53.5 92t-89.5 65.5t-126 25t-126 -25t-90 -65.5t-54 -92t-18 -104.5t18 -105t54 -93t90 -66.5t126 -25.5t125.5 25.5t89.5 66.5t54 93t18 105z" />
    <glyph glyph-name="copyright" unicode="&#xa9;" horiz-adv-x="799" 
d="M403 493q-30 0 -52.5 -12.5t-37 -32.5t-22 -46t-7.5 -53q0 -28 8 -55t23.5 -48t37.5 -33.5t50 -12.5q29 0 49.5 11t42.5 37q8 8 14.5 11t14.5 3q14 0 22 -9.5t8 -20.5t-10 -25t-27 -28q-19 -15 -46 -27t-65 -12q-47 0 -82.5 18t-59.5 47t-36 66t-12 75q0 39 12.5 76
t36.5 66t59.5 47t81.5 18q38 0 66.5 -13t45.5 -27q16 -14 26 -28.5t10 -25.5q0 -12 -8.5 -21.5t-22.5 -9.5q-8 0 -14 3t-14 11q-23 26 -43 38.5t-49 12.5zM752 347q0 -65 -22 -128.5t-66 -113t-110 -80t-154 -30.5t-154 30.5t-110.5 80t-66.5 113t-22 128.5t22 127.5t66 112
t110 79.5t155 30q88 0 154.5 -30t110 -79.5t65.5 -112t22 -127.5zM687 347q0 53 -18 104.5t-53.5 92t-89.5 65.5t-126 25t-126 -25t-90 -65.5t-54 -92t-18 -104.5t18 -105t54 -93t90 -66.5t126 -25.5t125.5 25.5t89.5 66.5t54 93t18 105z" />
    <glyph glyph-name="trademark" unicode="&#x2122;" horiz-adv-x="584" 
d="M540 448q0 -11 -8 -17t-18 -6t-18 6t-8 17v135l-49 -78q-11 -15 -25 -15t-23 15l-49 77v-133q0 -12 -8 -18t-18 -6t-18 6t-8 18v216q0 11 8 16t18 5q8 0 14.5 -2.5t10.5 -8.5l78 -119l70 118q7 12 24 12q11 0 19 -5.5t8 -16.5v-216zM226 686q11 0 17 -7.5t6 -16.5
q0 -8 -5.5 -15t-17.5 -7h-60v-191q0 -12 -8 -18t-18 -6t-18 6t-8 18v191h-60q-12 0 -17.5 7t-5.5 16q0 8 5.5 15.5t17.5 7.5h172z" />
    <glyph glyph-name="acute" unicode="&#xb4;" horiz-adv-x="550" 
d="M298 707q16 11 30 11q17 0 26.5 -11t9.5 -25q0 -18 -13 -30l-99 -79q-16 -11 -30 -11q-16 0 -26.5 11.5t-10.5 25.5q0 17 14 28z" />
    <glyph glyph-name="dieresis" unicode="&#xa8;" horiz-adv-x="550" 
d="M136 624q0 18 12.5 32.5t33.5 14.5t33.5 -14.5t12.5 -32.5t-12.5 -32.5t-33.5 -14.5t-33.5 14.5t-12.5 32.5zM322 624q0 18 12.5 32.5t33.5 14.5t33.5 -14.5t12.5 -32.5t-12.5 -32.5t-33.5 -14.5t-33.5 14.5t-12.5 32.5z" />
    <glyph glyph-name="notequal" unicode="&#x2260;" 
d="M201 190l85 124h-174q-14 0 -23.5 10.5t-9.5 24.5t9.5 24.5t23.5 10.5h222l72 105q8 12 16.5 16t16.5 4q14 0 25 -9t11 -25q0 -8 -5 -18t-12 -20l-36 -53h40q14 0 23.5 -10.5t9.5 -24.5t-9.5 -24.5t-23.5 -10.5h-88l-85 -124h173q14 0 23.5 -10.5t9.5 -24.5t-9.5 -24.5
t-23.5 -10.5h-221l-73 -108q-8 -11 -16.5 -14.5t-16.5 -3.5q-14 0 -25 9t-11 24q0 11 5 20t12 19l37 54h-41q-14 0 -23.5 10.5t-9.5 24.5t9.5 24.5t23.5 10.5h89z" />
    <glyph glyph-name="AE" unicode="&#xc6;" horiz-adv-x="907" 
d="M821 347q0 -16 -10 -26.5t-26 -10.5h-223v-232h252q17 0 27 -11t10 -25q0 -17 -10 -27t-27 -10h-296q-16 0 -28 10t-12 25v182h-255l-123 -202q-6 -10 -15 -16.5t-22 -6.5q-16 0 -29.5 11.5t-13.5 28.5q0 8 3.5 15.5t8.5 15.5l50.5 83l64 102.5l72 112.5l73.5 112.5
l68.5 102.5l57.5 83q9 12 19.5 17t21.5 5h353q15 0 25.5 -11.5t10.5 -25.5q0 -17 -10.5 -26.5t-25.5 -9.5h-250v-230h223q16 0 26 -10t10 -26zM478 615l-98 -148l-112 -174h210v322z" />
    <glyph glyph-name="Oslash" unicode="&#xd8;" horiz-adv-x="742" 
d="M371 -5q-52 0 -99.5 16t-87.5 46l-32 -39q-12 -14 -21.5 -18.5t-17.5 -4.5q-15 0 -26 10.5t-11 26.5t13 32l39 48q-36 45 -57 104t-21 130q0 79 26 143.5t70 110.5t102 71t123 25q51 0 98.5 -16t88.5 -46l32 39q12 14 21.5 18.5t17.5 4.5q15 0 26 -10.5t11 -26.5t-13 -32
l-39 -48q36 -45 57 -103.5t21 -129.5q0 -78 -26 -143t-70 -111t-102.5 -71.5t-122.5 -25.5zM138 346q0 -51 11.5 -93.5t31.5 -76.5l327 398q-60 48 -137 48q-48 0 -90 -20t-74 -56t-50.5 -87t-18.5 -113zM371 69q47 0 89.5 20t74.5 56.5t50.5 87.5t18.5 113q0 51 -11.5 93
t-32.5 75l-327 -397q29 -24 64.5 -36t73.5 -12z" />
    <glyph glyph-name="infinity" unicode="&#x221e;" horiz-adv-x="788" 
d="M559 71q-56 0 -97.5 28.5t-71.5 73.5q-12 -20 -28.5 -38.5t-36.5 -32.5t-44 -22.5t-52 -8.5q-33 0 -66 11.5t-59.5 35t-43 60t-16.5 87.5q0 46 16.5 82t43 61t59.5 37.5t66 12.5q57 0 99 -30.5t70 -77.5q13 22 29 41.5t36 34.5t44 23.5t52 8.5q33 0 66 -12.5t59.5 -37.5
t43 -61t16.5 -82q0 -51 -16.5 -87.5t-43 -60t-59.5 -35t-66 -11.5zM559 143q18 0 36.5 7t33.5 22t24.5 38t9.5 55q0 29 -9.5 51.5t-24.5 38t-33.5 23.5t-36.5 8q-21 0 -39.5 -10t-34.5 -27.5t-29.5 -40.5t-25.5 -49q23 -49 54.5 -82.5t74.5 -33.5zM229 143q42 0 73.5 33.5
t54.5 83.5q-11 25 -24.5 48t-29.5 40.5t-34.5 27.5t-39.5 10q-18 0 -36.5 -8t-33.5 -23.5t-24.5 -38t-9.5 -51.5q0 -32 9.5 -55t24.5 -38t33.5 -22t36.5 -7z" />
    <glyph glyph-name="plusminus" unicode="&#xb1;" 
d="M102 287q-14 0 -23.5 10.5t-9.5 24.5t9.5 24.5t23.5 10.5h146v143q0 17 11 27.5t28 10.5t28 -10.5t11 -27.5v-143h146q14 0 23.5 -10.5t9.5 -24.5t-9.5 -24.5t-23.5 -10.5h-146v-133q0 -17 -11 -27.5t-28 -10.5t-28 10.5t-11 27.5v133h-146zM472 74q14 0 23.5 -10.5
t9.5 -24.5t-9.5 -24.5t-23.5 -10.5h-370q-14 0 -23.5 10.5t-9.5 24.5t9.5 24.5t23.5 10.5h370z" />
    <glyph glyph-name="lessequal" unicode="&#x2264;" 
d="M456 74q14 0 23.5 -10.5t9.5 -24.5t-9.5 -24.5t-23.5 -10.5h-338q-14 0 -23.5 10.5t-9.5 24.5t9.5 24.5t23.5 10.5h338zM85 324q0 11 5.5 20.5t16.5 14.5l321 162q9 5 14.5 6t10.5 1q16 0 26 -11t10 -26q0 -21 -21 -32l-269 -134l269 -135q21 -11 21 -33q0 -15 -10 -26
t-26 -11q-5 0 -10.5 1t-14.5 6l-321 162q-11 5 -16.5 14.5t-5.5 20.5z" />
    <glyph glyph-name="greaterequal" unicode="&#x2265;" 
d="M456 74q14 0 23.5 -10.5t9.5 -24.5t-9.5 -24.5t-23.5 -10.5h-338q-14 0 -23.5 10.5t-9.5 24.5t9.5 24.5t23.5 10.5h338zM489 324q0 -11 -5.5 -20.5t-16.5 -14.5l-321 -162q-9 -5 -14.5 -6t-10.5 -1q-16 0 -26 11t-10 26q0 22 21 33l269 135l-269 134q-21 11 -21 32
q0 15 10 26t26 11q5 0 10.5 -1t14.5 -6l321 -162q11 -5 16.5 -14.5t5.5 -20.5z" />
    <glyph glyph-name="yen" unicode="&#xa5;" 
d="M241 190h-129q-19 0 -28.5 11t-9.5 24t9 23t29 10h129v75h-129q-19 0 -28.5 11t-9.5 24t9 23t29 10h100q-46 63 -85.5 123.5l-65.5 102.5q-9 16 -9 27q0 14 11 28t31 14q8 0 18 -4t17 -15l67 -107t90 -134q17 23 39.5 56.5l45 68l42.5 65.5l31 49q8 12 17 16.5t20 4.5
q19 0 30 -14t11 -28q0 -13 -12 -32l-52 -76l-50.5 -72l-52.5 -73h100q19 0 28.5 -11t9.5 -24t-9.5 -23t-28.5 -10h-130v-75h130q19 0 28.5 -11t9.5 -24t-9.5 -23t-28.5 -10h-130v-152q0 -17 -12.5 -28.5t-29.5 -11.5t-29.5 11.5t-12.5 28.5v152z" />
    <glyph glyph-name="mu" unicode="&#xb5;" horiz-adv-x="524" 
d="M378 64q-22 -34 -52 -50t-62 -16t-62.5 15.5t-55.5 50.5v-214q0 -17 -11.5 -28.5t-28.5 -11.5t-28.5 11.5t-11.5 28.5v618q0 17 11.5 27.5t28.5 10.5t28.5 -10.5t11.5 -27.5v-275q0 -38 10.5 -57t22.5 -30q39 -38 83 -38q20 0 41 9t42 29q12 11 22.5 30t10.5 57v275
q0 17 11.5 27.5t28.5 10.5t28.5 -10.5t11.5 -27.5v-430q0 -17 -11.5 -28.5t-28.5 -11.5t-28.5 11.5t-11.5 28.5v26v0z" />
    <glyph glyph-name="partialdiff" unicode="&#x2202;" 
d="M52 242q0 53 17.5 99.5t49.5 81.5t77.5 55.5t101.5 20.5q44 0 88 -12q-16 31 -36.5 58t-45 46.5t-51.5 31t-56 11.5q-20 0 -40.5 -5.5t-52.5 -17.5q-8 -3 -15 -3q-16 0 -25.5 11.5t-9.5 25.5q0 11 6.5 20.5t20.5 15.5q34 14 60 19.5t56 5.5q69 0 127 -36t100.5 -96
t66.5 -137t24 -159q0 -67 -21 -119.5t-55 -88.5t-77.5 -54.5t-89.5 -18.5q-54 0 -95 21.5t-68.5 56t-42 78.5t-14.5 89zM432 278q0 33 -5.5 70.5t-14.5 67.5q-29 11 -56.5 13t-44.5 2q-47 0 -80.5 -16.5t-54.5 -43t-31 -60.5t-10 -69q0 -32 9 -63t26 -55.5t43 -39.5t59 -15
q31 0 59.5 14t51 40.5t36 65.5t13.5 89z" />
    <glyph glyph-name="summation" unicode="&#x2211;" horiz-adv-x="672" 
d="M362 265l-272 385q-10 14 -10 29t10.5 25t25.5 10h441q17 0 28.5 -10t11.5 -24v-4q0 -14 -11.5 -24t-28.5 -10h-362l247 -348q20 -29 0 -57l-247 -350h362q17 0 28.5 -10t11.5 -24v-4q0 -14 -11.5 -24t-28.5 -10h-441q-15 0 -25.5 10t-10.5 25t10 29z" />
    <glyph glyph-name="product" unicode="&#x220f;" horiz-adv-x="750" 
d="M634 714q17 0 29 -13t12 -28v-821q0 -20 -12 -29.5t-27 -9.5t-28 9.5t-13 29.5v793h-440v-793q0 -20 -12 -29.5t-27 -9.5t-28 9.5t-13 29.5v821q0 15 12 28t29 13h518z" />
    <glyph glyph-name="pi" unicode="&#x3c0;" horiz-adv-x="572" 
d="M180 434v-398q0 -17 -11.5 -27.5t-28.5 -10.5t-28.5 10.5t-11.5 27.5v398h-51q-14 0 -23.5 10.5t-9.5 24.5t9.5 24.5t23.5 10.5h474q14 0 23.5 -10.5t9.5 -24.5t-9.5 -24.5t-23.5 -10.5h-51v-398q0 -17 -11.5 -27.5t-28.5 -10.5t-28.5 10.5t-11.5 27.5v398h-212z" />
    <glyph glyph-name="integral" unicode="&#x222b;" horiz-adv-x="412" 
d="M248 3q0 -43 -8 -78t-26.5 -60t-48.5 -39t-75 -14q-9 0 -21 1.5t-22.5 6t-17.5 13t-7 21.5q0 16 10.5 25t24.5 9q5 0 9.5 -0.5t9.5 -1.5t9.5 -1.5t12.5 -0.5q39 0 52.5 32.5t13.5 86.5v523q0 43 8 78t26.5 60t48.5 39t75 14q9 0 21 -1.5t22.5 -6t17.5 -13t7 -21.5
q0 -16 -10.5 -25t-24.5 -9q-5 0 -9.5 0.5t-9.5 1.5t-9.5 1.5t-12.5 0.5q-39 0 -52.5 -32.5t-13.5 -86.5v-523z" />
    <glyph glyph-name="ordfeminine" unicode="&#xaa;" horiz-adv-x="329" 
d="M269 398q-15 0 -27 10t-18 26q-16 -17 -37.5 -26.5t-45.5 -9.5q-21 0 -41.5 10.5t-36.5 29.5t-25.5 46t-9.5 61t10.5 61t27.5 46t38 29.5t43 10.5q17 0 35.5 -8.5t32.5 -25.5q0 17 12 25t23 8q14 0 24.5 -9.5t10.5 -24.5v-171q0 -10 3 -16.5t7 -12t7 -11t3 -12.5
q0 -12 -10 -24t-26 -12zM269 352q14 0 24.5 -10t10.5 -24t-10.5 -24t-24.5 -10h-204q-14 0 -24.5 10t-10.5 24t10.5 24t24.5 10h204zM159 457q23 0 39.5 16t16.5 36v76q0 20 -16.5 35t-39.5 15q-26 0 -41.5 -26t-15.5 -63q0 -36 14.5 -62.5t42.5 -26.5z" />
    <glyph glyph-name="ordmasculine" unicode="&#xba;" horiz-adv-x="326" 
d="M260 352q14 0 24.5 -10t10.5 -24t-10.5 -24t-24.5 -10h-194q-14 0 -24.5 10t-10.5 24t10.5 24t24.5 10h194zM163 460q27 0 48 24.5t21 63.5t-21 63.5t-48 24.5t-48 -24.5t-21 -63.5t21 -63.5t48 -24.5zM163 401q-27 0 -51 11t-42.5 30.5t-29.5 46.5t-11 59t10.5 59
t29 46.5t43 30.5t51.5 11t51.5 -11t43 -30.5t29 -46.5t10.5 -59t-11 -59t-29.5 -46.5t-42.5 -30.5t-51 -11z" />
    <glyph glyph-name="Omega" unicode="&#x2126;" horiz-adv-x="742" 
d="M371 621q-47 0 -89 -19.5t-73.5 -55.5t-50 -85.5t-18.5 -109.5q0 -51 13 -93.5t34.5 -76t49.5 -58.5t58 -42l7 -4q13 -8 19.5 -18.5t6.5 -21.5q0 -13 -9.5 -22.5t-29.5 -9.5h-202q-17 0 -25.5 11t-8.5 25t8.5 24.5t25.5 10.5h99q-60 48 -96.5 121t-36.5 158
q0 79 25.5 142t69 107t101.5 68t122 24t122 -24t101.5 -68t69 -107t25.5 -142q0 -85 -36.5 -158t-96.5 -121h99q17 0 25.5 -11t8.5 -25t-8.5 -24.5t-25.5 -10.5h-202q-20 0 -29.5 9.5t-9.5 22.5q0 11 6.5 21.5t19.5 18.5l7 4q30 17 58 42t49.5 58.5t34.5 76t13 93.5
q0 60 -18.5 109.5t-50 85.5t-73.5 55.5t-89 19.5z" />
    <glyph glyph-name="ae" unicode="&#xe6;" horiz-adv-x="788" 
d="M402 236q0 -34 9.5 -65t27.5 -54.5t44.5 -37.5t61.5 -14q34 0 62 14.5t46 31.5q15 15 23.5 21t20.5 6q14 0 23.5 -10t9.5 -24q0 -17 -11.5 -31.5t-31.5 -30.5q-21 -16 -57 -31.5t-87 -15.5t-92.5 19.5t-70.5 54.5q-14 -12 -31.5 -25t-39.5 -24t-48 -18t-57 -7
q-50 0 -81.5 13.5t-50.5 33.5t-26 43.5t-7 43.5q0 31 13.5 60t46.5 52t87.5 38.5t137.5 20.5v7t0.5 13t0.5 13v6v5q0 40 -21 67.5t-68 27.5q-26 0 -51 -8.5t-40 -16.5l-25.5 -14.5t-25.5 -6.5q-17 0 -26 10.5t-9 24.5q0 11 6.5 22.5t27.5 22.5q29 15 65 25.5t84 10.5
q54 0 90.5 -23t53.5 -69q29 44 72 68t97 24q44 0 79.5 -18t60 -48t38 -69t13.5 -81q0 -57 -62 -57h-282zM208 63q38 0 75 19t63 42q-22 52 -22 112q-60 -2 -99.5 -11.5t-63 -24.5t-33 -32.5t-9.5 -33.5q0 -32 23.5 -51.5t65.5 -19.5zM546 439q-29 0 -53 -11t-42 -29.5
t-30 -43.5t-16 -53h250q8 0 8 8q0 20 -5.5 43t-19 42t-36 31.5t-56.5 12.5z" />
    <glyph glyph-name="oslash" unicode="&#xf8;" horiz-adv-x="550" 
d="M275 -5q-36 0 -68.5 11.5t-61.5 31.5l-18 -23q-9 -11 -16.5 -15.5t-18.5 -4.5q-14 0 -24.5 10t-10.5 25t13 31l24 29q-23 32 -36.5 73t-13.5 89q0 56 18.5 103.5t50 81.5t73.5 53t89 19q35 0 68 -11.5t61 -31.5l20 25q15 18 32 18q14 0 25 -10.5t11 -24.5q0 -15 -11 -29
l-26 -31q24 -32 37.5 -73t13.5 -89q0 -56 -18.5 -103.5t-50.5 -81.5t-74 -53t-88 -19zM275 65q30 0 57 14t47.5 39t32 59t11.5 75q0 27 -5.5 51.5t-15.5 45.5l-210 -254q36 -30 83 -30zM127 252q0 -54 20 -97l209 254q-36 30 -81 30q-30 0 -57 -14t-47.5 -39t-32 -59.5
t-11.5 -74.5z" />
    <glyph glyph-name="questiondown" unicode="&#xbf;" horiz-adv-x="519" 
d="M266 -118q27 0 49.5 8.5t38.5 22.5t24.5 32t8.5 38q0 8 -0.5 13t-0.5 15q0 17 11.5 25.5t26.5 8.5q25 0 33 -19.5t8 -42.5q0 -29 -13.5 -59.5t-39.5 -56t-63 -41.5t-83 -16q-43 0 -80 13t-64 36t-42 53t-15 65q0 31 10 57.5t25 50t33.5 43.5l35.5 38q13 13 25.5 27
t22.5 30t16 34.5t6 39.5q0 4 -0.5 8t-0.5 9q0 15 12 23.5t26 8.5q16 0 27 -9t13 -26q1 -7 1.5 -13.5t0.5 -13.5q0 -26 -9 -49.5t-22.5 -43.5t-30.5 -38l-32 -33l-26 -28t-25 -32.5t-18.5 -36.5t-7.5 -39q0 -44 31 -73t88 -29zM230 459q0 21 14 35.5t35 14.5t35 -14.5
t14 -35.5t-14 -35.5t-35 -14.5t-35 14.5t-14 35.5z" />
    <glyph glyph-name="exclamdown" unicode="&#xa1;" horiz-adv-x="234" 
d="M68 459q0 21 14 35.5t35 14.5t35 -14.5t14 -35.5t-14 -35.5t-35 -14.5t-35 14.5t-14 35.5zM117 346q17 0 28.5 -11t11.5 -28v-90q0 -163 2 -258t2 -109q0 -17 -13.5 -28.5t-30.5 -11.5t-30.5 11.5t-13.5 28.5q0 14 2 109t2 258v90q0 17 11.5 28t28.5 11z" />
    <glyph glyph-name="logicalnot" unicode="&#xac;" 
d="M499 93q0 -17 -11 -25t-26 -8t-27.5 8t-12.5 25v173h-323q-20 0 -29 10.5t-9 24.5t9 25t29 11h360q17 0 28.5 -10t11.5 -24v-210v0z" />
    <glyph glyph-name="radical" unicode="&#x221a;" 
d="M115 144q-11 -6 -20 -6q-17 0 -26.5 11t-9.5 25q0 9 5 18t16 15l63 34q12 6 23 6q19 0 28 -18l47 -109l16.5 -39.5l21.5 -51.5l26 -63l20 139q4 27 7.5 55t7 52l6.5 43t5 29l66 400q3 18 14.5 26.5t25.5 8.5q15 0 27 -9t12 -26q0 -2 -0.5 -9t-4.5 -28l-134 -804
q-3 -17 -14 -25t-24 -8q-11 0 -22 6.5t-18 21.5l-139 320z" />
    <glyph glyph-name="florin" unicode="&#x192;" 
d="M145 309q-20 0 -29 11t-9 25t9 25t29 11h76l29 137q12 56 36.5 99t59.5 69q23 17 48 24.5t51 7.5q17 0 34 -3.5t32 -8.5q20 -8 32 -19t12 -25t-10 -23t-24 -9q-6 0 -11.5 1t-16.5 5q-10 4 -23.5 7t-26.5 3q-39 0 -68 -38t-43 -104l-26 -123h112q19 0 28.5 -11.5
t9.5 -25.5t-9 -24.5t-29 -10.5h-127l-89 -426q-5 -20 -17.5 -28t-25.5 -8q-18 0 -29.5 10.5t-11.5 24.5q0 2 0.5 7.5t2.5 17.5l85 402h-61v0z" />
    <glyph glyph-name="approxequal" unicode="&#x2248;" 
d="M273 312q-15 4 -30 7t-30 3q-18 0 -37 -4.5t-36 -13.5q-10 -5 -16 -6.5t-11 -1.5q-15 0 -24.5 9.5t-9.5 21.5q0 11 7 20.5t24 18.5q21 12 47 19t53 7q43 0 92 -17q15 -4 30 -7t30 -3q38 0 73 18q10 5 16 6.5t11 1.5q15 0 24.5 -9.5t9.5 -21.5q0 -11 -7 -20.5t-24 -18.5
q-21 -12 -47 -19t-53 -7q-43 0 -92 17zM273 128q-15 4 -30 7t-30 3q-18 0 -37 -4.5t-36 -13.5q-10 -5 -16 -6.5t-11 -1.5q-15 0 -24.5 9.5t-9.5 21.5q0 11 7 20.5t24 18.5q21 12 47 19t53 7q43 0 92 -17q15 -4 30 -7t30 -3q38 0 73 18q10 5 16 6.5t11 1.5q15 0 24.5 -9.5
t9.5 -21.5q0 -11 -7 -20.5t-24 -18.5q-21 -12 -47 -19t-53 -7q-43 0 -92 17z" />
    <glyph glyph-name="Delta" unicode="&#x2206;" horiz-adv-x="662" 
d="M34 44q0 4 0.5 9t5.5 17q13 38 32 86.5l40.5 101.5l45 109l47 109.5l45 102l39.5 87.5q8 16 19.5 22.5t22.5 6.5t23 -6t19 -23l63.5 -138.5l67 -154.5l64.5 -156.5t56 -146.5q5 -12 5.5 -17.5t0.5 -10.5q-1 -13 -12.5 -25t-31.5 -12h-511q-17 0 -29 11.5t-12 27.5z
M330 569l-99.5 -236l-98.5 -253h397q-45 120 -97.5 244.5z" />
    <glyph glyph-name="guillemotleft" unicode="&#xab;" horiz-adv-x="500" 
d="M132 253q0 -7 12 -21q10 -12 23 -26l25.5 -28l23.5 -27l19 -23q12 -15 12 -28q0 -14 -10 -24.5t-25 -10.5q-8 0 -16 3.5t-19 15.5q-9 9 -24 25.5t-31 36l-31.5 39t-25.5 34.5q-11 17 -11 34t11 34q10 15 25.5 34.5l31.5 39t31 36t24 25.5q11 12 19 15.5t16 3.5
q15 0 25 -10.5t10 -24.5q0 -13 -12 -28l-19 -23l-23.5 -27l-25.5 -28t-23 -26q-12 -14 -12 -21zM241 253q0 16 13 34q13 17 31 37l35.5 39.5l32.5 35l23 23.5q12 12 19.5 15.5t15.5 3.5q15 0 25 -10.5t10 -24.5q0 -5 -3.5 -14t-20.5 -26l-42.5 -43.5l-46.5 -48.5
q-8 -8 -12 -12.5t-4 -9.5t3.5 -8.5l11.5 -11.5q22 -21 47 -47.5l43 -44.5q17 -17 20.5 -26t3.5 -14q0 -14 -10 -24.5t-25 -10.5q-8 0 -15.5 3.5t-19.5 15.5l-23 23.5l-32.5 35l-35.5 39.5t-31 37q-13 18 -13 34z" />
    <glyph glyph-name="guillemotright" unicode="&#xbb;" horiz-adv-x="500" 
d="M368 253q0 7 -12 21l-23.5 26l-25 28l-23.5 27l-19 23q-12 15 -12 28q0 14 10 24.5t25 10.5q8 0 16 -3.5t19 -15.5q9 -9 24 -25.5t31 -36l31.5 -39t25.5 -34.5q11 -17 11 -34t-11 -34q-10 -15 -25.5 -34.5l-31.5 -39t-31 -36t-24 -25.5q-11 -12 -19 -15.5t-16 -3.5
q-15 0 -25 10.5t-10 24.5q0 13 12 28l19 23l23.5 27l25 28l23.5 26q12 14 12 21zM259 253q0 -16 -13 -34q-13 -17 -31 -37l-35.5 -39.5t-33 -35t-22.5 -23.5q-12 -12 -19.5 -15.5t-15.5 -3.5q-15 0 -25 10.5t-10 24.5q0 5 3.5 14t20.5 26l43 44.5t47 47.5l11.5 11.5t3.5 8.5
t-4 9.5t-12 12.5l-46.5 48.5l-42.5 43.5t-20.5 26t-3.5 14q0 14 10 24.5t25 10.5q8 0 15.5 -3.5t19.5 -15.5q7 -8 22.5 -23.5t33 -35l35.5 -39.5t31 -37q13 -18 13 -34z" />
    <glyph glyph-name="ellipsis" unicode="&#x2026;" horiz-adv-x="622" 
d="M153 45q0 -21 -14 -35.5t-35 -14.5t-35 14.5t-14 35.5t14 35.5t35 14.5t35 -14.5t14 -35.5zM360 45q0 -21 -14 -35.5t-35 -14.5t-35 14.5t-14 35.5t14 35.5t35 14.5t35 -14.5t14 -35.5zM567 45q0 -21 -14 -35.5t-35 -14.5t-35 14.5t-14 35.5t14 35.5t35 14.5t35 -14.5
t14 -35.5z" />
    <glyph glyph-name="uni00A0" unicode="&#xa0;" horiz-adv-x="250" 
 />
    <glyph glyph-name="Agrave" unicode="&#xc0;" horiz-adv-x="690" 
d="M647 63q5 -12 5.5 -17t0.5 -9q0 -14 -12 -26.5t-32 -12.5q-12 0 -23 7.5t-15 18.5l-38.5 100.5l-39.5 100.5h-302l-37.5 -98.5t-34.5 -98.5q-5 -15 -16.5 -22.5t-24.5 -7.5q-17 0 -29 12t-12 29q0 2 0.5 7t5.5 17q55 155 120 305.5t139 299.5q7 14 18.5 21t24.5 7
q14 0 26 -7t19 -21q72 -142 134.5 -291.5t122.5 -313.5zM468 297l-27 66l-31.5 74.5l-33.5 75.5l-32 68l-32 -69l-33.5 -74.5l-32 -74l-27.5 -66.5h249zM420 809q14 -11 14 -28q0 -14 -10.5 -25.5t-26.5 -11.5q-14 0 -30 11l-99 79q-13 12 -13 30q0 14 9.5 25t26.5 11
q14 0 30 -11z" />
    <glyph glyph-name="Atilde" unicode="&#xc3;" horiz-adv-x="690" 
d="M647 63q5 -12 5.5 -17t0.5 -9q0 -14 -12 -26.5t-32 -12.5q-12 0 -23 7.5t-15 18.5l-38.5 100.5l-39.5 100.5h-302l-37.5 -98.5t-34.5 -98.5q-5 -15 -16.5 -22.5t-24.5 -7.5q-17 0 -29 12t-12 29q0 2 0.5 7t5.5 17q55 155 120 305.5t139 299.5q7 14 18.5 21t24.5 7
q14 0 26 -7t19 -21q72 -142 134.5 -291.5t122.5 -313.5zM468 297l-27 66l-31.5 74.5l-33.5 75.5l-32 68l-32 -69l-33.5 -74.5l-32 -74l-27.5 -66.5h249zM403 752q-22 0 -39.5 8.5t-32.5 18t-26.5 18t-21.5 8.5q-9 -1 -15 -9.5t-11 -19.5q-11 -24 -34 -24q-11 0 -19 7t-8 20
q0 10 6 25.5t18 30.5t29 25.5t38 10.5t38.5 -8.5t32 -18l26.5 -18t23 -8.5q9 1 15 9.5t11 19.5q10 24 34 24q11 0 19 -7t8 -20q0 -10 -6 -25.5t-18 -30.5t-29 -25.5t-38 -10.5z" />
    <glyph glyph-name="Otilde" unicode="&#xd5;" horiz-adv-x="742" 
d="M371 -5q-65 0 -123 25.5t-102 71.5t-70 111t-26 143q0 79 26 143.5t70 110.5t102 71t123 25q64 0 122.5 -25t102.5 -71t70 -110.5t26 -143.5q0 -78 -26 -143t-70 -111t-102.5 -71.5t-122.5 -25.5zM371 70q47 0 89 20t73.5 56t50 87t18.5 113t-18.5 112.5t-50 86.5
t-73.5 56t-89 20q-48 0 -90 -20t-73.5 -56t-49.5 -86.5t-18 -112.5t18 -113t49.5 -87t73.5 -56t90 -20zM429 751q-22 0 -39.5 8.5t-32.5 18t-26.5 18t-21.5 8.5q-9 -1 -15 -9.5t-11 -19.5q-11 -24 -34 -24q-11 0 -19 7t-8 20q0 10 6 25.5t18 30.5t29 25.5t38 10.5t38.5 -8.5
t32 -18l26.5 -18t23 -8.5q9 1 15 9.5t11 19.5q10 24 34 24q11 0 19 -7t8 -20q0 -10 -6 -25.5t-18 -30.5t-29 -25.5t-38 -10.5z" />
    <glyph glyph-name="OE" unicode="&#x152;" horiz-adv-x="896" 
d="M816 347q0 -16 -10 -26.5t-26 -10.5h-238v-232h267q17 0 27 -11t10 -25q0 -17 -10 -27t-27 -10h-395q-92 0 -160 28.5t-113.5 76t-68 108.5t-22.5 127t23 127.5t69 109t114 76t158 28.5h393q15 0 25.5 -11.5t10.5 -25.5q0 -17 -10.5 -26.5t-25.5 -9.5h-265v-230h238
q16 0 26 -10t10 -26zM405 613q-69 0 -119.5 -22t-83.5 -58.5t-48.5 -84.5t-15.5 -99q0 -52 17 -101t50.5 -86.5t83.5 -60.5t116 -23h53v535h-53z" />
    <glyph glyph-name="oe" unicode="&#x153;" horiz-adv-x="891" 
d="M499 236q0 -33 9.5 -63.5t28.5 -54.5t46.5 -38.5t64.5 -14.5q34 0 62 14.5t46 31.5q15 15 23.5 21t20.5 6q14 0 23.5 -10t9.5 -24q0 -17 -11.5 -31.5t-31.5 -30.5q-21 -16 -57 -31.5t-87 -15.5q-63 0 -114 31.5t-78 88.5q-29 -57 -75.5 -88.5t-111.5 -31.5
q-42 0 -82.5 19t-71.5 53t-50 81.5t-19 103.5t19 103.5t50.5 81.5t72.5 53t85 19q62 0 110.5 -31t77.5 -91q8 18 23 39.5t37.5 39.5t54 30.5t73.5 12.5q46 0 83 -18t63.5 -48t41 -69t14.5 -81q0 -57 -62 -57h-288zM273 65q32 0 58.5 15t46.5 41q19 25 28 58.5t9 72.5
q0 41 -10 75.5t-30 59.5t-46 38.5t-56 13.5t-57 -14t-46.5 -39t-31 -59.5t-11.5 -74.5q0 -41 11.5 -75t31 -59t46.5 -39t57 -14zM642 439q-30 0 -54 -12t-41.5 -31.5t-29 -44t-15.5 -49.5h256q8 0 8 8q0 20 -6.5 43t-21.5 42t-38.5 31.5t-57.5 12.5z" />
    <glyph glyph-name="endash" unicode="&#x2013;" horiz-adv-x="534" 
d="M455 287q14 0 24.5 -10.5t10.5 -24.5t-10.5 -24.5t-24.5 -10.5h-376q-14 0 -24.5 10.5t-10.5 24.5t10.5 24.5t24.5 10.5h376z" />
    <glyph glyph-name="emdash" unicode="&#x2014;" horiz-adv-x="754" 
d="M675 287q14 0 24.5 -10.5t10.5 -24.5t-10.5 -24.5t-24.5 -10.5h-596q-14 0 -24.5 10.5t-10.5 24.5t10.5 24.5t24.5 10.5h596z" />
    <glyph glyph-name="quotedblleft" unicode="&#x201c;" horiz-adv-x="340" 
d="M118 586q15 -5 22 -16t7 -24q0 -17 -11.5 -31.5t-34.5 -14.5q-22 0 -40 18.5t-18 62.5q0 32 9 62.5t23 53.5q8 13 15.5 16.5t15.5 3.5q9 0 19.5 -7.5t10.5 -23.5q0 -4 -2 -10t-7 -17t-12.5 -30.5t-7.5 -31.5q0 -7 11 -11zM268 586q15 -5 22 -16t7 -24q0 -17 -11.5 -31.5
t-34.5 -14.5q-22 0 -40 18.5t-18 62.5q0 32 9 62.5t23 53.5q8 13 15.5 16.5t15.5 3.5q9 0 19.5 -7.5t10.5 -23.5q0 -4 -2 -10t-7 -17t-12.5 -30.5t-7.5 -31.5q0 -7 11 -11z" />
    <glyph glyph-name="quotedblright" unicode="&#x201d;" horiz-adv-x="340" 
d="M72 630q-15 5 -22 16t-7 24q0 17 11.5 31.5t34.5 14.5q22 0 40 -18.5t18 -62.5q0 -32 -9 -62.5t-23 -53.5q-8 -13 -15.5 -16.5t-15.5 -3.5q-9 0 -19.5 7.5t-10.5 23.5q0 4 2 10t7 17t12.5 30.5t7.5 31.5q0 7 -11 11zM222 630q-15 5 -22 16t-7 24q0 17 11.5 31.5
t34.5 14.5q22 0 40 -18.5t18 -62.5q0 -32 -9 -62.5t-23 -53.5q-8 -13 -15.5 -16.5t-15.5 -3.5q-9 0 -19.5 7.5t-10.5 23.5q0 4 2 10t7 17t12.5 30.5t7.5 31.5q0 7 -11 11z" />
    <glyph glyph-name="quoteleft" unicode="&#x2018;" horiz-adv-x="170" 
d="M108 586q15 -5 22 -16t7 -24q0 -17 -11.5 -31.5t-34.5 -14.5q-22 0 -40 18.5t-18 62.5q0 32 9 62.5t23 53.5q8 13 15.5 16.5t15.5 3.5q9 0 19.5 -7.5t10.5 -23.5q0 -4 -2 -10t-7 -17t-12.5 -30.5t-7.5 -31.5q0 -7 11 -11z" />
    <glyph glyph-name="quoteright" unicode="&#x2019;" horiz-adv-x="170" 
d="M62 630q-15 5 -22 16t-7 24q0 17 11.5 31.5t34.5 14.5q22 0 40 -18.5t18 -62.5q0 -32 -9 -62.5t-23 -53.5q-8 -13 -15.5 -16.5t-15.5 -3.5q-9 0 -19.5 7.5t-10.5 23.5q0 4 2 10t7 17t12.5 30.5t7.5 31.5q0 7 -11 11z" />
    <glyph glyph-name="divide" unicode="&#xf7;" 
d="M475 287q14 0 24.5 -10.5t10.5 -24.5t-10.5 -24.5t-24.5 -10.5h-376q-14 0 -24.5 10.5t-10.5 24.5t10.5 24.5t24.5 10.5h376zM287 478q20 0 31 -13t11 -29q0 -15 -11 -27.5t-31 -12.5t-31 13t-11 29q0 15 11 27.5t31 12.5zM287 108q20 0 31 -13t11 -29q0 -15 -11 -27.5
t-31 -12.5t-31 13t-11 29q0 15 11 27.5t31 12.5z" />
    <glyph glyph-name="lozenge" unicode="&#x25ca;" 
d="M287 -84l153 347l-153 350l-153 -350zM57 263q0 10 3 19.5t8 20.5l167 380q8 18 22 27t30 9t30 -9t22 -27l167 -380q5 -11 8 -20.5t3 -19.5t-3 -19.5t-8 -20.5l-167 -377q-8 -18 -22 -27t-30 -9t-30 9t-22 27l-167 377q-5 11 -8 20.5t-3 19.5z" />
    <glyph glyph-name="ydieresis" unicode="&#xff;" horiz-adv-x="500" 
d="M189 74q-45 93 -84.5 186.5t-74.5 185.5q-3 8 -4 13t-1 10q0 14 11 25.5t28 11.5q11 0 22 -6.5t16 -20.5q34 -89 73.5 -182t79.5 -178q18 39 36.5 83.5l37 91l36 93.5l33.5 92q4 11 13.5 19t23.5 8q17 0 28.5 -12t11.5 -26q0 -3 -1 -9t-3 -12q-39 -106 -86 -216
t-104 -224l-22 -44q-22 -44 -42.5 -73.5t-40 -46.5t-38.5 -24t-38 -7q-16 0 -26.5 12t-10.5 26q0 12 5.5 22t20.5 17l3 1q17 7 29 13.5t23 17t22 27.5t25 45l19 37zM111 624q0 18 12.5 32.5t33.5 14.5t33.5 -14.5t12.5 -32.5t-12.5 -32.5t-33.5 -14.5t-33.5 14.5t-12.5 32.5
zM297 624q0 18 12.5 32.5t33.5 14.5t33.5 -14.5t12.5 -32.5t-12.5 -32.5t-33.5 -14.5t-33.5 14.5t-12.5 32.5z" />
    <glyph glyph-name="Ydieresis" unicode="&#x178;" horiz-adv-x="584" 
d="M249 290l-59 89l-62 94l-56 86t-41 65q-9 16 -9 27q0 14 11 28t31 14q8 0 18 -4t17 -15l36.5 -58.5l49 -77l55 -84l54.5 -78.5q11 15 27.5 39.5l35.5 53.5l38 60l36.5 58.5l31 50t21.5 34.5t17 16.5t20 4.5q19 0 30 -14t11 -28q0 -13 -12 -32l-83 -127l-35.5 -54
l-36.5 -54.5l-34 -50.5l-28 -43v-252q0 -17 -12.5 -28.5t-29.5 -11.5t-29.5 11.5t-12.5 28.5v252zM153 810q0 18 12.5 32.5t33.5 14.5t33.5 -14.5t12.5 -32.5t-12.5 -32.5t-33.5 -14.5t-33.5 14.5t-12.5 32.5zM339 810q0 18 12.5 32.5t33.5 14.5t33.5 -14.5t12.5 -32.5
t-12.5 -32.5t-33.5 -14.5t-33.5 14.5t-12.5 32.5z" />
    <glyph glyph-name="fraction" unicode="&#x2044;" horiz-adv-x="156" 
d="M-105 14q-8 -11 -16.5 -14.5t-16.5 -3.5q-14 0 -23 7t-9 22q0 11 5 20t12 19l418 610q8 12 16.5 16t16.5 4q14 0 23 -7t9 -23q0 -8 -5 -18t-12 -20z" />
    <glyph glyph-name="Euro" unicode="&#x20ac;" 
d="M418 449q19 0 28.5 -11t9.5 -24t-9.5 -23t-28.5 -10h-254q-1 -8 -1 -17v-17v-21.5t1 -21.5h195q19 0 28.5 -11t9.5 -24t-9.5 -23t-28.5 -10h-184q8 -35 21 -65.5t32.5 -53t44.5 -35t57 -12.5q49 0 75.5 18t45.5 40q17 20 25 26t22 6q13 0 24 -9.5t11 -27.5q0 -13 -14 -34
t-39.5 -41.5t-61.5 -35t-81 -14.5q-53 0 -94 19t-71 51t-49.5 75.5t-29.5 92.5h-38q-19 0 -28.5 11t-9.5 24t9 23t29 10h30q-1 11 -1.5 21.5t-0.5 21.5v16.5t1 17.5h-29q-19 0 -28.5 11t-9.5 24t9 23t29 10h37q10 50 29.5 94.5t50.5 78t72.5 53t94.5 19.5q58 0 100.5 -18
t65.5 -44q11 -11 15 -21.5t4 -18.5q0 -13 -9 -26.5t-29 -13.5q-19 0 -38 19q-26 29 -53.5 40t-56.5 11q-32 0 -58 -13.5t-46.5 -37t-35 -55t-23.5 -67.5h243v0z" />
    <glyph glyph-name="guilsinglleft" unicode="&#x2039;" horiz-adv-x="340" 
d="M152 253q0 -7 12 -21q10 -12 23 -26l25.5 -28l23.5 -27l19 -23q12 -15 12 -28q0 -14 -10 -24.5t-25 -10.5q-8 0 -16 3.5t-19 15.5q-9 9 -24 25.5t-31 36l-31.5 39t-25.5 34.5q-11 17 -11 34t11 34q10 15 25.5 34.5l31.5 39t31 36t24 25.5q11 12 19 15.5t16 3.5
q15 0 25 -10.5t10 -24.5q0 -13 -12 -28l-19 -23l-23.5 -27l-25.5 -28t-23 -26q-12 -14 -12 -21z" />
    <glyph glyph-name="guilsinglright" unicode="&#x203a;" horiz-adv-x="340" 
d="M188 253q0 7 -12 21l-23.5 26l-25 28l-23.5 27l-19 23q-12 15 -12 28q0 14 10 24.5t25 10.5q8 0 16 -3.5t19 -15.5q9 -9 24 -25.5t31 -36l31.5 -39t25.5 -34.5q11 -17 11 -34t-11 -34q-10 -15 -25.5 -34.5l-31.5 -39t-31 -36t-24 -25.5q-11 -12 -19 -15.5t-16 -3.5
q-15 0 -25 10.5t-10 24.5q0 13 12 28l19 23l23.5 27l25 28l23.5 26q12 14 12 21z" />
    <glyph glyph-name="daggerdbl" unicode="&#x2021;" horiz-adv-x="500" 
d="M435 142q14 0 23.5 -10.5t9.5 -24.5t-9.5 -24.5t-23.5 -10.5h-145v-177q0 -17 -11.5 -27.5t-28.5 -10.5t-28.5 10.5t-11.5 27.5v177h-145q-14 0 -23.5 10.5t-9.5 24.5t9.5 24.5t23.5 10.5h145v292h-145q-14 0 -23.5 10.5t-9.5 24.5t9.5 24.5t23.5 10.5h145v177
q0 17 11.5 27.5t28.5 10.5t28.5 -10.5t11.5 -27.5v-177h145q14 0 23.5 -10.5t9.5 -24.5t-9.5 -24.5t-23.5 -10.5h-145v-292h145z" />
    <glyph glyph-name="periodcentered" unicode="&#xb7;" horiz-adv-x="208" 
d="M153 358q0 -21 -14 -35.5t-35 -14.5t-35 14.5t-14 35.5t14 35.5t35 14.5t35 -14.5t14 -35.5z" />
    <glyph glyph-name="quotesinglbase" unicode="&#x201a;" horiz-adv-x="208" 
d="M84 9q-15 5 -22 16t-7 24q0 17 11.5 31.5t34.5 14.5q22 0 40 -18.5t18 -62.5q0 -32 -9 -62.5t-23 -53.5q-8 -13 -15.5 -16.5t-15.5 -3.5q-9 0 -19.5 7.5t-10.5 23.5q0 4 2 10t7 17t12.5 30.5t7.5 31.5q0 7 -11 11z" />
    <glyph glyph-name="quotedblbase" unicode="&#x201e;" horiz-adv-x="340" 
d="M72 9q-15 5 -22 16t-7 24q0 17 11.5 31.5t34.5 14.5q22 0 40 -18.5t18 -62.5q0 -32 -9 -62.5t-23 -53.5q-8 -13 -15.5 -16.5t-15.5 -3.5q-9 0 -19.5 7.5t-10.5 23.5q0 4 2 10t7 17t12.5 30.5t7.5 31.5q0 7 -11 11zM222 9q-15 5 -22 16t-7 24q0 17 11.5 31.5t34.5 14.5
q22 0 40 -18.5t18 -62.5q0 -32 -9 -62.5t-23 -53.5q-8 -13 -15.5 -16.5t-15.5 -3.5q-9 0 -19.5 7.5t-10.5 23.5q0 4 2 10t7 17t12.5 30.5t7.5 31.5q0 7 -11 11z" />
    <glyph glyph-name="perthousand" unicode="&#x2030;" horiz-adv-x="1033" 
d="M44 535q0 31 10.5 60t29.5 51.5t45.5 36t59.5 13.5q32 0 59 -13.5t46 -36t29.5 -51.5t10.5 -60t-10.5 -60t-29.5 -51t-46 -35.5t-59 -13.5q-33 0 -59.5 13.5t-45.5 35.5t-29.5 51t-10.5 60zM114 535q0 -20 4.5 -38.5t14 -33t23.5 -23.5t33 -9q18 0 32 9t23.5 23.5
t14.5 33t5 38.5q0 19 -5 38t-14.5 34t-23.5 24t-32 9q-19 0 -33 -9t-23.5 -24t-14 -34t-4.5 -38zM366 154q0 31 10.5 60t29.5 51.5t45.5 36t59.5 13.5q32 0 59 -13.5t46 -36t29.5 -51.5t10.5 -60t-10.5 -60t-29.5 -51t-46 -35.5t-59 -13.5q-33 0 -59.5 13.5t-45.5 35.5
t-29.5 51t-10.5 60zM436 154q0 -20 4.5 -38.5t14 -33t23.5 -23.5t33 -9q18 0 32 9t23.5 23.5t14.5 33t5 38.5q0 19 -5 38t-14.5 34t-23.5 24t-32 9q-19 0 -33 -9t-23.5 -24t-14 -34t-4.5 -38zM167 12q-8 -11 -16.5 -14.5t-16.5 -3.5q-14 0 -25 9t-11 24q0 11 5 20t12 19
l419 610q8 12 16.5 16t16.5 4q14 0 25 -9t11 -25q0 -8 -5 -18t-12 -20zM699 154q0 31 10.5 60t29.5 51.5t45.5 36t59.5 13.5q32 0 59 -13.5t46 -36t29.5 -51.5t10.5 -60t-10.5 -60t-29.5 -51t-46 -35.5t-59 -13.5q-33 0 -59.5 13.5t-45.5 35.5t-29.5 51t-10.5 60zM769 154
q0 -20 4.5 -38.5t14 -33t23.5 -23.5t33 -9q18 0 32 9t23.5 23.5t14.5 33t5 38.5q0 19 -5 38t-14.5 34t-23.5 24t-32 9q-19 0 -33 -9t-23.5 -24t-14 -34t-4.5 -38z" />
    <glyph glyph-name="Acircumflex" unicode="&#xc2;" horiz-adv-x="690" 
d="M647 63q5 -12 5.5 -17t0.5 -9q0 -14 -12 -26.5t-32 -12.5q-12 0 -23 7.5t-15 18.5l-38.5 100.5l-39.5 100.5h-302l-37.5 -98.5t-34.5 -98.5q-5 -15 -16.5 -22.5t-24.5 -7.5q-17 0 -29 12t-12 29q0 2 0.5 7t5.5 17q55 155 120 305.5t139 299.5q7 14 18.5 21t24.5 7
q14 0 26 -7t19 -21q72 -142 134.5 -291.5t122.5 -313.5zM468 297l-27 66l-31.5 74.5l-33.5 75.5l-32 68l-32 -69l-33.5 -74.5l-32 -74l-27.5 -66.5h249zM345 816l-70 -64q-11 -8 -23 -8q-14 0 -23 9t-9 22q0 15 16 30l84 76q11 10 25 10t25 -10l84 -76q9 -8 13 -16t4 -16
q0 -13 -9 -21.5t-22 -8.5t-25 9z" />
    <glyph glyph-name="Ecircumflex" unicode="&#xca;" horiz-adv-x="513" 
d="M433 347q0 -16 -10 -26.5t-26 -10.5h-238v-232h267q17 0 27 -11t10 -25q0 -17 -10 -27t-27 -10h-311q-16 0 -28 10t-12 25v604q0 17 12 29.5t28 12.5h309q15 0 25.5 -11.5t10.5 -25.5q0 -17 -10.5 -26.5t-25.5 -9.5h-265v-230h238q16 0 26 -10t10 -26zM257 816l-70 -64
q-11 -8 -23 -8q-14 0 -23 9t-9 22q0 15 16 30l84 76q11 10 25 10t25 -10l84 -76q9 -8 13 -16t4 -16q0 -13 -9 -21.5t-22 -8.5t-25 9z" />
    <glyph glyph-name="Aacute" unicode="&#xc1;" horiz-adv-x="690" 
d="M647 63q5 -12 5.5 -17t0.5 -9q0 -14 -12 -26.5t-32 -12.5q-12 0 -23 7.5t-15 18.5l-38.5 100.5l-39.5 100.5h-302l-37.5 -98.5t-34.5 -98.5q-5 -15 -16.5 -22.5t-24.5 -7.5q-17 0 -29 12t-12 29q0 2 0.5 7t5.5 17q55 155 120 305.5t139 299.5q7 14 18.5 21t24.5 7
q14 0 26 -7t19 -21q72 -142 134.5 -291.5t122.5 -313.5zM468 297l-27 66l-31.5 74.5l-33.5 75.5l-32 68l-32 -69l-33.5 -74.5l-32 -74l-27.5 -66.5h249zM368 889q16 11 30 11q17 0 26.5 -11t9.5 -25q0 -18 -13 -30l-99 -79q-16 -11 -30 -11q-16 0 -26.5 11.5t-10.5 25.5
q0 17 14 28z" />
    <glyph glyph-name="Edieresis" unicode="&#xcb;" horiz-adv-x="513" 
d="M433 347q0 -16 -10 -26.5t-26 -10.5h-238v-232h267q17 0 27 -11t10 -25q0 -17 -10 -27t-27 -10h-311q-16 0 -28 10t-12 25v604q0 17 12 29.5t28 12.5h309q15 0 25.5 -11.5t10.5 -25.5q0 -17 -10.5 -26.5t-25.5 -9.5h-265v-230h238q16 0 26 -10t10 -26zM117 811
q0 18 12.5 32.5t33.5 14.5t33.5 -14.5t12.5 -32.5t-12.5 -32.5t-33.5 -14.5t-33.5 14.5t-12.5 32.5zM303 811q0 18 12.5 32.5t33.5 14.5t33.5 -14.5t12.5 -32.5t-12.5 -32.5t-33.5 -14.5t-33.5 14.5t-12.5 32.5z" />
    <glyph glyph-name="Egrave" unicode="&#xc8;" horiz-adv-x="513" 
d="M433 347q0 -16 -10 -26.5t-26 -10.5h-238v-232h267q17 0 27 -11t10 -25q0 -17 -10 -27t-27 -10h-311q-16 0 -28 10t-12 25v604q0 17 12 29.5t28 12.5h309q15 0 25.5 -11.5t10.5 -25.5q0 -17 -10.5 -26.5t-25.5 -9.5h-265v-230h238q16 0 26 -10t10 -26zM332 809
q14 -11 14 -28q0 -14 -10.5 -25.5t-26.5 -11.5q-14 0 -30 11l-99 79q-13 12 -13 30q0 14 9.5 25t26.5 11q14 0 30 -11z" />
    <glyph glyph-name="Iacute" unicode="&#xcd;" horiz-adv-x="234" 
d="M75 653q0 17 12.5 28.5t29.5 11.5t29.5 -11.5t12.5 -28.5v-615q0 -17 -12.5 -28.5t-29.5 -11.5t-29.5 11.5t-12.5 28.5v615zM151 889q16 11 30 11q17 0 26.5 -11t9.5 -25q0 -18 -13 -30l-99 -79q-16 -11 -30 -11q-16 0 -26.5 11.5t-10.5 25.5q0 17 14 28z" />
    <glyph glyph-name="Icircumflex" unicode="&#xce;" horiz-adv-x="234" 
d="M75 653q0 17 12.5 28.5t29.5 11.5t29.5 -11.5t12.5 -28.5v-615q0 -17 -12.5 -28.5t-29.5 -11.5t-29.5 11.5t-12.5 28.5v615zM117 816l-70 -64q-11 -8 -23 -8q-14 0 -23 9t-9 22q0 15 16 30l84 76q11 10 25 10t25 -10l84 -76q9 -8 13 -16t4 -16q0 -13 -9 -21.5t-22 -8.5
t-25 9z" />
    <glyph glyph-name="Idieresis" unicode="&#xcf;" horiz-adv-x="234" 
d="M75 653q0 17 12.5 28.5t29.5 11.5t29.5 -11.5t12.5 -28.5v-615q0 -17 -12.5 -28.5t-29.5 -11.5t-29.5 11.5t-12.5 28.5v615zM-22 811q0 18 12.5 32.5t33.5 14.5t33.5 -14.5t12.5 -32.5t-12.5 -32.5t-33.5 -14.5t-33.5 14.5t-12.5 32.5zM164 811q0 18 12.5 32.5t33.5 14.5
t33.5 -14.5t12.5 -32.5t-12.5 -32.5t-33.5 -14.5t-33.5 14.5t-12.5 32.5z" />
    <glyph glyph-name="Igrave" unicode="&#xcc;" horiz-adv-x="234" 
d="M75 653q0 17 12.5 28.5t29.5 11.5t29.5 -11.5t12.5 -28.5v-615q0 -17 -12.5 -28.5t-29.5 -11.5t-29.5 11.5t-12.5 28.5v615zM193 809q14 -11 14 -28q0 -14 -10.5 -25.5t-26.5 -11.5q-14 0 -30 11l-99 79q-13 12 -13 30q0 14 9.5 25t26.5 11q14 0 30 -11z" />
    <glyph glyph-name="Oacute" unicode="&#xd3;" horiz-adv-x="742" 
d="M371 -5q-65 0 -123 25.5t-102 71.5t-70 111t-26 143q0 79 26 143.5t70 110.5t102 71t123 25q64 0 122.5 -25t102.5 -71t70 -110.5t26 -143.5q0 -78 -26 -143t-70 -111t-102.5 -71.5t-122.5 -25.5zM371 70q47 0 89 20t73.5 56t50 87t18.5 113t-18.5 112.5t-50 86.5
t-73.5 56t-89 20q-48 0 -90 -20t-73.5 -56t-49.5 -86.5t-18 -112.5t18 -113t49.5 -87t73.5 -56t90 -20zM394 889q16 11 30 11q17 0 26.5 -11t9.5 -25q0 -18 -13 -30l-99 -79q-16 -11 -30 -11q-16 0 -26.5 11.5t-10.5 25.5q0 17 14 28z" />
    <glyph glyph-name="Ocircumflex" unicode="&#xd4;" horiz-adv-x="742" 
d="M371 -5q-65 0 -123 25.5t-102 71.5t-70 111t-26 143q0 79 26 143.5t70 110.5t102 71t123 25q64 0 122.5 -25t102.5 -71t70 -110.5t26 -143.5q0 -78 -26 -143t-70 -111t-102.5 -71.5t-122.5 -25.5zM371 70q47 0 89 20t73.5 56t50 87t18.5 113t-18.5 112.5t-50 86.5
t-73.5 56t-89 20q-48 0 -90 -20t-73.5 -56t-49.5 -86.5t-18 -112.5t18 -113t49.5 -87t73.5 -56t90 -20zM371 816l-70 -64q-11 -8 -23 -8q-14 0 -23 9t-9 22q0 15 16 30l84 76q11 10 25 10t25 -10l84 -76q9 -8 13 -16t4 -16q0 -13 -9 -21.5t-22 -8.5t-25 9z" />
    <glyph glyph-name="apple" unicode="&#xf8ff;" horiz-adv-x="860" 
d="M582 202q9 -4 9 -12t-9 -12l-140 -79q-7 -4 -11 -4q-7 0 -12 4l-361 209q-8 3 -8 15v181q0 9 2.5 14.5t10.5 11.5l349 200q5 3 9.5 4t9.5 1t9.5 -1.5t8.5 -3.5l346 -199q15 -8 15 -33v-158q0 -8 -7 -8q-3 0 -7 2l-341 197q-11 7 -24 7q-6 0 -12.5 -2.5t-12.5 -5.5
l-146 -83q-18 -11 -18 -30t18 -29zM278 406q-9 4 -9 12t9 12l140 79q7 4 11 4q7 0 12 -4l361 -209q8 -3 8 -15v-181q0 -9 -2.5 -14.5t-10.5 -11.5l-349 -200q-8 -5 -19 -5q-5 0 -9.5 1.5t-8.5 3.5l-346 199q-15 8 -15 33v158q0 8 7 8q3 0 7 -2l341 -197q11 -7 24 -7
q6 0 12.5 2.5t12.5 5.5l146 83q18 10 18 30q0 19 -18 29z" />
    <glyph glyph-name="Ograve" unicode="&#xd2;" horiz-adv-x="742" 
d="M371 -5q-65 0 -123 25.5t-102 71.5t-70 111t-26 143q0 79 26 143.5t70 110.5t102 71t123 25q64 0 122.5 -25t102.5 -71t70 -110.5t26 -143.5q0 -78 -26 -143t-70 -111t-102.5 -71.5t-122.5 -25.5zM371 70q47 0 89 20t73.5 56t50 87t18.5 113t-18.5 112.5t-50 86.5
t-73.5 56t-89 20q-48 0 -90 -20t-73.5 -56t-49.5 -86.5t-18 -112.5t18 -113t49.5 -87t73.5 -56t90 -20zM446 809q14 -11 14 -28q0 -14 -10.5 -25.5t-26.5 -11.5q-14 0 -30 11l-99 79q-13 12 -13 30q0 14 9.5 25t26.5 11q14 0 30 -11z" />
    <glyph glyph-name="Uacute" unicode="&#xda;" horiz-adv-x="647" 
d="M488 653q0 17 12.5 28.5t29.5 11.5t29.5 -11.5t12.5 -28.5v-398q0 -63 -21 -111.5t-55.5 -81.5t-79 -50t-92.5 -17q-47 0 -92 17t-80 50t-56 81.5t-21 111.5v399q0 14 11 26.5t31 12.5q19 0 30.5 -12.5t11.5 -26.5v-399q0 -45 14 -80t37 -59t52.5 -36t61.5 -12
q31 0 61 12t52.5 36t36.5 59t14 80v398zM367 889q16 11 30 11q17 0 26.5 -11t9.5 -25q0 -18 -13 -30l-99 -79q-16 -11 -30 -11q-16 0 -26.5 11.5t-10.5 25.5q0 17 14 28z" />
    <glyph glyph-name="Ucircumflex" unicode="&#xdb;" horiz-adv-x="647" 
d="M488 653q0 17 12.5 28.5t29.5 11.5t29.5 -11.5t12.5 -28.5v-398q0 -63 -21 -111.5t-55.5 -81.5t-79 -50t-92.5 -17q-47 0 -92 17t-80 50t-56 81.5t-21 111.5v399q0 14 11 26.5t31 12.5q19 0 30.5 -12.5t11.5 -26.5v-399q0 -45 14 -80t37 -59t52.5 -36t61.5 -12
q31 0 61 12t52.5 36t36.5 59t14 80v398zM323 816l-70 -64q-11 -8 -23 -8q-14 0 -23 9t-9 22q0 15 16 30l84 76q11 10 25 10t25 -10l84 -76q9 -8 13 -16t4 -16q0 -13 -9 -21.5t-22 -8.5t-25 9z" />
    <glyph glyph-name="Ugrave" unicode="&#xd9;" horiz-adv-x="647" 
d="M488 653q0 17 12.5 28.5t29.5 11.5t29.5 -11.5t12.5 -28.5v-398q0 -63 -21 -111.5t-55.5 -81.5t-79 -50t-92.5 -17q-47 0 -92 17t-80 50t-56 81.5t-21 111.5v399q0 14 11 26.5t31 12.5q19 0 30.5 -12.5t11.5 -26.5v-399q0 -45 14 -80t37 -59t52.5 -36t61.5 -12
q31 0 61 12t52.5 36t36.5 59t14 80v398zM399 809q14 -11 14 -28q0 -14 -10.5 -25.5t-26.5 -11.5q-14 0 -30 11l-99 79q-13 12 -13 30q0 14 9.5 25t26.5 11q14 0 30 -11z" />
    <glyph glyph-name="dotlessi" unicode="&#x131;" horiz-adv-x="212" 
d="M146 36q0 -17 -11.5 -27.5t-28.5 -10.5t-28.5 10.5t-11.5 27.5v432q0 17 11.5 27.5t28.5 10.5t28.5 -10.5t11.5 -27.5v-432z" />
    <glyph glyph-name="circumflex" unicode="&#x2c6;" horiz-adv-x="550" 
d="M275 634l-70 -64q-11 -8 -23 -8q-14 0 -23 9t-9 22q0 15 16 30l84 76q11 10 25 10t25 -10l84 -76q9 -8 13 -16t4 -16q0 -13 -9 -21.5t-22 -8.5t-25 9z" />
    <glyph glyph-name="tilde" unicode="&#x2dc;" horiz-adv-x="550" 
d="M333 573q-22 0 -39.5 8.5t-32.5 18t-26.5 18t-21.5 8.5q-9 -1 -15 -9.5t-11 -19.5q-11 -24 -34 -24q-11 0 -19 7t-8 20q0 10 6 25.5t18 30.5t29 25.5t38 10.5t38.5 -8.5t32 -18l26.5 -18t23 -8.5q9 1 15 9.5t11 19.5q10 24 34 24q11 0 19 -7t8 -20q0 -10 -6 -25.5
t-18 -30.5t-29 -25.5t-38 -10.5z" />
    <glyph glyph-name="macron" unicode="&#xaf;" horiz-adv-x="550" 
d="M165 595q-19 0 -28 10.5t-9 23.5t9 23.5t28 10.5h221q19 0 28 -10.5t9 -23.5t-9 -23.5t-28 -10.5h-221z" />
    <glyph glyph-name="breve" unicode="&#x2d8;" horiz-adv-x="550" 
d="M274 564q-33 0 -56.5 12.5t-38 30t-21 36.5t-6.5 33q0 17 10 25.5t23 8.5q27 0 34 -29q2 -8 6 -17.5t10 -18t15.5 -14t23.5 -5.5t24 5.5t16 14t10 18t6 17.5q6 29 33 29q14 0 24 -8.5t10 -25.5q0 -14 -6.5 -33t-21.5 -36.5t-38.5 -30t-56.5 -12.5z" />
    <glyph glyph-name="dotaccent" unicode="&#x2d9;" horiz-adv-x="550" 
d="M229 654q0 18 12.5 32.5t33.5 14.5t33.5 -14.5t12.5 -32.5t-12.5 -32.5t-33.5 -14.5t-33.5 14.5t-12.5 32.5z" />
    <glyph glyph-name="ring" unicode="&#x2da;" horiz-adv-x="550" 
d="M190 634q0 35 25 60t60 25t60 -25t25 -60q0 -18 -7 -33.5t-18.5 -27t-27 -18.5t-32.5 -7t-32.5 7t-27 18.5t-18.5 27t-7 33.5zM229 634q0 -20 13 -33.5t33 -13.5q19 0 32 13.5t13 33.5q0 18 -13 31.5t-32 13.5q-20 0 -33 -13.5t-13 -31.5z" />
    <glyph glyph-name="cedilla" unicode="&#xb8;" horiz-adv-x="550" 
d="M359 -105q0 -30 -22 -52.5t-63 -22.5q-22 0 -37.5 3.5t-27.5 9.5q-11 5 -16.5 12.5t-5.5 15.5q0 9 6 16.5t17 7.5q6 0 16 -5q8 -4 19.5 -8t22.5 -4q12 0 21 6.5t9 20.5q0 18 -23 24q-7 2 -15 2.5t-14 1.5l-14 2q-25 4 -25 26q0 9 7 24l13 33q5 11 11.5 15t14.5 4
q10 0 18.5 -5.5t8.5 -16.5q0 -2 -2 -10l-10 -28q38 -2 64.5 -17.5t26.5 -54.5z" />
    <glyph glyph-name="hungarumlaut" unicode="&#x2dd;" horiz-adv-x="550" 
d="M206 706q13 13 29 13q15 0 25.5 -11t10.5 -25q0 -13 -10 -23l-85 -84q-14 -14 -31 -14q-15 0 -25 10.5t-10 24.5t11 24zM374 706q13 13 29 13q15 0 25.5 -11t10.5 -25q0 -13 -10 -23l-85 -84q-14 -14 -31 -14q-15 0 -25 10.5t-10 24.5t11 24z" />
    <glyph glyph-name="ogonek" unicode="&#x2db;" horiz-adv-x="550" 
d="M230 50q12 7 21 7q14 0 24 -10t10 -24t-12 -23q-23 -15 -38 -26.5t-23.5 -20t-11.5 -16t-3 -14.5q0 -13 7.5 -19t19.5 -6q15 0 37 14q10 6 18 10t16 4q11 0 20 -9.5t9 -23.5q0 -18 -24 -34q-16 -11 -34.5 -18.5t-41.5 -7.5q-45 0 -74 21.5t-29 63.5q0 35 25.5 65.5
t83.5 66.5z" />
    <glyph glyph-name="caron" unicode="&#x2c7;" horiz-adv-x="550" 
d="M276 636l70 64q11 8 23 8q14 0 23 -9t9 -22q0 -15 -16 -30l-84 -76q-11 -10 -25 -10t-25 10l-84 76q-9 8 -13 16t-4 16q0 13 9 21.5t22 8.5t25 -9z" />
    <glyph glyph-name="uni00AD" unicode="&#xad;" horiz-adv-x="314" 
d="M235 306q14 0 24.5 -10.5t10.5 -24.5t-10.5 -24.5t-24.5 -10.5h-156q-14 0 -24.5 10.5t-10.5 24.5t10.5 24.5t24.5 10.5h156z" />
    <glyph glyph-name="currency" unicode="&#xa4;" 
d="M114 344q0 52 28 94l-65 66q-9 9 -9 20q0 15 13 27t28 12q13 0 21 -8l65 -63q20 12 43 19t49 7q25 0 48 -7t43 -19l65 63q8 8 21 8q15 0 28 -12t13 -27q0 -11 -9 -20l-64 -65q14 -20 21.5 -44.5t7.5 -50.5q0 -53 -30 -97l62 -62q9 -9 9 -20q0 -15 -13 -27t-28 -12
q-13 0 -21 8l-64 61q-20 -11 -42 -17.5t-47 -6.5q-49 0 -90 25l-64 -62q-8 -8 -21 -8q-15 0 -28 12t-13 27q0 11 9 20l63 63q-14 21 -21.5 45.5t-7.5 50.5zM190 344q0 -21 7.5 -39t20.5 -32t31 -22t38 -8q42 0 70 29.5t28 71.5q0 21 -7.5 39.5t-21 32.5t-31 22t-38.5 8
q-20 0 -38 -8t-31 -22t-20.5 -32.5t-7.5 -39.5z" />
    <glyph glyph-name="uni03A9" unicode="&#x3a9;" horiz-adv-x="742" 
d="M371 621q-47 0 -89 -19.5t-73.5 -55.5t-50 -85.5t-18.5 -109.5q0 -51 13 -93.5t34.5 -76t49.5 -58.5t58 -42l7 -4q13 -8 19.5 -18.5t6.5 -21.5q0 -13 -9.5 -22.5t-29.5 -9.5h-202q-17 0 -25.5 11t-8.5 25t8.5 24.5t25.5 10.5h99q-60 48 -96.5 121t-36.5 158
q0 79 25.5 142t69 107t101.5 68t122 24t122 -24t101.5 -68t69 -107t25.5 -142q0 -85 -36.5 -158t-96.5 -121h99q17 0 25.5 -11t8.5 -25t-8.5 -24.5t-25.5 -10.5h-202q-20 0 -29.5 9.5t-9.5 22.5q0 11 6.5 21.5t19.5 18.5l7 4q30 17 58 42t49.5 58.5t34.5 76t13 93.5
q0 60 -18.5 109.5t-50 85.5t-73.5 55.5t-89 19.5z" />
    <glyph glyph-name="uni0394" unicode="&#x394;" horiz-adv-x="662" 
d="M34 44q0 4 0.5 9t5.5 17q13 38 32 86.5l40.5 101.5l45 109l47 109.5l45 102l39.5 87.5q8 16 19.5 22.5t22.5 6.5t23 -6t19 -23l63.5 -138.5l67 -154.5l64.5 -156.5t56 -146.5q5 -12 5.5 -17.5t0.5 -10.5q-1 -13 -12.5 -25t-31.5 -12h-511q-17 0 -29 11.5t-12 27.5z
M330 569l-99.5 -236l-98.5 -253h397q-45 120 -97.5 244.5z" />
    <glyph glyph-name="uni03BC" unicode="&#x3bc;" horiz-adv-x="524" 
d="M378 64q-22 -34 -52 -50t-62 -16t-62.5 15.5t-55.5 50.5v-214q0 -17 -11.5 -28.5t-28.5 -11.5t-28.5 11.5t-11.5 28.5v618q0 17 11.5 27.5t28.5 10.5t28.5 -10.5t11.5 -27.5v-275q0 -38 10.5 -57t22.5 -30q39 -38 83 -38q20 0 41 9t42 29q12 11 22.5 30t10.5 57v275
q0 17 11.5 27.5t28.5 10.5t28.5 -10.5t11.5 -27.5v-430q0 -17 -11.5 -28.5t-28.5 -11.5t-28.5 11.5t-11.5 28.5v26v0z" />
    <glyph glyph-name="zero.numr" horiz-adv-x="344" 
d="M104 497q0 -26 4 -50.5t12.5 -43.5t21.5 -30.5t30 -11.5t29.5 11.5t21 30.5t12.5 43.5t4 50.5q0 27 -4 51.5t-12.5 44t-21 31t-29.5 11.5t-30 -11.5t-21.5 -31t-12.5 -44t-4 -51.5zM34 497q0 41 9.5 77t27 62.5t43 42t58.5 15.5q32 0 57.5 -15.5t43.5 -42t27.5 -62.5
t9.5 -77t-9.5 -76t-27.5 -61.5t-43.5 -41.5t-57.5 -15q-33 0 -58.5 15t-43 41.5t-27 61.5t-9.5 76z" />
    <glyph glyph-name="one.numr" horiz-adv-x="344" 
d="M277 369q14 0 22.5 -9.5t8.5 -20.5q0 -12 -8.5 -21.5t-22.5 -9.5h-197q-14 0 -22.5 9.5t-8.5 21.5q0 11 8.5 20.5t22.5 9.5h65v240l-42 -25q-14 -9 -24 -9q-17 0 -24.5 9t-7.5 20q0 6 4.5 15t18.5 17l82 49q15 9 27 9q17 0 27 -10.5t10 -27.5v-287h61v0z" />
    <glyph glyph-name="two.numr" horiz-adv-x="344" 
d="M102 570q2 -8 2 -13q0 -16 -9.5 -22.5t-22.5 -6.5q-9 0 -17.5 6t-13.5 18q-5 14 -5 30q0 22 9.5 42t26.5 35.5t40.5 25t51.5 9.5q30 0 55 -9.5t42.5 -25.5t27 -38t9.5 -47q0 -23 -9.5 -45t-26 -43.5t-39 -42.5t-47.5 -41l-41 -33h143q15 0 25 -7.5t10 -22.5
q0 -12 -10 -21.5t-25 -9.5h-197q-20 0 -31 10.5t-11 24.5q0 20 20 36l80 67q41 34 65 64.5t24 63.5q0 24 -17.5 42t-47.5 18q-18 0 -30 -5.5t-19.5 -13t-10.5 -15.5t-3 -14q0 -5 0.5 -8.5t1.5 -7.5z" />
    <glyph glyph-name="three.numr" horiz-adv-x="344" 
d="M284 651q0 -10 -3.5 -16.5t-9.5 -14.5l-64 -81q47 -14 70 -46t23 -66q0 -24 -9.5 -46t-26.5 -39t-41.5 -27t-55.5 -10q-29 0 -53.5 9.5t-39.5 22.5q-17 14 -27 30.5t-10 30.5q0 9 7 19t23 10q21 0 33 -23q8 -14 25 -27t41 -13q18 0 30.5 6t21 15.5t12.5 20.5t4 21
q0 23 -18 40t-51 20l-11 1q-11 1 -20 9t-9 22q0 5 2.5 12t10.5 18l62 77h-125q-14 0 -23.5 8t-9.5 22q0 12 9.5 21t23.5 9h171q18 0 28 -10.5t10 -24.5z" />
    <glyph glyph-name="four.numr" horiz-adv-x="344" 
d="M190 390h-130q-18 0 -30.5 11.5t-12.5 28.5q0 5 1.5 10.5t5.5 10.5l35 55l39 58.5l39.5 57l36.5 50.5q8 11 21 16.5t24 5.5q17 0 29.5 -10.5t12.5 -30.5v-202h33q14 0 24 -7.5t10 -22.5q0 -14 -10 -22.5t-24 -8.5h-33v-54q0 -14 -10 -23.5t-25 -9.5t-25.5 9.5t-10.5 23.5
v54zM191 450v150l-100 -150h100z" />
    <glyph glyph-name="five.numr" horiz-adv-x="336" 
d="M163 362q32 0 48.5 22t16.5 48q0 22 -16 42t-51 20q-8 0 -16 -0.5t-16 -1.5t-16.5 -1.5t-16.5 -0.5q-14 0 -25.5 8.5t-11.5 23.5v4l19 134q2 11 11 18.5t23 7.5h148q15 0 25 -8.5t10 -21.5t-10 -21.5t-25 -8.5h-124l-11 -76q7 1 17.5 1.5t18.5 0.5q36 0 62 -10t43 -27
t25 -38.5t8 -44.5q0 -24 -9.5 -47.5t-27 -41.5t-43 -29t-57.5 -11q-42 0 -69.5 17t-42.5 42q-15 23 -15 40q0 16 9.5 24.5t22.5 8.5q23 0 35 -25q8 -17 22.5 -32.5t38.5 -15.5z" />
    <glyph glyph-name="six.numr" horiz-adv-x="344" 
d="M182 496q-16 0 -32.5 -8t-28.5 -22q-3 -5 -5.5 -12t-2.5 -15q0 -6 1 -11.5t3 -10.5q8 -26 26 -41t40 -15q30 0 45.5 22t15.5 48q0 31 -19.5 48t-42.5 17zM311 433q0 -25 -9 -48.5t-25.5 -41.5t-41 -29t-55.5 -11q-30 0 -55.5 13t-44 37t-29 58.5t-10.5 77.5q0 38 9 75
t27.5 66t46.5 46.5t65 17.5q20 0 37 -4.5t31 -11.5q21 -11 32 -23.5t11 -23.5t-8 -20.5t-23 -9.5q-12 0 -28 13q-14 12 -27 16.5t-25 4.5q-37 0 -57.5 -34.5t-24.5 -91.5q20 22 43.5 31.5t46.5 9.5q22 0 43 -8.5t36.5 -24t25 -37t9.5 -47.5z" />
    <glyph glyph-name="seven.numr" horiz-adv-x="324" 
d="M302 648q0 -2 -2.5 -9.5t-6.5 -15.5l-25 -51l-59.5 -121t-54.5 -125q-5 -13 -14.5 -19.5t-20.5 -6.5q-14 0 -24.5 9.5t-10.5 24.5q0 6 3 14q28 65 63 138.5t70 139.5h-125v-30q0 -16 -10.5 -24t-23.5 -8t-23.5 7.5t-10.5 24.5v55q0 15 9 25t26 10h198q20 0 31 -12t11 -26
z" />
    <glyph glyph-name="eight.numr" horiz-adv-x="344" 
d="M116 506q-30 11 -51 33t-21 54q0 21 9.5 39t27 32t41 22t50.5 8t50.5 -8t41 -22t27 -32t9.5 -39q0 -32 -21 -54t-51 -33q34 -12 58 -36.5t24 -57.5q0 -25 -11 -45t-30 -34.5t-44 -22t-53 -7.5t-53 7.5t-44 22t-30 34.5t-11 45q0 33 24 57.5t58 36.5zM187 472q-8 3 -15 3
q-6 0 -15 -3q-33 -16 -43.5 -30t-10.5 -30q0 -23 20 -38.5t49 -15.5t49 15.5t20 38.5q0 16 -10.5 30t-43.5 30zM154 536q7 -3 18 -3q9 0 18 3q28 10 36 26t8 27q0 20 -17 35t-45 15q-27 0 -44.5 -15t-17.5 -35q0 -11 8 -27t36 -26z" />
    <glyph glyph-name="nine.numr" horiz-adv-x="344" 
d="M164 501q16 0 32.5 8t28.5 22q3 5 5.5 12t2.5 15q0 6 -1 11.5t-3 10.5q-8 26 -26 41t-40 15q-30 0 -45.5 -22t-15.5 -48q0 -31 19.5 -48t42.5 -17zM35 564q0 25 9 48.5t25.5 41.5t41 29t55.5 11q30 0 55.5 -13t44 -37t29 -58.5t10.5 -77.5q0 -38 -9 -75t-27.5 -66
t-46.5 -46.5t-65 -17.5q-20 0 -37 4.5t-31 11.5q-21 11 -32 23.5t-11 23.5t8 20.5t23 9.5q7 0 13 -2.5t15 -10.5q14 -12 27 -16.5t25 -4.5q37 0 57.5 34.5t24.5 91.5q-20 -22 -43.5 -31.5t-46.5 -9.5t-43.5 8.5t-36 24t-25 37t-9.5 47.5z" />
    <glyph glyph-name="zero.dnom" horiz-adv-x="344" 
d="M106 189q0 -25 4 -49t12 -42.5t20.5 -29.5t29.5 -11q16 0 28.5 11t20.5 29.5t12 42.5t4 49q0 26 -4 50t-12 43t-20.5 30t-28.5 11q-17 0 -29.5 -11t-20.5 -30t-12 -43t-4 -50zM34 189q0 41 9.5 77t27 62.5t43 42t58.5 15.5q32 0 57.5 -15.5t43.5 -42t27.5 -62.5t9.5 -77
t-9.5 -76t-27.5 -61.5t-43.5 -41.5t-57.5 -15q-33 0 -58.5 15t-43 41.5t-27 61.5t-9.5 76z" />
    <glyph glyph-name="one.dnom" horiz-adv-x="344" 
d="M276 61q14 0 22.5 -9.5t8.5 -20.5q0 -12 -8.5 -21.5t-22.5 -9.5h-197q-14 0 -22.5 9.5t-8.5 21.5q0 11 8.5 20.5t22.5 9.5h65v240l-42 -25q-14 -9 -24 -9q-17 0 -24.5 9t-7.5 20q0 6 4.5 15t18.5 17l82 49q15 9 27 9q17 0 27 -10.5t10 -27.5v-287h61v0z" />
    <glyph glyph-name="two.dnom" horiz-adv-x="344" 
d="M102 262q2 -8 2 -13q0 -16 -9.5 -22.5t-22.5 -6.5q-9 0 -17.5 6t-13.5 18q-5 14 -5 30q0 22 9.5 42t26.5 35.5t40.5 25t51.5 9.5q30 0 55 -9.5t42.5 -25.5t27 -38t9.5 -47q0 -23 -9.5 -45t-26 -43.5t-39 -42.5t-47.5 -41l-41 -33h143q15 0 25 -7.5t10 -22.5
q0 -12 -10 -21.5t-25 -9.5h-197q-20 0 -31 10.5t-11 24.5q0 20 20 36l80 67q41 34 65 64.5t24 63.5q0 24 -17.5 42t-47.5 18q-18 0 -30 -5.5t-19.5 -13t-10.5 -15.5t-3 -14q0 -5 0.5 -8.5t1.5 -7.5z" />
    <glyph glyph-name="three.dnom" horiz-adv-x="344" 
d="M282 341q0 -10 -3.5 -16.5t-9.5 -14.5l-64 -81q47 -14 70 -46t23 -66q0 -24 -9.5 -46t-26.5 -39t-41.5 -27t-55.5 -10q-29 0 -53.5 9.5t-39.5 22.5q-17 14 -27 30.5t-10 30.5q0 9 7 19t23 10q21 0 33 -23q8 -14 25 -27t41 -13q18 0 30.5 6t21 15.5t12.5 20.5t4 21
q0 23 -18 40t-51 20l-11 1q-11 1 -20 9t-9 22q0 5 2.5 12t10.5 18l62 78h-125q-14 0 -23.5 7.5t-9.5 21.5q0 12 9.5 21t23.5 9h171q18 0 28 -10.5t10 -24.5z" />
    <glyph glyph-name="four.dnom" horiz-adv-x="344" 
d="M160 82h-130q-18 0 -30.5 11.5t-12.5 28.5q0 5 1.5 10.5t5.5 10.5l35 55l39 58.5l39.5 57l36.5 50.5q8 11 21 16.5t24 5.5q17 0 29.5 -10.5t12.5 -30.5v-202h33q14 0 24 -7.5t10 -22.5q0 -14 -10 -22.5t-24 -8.5h-33v-54q0 -14 -10 -23.5t-25 -9.5t-25.5 9.5t-10.5 23.5
v54zM161 142v150l-100 -150h100z" />
    <glyph glyph-name="five.dnom" horiz-adv-x="344" 
d="M169 54q32 0 48.5 22t16.5 48q0 22 -16 42t-51 20q-8 0 -16 -0.5t-16 -1.5t-16.5 -1.5t-16.5 -0.5q-14 0 -25.5 8.5t-11.5 23.5v4l19 137q2 11 11 18.5t23 7.5h148q15 0 25 -8.5t10 -21.5t-10 -22t-25 -9h-124l-11 -78q7 1 17.5 1.5t18.5 0.5q36 0 62 -10t43 -27
t25 -38.5t8 -44.5q0 -24 -9.5 -47.5t-27 -41.5t-43 -29t-57.5 -11q-42 0 -69.5 17t-42.5 42q-15 23 -15 40q0 16 9.5 24.5t22.5 8.5q23 0 35 -25q8 -17 22.5 -32.5t38.5 -15.5z" />
    <glyph glyph-name="six.dnom" horiz-adv-x="344" 
d="M182 188q-16 0 -32.5 -8t-28.5 -22q-3 -5 -5.5 -12t-2.5 -15q0 -6 1 -11.5t3 -10.5q8 -26 26 -41t40 -15q30 0 45.5 22t15.5 48q0 31 -19.5 48t-42.5 17zM311 125q0 -25 -9 -48.5t-25.5 -41.5t-41 -29t-55.5 -11q-30 0 -55.5 13t-44 37t-29 58.5t-10.5 77.5q0 38 9 75
t27.5 66t46.5 46.5t65 17.5q20 0 37 -4.5t31 -11.5q21 -11 32 -23.5t11 -23.5t-8 -20.5t-23 -9.5q-12 0 -28 13q-14 12 -27 16.5t-25 4.5q-37 0 -57.5 -34.5t-24.5 -91.5q20 22 43.5 31.5t46.5 9.5q22 0 43 -8.5t36.5 -24t25 -37t9.5 -47.5z" />
    <glyph glyph-name="seven.dnom" horiz-adv-x="344" 
d="M319 340q0 -2 -2.5 -9.5t-6.5 -15.5l-25 -51l-59.5 -121t-54.5 -125q-5 -13 -14.5 -19.5t-20.5 -6.5q-14 0 -24.5 9.5t-10.5 24.5q0 6 3 14q28 65 63 138t70 139h-125v-29q0 -16 -10.5 -24t-23.5 -8t-23.5 7.5t-10.5 24.5v55q0 15 9 25t26 10h198q20 0 31 -12t11 -26z
" />
    <glyph glyph-name="eight.dnom" horiz-adv-x="344" 
d="M116 198q-30 11 -51 33t-21 54q0 21 9.5 39t27 32t41 22t50.5 8t50.5 -8t41 -22t27 -32t9.5 -39q0 -32 -21 -54t-51 -33q34 -12 58 -36.5t24 -57.5q0 -25 -11 -45t-30 -34.5t-44 -22t-53 -7.5t-53 7.5t-44 22t-30 34.5t-11 45q0 33 24 57.5t58 36.5zM187 164q-8 3 -15 3
q-6 0 -15 -3q-33 -16 -43.5 -30t-10.5 -30q0 -23 20 -38.5t49 -15.5t49 15.5t20 38.5q0 16 -10.5 30t-43.5 30zM154 228q7 -3 18 -3q9 0 18 3q28 10 36 26t8 27q0 20 -17 35t-45 15q-27 0 -44.5 -15t-17.5 -35q0 -11 8 -27t36 -26z" />
    <glyph glyph-name="nine.dnom" horiz-adv-x="344" 
d="M164 193q16 0 32.5 8t28.5 22q3 5 5.5 12t2.5 15q0 6 -1 11.5t-3 10.5q-8 26 -26 41t-40 15q-30 0 -45.5 -22t-15.5 -48q0 -31 19.5 -48t42.5 -17zM35 256q0 25 9 48.5t25.5 41.5t41 29t55.5 11q30 0 55.5 -13t44 -37t29 -58.5t10.5 -77.5q0 -38 -9 -75t-27.5 -66
t-46.5 -46.5t-65 -17.5q-20 0 -37 4.5t-31 11.5q-21 11 -32 23.5t-11 23.5t8 20.5t23 9.5q7 0 13 -2.5t15 -10.5q14 -12 27 -16.5t25 -4.5q37 0 57.5 34.5t24.5 91.5q-20 -22 -43.5 -31.5t-46.5 -9.5t-43.5 8.5t-36 24t-25 37t-9.5 47.5z" />
    <glyph glyph-name=".null" horiz-adv-x="0" 
 />
    <glyph glyph-name=".null" horiz-adv-x="0" 
 />
    <glyph glyph-name="Amacron" unicode="&#x100;" horiz-adv-x="690" 
d="M647 63q5 -12 5.5 -17t0.5 -9q0 -14 -12 -26.5t-32 -12.5q-12 0 -23 7.5t-15 18.5l-38.5 100.5l-39.5 100.5h-302l-37.5 -98.5t-34.5 -98.5q-5 -15 -16.5 -22.5t-24.5 -7.5q-17 0 -29 12t-12 29q0 2 0.5 7t5.5 17q55 155 120 305.5t139 299.5q7 14 18.5 21t24.5 7
q14 0 26 -7t19 -21q72 -142 134.5 -291.5t122.5 -313.5zM468 297l-27 66l-31.5 74.5l-33.5 75.5l-32 68l-32 -69l-33.5 -74.5l-32 -74l-27.5 -66.5h249zM234 777q-19 0 -28 10.5t-9 23.5t9 23.5t28 10.5h221q19 0 28 -10.5t9 -23.5t-9 -23.5t-28 -10.5h-221z" />
    <glyph glyph-name="Abreve" unicode="&#x102;" horiz-adv-x="690" 
d="M647 63q5 -12 5.5 -17t0.5 -9q0 -14 -12 -26.5t-32 -12.5q-12 0 -23 7.5t-15 18.5l-38.5 100.5l-39.5 100.5h-302l-37.5 -98.5t-34.5 -98.5q-5 -15 -16.5 -22.5t-24.5 -7.5q-17 0 -29 12t-12 29q0 2 0.5 7t5.5 17q55 155 120 305.5t139 299.5q7 14 18.5 21t24.5 7
q14 0 26 -7t19 -21q72 -142 134.5 -291.5t122.5 -313.5zM468 297l-27 66l-31.5 74.5l-33.5 75.5l-32 68l-32 -69l-33.5 -74.5l-32 -74l-27.5 -66.5h249zM345 746q-33 0 -56.5 12.5t-38 30t-21 36.5t-6.5 33q0 17 10 25.5t23 8.5q27 0 34 -29q2 -8 6 -17.5t10 -18t15.5 -14
t23.5 -5.5t24 5.5t16 14t10 18t6 17.5q6 29 33 29q14 0 24 -8.5t10 -25.5q0 -14 -6.5 -33t-21.5 -36.5t-38.5 -30t-56.5 -12.5z" />
    <glyph glyph-name="Aogonek" unicode="&#x104;" horiz-adv-x="690" 
d="M647 63q5 -12 5.5 -17t0.5 -9q0 -11 -6 -20t-26 -21q-42 -28 -56 -43t-14 -30q0 -13 7.5 -19t19.5 -6q15 0 37 14q10 6 18 10t16 4q11 0 20 -9.5t9 -23.5q0 -18 -24 -34q-16 -11 -34.5 -18.5t-41.5 -7.5q-45 0 -74 21.5t-29 63.5q0 32 21 60t69 60l-35 93.5t-37 93.5
h-302l-37.5 -98.5t-34.5 -98.5q-5 -15 -16.5 -22.5t-24.5 -7.5q-17 0 -29 12t-12 29q0 2 0.5 7t5.5 17q55 155 120 305.5t139 299.5q7 14 18.5 21t24.5 7q14 0 26 -7t19 -21q72 -142 134.5 -291.5t122.5 -313.5zM468 297l-27 66l-31.5 74.5l-33.5 75.5l-32 68l-32 -69
l-33.5 -74.5l-32 -74l-27.5 -66.5h249z" />
    <glyph glyph-name="AEacute" unicode="&#x1fc;" horiz-adv-x="907" 
d="M821 347q0 -16 -10 -26.5t-26 -10.5h-223v-232h252q17 0 27 -11t10 -25q0 -17 -10 -27t-27 -10h-296q-16 0 -28 10t-12 25v182h-255l-123 -202q-6 -10 -15 -16.5t-22 -6.5q-16 0 -29.5 11.5t-13.5 28.5q0 8 3.5 15.5t8.5 15.5l50.5 83l64 102.5l72 112.5l73.5 112.5
l68.5 102.5l57.5 83q9 12 19.5 17t21.5 5h353q15 0 25.5 -11.5t10.5 -25.5q0 -17 -10.5 -26.5t-25.5 -9.5h-250v-230h223q16 0 26 -10t10 -26zM478 615l-98 -148l-112 -174h210v322zM548 889q16 11 30 11q17 0 26.5 -11t9.5 -25q0 -18 -13 -30l-99 -79q-16 -11 -30 -11
q-16 0 -26.5 11.5t-10.5 25.5q0 17 14 28z" />
    <glyph glyph-name="Cacute" unicode="&#x106;" horiz-adv-x="667" 
d="M367 621q-57 0 -100 -23t-71.5 -61.5t-43 -87.5t-14.5 -100q0 -52 15.5 -102t45 -89.5t72 -63.5t96.5 -24q55 0 94.5 20.5t80.5 69.5q11 12 20.5 16t18.5 4q17 0 27.5 -12.5t10.5 -25.5q0 -14 -17 -36.5t-44 -44.5q-32 -26 -77 -46t-108 -20q-79 0 -139.5 30t-101 79.5
t-61.5 112t-21 128.5t21 129t62.5 112.5t101.5 79.5t138 30q66 0 112 -21.5t76 -46.5q29 -23 43.5 -45t14.5 -38q0 -15 -11 -27.5t-28 -12.5q-9 0 -18 4t-20 16q-21 24 -40 42t-39.5 30t-43.5 18t-52 6zM387 889q16 11 30 11q17 0 26.5 -11t9.5 -25q0 -18 -13 -30l-99 -79
q-16 -11 -30 -11q-16 0 -26.5 11.5t-10.5 25.5q0 17 14 28z" />
    <glyph glyph-name="Ccircumflex" unicode="&#x108;" horiz-adv-x="667" 
d="M367 621q-57 0 -100 -23t-71.5 -61.5t-43 -87.5t-14.5 -100q0 -52 15.5 -102t45 -89.5t72 -63.5t96.5 -24q55 0 94.5 20.5t80.5 69.5q11 12 20.5 16t18.5 4q17 0 27.5 -12.5t10.5 -25.5q0 -14 -17 -36.5t-44 -44.5q-32 -26 -77 -46t-108 -20q-79 0 -139.5 30t-101 79.5
t-61.5 112t-21 128.5t21 129t62.5 112.5t101.5 79.5t138 30q66 0 112 -21.5t76 -46.5q29 -23 43.5 -45t14.5 -38q0 -15 -11 -27.5t-28 -12.5q-9 0 -18 4t-20 16q-21 24 -40 42t-39.5 30t-43.5 18t-52 6zM363 816l-70 -64q-11 -8 -23 -8q-14 0 -23 9t-9 22q0 15 16 30l84 76
q11 10 25 10t25 -10l84 -76q9 -8 13 -16t4 -16q0 -13 -9 -21.5t-22 -8.5t-25 9z" />
    <glyph glyph-name="Cdotaccent" unicode="&#x10a;" horiz-adv-x="667" 
d="M367 621q-57 0 -100 -23t-71.5 -61.5t-43 -87.5t-14.5 -100q0 -52 15.5 -102t45 -89.5t72 -63.5t96.5 -24q55 0 94.5 20.5t80.5 69.5q11 12 20.5 16t18.5 4q17 0 27.5 -12.5t10.5 -25.5q0 -14 -17 -36.5t-44 -44.5q-32 -26 -77 -46t-108 -20q-79 0 -139.5 30t-101 79.5
t-61.5 112t-21 128.5t21 129t62.5 112.5t101.5 79.5t138 30q66 0 112 -21.5t76 -46.5q29 -23 43.5 -45t14.5 -38q0 -15 -11 -27.5t-28 -12.5q-9 0 -18 4t-20 16q-21 24 -40 42t-39.5 30t-43.5 18t-52 6zM317 811q0 18 12.5 32.5t33.5 14.5t33.5 -14.5t12.5 -32.5
t-12.5 -32.5t-33.5 -14.5t-33.5 14.5t-12.5 32.5z" />
    <glyph glyph-name="Ccaron" unicode="&#x10c;" horiz-adv-x="667" 
d="M367 621q-57 0 -100 -23t-71.5 -61.5t-43 -87.5t-14.5 -100q0 -52 15.5 -102t45 -89.5t72 -63.5t96.5 -24q55 0 94.5 20.5t80.5 69.5q11 12 20.5 16t18.5 4q17 0 27.5 -12.5t10.5 -25.5q0 -14 -17 -36.5t-44 -44.5q-32 -26 -77 -46t-108 -20q-79 0 -139.5 30t-101 79.5
t-61.5 112t-21 128.5t21 129t62.5 112.5t101.5 79.5t138 30q66 0 112 -21.5t76 -46.5q29 -23 43.5 -45t14.5 -38q0 -15 -11 -27.5t-28 -12.5q-9 0 -18 4t-20 16q-21 24 -40 42t-39.5 30t-43.5 18t-52 6zM364 818l70 64q11 8 23 8q14 0 23 -9t9 -22q0 -15 -16 -30l-84 -76
q-11 -10 -25 -10t-25 10l-84 76q-9 8 -13 16t-4 16q0 13 9 21.5t22 8.5t25 -9z" />
    <glyph glyph-name="Dcaron" unicode="&#x10e;" horiz-adv-x="667" 
d="M272 686q54 0 88.5 -7t63.5 -21q41 -19 76.5 -49.5t61.5 -70.5t40.5 -88.5t14.5 -104.5q0 -51 -12.5 -96.5t-35 -83.5t-53.5 -68.5t-67 -51.5q-34 -20 -74 -30t-98 -10h-161q-17 0 -29 10t-12 24v605q0 16 12 29t29 13h156zM159 613v-535h120q46 0 76 8t53 22
q54 34 86.5 94.5t32.5 142.5q0 44 -10.5 83t-29 70.5t-44.5 55.5t-56 39q-20 10 -44.5 15t-68.5 5h-115zM324 818l70 64q11 8 23 8q14 0 23 -9t9 -22q0 -15 -16 -30l-84 -76q-11 -10 -25 -10t-25 10l-84 76q-9 8 -13 16t-4 16q0 13 9 21.5t22 8.5t25 -9z" />
    <glyph glyph-name="Dcroat" unicode="&#x110;" horiz-adv-x="667" 
d="M75 382v262q0 16 12 29t29 13h156q54 0 88.5 -7t63.5 -21q41 -19 76.5 -49.5t61.5 -70.5t40.5 -88.5t14.5 -104.5q0 -51 -12.5 -96.5t-35 -83.5t-53.5 -68.5t-67 -51.5q-34 -20 -74 -30t-98 -10h-161q-17 0 -29 10t-12 24v273h-31q-14 0 -24.5 10.5t-10.5 24.5t10.5 24.5
t24.5 10.5h31zM159 613v-231h82q14 0 24.5 -10.5t10.5 -24.5t-10.5 -24.5t-24.5 -10.5h-82v-234h120q46 0 76 8t53 22q54 34 86.5 94.5t32.5 142.5q0 44 -10.5 83t-29 70.5t-44.5 55.5t-56 39q-20 10 -44.5 15t-68.5 5h-115z" />
    <glyph glyph-name="Emacron" unicode="&#x112;" horiz-adv-x="513" 
d="M433 347q0 -16 -10 -26.5t-26 -10.5h-238v-232h267q17 0 27 -11t10 -25q0 -17 -10 -27t-27 -10h-311q-16 0 -28 10t-12 25v604q0 17 12 29.5t28 12.5h309q15 0 25.5 -11.5t10.5 -25.5q0 -17 -10.5 -26.5t-25.5 -9.5h-265v-230h238q16 0 26 -10t10 -26zM146 777
q-19 0 -28 10.5t-9 23.5t9 23.5t28 10.5h221q19 0 28 -10.5t9 -23.5t-9 -23.5t-28 -10.5h-221z" />
    <glyph glyph-name="Ebreve" unicode="&#x114;" horiz-adv-x="513" 
d="M433 347q0 -16 -10 -26.5t-26 -10.5h-238v-232h267q17 0 27 -11t10 -25q0 -17 -10 -27t-27 -10h-311q-16 0 -28 10t-12 25v604q0 17 12 29.5t28 12.5h309q15 0 25.5 -11.5t10.5 -25.5q0 -17 -10.5 -26.5t-25.5 -9.5h-265v-230h238q16 0 26 -10t10 -26zM257 746
q-33 0 -56.5 12.5t-38 30t-21 36.5t-6.5 33q0 17 10 25.5t23 8.5q27 0 34 -29q2 -8 6 -17.5t10 -18t15.5 -14t23.5 -5.5t24 5.5t16 14t10 18t6 17.5q6 29 33 29q14 0 24 -8.5t10 -25.5q0 -14 -6.5 -33t-21.5 -36.5t-38.5 -30t-56.5 -12.5z" />
    <glyph glyph-name="Edotaccent" unicode="&#x116;" horiz-adv-x="513" 
d="M433 347q0 -16 -10 -26.5t-26 -10.5h-238v-232h267q17 0 27 -11t10 -25q0 -17 -10 -27t-27 -10h-311q-16 0 -28 10t-12 25v604q0 17 12 29.5t28 12.5h309q15 0 25.5 -11.5t10.5 -25.5q0 -17 -10.5 -26.5t-25.5 -9.5h-265v-230h238q16 0 26 -10t10 -26zM210 810
q0 18 12.5 32.5t33.5 14.5t33.5 -14.5t12.5 -32.5t-12.5 -32.5t-33.5 -14.5t-33.5 14.5t-12.5 32.5z" />
    <glyph glyph-name="Eogonek" unicode="&#x118;" horiz-adv-x="513" 
d="M433 347q0 -16 -10 -26.5t-26 -10.5h-238v-232h267q17 0 27 -11t10 -25q0 -15 -10 -25.5t-30 -24.5q-13 -9 -26.5 -19.5t-20.5 -17.5q-9 -9 -12 -16.5t-3 -12.5q0 -24 25 -24q15 0 31 10q10 6 18 10t16 4q11 0 20 -9.5t9 -23.5q0 -18 -24 -34q-15 -11 -37 -17.5t-45 -6.5
q-34 0 -60.5 19t-26.5 56q0 29 16.5 51.5t45.5 43.5h-234q-16 0 -28 10t-12 25v604q0 17 12 29.5t28 12.5h309q15 0 25.5 -11.5t10.5 -25.5q0 -17 -10.5 -26.5t-25.5 -9.5h-265v-230h238q16 0 26 -10t10 -26z" />
    <glyph glyph-name="Ecaron" unicode="&#x11a;" horiz-adv-x="513" 
d="M433 347q0 -16 -10 -26.5t-26 -10.5h-238v-232h267q17 0 27 -11t10 -25q0 -17 -10 -27t-27 -10h-311q-16 0 -28 10t-12 25v604q0 17 12 29.5t28 12.5h309q15 0 25.5 -11.5t10.5 -25.5q0 -17 -10.5 -26.5t-25.5 -9.5h-265v-230h238q16 0 26 -10t10 -26zM258 818l70 64
q11 8 23 8q14 0 23 -9t9 -22q0 -15 -16 -30l-84 -76q-11 -10 -25 -10t-25 10l-84 76q-9 8 -13 16t-4 16q0 13 9 21.5t22 8.5t25 -9z" />
    <glyph glyph-name="Gcircumflex" unicode="&#x11c;" horiz-adv-x="705" 
d="M367 622q-56 0 -99 -22.5t-71.5 -61t-43 -88t-14.5 -103.5q0 -58 16.5 -109t47 -88.5t73.5 -59t97 -21.5q51 0 90.5 17t63.5 42q20 21 25.5 35t5.5 35v50h-114q-17 0 -28 10.5t-11 24.5q0 17 10.5 27.5t28.5 10.5h155q17 0 28.5 -10.5t11.5 -24.5v-85q0 -18 -1.5 -32.5
t-6.5 -27.5t-14 -26t-24 -29q-39 -42 -94.5 -66.5t-125.5 -24.5q-69 0 -128 25t-102.5 71.5t-68 111.5t-24.5 146q0 73 22.5 136t64.5 110t102 74t134 27q63 0 110 -19t78 -44q29 -23 43.5 -46.5t14.5 -37.5q0 -13 -10.5 -25.5t-27.5 -12.5q-9 0 -18.5 4t-20.5 16
q-21 24 -40 41.5t-39.5 28.5t-43.5 16t-52 5zM362 816l-70 -64q-11 -8 -23 -8q-14 0 -23 9t-9 22q0 15 16 30l84 76q11 10 25 10t25 -10l84 -76q9 -8 13 -16t4 -16q0 -13 -9 -21.5t-22 -8.5t-25 9z" />
    <glyph glyph-name="Gbreve" unicode="&#x11e;" horiz-adv-x="705" 
d="M367 622q-56 0 -99 -22.5t-71.5 -61t-43 -88t-14.5 -103.5q0 -58 16.5 -109t47 -88.5t73.5 -59t97 -21.5q51 0 90.5 17t63.5 42q20 21 25.5 35t5.5 35v50h-114q-17 0 -28 10.5t-11 24.5q0 17 10.5 27.5t28.5 10.5h155q17 0 28.5 -10.5t11.5 -24.5v-85q0 -18 -1.5 -32.5
t-6.5 -27.5t-14 -26t-24 -29q-39 -42 -94.5 -66.5t-125.5 -24.5q-69 0 -128 25t-102.5 71.5t-68 111.5t-24.5 146q0 73 22.5 136t64.5 110t102 74t134 27q63 0 110 -19t78 -44q29 -23 43.5 -46.5t14.5 -37.5q0 -13 -10.5 -25.5t-27.5 -12.5q-9 0 -18.5 4t-20.5 16
q-21 24 -40 41.5t-39.5 28.5t-43.5 16t-52 5zM362 746q-33 0 -56.5 12.5t-38 30t-21 36.5t-6.5 33q0 17 10 25.5t23 8.5q27 0 34 -29q2 -8 6 -17.5t10 -18t15.5 -14t23.5 -5.5t24 5.5t16 14t10 18t6 17.5q6 29 33 29q14 0 24 -8.5t10 -25.5q0 -14 -6.5 -33t-21.5 -36.5
t-38.5 -30t-56.5 -12.5z" />
    <glyph glyph-name="Gdotaccent" unicode="&#x120;" horiz-adv-x="705" 
d="M367 622q-56 0 -99 -22.5t-71.5 -61t-43 -88t-14.5 -103.5q0 -58 16.5 -109t47 -88.5t73.5 -59t97 -21.5q51 0 90.5 17t63.5 42q20 21 25.5 35t5.5 35v50h-114q-17 0 -28 10.5t-11 24.5q0 17 10.5 27.5t28.5 10.5h155q17 0 28.5 -10.5t11.5 -24.5v-85q0 -18 -1.5 -32.5
t-6.5 -27.5t-14 -26t-24 -29q-39 -42 -94.5 -66.5t-125.5 -24.5q-69 0 -128 25t-102.5 71.5t-68 111.5t-24.5 146q0 73 22.5 136t64.5 110t102 74t134 27q63 0 110 -19t78 -44q29 -23 43.5 -46.5t14.5 -37.5q0 -13 -10.5 -25.5t-27.5 -12.5q-9 0 -18.5 4t-20.5 16
q-21 24 -40 41.5t-39.5 28.5t-43.5 16t-52 5zM318 809q0 18 12.5 32.5t33.5 14.5t33.5 -14.5t12.5 -32.5t-12.5 -32.5t-33.5 -14.5t-33.5 14.5t-12.5 32.5z" />
    <glyph glyph-name="Gcommaaccent" unicode="&#x122;" horiz-adv-x="705" 
d="M367 622q-56 0 -99 -22.5t-71.5 -61t-43 -88t-14.5 -103.5q0 -58 16.5 -109t47 -88.5t73.5 -59t97 -21.5q51 0 90.5 17t63.5 42q20 21 25.5 35t5.5 35v50h-114q-17 0 -28 10.5t-11 24.5q0 17 10.5 27.5t28.5 10.5h155q17 0 28.5 -10.5t11.5 -24.5v-85q0 -18 -1.5 -32.5
t-6.5 -27.5t-14 -26t-24 -29q-39 -42 -94.5 -66.5t-125.5 -24.5q-69 0 -128 25t-102.5 71.5t-68 111.5t-24.5 146q0 73 22.5 136t64.5 110t102 74t134 27q63 0 110 -19t78 -44q29 -23 43.5 -46.5t14.5 -37.5q0 -13 -10.5 -25.5t-27.5 -12.5q-9 0 -18.5 4t-20.5 16
q-21 24 -40 41.5t-39.5 28.5t-43.5 16t-52 5zM325 -82q0 16 10.5 27t26.5 11q23 0 34 -17t11 -41q0 -23 -4 -40t-10 -28q-8 -13 -15.5 -16.5t-15.5 -3.5q-9 0 -19 5.5t-10 19.5q0 6 2.5 11.5t4.5 10.5l4 10.5t2 10.5q0 4 -8 11q-13 10 -13 29z" />
    <glyph glyph-name="Hcircumflex" unicode="&#x124;" horiz-adv-x="667" 
d="M508 315h-349v-277q0 -17 -12.5 -28.5t-29.5 -11.5t-29.5 11.5t-12.5 28.5v615q0 17 12.5 28.5t29.5 11.5t29.5 -11.5t12.5 -28.5v-265h349v265q0 17 12.5 28.5t29.5 11.5t29.5 -11.5t12.5 -28.5v-615q0 -17 -12.5 -28.5t-29.5 -11.5t-29.5 11.5t-12.5 28.5v277zM333 816
l-70 -64q-11 -8 -23 -8q-14 0 -23 9t-9 22q0 15 16 30l84 76q11 10 25 10t25 -10l84 -76q9 -8 13 -16t4 -16q0 -13 -9 -21.5t-22 -8.5t-25 9z" />
    <glyph glyph-name="Hbar" unicode="&#x126;" horiz-adv-x="667" 
d="M508 315h-349v-277q0 -17 -12.5 -28.5t-29.5 -11.5t-29.5 11.5t-12.5 28.5v461h-32q-19 0 -28 10.5t-9 23.5t9 23.5t28 10.5h32v86q0 17 12.5 28.5t29.5 11.5t29.5 -11.5t12.5 -28.5v-86h349v86q0 17 12.5 28.5t29.5 11.5t29.5 -11.5t12.5 -28.5v-86h32q19 0 28 -10.5
t9 -23.5t-9 -23.5t-28 -10.5h-32v-461q0 -17 -12.5 -28.5t-29.5 -11.5t-29.5 11.5t-12.5 28.5v277zM508 388v111h-349v-111h349z" />
    <glyph glyph-name="Itilde" unicode="&#x128;" horiz-adv-x="234" 
d="M75 653q0 17 12.5 28.5t29.5 11.5t29.5 -11.5t12.5 -28.5v-615q0 -17 -12.5 -28.5t-29.5 -11.5t-29.5 11.5t-12.5 28.5v615zM175 751q-22 0 -39.5 8.5t-32.5 18t-26.5 18t-21.5 8.5q-9 -1 -15 -9.5t-11 -19.5q-11 -24 -34 -24q-11 0 -19 7t-8 20q0 10 6 25.5t18 30.5
t29 25.5t38 10.5t38.5 -8.5t32 -18l26.5 -18t23 -8.5q9 1 15 9.5t11 19.5q10 24 34 24q11 0 19 -7t8 -20q0 -10 -6 -25.5t-18 -30.5t-29 -25.5t-38 -10.5z" />
    <glyph glyph-name="Imacron" unicode="&#x12a;" horiz-adv-x="234" 
d="M75 653q0 17 12.5 28.5t29.5 11.5t29.5 -11.5t12.5 -28.5v-615q0 -17 -12.5 -28.5t-29.5 -11.5t-29.5 11.5t-12.5 28.5v615zM7 777q-19 0 -28 10.5t-9 23.5t9 23.5t28 10.5h221q19 0 28 -10.5t9 -23.5t-9 -23.5t-28 -10.5h-221z" />
    <glyph glyph-name="Ibreve" unicode="&#x12c;" horiz-adv-x="234" 
d="M75 653q0 17 12.5 28.5t29.5 11.5t29.5 -11.5t12.5 -28.5v-615q0 -17 -12.5 -28.5t-29.5 -11.5t-29.5 11.5t-12.5 28.5v615zM117 746q-33 0 -56.5 12.5t-38 30t-21 36.5t-6.5 33q0 17 10 25.5t23 8.5q27 0 34 -29q2 -8 6 -17.5t10 -18t15.5 -14t23.5 -5.5t24 5.5t16 14
t10 18t6 17.5q6 29 33 29q14 0 24 -8.5t10 -25.5q0 -14 -6.5 -33t-21.5 -36.5t-38.5 -30t-56.5 -12.5z" />
    <glyph glyph-name="Iogonek" unicode="&#x12e;" horiz-adv-x="234" 
d="M159 33q0 -20 -7.5 -34.5t-27.5 -28.5q-19 -14 -25.5 -25t-6.5 -22q0 -13 7.5 -19t19.5 -6q15 0 37 14q10 6 18 10t16 4q11 0 20 -9.5t9 -23.5q0 -18 -24 -34q-16 -11 -34.5 -18.5t-41.5 -7.5q-45 0 -74 21.5t-29 63.5q0 52 66 99q-7 9 -7 21v615q0 17 12.5 28.5
t29.5 11.5t29.5 -11.5t12.5 -28.5v-620z" />
    <glyph glyph-name="Idotaccent" unicode="&#x130;" horiz-adv-x="234" 
d="M75 653q0 17 12.5 28.5t29.5 11.5t29.5 -11.5t12.5 -28.5v-615q0 -17 -12.5 -28.5t-29.5 -11.5t-29.5 11.5t-12.5 28.5v615zM71 810q0 18 12.5 32.5t33.5 14.5t33.5 -14.5t12.5 -32.5t-12.5 -32.5t-33.5 -14.5t-33.5 14.5t-12.5 32.5z" />
    <glyph glyph-name="IJ" unicode="&#x132;" horiz-adv-x="669" 
d="M75 653q0 17 12.5 28.5t29.5 11.5t29.5 -11.5t12.5 -28.5v-615q0 -17 -12.5 -28.5t-29.5 -11.5t-29.5 11.5t-12.5 28.5v615zM510 653q0 17 12.5 28.5t29.5 11.5t29.5 -11.5t12.5 -28.5v-470q0 -45 -13.5 -80t-37 -59t-55.5 -36.5t-68 -12.5q-55 0 -94 22q-11 6 -23 15.5
t-22 20.5t-16 22.5t-6 22.5q0 14 11 26t28 12q12 0 22 -7t19 -18l4 -5q14 -17 31.5 -27.5t43.5 -10.5q41 1 66.5 29.5t25.5 85.5v470z" />
    <glyph glyph-name="Jcircumflex" unicode="&#x134;" horiz-adv-x="435" 
d="M276 653q0 17 12.5 28.5t29.5 11.5t29.5 -11.5t12.5 -28.5v-470q0 -45 -13.5 -80t-37 -59t-55.5 -36.5t-68 -12.5q-55 0 -94 22q-11 6 -23 15.5t-22 20.5t-16 22.5t-6 22.5q0 14 11 26t28 12q12 0 22 -7t19 -18l4 -5q14 -17 31.5 -27.5t43.5 -10.5q41 1 66.5 29.5
t25.5 85.5v470zM318 816l-70 -64q-11 -8 -23 -8q-14 0 -23 9t-9 22q0 15 16 30l84 76q11 10 25 10t25 -10l84 -76q9 -8 13 -16t4 -16q0 -13 -9 -21.5t-22 -8.5t-25 9z" />
    <glyph glyph-name="Kcommaaccent" unicode="&#x136;" horiz-adv-x="609" 
d="M75 653q0 17 12.5 28.5t29.5 11.5t29.5 -11.5t12.5 -28.5v-297l84 80l123 120.5t124 120.5q11 9 18 13t16 4q17 0 28.5 -11.5t11.5 -30.5q0 -6 -3 -13.5t-12 -15.5l-122.5 -114l-129.5 -117l118 -154.5l124 -156.5q12 -14 15.5 -24t3.5 -17q0 -20 -13 -31t-29 -11
q-9 0 -18 4.5t-14 10.5l-130 166l-120 159l-75 -68v-232q0 -17 -12.5 -28.5t-29.5 -11.5t-29.5 11.5t-12.5 28.5v615zM263 -82q0 16 10.5 27t26.5 11q23 0 34 -17t11 -41q0 -23 -4 -40t-10 -28q-8 -13 -15.5 -16.5t-15.5 -3.5q-9 0 -19 5.5t-10 19.5q0 6 2.5 11.5t4.5 10.5
l4 10.5t2 10.5q0 4 -8 11q-13 10 -13 29z" />
    <glyph glyph-name="Lacute" unicode="&#x139;" horiz-adv-x="490" 
d="M75 653q0 17 12.5 28.5t29.5 11.5t29.5 -11.5t12.5 -28.5v-575h260q16 0 27 -10t11 -27q0 -15 -11 -25.5t-27 -10.5h-303q-17 0 -29 13t-12 28v607zM249 889q16 11 30 11q17 0 26.5 -11t9.5 -25q0 -18 -13 -30l-99 -79q-16 -11 -30 -11q-16 0 -26.5 11.5t-10.5 25.5
q0 17 14 28z" />
    <glyph glyph-name="Lcommaaccent" unicode="&#x13b;" horiz-adv-x="490" 
d="M75 653q0 17 12.5 28.5t29.5 11.5t29.5 -11.5t12.5 -28.5v-575h260q16 0 27 -10t11 -27q0 -15 -11 -25.5t-27 -10.5h-303q-17 0 -29 13t-12 28v607zM204 -82q0 16 10.5 27t26.5 11q23 0 34 -17t11 -41q0 -23 -4 -40t-10 -28q-8 -13 -15.5 -16.5t-15.5 -3.5q-9 0 -19 5.5
t-10 19.5q0 6 2.5 11.5t4.5 10.5l4 10.5t2 10.5q0 4 -8 11q-13 10 -13 29z" />
    <glyph glyph-name="Lcaron" unicode="&#x13d;" horiz-adv-x="490" 
d="M75 653q0 17 12.5 28.5t29.5 11.5t29.5 -11.5t12.5 -28.5v-575h260q16 0 27 -10t11 -27q0 -15 -11 -25.5t-27 -10.5h-303q-17 0 -29 13t-12 28v607zM325 680q0 -11 -2.5 -26.5t-6.5 -32t-9 -33.5t-10 -31q-7 -17 -17.5 -24t-21.5 -7q-14 0 -24 9t-10 23q0 2 0.5 6.5
t2.5 13.5q13 49 20 99q2 19 13.5 29t26.5 10q18 0 28 -9.5t10 -26.5z" />
    <glyph glyph-name="Ldot" unicode="&#x13f;" horiz-adv-x="490" 
d="M75 653q0 17 12.5 28.5t29.5 11.5t29.5 -11.5t12.5 -28.5v-575h260q16 0 27 -10t11 -27q0 -15 -11 -25.5t-27 -10.5h-303q-17 0 -29 13t-12 28v607zM404 346q0 -21 -14 -35.5t-35 -14.5t-35 14.5t-14 35.5t14 35.5t35 14.5t35 -14.5t14 -35.5z" />
    <glyph glyph-name="Nacute" unicode="&#x143;" horiz-adv-x="704" 
d="M629 36q0 -17 -12 -28.5t-29 -11.5q-18 0 -29.5 11t-21.5 25l-23 32l-76 103l-80.5 108l-91.5 124l-109 152v-513q0 -17 -12 -28.5t-29 -11.5t-29 11.5t-12 28.5v605q0 26 15 38t35 12q11 0 22 -6t24 -22l97 -126.5l99 -132l95 -130.5l85 -122v499q0 17 12 28.5t29 11.5
t29 -11.5t12 -28.5v-617zM375 889q16 11 30 11q17 0 26.5 -11t9.5 -25q0 -18 -13 -30l-99 -79q-16 -11 -30 -11q-16 0 -26.5 11.5t-10.5 25.5q0 17 14 28z" />
    <glyph glyph-name="Ncommaaccent" unicode="&#x145;" horiz-adv-x="704" 
d="M629 36q0 -17 -12 -28.5t-29 -11.5q-18 0 -29.5 11t-21.5 25l-23 32l-76 103l-80.5 108l-91.5 124l-109 152v-513q0 -17 -12 -28.5t-29 -11.5t-29 11.5t-12 28.5v605q0 26 15 38t35 12q11 0 22 -6t24 -22l97 -126.5l99 -132l95 -130.5l85 -122v499q0 17 12 28.5t29 11.5
t29 -11.5t12 -28.5v-617zM311 -82q0 16 10.5 27t26.5 11q23 0 34 -17t11 -41q0 -23 -4 -40t-10 -28q-8 -13 -15.5 -16.5t-15.5 -3.5q-9 0 -19 5.5t-10 19.5q0 6 2.5 11.5t4.5 10.5l4 10.5t2 10.5q0 4 -8 11q-13 10 -13 29z" />
    <glyph glyph-name="Ncaron" unicode="&#x147;" horiz-adv-x="704" 
d="M629 36q0 -17 -12 -28.5t-29 -11.5q-18 0 -29.5 11t-21.5 25l-23 32l-76 103l-80.5 108l-91.5 124l-109 152v-513q0 -17 -12 -28.5t-29 -11.5t-29 11.5t-12 28.5v605q0 26 15 38t35 12q11 0 22 -6t24 -22l97 -126.5l99 -132l95 -130.5l85 -122v499q0 17 12 28.5t29 11.5
t29 -11.5t12 -28.5v-617zM353 818l70 64q11 8 23 8q14 0 23 -9t9 -22q0 -15 -16 -30l-84 -76q-11 -10 -25 -10t-25 10l-84 76q-9 8 -13 16t-4 16q0 13 9 21.5t22 8.5t25 -9z" />
    <glyph glyph-name="Eng" unicode="&#x14a;" horiz-adv-x="704" 
d="M453 -117q22 0 39.5 9t29.5 23t18.5 32.5t6.5 37.5q0 30 -17 56l-16 23l-76 103l-80.5 108l-91.5 124l-109 152v-513q0 -17 -12 -28.5t-29 -11.5t-29 11.5t-12 28.5v605q0 26 15 38t35 12q11 0 22 -6t24 -22l97 -126.5l99 -132l95 -130.5l85 -122v499q0 17 12 28.5
t29 11.5t29 -11.5t12 -28.5v-655q0 -45 -13.5 -80t-37 -59t-55.5 -36.5t-68 -12.5q-55 0 -94 22q-11 6 -23 15.5t-22 20.5t-16 22.5t-6 22.5q0 14 11 26t28 12q12 0 22 -7t19 -18l4 -5q14 -17 31.5 -27.5t43.5 -10.5z" />
    <glyph glyph-name="Omacron" unicode="&#x14c;" horiz-adv-x="742" 
d="M371 -5q-65 0 -123 25.5t-102 71.5t-70 111t-26 143q0 79 26 143.5t70 110.5t102 71t123 25q64 0 122.5 -25t102.5 -71t70 -110.5t26 -143.5q0 -78 -26 -143t-70 -111t-102.5 -71.5t-122.5 -25.5zM371 70q47 0 89 20t73.5 56t50 87t18.5 113t-18.5 112.5t-50 86.5
t-73.5 56t-89 20q-48 0 -90 -20t-73.5 -56t-49.5 -86.5t-18 -112.5t18 -113t49.5 -87t73.5 -56t90 -20zM260 777q-19 0 -28 10.5t-9 23.5t9 23.5t28 10.5h221q19 0 28 -10.5t9 -23.5t-9 -23.5t-28 -10.5h-221z" />
    <glyph glyph-name="Obreve" unicode="&#x14e;" horiz-adv-x="742" 
d="M371 -5q-65 0 -123 25.5t-102 71.5t-70 111t-26 143q0 79 26 143.5t70 110.5t102 71t123 25q64 0 122.5 -25t102.5 -71t70 -110.5t26 -143.5q0 -78 -26 -143t-70 -111t-102.5 -71.5t-122.5 -25.5zM371 70q47 0 89 20t73.5 56t50 87t18.5 113t-18.5 112.5t-50 86.5
t-73.5 56t-89 20q-48 0 -90 -20t-73.5 -56t-49.5 -86.5t-18 -112.5t18 -113t49.5 -87t73.5 -56t90 -20zM371 746q-33 0 -56.5 12.5t-38 30t-21 36.5t-6.5 33q0 17 10 25.5t23 8.5q27 0 34 -29q2 -8 6 -17.5t10 -18t15.5 -14t23.5 -5.5t24 5.5t16 14t10 18t6 17.5q6 29 33 29
q14 0 24 -8.5t10 -25.5q0 -14 -6.5 -33t-21.5 -36.5t-38.5 -30t-56.5 -12.5z" />
    <glyph glyph-name="Ohungarumlaut" unicode="&#x150;" horiz-adv-x="742" 
d="M371 -5q-65 0 -123 25.5t-102 71.5t-70 111t-26 143q0 79 26 143.5t70 110.5t102 71t123 25q64 0 122.5 -25t102.5 -71t70 -110.5t26 -143.5q0 -78 -26 -143t-70 -111t-102.5 -71.5t-122.5 -25.5zM371 70q47 0 89 20t73.5 56t50 87t18.5 113t-18.5 112.5t-50 86.5
t-73.5 56t-89 20q-48 0 -90 -20t-73.5 -56t-49.5 -86.5t-18 -112.5t18 -113t49.5 -87t73.5 -56t90 -20zM332 887q13 13 29 13q15 0 25.5 -11t10.5 -25q0 -13 -10 -23l-85 -84q-14 -14 -31 -14q-15 0 -25 10.5t-10 24.5t11 24zM500 887q13 13 29 13q15 0 25.5 -11t10.5 -25
q0 -13 -10 -23l-85 -84q-14 -14 -31 -14q-15 0 -25 10.5t-10 24.5t11 24z" />
    <glyph glyph-name="Oslashacute" unicode="&#x1fe;" horiz-adv-x="742" 
d="M371 -5q-52 0 -99.5 16t-87.5 46l-32 -39q-12 -14 -21.5 -18.5t-17.5 -4.5q-15 0 -26 10.5t-11 26.5t13 32l39 48q-36 45 -57 104t-21 130q0 79 26 143.5t70 110.5t102 71t123 25q51 0 98.5 -16t88.5 -46l32 39q12 14 21.5 18.5t17.5 4.5q15 0 26 -10.5t11 -26.5t-13 -32
l-39 -48q36 -45 57 -103.5t21 -129.5q0 -78 -26 -143t-70 -111t-102.5 -71.5t-122.5 -25.5zM138 346q0 -51 11.5 -93.5t31.5 -76.5l327 398q-60 48 -137 48q-48 0 -90 -20t-74 -56t-50.5 -87t-18.5 -113zM371 69q47 0 89.5 20t74.5 56.5t50.5 87.5t18.5 113q0 51 -11.5 93
t-32.5 75l-327 -397q29 -24 64.5 -36t73.5 -12zM394 889q16 11 30 11q17 0 26.5 -11t9.5 -25q0 -18 -13 -30l-99 -79q-16 -11 -30 -11q-16 0 -26.5 11.5t-10.5 25.5q0 17 14 28z" />
    <glyph glyph-name="Racute" unicode="&#x154;" horiz-adv-x="569" 
d="M75 645q0 16 12 28.5t30 12.5h158q56 0 97.5 -17t69 -45t41 -63t13.5 -71q0 -32 -10.5 -63t-30.5 -58t-49 -47t-67 -30q38 -54 84.5 -112l89.5 -112q10 -13 10 -31q0 -17 -12.5 -28.5t-29.5 -11.5q-11 0 -19.5 4.5t-18.5 16.5l-35.5 43.5l-40.5 53.5l-48 67.5l-58 84.5
q-3 5 -10 11t-21 6h-71v-246q0 -17 -12.5 -28.5t-29.5 -11.5t-29.5 11.5t-12.5 28.5v607zM159 354h115q33 0 58 11.5t42 30.5t25.5 43.5t8.5 50.5q0 22 -8 44t-24.5 39.5t-41.5 28.5t-59 11h-116v-259zM308 889q16 11 30 11q17 0 26.5 -11t9.5 -25q0 -18 -13 -30l-99 -79
q-16 -11 -30 -11q-16 0 -26.5 11.5t-10.5 25.5q0 17 14 28z" />
    <glyph glyph-name="Rcommaaccent" unicode="&#x156;" horiz-adv-x="569" 
d="M75 645q0 16 12 28.5t30 12.5h158q56 0 97.5 -17t69 -45t41 -63t13.5 -71q0 -32 -10.5 -63t-30.5 -58t-49 -47t-67 -30q38 -54 84.5 -112l89.5 -112q10 -13 10 -31q0 -17 -12.5 -28.5t-29.5 -11.5q-11 0 -19.5 4.5t-18.5 16.5l-35.5 43.5l-40.5 53.5l-48 67.5l-58 84.5
q-3 5 -10 11t-21 6h-71v-246q0 -17 -12.5 -28.5t-29.5 -11.5t-29.5 11.5t-12.5 28.5v607zM159 354h115q33 0 58 11.5t42 30.5t25.5 43.5t8.5 50.5q0 22 -8 44t-24.5 39.5t-41.5 28.5t-59 11h-116v-259zM243 -82q0 16 10.5 27t26.5 11q23 0 34 -17t11 -41q0 -23 -4 -40
t-10 -28q-8 -13 -15.5 -16.5t-15.5 -3.5q-9 0 -19 5.5t-10 19.5q0 6 2.5 11.5t4.5 10.5l4 10.5t2 10.5q0 4 -8 11q-13 10 -13 29z" />
    <glyph glyph-name="Rcaron" unicode="&#x158;" horiz-adv-x="569" 
d="M75 645q0 16 12 28.5t30 12.5h158q56 0 97.5 -17t69 -45t41 -63t13.5 -71q0 -32 -10.5 -63t-30.5 -58t-49 -47t-67 -30q38 -54 84.5 -112l89.5 -112q10 -13 10 -31q0 -17 -12.5 -28.5t-29.5 -11.5q-11 0 -19.5 4.5t-18.5 16.5l-35.5 43.5l-40.5 53.5l-48 67.5l-58 84.5
q-3 5 -10 11t-21 6h-71v-246q0 -17 -12.5 -28.5t-29.5 -11.5t-29.5 11.5t-12.5 28.5v607zM159 354h115q33 0 58 11.5t42 30.5t25.5 43.5t8.5 50.5q0 22 -8 44t-24.5 39.5t-41.5 28.5t-59 11h-116v-259zM275 818l70 64q11 8 23 8q14 0 23 -9t9 -22q0 -15 -16 -30l-84 -76
q-11 -10 -25 -10t-25 10l-84 76q-9 8 -13 16t-4 16q0 13 9 21.5t22 8.5t25 -9z" />
    <glyph glyph-name="Sacute" unicode="&#x15a;" horiz-adv-x="535" 
d="M265 -5q-73 0 -128 29.5t-88 80.5q-8 13 -10.5 21.5t-2.5 16.5q0 14 10.5 26.5t27.5 12.5q11 0 20.5 -6t18.5 -20q6 -9 14.5 -20.5t17.5 -21.5q19 -20 48 -33t69 -13q27 0 52.5 7.5t45.5 22.5t32 36t12 48q0 42 -31 71.5t-100 52.5l-46 15q-96 32 -135.5 81.5
t-39.5 110.5q0 41 16.5 75t45.5 58t68.5 37t86.5 13t82.5 -13t61.5 -32q28 -21 42 -43t14 -37q0 -18 -12.5 -29t-25.5 -11q-14 0 -22.5 6t-24.5 27q-20 27 -49.5 42.5t-72.5 15.5q-26 0 -49.5 -7.5t-41.5 -21.5t-28.5 -34t-10.5 -45q0 -22 8 -38.5t25 -30.5t44 -26.5
t65 -25.5l45 -16q92 -33 129 -81.5t37 -110.5q0 -45 -20 -80.5t-51.5 -59.5t-70.5 -37t-78 -13zM291 889q16 11 30 11q17 0 26.5 -11t9.5 -25q0 -18 -13 -30l-99 -79q-16 -11 -30 -11q-16 0 -26.5 11.5t-10.5 25.5q0 17 14 28z" />
    <glyph glyph-name="Scircumflex" unicode="&#x15c;" horiz-adv-x="535" 
d="M265 -5q-73 0 -128 29.5t-88 80.5q-8 13 -10.5 21.5t-2.5 16.5q0 14 10.5 26.5t27.5 12.5q11 0 20.5 -6t18.5 -20q6 -9 14.5 -20.5t17.5 -21.5q19 -20 48 -33t69 -13q27 0 52.5 7.5t45.5 22.5t32 36t12 48q0 42 -31 71.5t-100 52.5l-46 15q-96 32 -135.5 81.5
t-39.5 110.5q0 41 16.5 75t45.5 58t68.5 37t86.5 13t82.5 -13t61.5 -32q28 -21 42 -43t14 -37q0 -18 -12.5 -29t-25.5 -11q-14 0 -22.5 6t-24.5 27q-20 27 -49.5 42.5t-72.5 15.5q-26 0 -49.5 -7.5t-41.5 -21.5t-28.5 -34t-10.5 -45q0 -22 8 -38.5t25 -30.5t44 -26.5
t65 -25.5l45 -16q92 -33 129 -81.5t37 -110.5q0 -45 -20 -80.5t-51.5 -59.5t-70.5 -37t-78 -13zM267 816l-70 -64q-11 -8 -23 -8q-14 0 -23 9t-9 22q0 15 16 30l84 76q11 10 25 10t25 -10l84 -76q9 -8 13 -16t4 -16q0 -13 -9 -21.5t-22 -8.5t-25 9z" />
    <glyph glyph-name="Scedilla" unicode="&#x15e;" horiz-adv-x="535" 
d="M354 -105q0 -30 -22 -52.5t-63 -22.5q-22 0 -37.5 3.5t-27.5 9.5q-11 5 -16.5 12.5t-5.5 15.5q0 9 6 16.5t17 7.5q6 0 16 -5q8 -4 19.5 -8t22.5 -4q12 0 21 6.5t9 20.5q0 18 -23 24q-7 2 -15 2.5t-14 1.5l-14 2q-25 4 -25 26q0 9 7 24l9 24q-56 8 -99 36t-70 70
q-8 13 -10.5 21.5t-2.5 16.5q0 14 10.5 26.5t27.5 12.5q11 0 20.5 -6t18.5 -20q6 -9 14.5 -20.5t17.5 -21.5q19 -20 48 -33t69 -13q27 0 52.5 7.5t45.5 22.5t32 36t12 48q0 42 -31 71.5t-100 52.5l-46 15q-96 32 -135.5 81.5t-39.5 110.5q0 41 16.5 75t45.5 58t68.5 37
t86.5 13t82.5 -13t61.5 -32q28 -21 42 -43t14 -37q0 -18 -12.5 -29t-25.5 -11q-14 0 -22.5 6t-24.5 27q-20 27 -49.5 42.5t-72.5 15.5q-26 0 -49.5 -7.5t-41.5 -21.5t-28.5 -34t-10.5 -45q0 -22 8 -38.5t25 -30.5t44 -26.5t65 -25.5l45 -16q92 -33 129 -81.5t37 -110.5
q0 -44 -19 -78.5t-49 -59t-68 -38t-76 -14.5l-10 -28q38 -2 64.5 -17.5t26.5 -54.5z" />
    <glyph glyph-name="uni0218" unicode="&#x218;" horiz-adv-x="535" 
d="M265 -5q-73 0 -128 29.5t-88 80.5q-8 13 -10.5 21.5t-2.5 16.5q0 14 10.5 26.5t27.5 12.5q11 0 20.5 -6t18.5 -20q6 -9 14.5 -20.5t17.5 -21.5q19 -20 48.5 -33t69.5 -13q27 0 52 7.5t45 22.5t32 37t12 51q0 38 -31 67.5t-100 52.5l-46 15q-96 32 -135.5 81.5
t-39.5 110.5q0 38 16.5 71.5t45.5 58t68.5 39t86.5 14.5t82.5 -13t61.5 -32q28 -21 42 -43t14 -37q0 -18 -12.5 -29t-25.5 -11q-14 0 -22.5 6t-24.5 27q-20 27 -49.5 42.5t-72.5 15.5q-26 0 -49.5 -7.5t-41.5 -21.5t-28.5 -34t-10.5 -45q0 -22 8 -38.5t25 -30.5t44 -26.5
t65 -25.5l45 -16q92 -33 130 -81.5t38 -110.5q0 -45 -20 -80.5t-52 -59.5t-71.5 -37t-78.5 -13zM224 -82q0 16 10.5 27t26.5 11q23 0 34 -17t11 -41q0 -23 -4 -40t-10 -28q-8 -13 -15.5 -16.5t-15.5 -3.5q-9 0 -19 5.5t-10 19.5q0 6 2.5 11.5t4.5 10.5l4 10.5t2 10.5
q0 4 -8 11q-13 10 -13 29z" />
    <glyph glyph-name="Tcaron" unicode="&#x164;" horiz-adv-x="526" 
d="M221 612h-166q-15 0 -25 11t-10 26t10 26t25 11h416q15 0 25 -11t10 -26t-10 -26t-25 -11h-166v-574q0 -17 -12.5 -28.5t-29.5 -11.5t-29.5 11.5t-12.5 28.5v574zM264 818l70 64q11 8 23 8q14 0 23 -9t9 -22q0 -15 -16 -30l-84 -76q-11 -10 -25 -10t-25 10l-84 76
q-9 8 -13 16t-4 16q0 13 9 21.5t22 8.5t25 -9z" />
    <glyph glyph-name="Tbar" unicode="&#x166;" horiz-adv-x="526" 
d="M305 312v-274q0 -17 -12.5 -28.5t-29.5 -11.5t-29.5 11.5t-12.5 28.5v274h-69q-19 0 -28 10.5t-9 23.5t9 23.5t28 10.5h69v232h-166q-15 0 -25 11t-10 26t10 26t25 11h416q15 0 25 -11t10 -26t-10 -26t-25 -11h-166v-232h68q19 0 28 -10.5t9 -23.5t-9 -23.5t-28 -10.5
h-68z" />
    <glyph glyph-name="uni021A" unicode="&#x21a;" horiz-adv-x="526" 
d="M221 612h-166q-15 0 -25 11t-10 26t10 26t25 11h416q15 0 25 -11t10 -26t-10 -26t-25 -11h-166v-574q0 -17 -12.5 -28.5t-29.5 -11.5t-29.5 11.5t-12.5 28.5v574zM223 -82q0 16 10.5 27t26.5 11q23 0 34 -17t11 -41q0 -23 -4 -40t-10 -28q-8 -13 -15.5 -16.5t-15.5 -3.5
q-9 0 -19 5.5t-10 19.5q0 6 2.5 11.5t4.5 10.5l4 10.5t2 10.5q0 4 -8 11q-13 10 -13 29z" />
    <glyph glyph-name="uni0162" unicode="&#x162;" horiz-adv-x="526" 
d="M369 -105q0 -30 -22 -52.5t-63 -22.5q-22 0 -37.5 3.5t-27.5 9.5q-11 5 -16.5 12.5t-5.5 15.5q0 9 6 16.5t17 7.5q6 0 16 -5q8 -4 19.5 -8t22.5 -4q12 0 21 6.5t9 20.5q0 18 -23 24q-7 2 -15 2.5t-14 1.5l-14 2q-25 4 -25 26q0 5 2 10.5l5 13.5l12 32q-15 10 -15 31v574
h-166q-15 0 -25 11t-10 26t10 26t25 11h416q15 0 25 -11t10 -26t-10 -26t-25 -11h-166v-574q0 -18 -13 -29l-14 -39q38 -2 64.5 -19t26.5 -56z" />
    <glyph glyph-name="Utilde" unicode="&#x168;" horiz-adv-x="647" 
d="M488 653q0 17 12.5 28.5t29.5 11.5t29.5 -11.5t12.5 -28.5v-398q0 -63 -21 -111.5t-55.5 -81.5t-79 -50t-92.5 -17q-47 0 -92 17t-80 50t-56 81.5t-21 111.5v399q0 14 11 26.5t31 12.5q19 0 30.5 -12.5t11.5 -26.5v-399q0 -45 14 -80t37 -59t52.5 -36t61.5 -12
q31 0 61 12t52.5 36t36.5 59t14 80v398zM381 751q-22 0 -39.5 8.5t-32.5 18t-26.5 18t-21.5 8.5q-9 -1 -15 -9.5t-11 -19.5q-11 -24 -34 -24q-11 0 -19 7t-8 20q0 10 6 25.5t18 30.5t29 25.5t38 10.5t38.5 -8.5t32 -18l26.5 -18t23 -8.5q9 1 15 9.5t11 19.5q10 24 34 24
q11 0 19 -7t8 -20q0 -10 -6 -25.5t-18 -30.5t-29 -25.5t-38 -10.5z" />
    <glyph glyph-name="Umacron" unicode="&#x16a;" horiz-adv-x="647" 
d="M488 653q0 17 12.5 28.5t29.5 11.5t29.5 -11.5t12.5 -28.5v-398q0 -63 -21 -111.5t-55.5 -81.5t-79 -50t-92.5 -17q-47 0 -92 17t-80 50t-56 81.5t-21 111.5v399q0 14 11 26.5t31 12.5q19 0 30.5 -12.5t11.5 -26.5v-399q0 -45 14 -80t37 -59t52.5 -36t61.5 -12
q31 0 61 12t52.5 36t36.5 59t14 80v398zM213 777q-19 0 -28 10.5t-9 23.5t9 23.5t28 10.5h221q19 0 28 -10.5t9 -23.5t-9 -23.5t-28 -10.5h-221z" />
    <glyph glyph-name="Ubreve" unicode="&#x16c;" horiz-adv-x="647" 
d="M488 653q0 17 12.5 28.5t29.5 11.5t29.5 -11.5t12.5 -28.5v-398q0 -63 -21 -111.5t-55.5 -81.5t-79 -50t-92.5 -17q-47 0 -92 17t-80 50t-56 81.5t-21 111.5v399q0 14 11 26.5t31 12.5q19 0 30.5 -12.5t11.5 -26.5v-399q0 -45 14 -80t37 -59t52.5 -36t61.5 -12
q31 0 61 12t52.5 36t36.5 59t14 80v398zM323 746q-33 0 -56.5 12.5t-38 30t-21 36.5t-6.5 33q0 17 10 25.5t23 8.5q27 0 34 -29q2 -8 6 -17.5t10 -18t15.5 -14t23.5 -5.5t24 5.5t16 14t10 18t6 17.5q6 29 33 29q14 0 24 -8.5t10 -25.5q0 -14 -6.5 -33t-21.5 -36.5t-38.5 -30
t-56.5 -12.5z" />
    <glyph glyph-name="Uring" unicode="&#x16e;" horiz-adv-x="647" 
d="M488 653q0 17 12.5 28.5t29.5 11.5t29.5 -11.5t12.5 -28.5v-398q0 -63 -21 -111.5t-55.5 -81.5t-79 -50t-92.5 -17q-47 0 -92 17t-80 50t-56 81.5t-21 111.5v399q0 14 11 26.5t31 12.5q19 0 30.5 -12.5t11.5 -26.5v-399q0 -45 14 -80t37 -59t52.5 -36t61.5 -12
q31 0 61 12t52.5 36t36.5 59t14 80v398zM238 810q0 35 25 60t60 25t60 -25t25 -60q0 -18 -7 -33.5t-18.5 -27t-27 -18.5t-32.5 -7t-32.5 7t-27 18.5t-18.5 27t-7 33.5zM277 810q0 -20 13 -33.5t33 -13.5q19 0 32 13.5t13 33.5q0 18 -13 31.5t-32 13.5q-20 0 -33 -13.5
t-13 -31.5z" />
    <glyph glyph-name="Uhungarumlaut" unicode="&#x170;" horiz-adv-x="647" 
d="M488 653q0 17 12.5 28.5t29.5 11.5t29.5 -11.5t12.5 -28.5v-398q0 -63 -21 -111.5t-55.5 -81.5t-79 -50t-92.5 -17q-47 0 -92 17t-80 50t-56 81.5t-21 111.5v399q0 14 11 26.5t31 12.5q19 0 30.5 -12.5t11.5 -26.5v-399q0 -45 14 -80t37 -59t52.5 -36t61.5 -12
q31 0 61 12t52.5 36t36.5 59t14 80v398zM285 887q13 13 29 13q15 0 25.5 -11t10.5 -25q0 -13 -10 -23l-85 -84q-14 -14 -31 -14q-15 0 -25 10.5t-10 24.5t11 24zM453 887q13 13 29 13q15 0 25.5 -11t10.5 -25q0 -13 -10 -23l-85 -84q-14 -14 -31 -14q-15 0 -25 10.5
t-10 24.5t11 24z" />
    <glyph glyph-name="Uogonek" unicode="&#x172;" horiz-adv-x="647" 
d="M488 653q0 17 12.5 28.5t29.5 11.5t29.5 -11.5t12.5 -28.5v-398q0 -79 -31.5 -135t-82.5 -87q-6 -5 -16 -11t-21.5 -12l-22 -11.5t-17.5 -9.5q-34 -20 -46.5 -35.5t-12.5 -30.5q0 -13 7.5 -19t19.5 -6q15 0 37 14q10 6 18 10t16 4q11 0 20 -9.5t9 -23.5q0 -18 -24 -34
q-16 -11 -34.5 -18.5t-41.5 -7.5q-45 0 -74 21.5t-29 59.5q0 25 11 44t35 39q-43 5 -82 24.5t-69 52t-48 78t-18 103.5v399q0 14 11 26.5t31 12.5q19 0 30.5 -12.5t11.5 -26.5v-399q0 -45 14 -80t37 -59t52.5 -36t61.5 -12q31 0 61 12t52.5 36t36.5 59t14 80v398z" />
    <glyph glyph-name="Wcircumflex" unicode="&#x174;" horiz-adv-x="992" 
d="M669 29l-44.5 125.5l-44.5 132.5l-43.5 134l-40.5 130l-41.5 -130l-43 -134.5l-44 -132.5l-43.5 -124q-5 -15 -16 -24t-28 -9q-14 0 -26 8.5t-17 23.5q-55 154 -101.5 298t-86.5 298q-4 13 -4.5 17.5t-0.5 8.5q0 19 13 30.5t29 11.5q15 0 26 -9t15 -24q34 -133 74.5 -265
l80.5 -261l167 517q8 24 20 33t26 9t27 -9t21 -33l90 -270l80 -247q43 127 79.5 257.5l71.5 265.5q5 19 16.5 27.5t25.5 8.5q16 0 29 -10.5t13 -29.5q0 -4 -2 -14q-33 -131 -81 -285.5t-111 -323.5q-5 -15 -15.5 -24t-27.5 -9q-31 0 -42 32zM495 816l-70 -64q-11 -8 -23 -8
q-14 0 -23 9t-9 22q0 15 16 30l84 76q11 10 25 10t25 -10l84 -76q9 -8 13 -16t4 -16q0 -13 -9 -21.5t-22 -8.5t-25 9z" />
    <glyph glyph-name="Wgrave" unicode="&#x1e80;" horiz-adv-x="992" 
d="M669 29l-44.5 125.5l-44.5 132.5l-43.5 134l-40.5 130l-41.5 -130l-43 -134.5l-44 -132.5l-43.5 -124q-5 -15 -16 -24t-28 -9q-14 0 -26 8.5t-17 23.5q-55 154 -101.5 298t-86.5 298q-4 13 -4.5 17.5t-0.5 8.5q0 19 13 30.5t29 11.5q15 0 26 -9t15 -24q34 -133 74.5 -265
l80.5 -261l167 517q8 24 20 33t26 9t27 -9t21 -33l90 -270l80 -247q43 127 79.5 257.5l71.5 265.5q5 19 16.5 27.5t25.5 8.5q16 0 29 -10.5t13 -29.5q0 -4 -2 -14q-33 -131 -81 -285.5t-111 -323.5q-5 -15 -15.5 -24t-27.5 -9q-31 0 -42 32zM571 809q14 -11 14 -28
q0 -14 -10.5 -25.5t-26.5 -11.5q-14 0 -30 11l-99 79q-13 12 -13 30q0 14 9.5 25t26.5 11q14 0 30 -11z" />
    <glyph glyph-name="Wacute" unicode="&#x1e82;" horiz-adv-x="992" 
d="M669 29l-44.5 125.5l-44.5 132.5l-43.5 134l-40.5 130l-41.5 -130l-43 -134.5l-44 -132.5l-43.5 -124q-5 -15 -16 -24t-28 -9q-14 0 -26 8.5t-17 23.5q-55 154 -101.5 298t-86.5 298q-4 13 -4.5 17.5t-0.5 8.5q0 19 13 30.5t29 11.5q15 0 26 -9t15 -24q34 -133 74.5 -265
l80.5 -261l167 517q8 24 20 33t26 9t27 -9t21 -33l90 -270l80 -247q43 127 79.5 257.5l71.5 265.5q5 19 16.5 27.5t25.5 8.5q16 0 29 -10.5t13 -29.5q0 -4 -2 -14q-33 -131 -81 -285.5t-111 -323.5q-5 -15 -15.5 -24t-27.5 -9q-31 0 -42 32zM519 889q16 11 30 11
q17 0 26.5 -11t9.5 -25q0 -18 -13 -30l-99 -79q-16 -11 -30 -11q-16 0 -26.5 11.5t-10.5 25.5q0 17 14 28z" />
    <glyph glyph-name="Wdieresis" unicode="&#x1e84;" horiz-adv-x="992" 
d="M669 29l-44.5 125.5l-44.5 132.5l-43.5 134l-40.5 130l-41.5 -130l-43 -134.5l-44 -132.5l-43.5 -124q-5 -15 -16 -24t-28 -9q-14 0 -26 8.5t-17 23.5q-55 154 -101.5 298t-86.5 298q-4 13 -4.5 17.5t-0.5 8.5q0 19 13 30.5t29 11.5q15 0 26 -9t15 -24q34 -133 74.5 -265
l80.5 -261l167 517q8 24 20 33t26 9t27 -9t21 -33l90 -270l80 -247q43 127 79.5 257.5l71.5 265.5q5 19 16.5 27.5t25.5 8.5q16 0 29 -10.5t13 -29.5q0 -4 -2 -14q-33 -131 -81 -285.5t-111 -323.5q-5 -15 -15.5 -24t-27.5 -9q-31 0 -42 32zM357 811q0 18 12.5 32.5
t33.5 14.5t33.5 -14.5t12.5 -32.5t-12.5 -32.5t-33.5 -14.5t-33.5 14.5t-12.5 32.5zM543 811q0 18 12.5 32.5t33.5 14.5t33.5 -14.5t12.5 -32.5t-12.5 -32.5t-33.5 -14.5t-33.5 14.5t-12.5 32.5z" />
    <glyph glyph-name="Ycircumflex" unicode="&#x176;" horiz-adv-x="584" 
d="M249 290l-59 89l-62 94l-56 86t-41 65q-9 16 -9 27q0 14 11 28t31 14q8 0 18 -4t17 -15l36.5 -58.5l49 -77l55 -84l54.5 -78.5q11 15 27.5 39.5l35.5 53.5l38 60l36.5 58.5l31 50t21.5 34.5t17 16.5t20 4.5q19 0 30 -14t11 -28q0 -13 -12 -32l-83 -127l-35.5 -54
l-36.5 -54.5l-34 -50.5l-28 -43v-252q0 -17 -12.5 -28.5t-29.5 -11.5t-29.5 11.5t-12.5 28.5v252zM294 816l-70 -64q-11 -8 -23 -8q-14 0 -23 9t-9 22q0 15 16 30l84 76q11 10 25 10t25 -10l84 -76q9 -8 13 -16t4 -16q0 -13 -9 -21.5t-22 -8.5t-25 9z" />
    <glyph glyph-name="Ygrave" unicode="&#x1ef2;" horiz-adv-x="584" 
d="M249 290l-59 89l-62 94l-56 86t-41 65q-9 16 -9 27q0 14 11 28t31 14q8 0 18 -4t17 -15l36.5 -58.5l49 -77l55 -84l54.5 -78.5q11 15 27.5 39.5l35.5 53.5l38 60l36.5 58.5l31 50t21.5 34.5t17 16.5t20 4.5q19 0 30 -14t11 -28q0 -13 -12 -32l-83 -127l-35.5 -54
l-36.5 -54.5l-34 -50.5l-28 -43v-252q0 -17 -12.5 -28.5t-29.5 -11.5t-29.5 11.5t-12.5 28.5v252zM367 809q14 -11 14 -28q0 -14 -10.5 -25.5t-26.5 -11.5q-14 0 -30 11l-99 79q-13 12 -13 30q0 14 9.5 25t26.5 11q14 0 30 -11z" />
    <glyph glyph-name="Zacute" unicode="&#x179;" horiz-adv-x="588" 
d="M48 50q0 9 3.5 17.5t12.5 22.5l88 130l89.5 126l92.5 128.5l97 138.5h-338q-17 0 -26.5 11t-9.5 25q0 17 10 27t26 10h400q17 0 29 -12.5t12 -29.5q0 -9 -2 -17.5t-9 -19.5q-64 -95 -146 -204.5l-169 -235.5l-62 -89h361q15 0 26 -10t11 -25q0 -17 -10 -27.5t-27 -10.5
h-418q-18 0 -29.5 13.5t-11.5 31.5zM327 889q16 11 30 11q17 0 26.5 -11t9.5 -25q0 -18 -13 -30l-99 -79q-16 -11 -30 -11q-16 0 -26.5 11.5t-10.5 25.5q0 17 14 28z" />
    <glyph glyph-name="Zdotaccent" unicode="&#x17b;" horiz-adv-x="588" 
d="M48 50q0 9 3.5 17.5t12.5 22.5l88 130l89.5 126l92.5 128.5l97 138.5h-338q-17 0 -26.5 11t-9.5 25q0 17 10 27t26 10h400q17 0 29 -12.5t12 -29.5q0 -9 -2 -17.5t-9 -19.5q-64 -95 -146 -204.5l-169 -235.5l-62 -89h361q15 0 26 -10t11 -25q0 -17 -10 -27.5t-27 -10.5
h-418q-18 0 -29.5 13.5t-11.5 31.5zM248 811q0 18 12.5 32.5t33.5 14.5t33.5 -14.5t12.5 -32.5t-12.5 -32.5t-33.5 -14.5t-33.5 14.5t-12.5 32.5z" />
    <glyph glyph-name="uni018F" unicode="&#x18f;" horiz-adv-x="667" 
d="M531 383q-2 46 -18.5 89t-44.5 76t-67 53t-87 20q-56 0 -97 -20.5t-82 -69.5q-11 -12 -20.5 -16t-18.5 -4q-17 0 -27.5 12.5t-10.5 25.5q0 14 17 36.5t44 44.5q32 26 79 46t110 20q79 0 137.5 -30t97 -79.5t57.5 -112t19 -128.5q0 -77 -25 -141t-67 -110.5t-97 -72
t-114 -25.5q-65 0 -119 25.5t-92.5 70.5t-59.5 105.5t-21 130.5q0 23 12 38.5t40 15.5h455zM316 71q41 0 78.5 17.5t67 49t48 75.5t20.5 97h-404q-7 0 -9.5 -4t-2.5 -8q0 -45 15 -86t42 -72.5t64 -50t81 -18.5z" />
    <glyph glyph-name="uni1E9E" unicode="&#x1e9e;" horiz-adv-x="648" 
d="M350 350q-22 1 -32.5 12.5t-10.5 28.5q0 8 2.5 14.5t7.5 16.5l97 191h-113q-42 0 -69.5 -15.5t-43.5 -39t-22.5 -50.5t-6.5 -51v-419q0 -17 -12.5 -28.5t-29.5 -11.5t-29.5 11.5t-12.5 28.5v419q0 35 10 75t35.5 74.5t69.5 57t111 22.5h172q20 0 32 -13.5t12 -30.5
q0 -5 -2 -11.5t-11 -23.5l-99 -191q42 -6 77.5 -22.5t61 -43.5t40 -63t14.5 -80q0 -47 -17 -85t-46 -66t-68.5 -43t-85.5 -15q-28 0 -57 8t-53 22t-39 32t-15 38q0 16 11 26t26 10q11 0 20 -5.5t14 -11.5q10 -12 19 -19q33 -27 74 -27q31 0 55.5 11.5t42 30.5t26.5 43.5
t9 50.5q0 33 -12.5 59t-34.5 44t-52 28t-65 12z" />
    <glyph glyph-name="amacron" unicode="&#x101;" horiz-adv-x="555" 
d="M269 65q29 0 60.5 15t51.5 40q10 12 15.5 29.5t5.5 52.5v84q0 22 -1.5 37.5t-4.5 27t-7 19t-9 14.5q-19 25 -49 40t-62 15t-58 -14.5t-45 -40t-29 -59.5t-10 -74q0 -39 10 -73t28.5 -59t45 -39.5t58.5 -14.5zM260 -5q-48 0 -88 21t-68.5 56.5t-44 81.5t-15.5 97
q0 50 15.5 96.5t44 82.5t68 57.5t88.5 21.5q43 0 79 -17.5t63 -47.5v24q0 17 11.5 27.5t28.5 10.5t28.5 -10.5t11.5 -27.5v-356q0 -17 4.5 -27t10 -17.5t10 -14.5t4.5 -18q0 -14 -11.5 -27t-30.5 -13q-20 0 -36 16t-24 44q-29 -32 -67.5 -46t-81.5 -14zM160 595
q-19 0 -28 10.5t-9 23.5t9 23.5t28 10.5h221q19 0 28 -10.5t9 -23.5t-9 -23.5t-28 -10.5h-221z" />
    <glyph glyph-name="abreve" unicode="&#x103;" horiz-adv-x="555" 
d="M269 65q29 0 60.5 15t51.5 40q10 12 15.5 29.5t5.5 52.5v84q0 22 -1.5 37.5t-4.5 27t-7 19t-9 14.5q-19 25 -49 40t-62 15t-58 -14.5t-45 -40t-29 -59.5t-10 -74q0 -39 10 -73t28.5 -59t45 -39.5t58.5 -14.5zM260 -5q-48 0 -88 21t-68.5 56.5t-44 81.5t-15.5 97
q0 50 15.5 96.5t44 82.5t68 57.5t88.5 21.5q43 0 79 -17.5t63 -47.5v24q0 17 11.5 27.5t28.5 10.5t28.5 -10.5t11.5 -27.5v-356q0 -17 4.5 -27t10 -17.5t10 -14.5t4.5 -18q0 -14 -11.5 -27t-30.5 -13q-20 0 -36 16t-24 44q-29 -32 -67.5 -46t-81.5 -14zM269 564
q-33 0 -56.5 12.5t-38 30t-21 36.5t-6.5 33q0 17 10 25.5t23 8.5q27 0 34 -29q2 -8 6 -17.5t10 -18t15.5 -14t23.5 -5.5t24 5.5t16 14t10 18t6 17.5q6 29 33 29q14 0 24 -8.5t10 -25.5q0 -14 -6.5 -33t-21.5 -36.5t-38.5 -30t-56.5 -12.5z" />
    <glyph glyph-name="aogonek" unicode="&#x105;" horiz-adv-x="555" 
d="M260 -5q-48 0 -88 21t-68.5 56.5t-44 81.5t-15.5 97q0 50 15.5 96.5t44 82.5t68 57.5t88.5 21.5q43 0 79 -17.5t63 -47.5v24q0 17 11.5 27.5t28.5 10.5t28.5 -10.5t11.5 -27.5v-356q0 -17 4.5 -27t10 -17.5t10 -14.5t4.5 -18q0 -17 -13.5 -29t-26.5 -20
q-33 -22 -43.5 -34.5t-10.5 -27.5q0 -22 25 -22q15 0 31 10q21 13 34 13q11 0 19.5 -8.5t8.5 -22.5q0 -20 -23 -35q-15 -11 -36.5 -17t-44.5 -6q-36 0 -62.5 21.5t-26.5 56.5q0 30 21 57.5t67 56.5q-6 7 -12.5 16.5t-9.5 20.5q-29 -32 -67 -51t-81 -19zM269 65q29 0 60.5 15
t51.5 40q10 12 15.5 29.5t5.5 52.5v84q0 22 -1.5 37.5t-4.5 27t-7 19t-9 14.5q-19 25 -49 40t-62 15t-58 -14.5t-45 -40t-29 -59.5t-10 -74q0 -39 10 -73t28.5 -59t45 -39.5t58.5 -14.5z" />
    <glyph glyph-name="aeacute" unicode="&#x1fd;" horiz-adv-x="788" 
d="M402 236q0 -34 9.5 -65t27.5 -54.5t44.5 -37.5t61.5 -14q34 0 62 14.5t46 31.5q15 15 23.5 21t20.5 6q14 0 23.5 -10t9.5 -24q0 -17 -11.5 -31.5t-31.5 -30.5q-21 -16 -57 -31.5t-87 -15.5t-92.5 19.5t-70.5 54.5q-14 -12 -31.5 -25t-39.5 -24t-48 -18t-57 -7
q-50 0 -81.5 13.5t-50.5 33.5t-26 43.5t-7 43.5q0 31 13.5 60t46.5 52t87.5 38.5t137.5 20.5v7t0.5 13t0.5 13v6v5q0 40 -21 67.5t-68 27.5q-26 0 -51 -8.5t-40 -16.5l-25.5 -14.5t-25.5 -6.5q-17 0 -26 10.5t-9 24.5q0 11 6.5 22.5t27.5 22.5q29 15 65 25.5t84 10.5
q54 0 90.5 -23t53.5 -69q29 44 72 68t97 24q44 0 79.5 -18t60 -48t38 -69t13.5 -81q0 -57 -62 -57h-282zM208 63q38 0 75 19t63 42q-22 52 -22 112q-60 -2 -99.5 -11.5t-63 -24.5t-33 -32.5t-9.5 -33.5q0 -32 23.5 -51.5t65.5 -19.5zM546 439q-29 0 -53 -11t-42 -29.5
t-30 -43.5t-16 -53h250q8 0 8 8q0 20 -5.5 43t-19 42t-36 31.5t-56.5 12.5zM417 707q16 11 30 11q17 0 26.5 -11t9.5 -25q0 -18 -13 -30l-99 -79q-16 -11 -30 -11q-16 0 -26.5 11.5t-10.5 25.5q0 17 14 28z" />
    <glyph glyph-name="cacute" unicode="&#x107;" horiz-adv-x="492" 
d="M275 509q42 0 73.5 -11.5t52.5 -28.5q26 -20 38.5 -40t12.5 -36q0 -11 -9 -23t-26 -12t-26.5 11l-22.5 26q-38 44 -94 44q-32 0 -59 -15t-46.5 -40.5t-30.5 -60t-11 -72.5q0 -39 11.5 -72.5t31.5 -59t46.5 -40t55.5 -14.5q31 0 57 11t52 43q16 20 35 20q17 0 26.5 -11.5
t9.5 -22.5q0 -17 -14.5 -35.5t-39.5 -35.5q-24 -17 -55.5 -28t-67.5 -11q-47 0 -89 19t-73.5 53.5t-50 81.5t-18.5 103q0 52 17.5 99t48 82t73 55.5t92.5 20.5zM300 707q16 11 30 11q17 0 26.5 -11t9.5 -25q0 -18 -13 -30l-99 -79q-16 -11 -30 -11q-16 0 -26.5 11.5
t-10.5 25.5q0 17 14 28z" />
    <glyph glyph-name="ccircumflex" unicode="&#x109;" horiz-adv-x="492" 
d="M275 509q42 0 73.5 -11.5t52.5 -28.5q26 -20 38.5 -40t12.5 -36q0 -11 -9 -23t-26 -12t-26.5 11l-22.5 26q-38 44 -94 44q-32 0 -59 -15t-46.5 -40.5t-30.5 -60t-11 -72.5q0 -39 11.5 -72.5t31.5 -59t46.5 -40t55.5 -14.5q31 0 57 11t52 43q16 20 35 20q17 0 26.5 -11.5
t9.5 -22.5q0 -17 -14.5 -35.5t-39.5 -35.5q-24 -17 -55.5 -28t-67.5 -11q-47 0 -89 19t-73.5 53.5t-50 81.5t-18.5 103q0 52 17.5 99t48 82t73 55.5t92.5 20.5zM273 634l-70 -64q-11 -8 -23 -8q-14 0 -23 9t-9 22q0 15 16 30l84 76q11 10 25 10t25 -10l84 -76q9 -8 13 -16
t4 -16q0 -13 -9 -21.5t-22 -8.5t-25 9z" />
    <glyph glyph-name="cdotaccent" unicode="&#x10b;" horiz-adv-x="492" 
d="M275 509q42 0 73.5 -11.5t52.5 -28.5q26 -20 38.5 -40t12.5 -36q0 -11 -9 -23t-26 -12t-26.5 11l-22.5 26q-38 44 -94 44q-32 0 -59 -15t-46.5 -40.5t-30.5 -60t-11 -72.5q0 -39 11.5 -72.5t31.5 -59t46.5 -40t55.5 -14.5q31 0 57 11t52 43q16 20 35 20q17 0 26.5 -11.5
t9.5 -22.5q0 -17 -14.5 -35.5t-39.5 -35.5q-24 -17 -55.5 -28t-67.5 -11q-47 0 -89 19t-73.5 53.5t-50 81.5t-18.5 103q0 52 17.5 99t48 82t73 55.5t92.5 20.5zM220 654q0 18 12.5 32.5t33.5 14.5t33.5 -14.5t12.5 -32.5t-12.5 -32.5t-33.5 -14.5t-33.5 14.5t-12.5 32.5z
" />
    <glyph glyph-name="ccaron" unicode="&#x10d;" horiz-adv-x="492" 
d="M275 509q42 0 73.5 -11.5t52.5 -28.5q26 -20 38.5 -40t12.5 -36q0 -11 -9 -23t-26 -12t-26.5 11l-22.5 26q-38 44 -94 44q-32 0 -59 -15t-46.5 -40.5t-30.5 -60t-11 -72.5q0 -39 11.5 -72.5t31.5 -59t46.5 -40t55.5 -14.5q31 0 57 11t52 43q16 20 35 20q17 0 26.5 -11.5
t9.5 -22.5q0 -17 -14.5 -35.5t-39.5 -35.5q-24 -17 -55.5 -28t-67.5 -11q-47 0 -89 19t-73.5 53.5t-50 81.5t-18.5 103q0 52 17.5 99t48 82t73 55.5t92.5 20.5zM267 636l70 64q11 8 23 8q14 0 23 -9t9 -22q0 -15 -16 -30l-84 -76q-11 -10 -25 -10t-25 10l-84 76q-9 8 -13 16
t-4 16q0 13 9 21.5t22 8.5t25 -9z" />
    <glyph glyph-name="dcaron" unicode="&#x10f;" horiz-adv-x="607" 
d="M651 680q0 -11 -2.5 -26.5t-6.5 -32t-9 -33.5t-10 -31q-7 -17 -17.5 -24t-21.5 -7q-14 0 -24 9t-10 23q0 2 0.5 6.5t2.5 13.5q13 49 20 99q2 19 13.5 29t26.5 10q18 0 28 -9.5t10 -26.5zM44 250q0 50 15.5 96.5t44 82.5t68 57.5t88.5 21.5q43 0 79 -17.5t63 -47.5v235
q0 17 11.5 27.5t28.5 10.5t28.5 -10.5t11.5 -27.5v-643q0 -17 -11.5 -27.5t-28.5 -10.5t-28.5 10.5t-11.5 27.5v24q-27 -31 -63 -48t-79 -17q-48 0 -88 21t-68.5 56.5t-44 81.5t-15.5 97zM269 64q29 0 60.5 14t51.5 39q10 12 15.5 29.5t5.5 52.5v86q0 22 -1.5 37.5t-4.5 27
t-7 19t-9 14.5q-19 25 -49 40t-62 15t-58 -14.5t-45 -40t-29 -59.5t-10 -74q0 -39 10 -73t28.5 -59t45 -39.5t58.5 -14.5z" />
    <glyph glyph-name="dcroat" unicode="&#x111;" horiz-adv-x="548" 
d="M44 251q0 50 15.5 96.5t44 82.5t68 57.5t88.5 21.5q43 0 79 -17.5t63 -47.5v151h-77q-19 0 -28 10.5t-9 23.5t9 23.5t28 10.5h77v16q0 17 11.5 27.5t28.5 10.5t28.5 -10.5t11.5 -27.5v-16h24q19 0 28 -10.5t9 -23.5t-9 -23.5t-28 -10.5h-24v-559q0 -17 -11.5 -27.5
t-28.5 -10.5t-28.5 10.5t-11.5 27.5v24q-27 -31 -63 -48t-79 -17q-48 0 -88 21t-68.5 56.5t-44 81.5t-15.5 97zM269 65q29 0 60.5 14t51.5 39q10 12 15.5 29.5t5.5 52.5v86q0 22 -1.5 37.5t-4.5 27t-7 19t-9 14.5q-19 25 -49 40t-62 15t-58 -14.5t-45 -40t-29 -59.5t-10 -74
q0 -39 10 -73t28.5 -59t45 -39.5t58.5 -14.5z" />
    <glyph glyph-name="emacron" unicode="&#x113;" horiz-adv-x="524" 
d="M125 236q0 -33 10.5 -63.5t30 -54.5t48 -38.5t65.5 -14.5q34 0 63 14.5t47 31.5q15 15 23.5 21t20.5 6q14 0 23.5 -10t9.5 -24q0 -17 -11.5 -31.5t-31.5 -30.5q-21 -16 -58 -31.5t-88 -15.5t-93.5 19.5t-73 54t-48 81t-17.5 100.5q0 55 17.5 102.5t48 82.5t72 54.5
t89.5 19.5q47 0 85.5 -18t66.5 -48t43 -69t15 -81q0 -57 -62 -57h-295zM270 439q-30 0 -54 -12t-42.5 -31.5t-30 -44t-15.5 -49.5h263q8 0 8 8q0 20 -7.5 43t-23.5 42t-40 31.5t-58 12.5zM151 595q-19 0 -28 10.5t-9 23.5t9 23.5t28 10.5h221q19 0 28 -10.5t9 -23.5
t-9 -23.5t-28 -10.5h-221z" />
    <glyph glyph-name="ebreve" unicode="&#x115;" horiz-adv-x="524" 
d="M125 236q0 -33 10.5 -63.5t30 -54.5t48 -38.5t65.5 -14.5q34 0 63 14.5t47 31.5q15 15 23.5 21t20.5 6q14 0 23.5 -10t9.5 -24q0 -17 -11.5 -31.5t-31.5 -30.5q-21 -16 -58 -31.5t-88 -15.5t-93.5 19.5t-73 54t-48 81t-17.5 100.5q0 55 17.5 102.5t48 82.5t72 54.5
t89.5 19.5q47 0 85.5 -18t66.5 -48t43 -69t15 -81q0 -57 -62 -57h-295zM270 439q-30 0 -54 -12t-42.5 -31.5t-30 -44t-15.5 -49.5h263q8 0 8 8q0 20 -7.5 43t-23.5 42t-40 31.5t-58 12.5zM262 564q-33 0 -56.5 12.5t-38 30t-21 36.5t-6.5 33q0 17 10 25.5t23 8.5
q27 0 34 -29q2 -8 6 -17.5t10 -18t15.5 -14t23.5 -5.5t24 5.5t16 14t10 18t6 17.5q6 29 33 29q14 0 24 -8.5t10 -25.5q0 -14 -6.5 -33t-21.5 -36.5t-38.5 -30t-56.5 -12.5z" />
    <glyph glyph-name="edotaccent" unicode="&#x117;" horiz-adv-x="524" 
d="M125 236q0 -33 10.5 -63.5t30 -54.5t48 -38.5t65.5 -14.5q34 0 63 14.5t47 31.5q15 15 23.5 21t20.5 6q14 0 23.5 -10t9.5 -24q0 -17 -11.5 -31.5t-31.5 -30.5q-21 -16 -58 -31.5t-88 -15.5t-93.5 19.5t-73 54t-48 81t-17.5 100.5q0 55 17.5 102.5t48 82.5t72 54.5
t89.5 19.5q47 0 85.5 -18t66.5 -48t43 -69t15 -81q0 -57 -62 -57h-295zM270 439q-30 0 -54 -12t-42.5 -31.5t-30 -44t-15.5 -49.5h263q8 0 8 8q0 20 -7.5 43t-23.5 42t-40 31.5t-58 12.5zM216 654q0 18 12.5 32.5t33.5 14.5t33.5 -14.5t12.5 -32.5t-12.5 -32.5t-33.5 -14.5
t-33.5 14.5t-12.5 32.5z" />
    <glyph glyph-name="eogonek" unicode="&#x119;" horiz-adv-x="524" 
d="M125 236q0 -33 10.5 -63.5t30 -54.5t48 -38.5t65.5 -14.5q34 0 63 14.5t47 31.5q15 15 23.5 21t20.5 6q14 0 23.5 -10t9.5 -24q0 -17 -10.5 -31t-28.5 -28q-7 -6 -17 -12.5l-20 -13l-17.5 -11.5t-9.5 -6q-42 -28 -56 -45.5t-14 -31.5q0 -13 7.5 -19t19.5 -6q15 0 37 14
q10 6 18 10t16 4q11 0 20 -9.5t9 -21.5q0 -20 -24 -36q-16 -11 -37 -18.5t-45 -7.5q-41 0 -69 21.5t-28 59.5q0 25 9.5 43.5t32.5 38.5q-67 3 -116 40q-46 34 -72 89t-26 123q0 55 17.5 102.5t48 82.5t72 54.5t89.5 19.5q47 0 85.5 -18t66.5 -48t43 -69t15 -81
q0 -57 -62 -57h-295zM270 439q-30 0 -54 -12t-42.5 -31.5t-30 -44t-15.5 -49.5h263q8 0 8 8q0 20 -7.5 43t-23.5 42t-40 31.5t-58 12.5z" />
    <glyph glyph-name="ecaron" unicode="&#x11b;" horiz-adv-x="524" 
d="M125 236q0 -33 10.5 -63.5t30 -54.5t48 -38.5t65.5 -14.5q34 0 63 14.5t47 31.5q15 15 23.5 21t20.5 6q14 0 23.5 -10t9.5 -24q0 -17 -11.5 -31.5t-31.5 -30.5q-21 -16 -58 -31.5t-88 -15.5t-93.5 19.5t-73 54t-48 81t-17.5 100.5q0 55 17.5 102.5t48 82.5t72 54.5
t89.5 19.5q47 0 85.5 -18t66.5 -48t43 -69t15 -81q0 -57 -62 -57h-295zM270 439q-30 0 -54 -12t-42.5 -31.5t-30 -44t-15.5 -49.5h263q8 0 8 8q0 20 -7.5 43t-23.5 42t-40 31.5t-58 12.5zM263 636l70 64q11 8 23 8q14 0 23 -9t9 -22q0 -15 -16 -30l-84 -76q-11 -10 -25 -10
t-25 10l-84 76q-9 8 -13 16t-4 16q0 13 9 21.5t22 8.5t25 -9z" />
    <glyph glyph-name="gcircumflex" unicode="&#x11d;" horiz-adv-x="533" 
d="M264 74q38 0 65.5 15.5t44.5 36.5q10 12 15 28t5 52v83q0 37 -4.5 58t-16.5 38q-14 19 -41.5 36.5t-67.5 17.5q-31 0 -56 -14t-43 -39t-27.5 -58.5t-9.5 -72.5q0 -38 9.5 -71t27 -57.5t42.5 -38.5t57 -14zM257 -187q-43 0 -80.5 12.5t-51.5 27.5q-5 6 -7.5 13.5
t-2.5 13.5q0 14 9 26.5t26 12.5q6 0 12 -2t14 -7l5 -3q17 -11 39 -16.5t43 -5.5q60 0 96 38t36 107v40q-29 -32 -65 -48t-76 -16q-46 0 -84.5 19t-66.5 52.5t-43.5 79t-15.5 98.5q0 48 15 94t43 81.5t66.5 57t85.5 21.5q40 0 75.5 -17t64.5 -48v26q0 16 12.5 26t28.5 10
q15 0 27 -9.5t12 -25.5v-437q0 -56 -17 -97.5t-46 -69t-69 -41t-85 -13.5zM266 634l-70 -64q-11 -8 -23 -8q-14 0 -23 9t-9 22q0 15 16 30l84 76q11 10 25 10t25 -10l84 -76q9 -8 13 -16t4 -16q0 -13 -9 -21.5t-22 -8.5t-25 9z" />
    <glyph glyph-name="gbreve" unicode="&#x11f;" horiz-adv-x="533" 
d="M264 74q38 0 65.5 15.5t44.5 36.5q10 12 15 28t5 52v83q0 37 -4.5 58t-16.5 38q-14 19 -41.5 36.5t-67.5 17.5q-31 0 -56 -14t-43 -39t-27.5 -58.5t-9.5 -72.5q0 -38 9.5 -71t27 -57.5t42.5 -38.5t57 -14zM257 -187q-43 0 -80.5 12.5t-51.5 27.5q-5 6 -7.5 13.5
t-2.5 13.5q0 14 9 26.5t26 12.5q6 0 12 -2t14 -7l5 -3q17 -11 39 -16.5t43 -5.5q60 0 96 38t36 107v40q-29 -32 -65 -48t-76 -16q-46 0 -84.5 19t-66.5 52.5t-43.5 79t-15.5 98.5q0 48 15 94t43 81.5t66.5 57t85.5 21.5q40 0 75.5 -17t64.5 -48v26q0 16 12.5 26t28.5 10
q15 0 27 -9.5t12 -25.5v-437q0 -56 -17 -97.5t-46 -69t-69 -41t-85 -13.5zM267 564q-33 0 -56.5 12.5t-38 30t-21 36.5t-6.5 33q0 17 10 25.5t23 8.5q27 0 34 -29q2 -8 6 -17.5t10 -18t15.5 -14t23.5 -5.5t24 5.5t16 14t10 18t6 17.5q6 29 33 29q14 0 24 -8.5t10 -25.5
q0 -14 -6.5 -33t-21.5 -36.5t-38.5 -30t-56.5 -12.5z" />
    <glyph glyph-name="gdotaccent" unicode="&#x121;" horiz-adv-x="533" 
d="M264 74q38 0 65.5 15.5t44.5 36.5q10 12 15 28t5 52v83q0 37 -4.5 58t-16.5 38q-14 19 -41.5 36.5t-67.5 17.5q-31 0 -56 -14t-43 -39t-27.5 -58.5t-9.5 -72.5q0 -38 9.5 -71t27 -57.5t42.5 -38.5t57 -14zM257 -187q-43 0 -80.5 12.5t-51.5 27.5q-5 6 -7.5 13.5
t-2.5 13.5q0 14 9 26.5t26 12.5q6 0 12 -2t14 -7l5 -3q17 -11 39 -16.5t43 -5.5q60 0 96 38t36 107v40q-29 -32 -65 -48t-76 -16q-46 0 -84.5 19t-66.5 52.5t-43.5 79t-15.5 98.5q0 48 15 94t43 81.5t66.5 57t85.5 21.5q40 0 75.5 -17t64.5 -48v26q0 16 12.5 26t28.5 10
q15 0 27 -9.5t12 -25.5v-437q0 -56 -17 -97.5t-46 -69t-69 -41t-85 -13.5zM220 654q0 18 12.5 32.5t33.5 14.5t33.5 -14.5t12.5 -32.5t-12.5 -32.5t-33.5 -14.5t-33.5 14.5t-12.5 32.5z" />
    <glyph glyph-name="gcommaaccent" unicode="&#x123;" horiz-adv-x="533" 
d="M296 608q0 -16 -10.5 -27t-26.5 -11q-23 0 -34 17t-11 41q0 23 4 40t10 28q8 13 15.5 16.5t15.5 3.5q9 0 19 -5.5t10 -19.5q0 -6 -2.5 -11.5t-4.5 -10.5l-4 -10.5t-2 -10.5q0 -4 8 -11q13 -10 13 -29zM264 74q38 0 65.5 15.5t44.5 36.5q10 12 15 28t5 52v83q0 37 -4.5 58
t-16.5 38q-14 19 -41.5 36.5t-67.5 17.5q-31 0 -56 -14t-43 -39t-27.5 -58.5t-9.5 -72.5q0 -38 9.5 -71t27 -57.5t42.5 -38.5t57 -14zM257 -187q-43 0 -80.5 12.5t-51.5 27.5q-5 6 -7.5 13.5t-2.5 13.5q0 14 9 26.5t26 12.5q6 0 12 -2t14 -7l5 -3q17 -11 39 -16.5t43 -5.5
q60 0 96 38t36 107v40q-29 -32 -65 -48t-76 -16q-46 0 -84.5 19t-66.5 52.5t-43.5 79t-15.5 98.5q0 48 15 94t43 81.5t66.5 57t85.5 21.5q40 0 75.5 -17t64.5 -48v26q0 16 12.5 26t28.5 10q15 0 27 -9.5t12 -25.5v-437q0 -56 -17 -97.5t-46 -69t-69 -41t-85 -13.5z" />
    <glyph glyph-name="hcircumflex" unicode="&#x125;" horiz-adv-x="524" 
d="M146 36q0 -17 -11.5 -27.5t-28.5 -10.5t-28.5 10.5t-11.5 27.5v643q0 17 11.5 27.5t28.5 10.5t28.5 -10.5t11.5 -27.5v-238q32 35 70 51.5t75 16.5q80 0 123.5 -48.5t43.5 -135.5v-289q0 -17 -11.5 -27.5t-28.5 -10.5t-28.5 10.5t-11.5 27.5v281q0 26 -3 43.5t-8 28.5
q-12 25 -34 37.5t-51 12.5q-26 0 -54 -10.5t-49 -30.5q-12 -11 -22.5 -30t-10.5 -57v-275zM262 813l-70 -64q-11 -8 -23 -8q-14 0 -23 9t-9 22q0 15 16 30l84 76q11 10 25 10t25 -10l84 -76q9 -8 13 -16t4 -16q0 -13 -9 -21.5t-22 -8.5t-25 9z" />
    <glyph glyph-name="hbar" unicode="&#x127;" horiz-adv-x="524" 
d="M146 595v-154q32 35 70 51.5t75 16.5q80 0 123.5 -48.5t43.5 -135.5v-289q0 -17 -11.5 -27.5t-28.5 -10.5t-28.5 10.5t-11.5 27.5v281q0 26 -3 43.5t-8 28.5q-12 25 -34 37.5t-51 12.5q-26 0 -54 -10.5t-49 -30.5q-12 -11 -22.5 -30t-10.5 -57v-275q0 -17 -11.5 -27.5
t-28.5 -10.5t-28.5 10.5t-11.5 27.5v559h-16q-19 0 -28 10.5t-9 23.5t9 23.5t28 10.5h16v16q0 17 11.5 27.5t28.5 10.5t28.5 -10.5t11.5 -27.5v-16h85q19 0 28 -10.5t9 -23.5t-9 -23.5t-28 -10.5h-85z" />
    <glyph glyph-name="itilde" unicode="&#x129;" horiz-adv-x="212" 
d="M146 36q0 -17 -11.5 -27.5t-28.5 -10.5t-28.5 10.5t-11.5 27.5v432q0 17 11.5 27.5t28.5 10.5t28.5 -10.5t11.5 -27.5v-432zM164 573q-22 0 -39.5 8.5t-32.5 18t-26.5 18t-21.5 8.5q-9 -1 -15 -9.5t-11 -19.5q-11 -24 -34 -24q-11 0 -19 7t-8 20q0 10 6 25.5t18 30.5
t29 25.5t38 10.5t38.5 -8.5t32 -18l26.5 -18t23 -8.5q9 1 15 9.5t11 19.5q10 24 34 24q11 0 19 -7t8 -20q0 -10 -6 -25.5t-18 -30.5t-29 -25.5t-38 -10.5z" />
    <glyph glyph-name="imacron" unicode="&#x12b;" horiz-adv-x="212" 
d="M146 36q0 -17 -11.5 -27.5t-28.5 -10.5t-28.5 10.5t-11.5 27.5v432q0 17 11.5 27.5t28.5 10.5t28.5 -10.5t11.5 -27.5v-432zM-4 595q-19 0 -28 10.5t-9 23.5t9 23.5t28 10.5h221q19 0 28 -10.5t9 -23.5t-9 -23.5t-28 -10.5h-221z" />
    <glyph glyph-name="ibreve" unicode="&#x12d;" horiz-adv-x="212" 
d="M146 36q0 -17 -11.5 -27.5t-28.5 -10.5t-28.5 10.5t-11.5 27.5v432q0 17 11.5 27.5t28.5 10.5t28.5 -10.5t11.5 -27.5v-432zM106 564q-33 0 -56.5 12.5t-38 30t-21 36.5t-6.5 33q0 17 10 25.5t23 8.5q27 0 34 -29q2 -8 6 -17.5t10 -18t15.5 -14t23.5 -5.5t24 5.5t16 14
t10 18t6 17.5q6 29 33 29q14 0 24 -8.5t10 -25.5q0 -14 -6.5 -33t-21.5 -36.5t-38.5 -30t-56.5 -12.5z" />
    <glyph glyph-name="iogonek" unicode="&#x12f;" horiz-adv-x="212" 
d="M146 32q0 -22 -6.5 -35t-26.5 -27q-19 -14 -25.5 -25t-6.5 -22q0 -13 7.5 -19t19.5 -6q15 0 37 14q10 6 18 10t16 4q11 0 20 -9.5t9 -23.5q0 -18 -24 -34q-16 -11 -34.5 -18.5t-41.5 -7.5q-45 0 -74 21.5t-29 63.5q0 52 66 99q-5 6 -5 19v432q0 17 11.5 27.5t28.5 10.5
t28.5 -10.5t11.5 -27.5v-436zM60 654q0 18 12.5 32.5t33.5 14.5t33.5 -14.5t12.5 -32.5t-12.5 -32.5t-33.5 -14.5t-33.5 14.5t-12.5 32.5z" />
    <glyph glyph-name="ij" unicode="&#x133;" horiz-adv-x="424" 
d="M146 36q0 -17 -11.5 -27.5t-28.5 -10.5t-28.5 10.5t-11.5 27.5v432q0 17 11.5 27.5t28.5 10.5t28.5 -10.5t11.5 -27.5v-432zM60 654q0 18 12.5 32.5t33.5 14.5t33.5 -14.5t12.5 -32.5t-12.5 -32.5t-33.5 -14.5t-33.5 14.5t-12.5 32.5zM277 470q0 16 12 26t28 10
q17 0 28.5 -10.5t11.5 -27.5v-483q0 -37 -5.5 -61.5t-19.5 -44.5q-9 -13 -21.5 -25t-27.5 -21.5t-31 -15t-31 -5.5q-20 0 -31.5 10.5t-11.5 27.5q0 12 8.5 22.5t25.5 15.5l3 1q24 8 38 19t20 33q4 13 4 47v482zM272 654q0 18 12.5 32.5t33.5 14.5t33.5 -14.5t12.5 -32.5
t-12.5 -32.5t-33.5 -14.5t-33.5 14.5t-12.5 32.5z" />
    <glyph glyph-name="jcircumflex" unicode="&#x135;" horiz-adv-x="212" 
d="M65 470q0 16 12 26t28 10q17 0 28.5 -10.5t11.5 -27.5v-483q0 -37 -5.5 -61.5t-19.5 -44.5q-9 -13 -21.5 -25t-27.5 -21.5t-31 -15t-31 -5.5q-20 0 -31.5 10.5t-11.5 27.5q0 12 8.5 22.5t25.5 15.5l3 1q24 8 38 19t20 33q4 13 4 47v482zM106 634l-70 -64q-11 -8 -23 -8
q-14 0 -23 9t-9 22q0 15 16 30l84 76q11 10 25 10t25 -10l84 -76q9 -8 13 -16t4 -16q0 -13 -9 -21.5t-22 -8.5t-25 9z" />
    <glyph glyph-name="dotlessj" unicode="&#x237;" horiz-adv-x="212" 
d="M65 470q0 16 12 26t28 10q17 0 28.5 -10.5t11.5 -27.5v-483q0 -37 -5.5 -61.5t-19.5 -44.5q-9 -13 -21.5 -25t-27.5 -21.5t-31 -15t-31 -5.5q-20 0 -31.5 10.5t-11.5 27.5q0 12 8.5 22.5t25.5 15.5l3 1q24 8 38 19t20 33q4 13 4 47v482zM60 654q0 18 12.5 32.5t33.5 14.5
t33.5 -14.5t12.5 -32.5t-12.5 -32.5t-33.5 -14.5t-33.5 14.5t-12.5 32.5z" />
    <glyph glyph-name="kcommaaccent" unicode="&#x137;" horiz-adv-x="502" 
d="M276 289l75 -97.5l78 -97.5l23 -28q8 -11 10.5 -17.5t2.5 -13.5q0 -15 -11 -26t-27 -11q-9 0 -18 3.5t-16 11.5l-34 41l-37 47l-45.5 59.5l-59.5 79.5l-71 -60v-144q0 -17 -11.5 -27.5t-28.5 -10.5t-28.5 10.5t-11.5 27.5v643q0 17 11.5 27.5t28.5 10.5t28.5 -10.5
t11.5 -27.5v-414l55.5 49.5l56 50.5l60 56l68.5 67q14 14 22 16.5t15 2.5q14 0 25 -11t11 -27q0 -7 -3.5 -16.5t-19.5 -23.5l-73 -65.5zM210 -82q0 16 10.5 27t26.5 11q23 0 34 -17t11 -41q0 -23 -4 -40t-10 -28q-8 -13 -15.5 -16.5t-15.5 -3.5q-9 0 -19 5.5t-10 19.5
q0 6 2.5 11.5t4.5 10.5l4 10.5t2 10.5q0 4 -8 11q-13 10 -13 29z" />
    <glyph glyph-name="lacute" unicode="&#x13a;" horiz-adv-x="212" 
d="M146 36q0 -17 -11.5 -27.5t-28.5 -10.5t-28.5 10.5t-11.5 27.5v643q0 17 11.5 27.5t28.5 10.5t28.5 -10.5t11.5 -27.5v-643zM130 889q16 11 30 11q17 0 26.5 -11t9.5 -25q0 -18 -13 -30l-99 -79q-16 -11 -30 -11q-16 0 -26.5 11.5t-10.5 25.5q0 17 14 28z" />
    <glyph glyph-name="lcommaaccent" unicode="&#x13c;" horiz-adv-x="212" 
d="M146 36q0 -17 -11.5 -27.5t-28.5 -10.5t-28.5 10.5t-11.5 27.5v643q0 17 11.5 27.5t28.5 10.5t28.5 -10.5t11.5 -27.5v-643zM65 -82q0 16 10.5 27t26.5 11q23 0 34 -17t11 -41q0 -23 -4 -40t-10 -28q-8 -13 -15.5 -16.5t-15.5 -3.5q-9 0 -19 5.5t-10 19.5q0 6 2.5 11.5
t4.5 10.5l4 10.5t2 10.5q0 4 -8 11q-13 10 -13 29z" />
    <glyph glyph-name="lcaron" unicode="&#x13e;" horiz-adv-x="264" 
d="M308 680q0 -11 -2.5 -26.5t-6.5 -32t-9 -33.5t-10 -31q-7 -17 -17.5 -24t-21.5 -7q-14 0 -24 9t-10 23q0 2 0.5 6.5t2.5 13.5q13 49 20 99q2 19 13.5 29t26.5 10q18 0 28 -9.5t10 -26.5zM146 36q0 -17 -11.5 -27.5t-28.5 -10.5t-28.5 10.5t-11.5 27.5v643q0 17 11.5 27.5
t28.5 10.5t28.5 -10.5t11.5 -27.5v-643z" />
    <glyph glyph-name="ldot" unicode="&#x140;" horiz-adv-x="311" 
d="M215 357q0 18 12.5 32.5t33.5 14.5t33.5 -14.5t12.5 -32.5t-12.5 -32.5t-33.5 -14.5t-33.5 14.5t-12.5 32.5zM146 36q0 -17 -11.5 -27.5t-28.5 -10.5t-28.5 10.5t-11.5 27.5v643q0 17 11.5 27.5t28.5 10.5t28.5 -10.5t11.5 -27.5v-643z" />
    <glyph glyph-name="nacute" unicode="&#x144;" horiz-adv-x="524" 
d="M378 317q0 26 -3 43.5t-8 28.5q-12 25 -34 37.5t-51 12.5q-26 0 -54 -10.5t-49 -30.5q-12 -11 -22.5 -30t-10.5 -57v-275q0 -17 -11.5 -27.5t-28.5 -10.5t-28.5 10.5t-11.5 27.5v430q0 17 11.5 28.5t28.5 11.5t28.5 -11.5t11.5 -28.5v-26q32 35 70 52t75 17
q80 0 123.5 -48.5t43.5 -135.5v-289q0 -17 -11.5 -27.5t-28.5 -10.5t-28.5 10.5t-11.5 27.5v281zM296 707q16 11 30 11q17 0 26.5 -11t9.5 -25q0 -18 -13 -30l-99 -79q-16 -11 -30 -11q-16 0 -26.5 11.5t-10.5 25.5q0 17 14 28z" />
    <glyph glyph-name="ncommaaccent" unicode="&#x146;" horiz-adv-x="524" 
d="M378 317q0 26 -3 43.5t-8 28.5q-12 25 -34 37.5t-51 12.5q-26 0 -54 -10.5t-49 -30.5q-12 -11 -22.5 -30t-10.5 -57v-275q0 -17 -11.5 -27.5t-28.5 -10.5t-28.5 10.5t-11.5 27.5v430q0 17 11.5 28.5t28.5 11.5t28.5 -11.5t11.5 -28.5v-26q32 35 70 52t75 17
q80 0 123.5 -48.5t43.5 -135.5v-289q0 -17 -11.5 -27.5t-28.5 -10.5t-28.5 10.5t-11.5 27.5v281zM222 -82q0 16 10.5 27t26.5 11q23 0 34 -17t11 -41q0 -23 -4 -40t-10 -28q-8 -13 -15.5 -16.5t-15.5 -3.5q-9 0 -19 5.5t-10 19.5q0 6 2.5 11.5t4.5 10.5l4 10.5t2 10.5
q0 4 -8 11q-13 10 -13 29z" />
    <glyph glyph-name="ncaron" unicode="&#x148;" horiz-adv-x="524" 
d="M378 317q0 26 -3 43.5t-8 28.5q-12 25 -34 37.5t-51 12.5q-26 0 -54 -10.5t-49 -30.5q-12 -11 -22.5 -30t-10.5 -57v-275q0 -17 -11.5 -27.5t-28.5 -10.5t-28.5 10.5t-11.5 27.5v430q0 17 11.5 28.5t28.5 11.5t28.5 -11.5t11.5 -28.5v-26q32 35 70 52t75 17
q80 0 123.5 -48.5t43.5 -135.5v-289q0 -17 -11.5 -27.5t-28.5 -10.5t-28.5 10.5t-11.5 27.5v281zM263 636l70 64q11 8 23 8q14 0 23 -9t9 -22q0 -15 -16 -30l-84 -76q-11 -10 -25 -10t-25 10l-84 76q-9 8 -13 16t-4 16q0 13 9 21.5t22 8.5t25 -9z" />
    <glyph glyph-name="napostrophe" unicode="&#x149;" horiz-adv-x="624" 
d="M478 317q0 26 -3 43.5t-8 28.5q-12 25 -34 37.5t-51 12.5q-26 0 -54 -10.5t-49 -30.5q-12 -11 -22.5 -30t-10.5 -57v-275q0 -17 -11.5 -27.5t-28.5 -10.5t-28.5 10.5t-11.5 27.5v430q0 17 11.5 28.5t28.5 11.5t28.5 -11.5t11.5 -28.5v-26q32 35 70 52t75 17
q80 0 123.5 -48.5t43.5 -135.5v-289q0 -17 -11.5 -27.5t-28.5 -10.5t-28.5 10.5t-11.5 27.5v281zM62 630q-15 5 -22 16t-7 24q0 17 11.5 31.5t34.5 14.5q22 0 40 -18.5t18 -62.5q0 -32 -9 -62.5t-23 -53.5q-8 -13 -15.5 -16.5t-15.5 -3.5q-9 0 -19.5 7.5t-10.5 23.5
q0 4 2 10t7 17t12.5 30.5t7.5 31.5q0 7 -11 11z" />
    <glyph glyph-name="eng" unicode="&#x14b;" horiz-adv-x="524" 
d="M378 317q0 26 -3 43.5t-8 28.5q-12 25 -34 37.5t-51 12.5q-26 0 -54 -10.5t-49 -30.5q-12 -11 -22.5 -30t-10.5 -57v-275q0 -17 -11.5 -27.5t-28.5 -10.5t-28.5 10.5t-11.5 27.5v430q0 17 11.5 28.5t28.5 11.5t28.5 -11.5t11.5 -28.5v-26q32 35 70 52t75 17
q80 0 123.5 -48.5t43.5 -135.5v-340q0 -37 -5.5 -61.5t-19.5 -44.5q-9 -13 -21.5 -25t-27.5 -21.5t-31 -15t-31 -5.5q-20 0 -31.5 10.5t-11.5 27.5q0 12 8.5 22.5t25.5 15.5l3 1q24 8 38 19t20 33q4 13 4 47v329z" />
    <glyph glyph-name="omacron" unicode="&#x14d;" horiz-adv-x="550" 
d="M275 65q30 0 57 14t47.5 39t32 59t11.5 75q0 40 -11.5 74.5t-32 59.5t-47.5 39t-57 14t-57 -14t-47.5 -39t-32 -59.5t-11.5 -74.5q0 -41 11.5 -75t32 -59t47.5 -39t57 -14zM275 -5q-47 0 -88.5 19t-73.5 53t-50.5 81.5t-18.5 103.5t18.5 103.5t50 81.5t73.5 53t89 19
t89 -19t73.5 -53t50 -81.5t18.5 -103.5t-18.5 -103.5t-50.5 -81.5t-74 -53t-88 -19zM164 595q-19 0 -28 10.5t-9 23.5t9 23.5t28 10.5h221q19 0 28 -10.5t9 -23.5t-9 -23.5t-28 -10.5h-221z" />
    <glyph glyph-name="obreve" unicode="&#x14f;" horiz-adv-x="550" 
d="M275 65q30 0 57 14t47.5 39t32 59t11.5 75q0 40 -11.5 74.5t-32 59.5t-47.5 39t-57 14t-57 -14t-47.5 -39t-32 -59.5t-11.5 -74.5q0 -41 11.5 -75t32 -59t47.5 -39t57 -14zM275 -5q-47 0 -88.5 19t-73.5 53t-50.5 81.5t-18.5 103.5t18.5 103.5t50 81.5t73.5 53t89 19
t89 -19t73.5 -53t50 -81.5t18.5 -103.5t-18.5 -103.5t-50.5 -81.5t-74 -53t-88 -19zM275 564q-33 0 -56.5 12.5t-38 30t-21 36.5t-6.5 33q0 17 10 25.5t23 8.5q27 0 34 -29q2 -8 6 -17.5t10 -18t15.5 -14t23.5 -5.5t24 5.5t16 14t10 18t6 17.5q6 29 33 29q14 0 24 -8.5
t10 -25.5q0 -14 -6.5 -33t-21.5 -36.5t-38.5 -30t-56.5 -12.5z" />
    <glyph glyph-name="oslashacute" unicode="&#x1ff;" horiz-adv-x="550" 
d="M275 -5q-36 0 -68.5 11.5t-61.5 31.5l-18 -23q-9 -11 -16.5 -15.5t-18.5 -4.5q-14 0 -24.5 10t-10.5 25t13 31l24 29q-23 32 -36.5 73t-13.5 89q0 56 18.5 103.5t50 81.5t73.5 53t89 19q35 0 68 -11.5t61 -31.5l20 25q15 18 32 18q14 0 25 -10.5t11 -24.5q0 -15 -11 -29
l-26 -31q24 -32 37.5 -73t13.5 -89q0 -56 -18.5 -103.5t-50.5 -81.5t-74 -53t-88 -19zM275 65q30 0 57 14t47.5 39t32 59t11.5 75q0 27 -5.5 51.5t-15.5 45.5l-210 -254q36 -30 83 -30zM127 252q0 -54 20 -97l209 254q-36 30 -81 30q-30 0 -57 -14t-47.5 -39t-32 -59.5
t-11.5 -74.5zM308 707q16 11 30 11q17 0 26.5 -11t9.5 -25q0 -18 -13 -30l-99 -79q-16 -11 -30 -11q-16 0 -26.5 11.5t-10.5 25.5q0 17 14 28z" />
    <glyph glyph-name="ohungarumlaut" unicode="&#x151;" horiz-adv-x="550" 
d="M275 65q30 0 57 14t47.5 39t32 59t11.5 75q0 40 -11.5 74.5t-32 59.5t-47.5 39t-57 14t-57 -14t-47.5 -39t-32 -59.5t-11.5 -74.5q0 -41 11.5 -75t32 -59t47.5 -39t57 -14zM275 -5q-47 0 -88.5 19t-73.5 53t-50.5 81.5t-18.5 103.5t18.5 103.5t50 81.5t73.5 53t89 19
t89 -19t73.5 -53t50 -81.5t18.5 -103.5t-18.5 -103.5t-50.5 -81.5t-74 -53t-88 -19zM226 706q13 13 29 13q15 0 25.5 -11t10.5 -25q0 -13 -10 -23l-85 -84q-14 -14 -31 -14q-15 0 -25 10.5t-10 24.5t11 24zM394 706q13 13 29 13q15 0 25.5 -11t10.5 -25q0 -13 -10 -23
l-85 -84q-14 -14 -31 -14q-15 0 -25 10.5t-10 24.5t11 24z" />
    <glyph glyph-name="racute" unicode="&#x155;" horiz-adv-x="344" 
d="M333 465q0 -17 -10 -26.5t-23 -9.5q-5 0 -10.5 1t-11.5 3q-12 3 -23 3q-33 0 -64 -26q-13 -11 -22.5 -23t-14.5 -25q-8 -23 -8 -54v-272q0 -17 -11.5 -27.5t-28.5 -10.5t-28.5 10.5t-11.5 27.5v432q0 17 11.5 27.5t28.5 10.5t28.5 -10.5t11.5 -27.5v-29q29 36 61 53
t62 17q32 0 48 -13.5t16 -30.5zM226 707q16 11 30 11q17 0 26.5 -11t9.5 -25q0 -18 -13 -30l-99 -79q-16 -11 -30 -11q-16 0 -26.5 11.5t-10.5 25.5q0 17 14 28z" />
    <glyph glyph-name="rcommaaccent" unicode="&#x157;" horiz-adv-x="344" 
d="M333 465q0 -17 -10 -26.5t-23 -9.5q-5 0 -10.5 1t-11.5 3q-12 3 -23 3q-33 0 -64 -26q-13 -11 -22.5 -23t-14.5 -25q-8 -23 -8 -54v-272q0 -17 -11.5 -27.5t-28.5 -10.5t-28.5 10.5t-11.5 27.5v432q0 17 11.5 27.5t28.5 10.5t28.5 -10.5t11.5 -27.5v-29q29 36 61 53
t62 17q32 0 48 -13.5t16 -30.5zM66 -82q0 16 10.5 27t26.5 11q23 0 34 -17t11 -41q0 -23 -4 -40t-10 -28q-8 -13 -15.5 -16.5t-15.5 -3.5q-9 0 -19 5.5t-10 19.5q0 6 2.5 11.5t4.5 10.5l4 10.5t2 10.5q0 4 -8 11q-13 10 -13 29z" />
    <glyph glyph-name="rcaron" unicode="&#x159;" horiz-adv-x="344" 
d="M333 465q0 -17 -10 -26.5t-23 -9.5q-5 0 -10.5 1t-11.5 3q-12 3 -23 3q-33 0 -64 -26q-13 -11 -22.5 -23t-14.5 -25q-8 -23 -8 -54v-272q0 -17 -11.5 -27.5t-28.5 -10.5t-28.5 10.5t-11.5 27.5v432q0 17 11.5 27.5t28.5 10.5t28.5 -10.5t11.5 -27.5v-29q29 36 61 53
t62 17q32 0 48 -13.5t16 -30.5zM173 636l70 64q11 8 23 8q14 0 23 -9t9 -22q0 -15 -16 -30l-84 -76q-11 -10 -25 -10t-25 10l-84 76q-9 8 -13 16t-4 16q0 13 9 21.5t22 8.5t25 -9z" />
    <glyph glyph-name="sacute" unicode="&#x15b;" horiz-adv-x="430" 
d="M375 410q0 -16 -11 -25t-26 -9q-11 0 -20 5.5t-14 11.5q-10 12 -19 19q-33 27 -74 27q-25 0 -42 -6t-28 -15.5t-16 -21t-5 -21.5q0 -23 17.5 -42t68.5 -38l16 -6q48 -15 79 -32t49.5 -36t26 -40t7.5 -43q0 -34 -14.5 -60.5t-38.5 -45t-54.5 -28t-62.5 -9.5q-67 0 -122 35
q-22 14 -39 34t-17 39q0 17 10 28t24 11q17 0 29 -12q7 -6 18 -19t30 -27q12 -8 28.5 -13.5t43.5 -5.5q15 0 30.5 4t27.5 12.5t20 21.5t8 31q0 23 -23 42.5t-89 41.5l-15 6q-74 24 -104.5 60.5t-30.5 82.5q0 32 13.5 58t37 45t55.5 29t69 10q26 0 52 -7t47 -20
q20 -13 38.5 -32t19.5 -40zM249 707q16 11 30 11q17 0 26.5 -11t9.5 -25q0 -18 -13 -30l-99 -79q-16 -11 -30 -11q-16 0 -26.5 11.5t-10.5 25.5q0 17 14 28z" />
    <glyph glyph-name="scircumflex" unicode="&#x15d;" horiz-adv-x="430" 
d="M375 410q0 -16 -11 -25t-26 -9q-11 0 -20 5.5t-14 11.5q-10 12 -19 19q-33 27 -74 27q-25 0 -42 -6t-28 -15.5t-16 -21t-5 -21.5q0 -23 17.5 -42t68.5 -38l16 -6q48 -15 79 -32t49.5 -36t26 -40t7.5 -43q0 -34 -14.5 -60.5t-38.5 -45t-54.5 -28t-62.5 -9.5q-67 0 -122 35
q-22 14 -39 34t-17 39q0 17 10 28t24 11q17 0 29 -12q7 -6 18 -19t30 -27q12 -8 28.5 -13.5t43.5 -5.5q15 0 30.5 4t27.5 12.5t20 21.5t8 31q0 23 -23 42.5t-89 41.5l-15 6q-74 24 -104.5 60.5t-30.5 82.5q0 32 13.5 58t37 45t55.5 29t69 10q26 0 52 -7t47 -20
q20 -13 38.5 -32t19.5 -40zM215 634l-70 -64q-11 -8 -23 -8q-14 0 -23 9t-9 22q0 15 16 30l84 76q11 10 25 10t25 -10l84 -76q9 -8 13 -16t4 -16q0 -13 -9 -21.5t-22 -8.5t-25 9z" />
    <glyph glyph-name="scedilla" unicode="&#x15f;" horiz-adv-x="430" 
d="M301 -105q0 -30 -22 -52.5t-63 -22.5q-22 0 -37.5 3.5t-27.5 9.5q-11 5 -16.5 12.5t-5.5 15.5q0 9 6 16.5t17 7.5q6 0 16 -5q8 -4 19.5 -8t22.5 -4q12 0 21 6.5t9 20.5q0 18 -23 24q-7 2 -15 2.5t-14 1.5l-14 2q-25 4 -25 26q0 9 7 24l10 25q-41 8 -74 30q-22 14 -39 34
t-17 39q0 17 10 28t24 11q17 0 29 -12q7 -6 18 -19t30 -27q12 -8 28.5 -13.5t43.5 -5.5q15 0 30.5 4t27.5 12.5t20 21.5t8 31q0 12 -5.5 21.5t-18.5 19.5t-34.5 20t-53.5 23l-15 6q-72 29 -103.5 63t-31.5 80q0 32 13.5 58t37 45t55.5 29t69 10q26 0 52 -7t47 -20
q20 -13 38.5 -32t19.5 -40q0 -16 -11 -25t-26 -9q-11 0 -20 5.5t-14 11.5q-10 12 -19 19q-33 27 -74 27q-25 0 -42 -6t-28 -15.5t-16 -21t-5 -21.5q0 -23 17.5 -42t68.5 -38l16 -6q47 -18 78 -35t50 -35.5t26.5 -38.5t7.5 -42q0 -33 -14 -59t-36.5 -44.5t-52.5 -28.5
t-61 -11l-10 -28q38 -2 64.5 -17.5t26.5 -54.5z" />
    <glyph glyph-name="uni0219" unicode="&#x219;" horiz-adv-x="430" 
d="M375 410q0 -16 -11 -25t-26 -9q-11 0 -20 5.5t-14 11.5q-10 12 -19 19q-33 27 -74 27q-25 0 -42 -6t-28 -15.5t-16 -21t-5 -21.5q0 -23 17 -42.5t71 -37.5l19 -7q47 -16 77.5 -33t48 -35.5t24.5 -39t7 -42.5q0 -34 -14.5 -60.5t-38.5 -45t-54.5 -28t-62.5 -9.5
q-67 0 -122 35q-22 14 -39 34t-17 39q0 17 10 28t24 11q17 0 29 -12q7 -6 18 -19t30 -27q12 -8 28.5 -13.5t43.5 -5.5q15 0 30.5 4t27.5 12.5t20 21.5t8 31q0 12 -4.5 22t-17 19.5t-34 20t-55.5 22.5l-17 6q-75 26 -104.5 61.5t-29.5 81.5q0 32 13.5 58t37 45t55.5 29t69 10
q26 0 52 -7t47 -20q20 -13 38.5 -32t19.5 -40zM173 -82q0 16 10.5 27t26.5 11q23 0 34 -17t11 -41q0 -23 -4 -40t-10 -28q-8 -13 -15.5 -16.5t-15.5 -3.5q-9 0 -19 5.5t-10 19.5q0 6 2.5 11.5t4.5 10.5l4 10.5t2 10.5q0 4 -8 11q-13 10 -13 29z" />
    <glyph glyph-name="longs" unicode="&#x17f;" horiz-adv-x="246" 
d="M170 36q0 -17 -11.5 -27.5t-28.5 -10.5t-28.5 10.5t-11.5 27.5v398h-41q-14 0 -23.5 10.5t-9.5 24.5t9.5 24.5t23.5 10.5h41v34q0 33 3 54t10 39q15 38 51.5 62.5t82.5 24.5q17 0 27.5 -1.5t23.5 -5.5q16 -5 26 -14t10 -23t-9 -23t-22 -9t-22.5 3t-30.5 3
q-29 0 -49.5 -21.5t-20.5 -73.5v-517z" />
    <glyph glyph-name="tcaron" unicode="&#x165;" horiz-adv-x="332" 
d="M95 434h-46q-14 0 -23.5 10.5t-9.5 24.5t9.5 24.5t23.5 10.5h46v102q0 17 11.5 27.5t28.5 10.5t28.5 -10.5t11.5 -27.5v-102h104q14 0 23.5 -10.5t9.5 -24.5t-9.5 -24.5t-23.5 -10.5h-104v-301q0 -36 14 -49.5t37 -13.5q20 0 32.5 4.5t26.5 4.5t23 -9.5t9 -23.5
q0 -26 -38 -39q-26 -9 -60 -9q-35 0 -62 13.5t-43 39.5q-9 15 -14 38t-5 65v280zM346 682q0 -10 -2.5 -24.5t-6.5 -30.5t-9 -31.5t-10 -28.5q-7 -17 -17.5 -23t-21.5 -6q-14 0 -24.5 8.5t-10.5 21.5q0 2 0.5 6t2.5 12q6 23 11 46t9 47q2 18 14 27.5t27 9.5q38 0 38 -34z" />
    <glyph glyph-name="tbar" unicode="&#x167;" horiz-adv-x="337" 
d="M175 236v-103q0 -36 14 -49.5t37 -13.5q20 0 32.5 4.5t26.5 4.5t23 -9.5t9 -23.5q0 -26 -38 -39q-26 -9 -60 -9q-35 0 -62 13.5t-43 39.5q-9 15 -14 38t-5 65v82h-37q-19 0 -28 10.5t-9 23.5t9 23.5t28 10.5h37v130h-46q-14 0 -23.5 10.5t-9.5 24.5t9.5 24.5t23.5 10.5
h46v102q0 17 11.5 27.5t28.5 10.5t28.5 -10.5t11.5 -27.5v-102h104q14 0 23.5 -10.5t9.5 -24.5t-9.5 -24.5t-23.5 -10.5h-104v-130h84q19 0 28 -10.5t9 -23.5t-9 -23.5t-28 -10.5h-84z" />
    <glyph glyph-name="uni021B" unicode="&#x21b;" horiz-adv-x="337" 
d="M95 434h-46q-14 0 -23.5 10.5t-9.5 24.5t9.5 24.5t23.5 10.5h46v102q0 17 11.5 27.5t28.5 10.5t28.5 -10.5t11.5 -27.5v-102h104q14 0 23.5 -10.5t9.5 -24.5t-9.5 -24.5t-23.5 -10.5h-104v-301q0 -36 14 -49.5t37 -13.5q20 0 32.5 4.5t26.5 4.5t23 -9.5t9 -23.5
q0 -26 -38 -39q-26 -9 -60 -9q-35 0 -62 13.5t-43 39.5q-9 15 -14 38t-5 65v280zM144 -82q0 16 10.5 27t26.5 11q23 0 34 -17t11 -41q0 -23 -4 -40t-10 -28q-8 -13 -15.5 -16.5t-15.5 -3.5q-9 0 -19 5.5t-10 19.5q0 6 2.5 11.5t4.5 10.5l4 10.5t2 10.5q0 4 -8 11
q-13 10 -13 29z" />
    <glyph glyph-name="uni0163" unicode="&#x163;" horiz-adv-x="337" 
d="M279 -105q0 -30 -22 -52.5t-63 -22.5q-22 0 -37.5 3.5t-27.5 9.5q-11 5 -16.5 12.5t-5.5 15.5q0 9 6 16.5t17 7.5q6 0 16 -5q8 -4 19.5 -8t22.5 -4q12 0 21 6.5t9 20.5q0 18 -23 24q-7 2 -15 2.5t-14 1.5l-14 2q-25 4 -25 26q0 5 2 10.5l5 13.5l16 40q-11 6 -20 15.5
t-16 20.5q-9 15 -14 38t-5 65v280h-46q-14 0 -23.5 10.5t-9.5 24.5t9.5 24.5t23.5 10.5h46v102q0 17 11.5 27.5t28.5 10.5t28.5 -10.5t11.5 -27.5v-102h104q14 0 23.5 -10.5t9.5 -24.5t-9.5 -24.5t-23.5 -10.5h-104v-301q0 -36 14 -49.5t37 -13.5q20 0 32.5 4.5t26.5 4.5
t23 -9.5t9 -23.5q0 -26 -38 -39q-26 -9 -60 -9q-5 0 -9.5 0.5t-9.5 0.5l-12 -32q38 -2 64.5 -17.5t26.5 -54.5z" />
    <glyph glyph-name="utilde" unicode="&#x169;" horiz-adv-x="524" 
d="M146 187q0 -26 3 -43.5t8 -28.5q12 -25 34 -37.5t51 -12.5q26 0 54 10.5t49 30.5q12 11 22.5 30t10.5 57v275q0 17 11.5 27.5t28.5 10.5t28.5 -10.5t11.5 -27.5v-430q0 -17 -11.5 -28.5t-28.5 -11.5t-28.5 11.5t-11.5 28.5v26q-32 -35 -70 -52t-75 -17q-80 0 -123.5 48.5
t-43.5 135.5v289q0 17 11.5 27.5t28.5 10.5t28.5 -10.5t11.5 -27.5v-281zM320 573q-22 0 -39.5 8.5t-32.5 18t-26.5 18t-21.5 8.5q-9 -1 -15 -9.5t-11 -19.5q-11 -24 -34 -24q-11 0 -19 7t-8 20q0 10 6 25.5t18 30.5t29 25.5t38 10.5t38.5 -8.5t32 -18l26.5 -18t23 -8.5
q9 1 15 9.5t11 19.5q10 24 34 24q11 0 19 -7t8 -20q0 -10 -6 -25.5t-18 -30.5t-29 -25.5t-38 -10.5z" />
    <glyph glyph-name="umacron" unicode="&#x16b;" horiz-adv-x="524" 
d="M146 187q0 -26 3 -43.5t8 -28.5q12 -25 34 -37.5t51 -12.5q26 0 54 10.5t49 30.5q12 11 22.5 30t10.5 57v275q0 17 11.5 27.5t28.5 10.5t28.5 -10.5t11.5 -27.5v-430q0 -17 -11.5 -28.5t-28.5 -11.5t-28.5 11.5t-11.5 28.5v26q-32 -35 -70 -52t-75 -17q-80 0 -123.5 48.5
t-43.5 135.5v289q0 17 11.5 27.5t28.5 10.5t28.5 -10.5t11.5 -27.5v-281zM151 595q-19 0 -28 10.5t-9 23.5t9 23.5t28 10.5h221q19 0 28 -10.5t9 -23.5t-9 -23.5t-28 -10.5h-221z" />
    <glyph glyph-name="ubreve" unicode="&#x16d;" horiz-adv-x="524" 
d="M146 187q0 -26 3 -43.5t8 -28.5q12 -25 34 -37.5t51 -12.5q26 0 54 10.5t49 30.5q12 11 22.5 30t10.5 57v275q0 17 11.5 27.5t28.5 10.5t28.5 -10.5t11.5 -27.5v-430q0 -17 -11.5 -28.5t-28.5 -11.5t-28.5 11.5t-11.5 28.5v26q-32 -35 -70 -52t-75 -17q-80 0 -123.5 48.5
t-43.5 135.5v289q0 17 11.5 27.5t28.5 10.5t28.5 -10.5t11.5 -27.5v-281zM262 564q-33 0 -56.5 12.5t-38 30t-21 36.5t-6.5 33q0 17 10 25.5t23 8.5q27 0 34 -29q2 -8 6 -17.5t10 -18t15.5 -14t23.5 -5.5t24 5.5t16 14t10 18t6 17.5q6 29 33 29q14 0 24 -8.5t10 -25.5
q0 -14 -6.5 -33t-21.5 -36.5t-38.5 -30t-56.5 -12.5z" />
    <glyph glyph-name="uring" unicode="&#x16f;" horiz-adv-x="524" 
d="M146 187q0 -26 3 -43.5t8 -28.5q12 -25 34 -37.5t51 -12.5q26 0 54 10.5t49 30.5q12 11 22.5 30t10.5 57v275q0 17 11.5 27.5t28.5 10.5t28.5 -10.5t11.5 -27.5v-430q0 -17 -11.5 -28.5t-28.5 -11.5t-28.5 11.5t-11.5 28.5v26q-32 -35 -70 -52t-75 -17q-80 0 -123.5 48.5
t-43.5 135.5v289q0 17 11.5 27.5t28.5 10.5t28.5 -10.5t11.5 -27.5v-281zM177 634q0 35 25 60t60 25t60 -25t25 -60q0 -18 -7 -33.5t-18.5 -27t-27 -18.5t-32.5 -7t-32.5 7t-27 18.5t-18.5 27t-7 33.5zM216 634q0 -20 13 -33.5t33 -13.5q19 0 32 13.5t13 33.5q0 18 -13 31.5
t-32 13.5q-20 0 -33 -13.5t-13 -31.5z" />
    <glyph glyph-name="uhungarumlaut" unicode="&#x171;" horiz-adv-x="524" 
d="M146 187q0 -26 3 -43.5t8 -28.5q12 -25 34 -37.5t51 -12.5q26 0 54 10.5t49 30.5q12 11 22.5 30t10.5 57v275q0 17 11.5 27.5t28.5 10.5t28.5 -10.5t11.5 -27.5v-430q0 -17 -11.5 -28.5t-28.5 -11.5t-28.5 11.5t-11.5 28.5v26q-32 -35 -70 -52t-75 -17q-80 0 -123.5 48.5
t-43.5 135.5v289q0 17 11.5 27.5t28.5 10.5t28.5 -10.5t11.5 -27.5v-281zM214 706q13 13 29 13q15 0 25.5 -11t10.5 -25q0 -13 -10 -23l-85 -84q-14 -14 -31 -14q-15 0 -25 10.5t-10 24.5t11 24zM382 706q13 13 29 13q15 0 25.5 -11t10.5 -25q0 -13 -10 -23l-85 -84
q-14 -14 -31 -14q-15 0 -25 10.5t-10 24.5t11 24z" />
    <glyph glyph-name="uogonek" unicode="&#x173;" horiz-adv-x="524" 
d="M146 187q0 -26 3 -43.5t8 -28.5q12 -25 34 -37.5t51 -12.5q26 0 54 10.5t49 30.5q12 11 22.5 30t10.5 57v275q0 17 11.5 27.5t28.5 10.5t28.5 -10.5t11.5 -27.5v-416q0 -27 -5 -40t-27 -27q-26 -17 -38 -29q-17 -17 -17 -32q0 -22 25 -22q15 0 31 10q10 6 18 10t16 4
q11 0 20 -9.5t9 -23.5q0 -18 -24 -34q-15 -11 -37 -17.5t-45 -6.5q-36 0 -61.5 19t-25.5 56q0 31 19 54.5t51 45.5q7 5 10 8.5t3 9.5l-1 36q-32 -35 -70.5 -52t-75.5 -17q-80 0 -123.5 48.5t-43.5 135.5v289q0 17 11.5 27.5t28.5 10.5t28.5 -10.5t11.5 -27.5v-281z" />
    <glyph glyph-name="wcircumflex" unicode="&#x175;" horiz-adv-x="768" 
d="M382 378l-49.5 -137l-36 -96.5t-27.5 -69l-23 -54.5q-5 -13 -17 -18.5t-21 -5.5q-27 0 -37 24q-43 112 -74 213.5t-60 207.5l-4 16t-1 9q0 17 11 28t28 11q13 0 23 -7t15 -22l22.5 -82.5l26.5 -92l28.5 -95.5t29.5 -93l26.5 75l30.5 89.5l34.5 98.5t39.5 103q11 26 37 26
t37 -26l35 -89l37.5 -101l35 -97.5l27.5 -78.5q15 45 29 93l27 95.5l24.5 92t22.5 82.5q5 15 15 22t23 7q17 0 28 -11t11 -28q0 -5 -0.5 -9t-4.5 -16l-61.5 -207.5t-73.5 -213.5q-5 -11 -16 -17.5t-22 -6.5q-10 0 -21 5.5t-16 18.5l-23.5 54.5t-28.5 69l-37.5 96.5
t-49.5 137zM383 634l-70 -64q-11 -8 -23 -8q-14 0 -23 9t-9 22q0 15 16 30l84 76q11 10 25 10t25 -10l84 -76q9 -8 13 -16t4 -16q0 -13 -9 -21.5t-22 -8.5t-25 9z" />
    </font>
</defs>
</svg>
